%TF.GenerationSoftware,KiCad,Pcbnew,8.0.4-8.0.4-0~ubuntu22.04.1*%
%TF.CreationDate,2024-08-24T10:10:09-03:00*%
%TF.ProjectId,demodulador_sicom,64656d6f-6475-46c6-9164-6f725f736963,rev?*%
%TF.SameCoordinates,Original*%
%TF.FileFunction,Copper,L2,Bot*%
%TF.FilePolarity,Positive*%
%FSLAX46Y46*%
G04 Gerber Fmt 4.6, Leading zero omitted, Abs format (unit mm)*
G04 Created by KiCad (PCBNEW 8.0.4-8.0.4-0~ubuntu22.04.1) date 2024-08-24 10:10:09*
%MOMM*%
%LPD*%
G01*
G04 APERTURE LIST*
%TA.AperFunction,ComponentPad*%
%ADD10C,3.500000*%
%TD*%
%TA.AperFunction,ComponentPad*%
%ADD11C,1.500000*%
%TD*%
%TA.AperFunction,ComponentPad*%
%ADD12R,1.700000X1.700000*%
%TD*%
%TA.AperFunction,ComponentPad*%
%ADD13O,1.700000X1.700000*%
%TD*%
%TA.AperFunction,ComponentPad*%
%ADD14R,1.800000X1.800000*%
%TD*%
%TA.AperFunction,ComponentPad*%
%ADD15C,1.800000*%
%TD*%
%TA.AperFunction,ComponentPad*%
%ADD16R,1.600000X1.600000*%
%TD*%
%TA.AperFunction,ComponentPad*%
%ADD17C,1.600000*%
%TD*%
%TA.AperFunction,Conductor*%
%ADD18C,0.700000*%
%TD*%
G04 APERTURE END LIST*
D10*
%TO.P,J4,1,In*%
%TO.N,/SSB*%
X162920000Y-96280000D03*
%TO.P,J4,2,Ext*%
%TO.N,GND*%
X166360000Y-92840000D03*
X166360000Y-99720000D03*
X159480000Y-92840000D03*
X159480000Y-99720000D03*
%TD*%
%TO.P,J3,1,In*%
%TO.N,/CARRIER*%
X180500000Y-117200000D03*
%TO.P,J3,2,Ext*%
%TO.N,GND*%
X183940000Y-113760000D03*
X183940000Y-120640000D03*
X177060000Y-113760000D03*
X177060000Y-120640000D03*
%TD*%
%TO.P,J2,1,In*%
%TO.N,/OUTPUT*%
X180500000Y-96000000D03*
%TO.P,J2,2,Ext*%
%TO.N,GND*%
X183940000Y-92560000D03*
X183940000Y-99440000D03*
X177060000Y-92560000D03*
X177060000Y-99440000D03*
%TD*%
D11*
%TO.P,H4,1,Via*%
%TO.N,GND*%
X156600000Y-120200000D03*
%TD*%
%TO.P,H5,1,Via*%
%TO.N,+12V*%
X172400000Y-115000000D03*
%TD*%
%TO.P,H4,1,Via*%
%TO.N,GND*%
X170200000Y-104400000D03*
%TD*%
%TO.P,H4,1,Via*%
%TO.N,GND*%
X167700000Y-120600000D03*
%TD*%
%TO.P,H4,1,Via*%
%TO.N,GND*%
X148700000Y-91100000D03*
%TD*%
%TO.P,H4,1,Via*%
%TO.N,GND*%
X166300000Y-109800000D03*
%TD*%
%TO.P,H4,1,Via*%
%TO.N,GND*%
X149600000Y-110500000D03*
%TD*%
%TO.P,H4,1,Via*%
%TO.N,GND*%
X153900000Y-98800000D03*
%TD*%
%TO.P,H4,1,Via*%
%TO.N,GND*%
X166000000Y-106500000D03*
%TD*%
%TO.P,H4,1,Via*%
%TO.N,GND*%
X146600000Y-100700000D03*
%TD*%
%TO.P,H4,1,Via*%
%TO.N,GND*%
X176300000Y-109500000D03*
%TD*%
%TO.P,H5,1,Via*%
%TO.N,+12V*%
X158900000Y-120200000D03*
%TD*%
%TO.P,H4,1,Via*%
%TO.N,GND*%
X147000000Y-121600000D03*
%TD*%
%TO.P,H4,1,Via*%
%TO.N,GND*%
X154400000Y-104600000D03*
%TD*%
%TO.P,H4,1,Via*%
%TO.N,GND*%
X142100000Y-96700000D03*
%TD*%
%TO.P,H4,1,Via*%
%TO.N,GND*%
X176400000Y-103200000D03*
%TD*%
%TO.P,H5,1,Via*%
%TO.N,+12V*%
X146900000Y-114800000D03*
%TD*%
%TO.P,H4,1,Via*%
%TO.N,GND*%
X144300000Y-91200000D03*
%TD*%
%TO.P,H4,1,Via*%
%TO.N,GND*%
X170900000Y-95000000D03*
%TD*%
%TO.P,H4,1,Via*%
%TO.N,GND*%
X139600000Y-108400000D03*
%TD*%
%TO.P,H4,1,Via*%
%TO.N,GND*%
X159100000Y-104300000D03*
%TD*%
D12*
%TO.P,J1,1,Pin_1*%
%TO.N,Net-(D2-A)*%
X140700000Y-94500000D03*
D13*
%TO.P,J1,2,Pin_2*%
%TO.N,GND*%
X140700000Y-91960000D03*
%TD*%
D14*
%TO.P,D1,1,K*%
%TO.N,GND*%
X139600000Y-111400000D03*
D15*
%TO.P,D1,2,A*%
%TO.N,Net-(D1-A)*%
X142140000Y-111400000D03*
%TD*%
D16*
%TO.P,C13,1*%
%TO.N,/V_IN*%
X145000000Y-104500000D03*
D17*
%TO.P,C13,2*%
%TO.N,GND*%
X142500000Y-104500000D03*
%TD*%
D16*
%TO.P,C12,1*%
%TO.N,+12V*%
X147594888Y-107000000D03*
D17*
%TO.P,C12,2*%
%TO.N,GND*%
X150094888Y-107000000D03*
%TD*%
D18*
%TO.N,+12V*%
X152700000Y-114400000D02*
X152700000Y-116800000D01*
X167000000Y-118800000D02*
X164600000Y-121200000D01*
X154300000Y-118400000D02*
X157122500Y-118400000D01*
X167700000Y-115100000D02*
X167000000Y-115800000D01*
X164600000Y-121200000D02*
X159922500Y-121200000D01*
X167000000Y-115800000D02*
X167000000Y-118800000D01*
X150200000Y-114700000D02*
X151100000Y-113800000D01*
X157122500Y-118400000D02*
X158880000Y-120157500D01*
X147100000Y-114700000D02*
X150200000Y-114700000D01*
X172450000Y-114500000D02*
X171700000Y-114500000D01*
X152700000Y-116800000D02*
X154300000Y-118400000D01*
X171100000Y-115100000D02*
X167700000Y-115100000D01*
X171700000Y-114500000D02*
X171100000Y-115100000D01*
X151100000Y-113800000D02*
X152100000Y-113800000D01*
X152100000Y-113800000D02*
X152700000Y-114400000D01*
X159922500Y-121200000D02*
X158880000Y-120157500D01*
%TD*%
%TA.AperFunction,Conductor*%
%TO.N,GND*%
G36*
X186442539Y-89220185D02*
G01*
X186488294Y-89272989D01*
X186499500Y-89324500D01*
X186499500Y-123075500D01*
X186479815Y-123142539D01*
X186427011Y-123188294D01*
X186375500Y-123199500D01*
X137624500Y-123199500D01*
X137557461Y-123179815D01*
X137511706Y-123127011D01*
X137500500Y-123075500D01*
X137500500Y-122698017D01*
X146396955Y-122698017D01*
X146570840Y-122779101D01*
X146570849Y-122779105D01*
X146782105Y-122835710D01*
X146782115Y-122835712D01*
X146999999Y-122854775D01*
X147000001Y-122854775D01*
X147217884Y-122835712D01*
X147217894Y-122835710D01*
X147429150Y-122779105D01*
X147429159Y-122779101D01*
X147603044Y-122698018D01*
X147000001Y-122094974D01*
X147000000Y-122094974D01*
X146396955Y-122698017D01*
X137500500Y-122698017D01*
X137500500Y-121599999D01*
X145745225Y-121599999D01*
X145745225Y-121600000D01*
X145764287Y-121817884D01*
X145764289Y-121817894D01*
X145820894Y-122029150D01*
X145820899Y-122029164D01*
X145901980Y-122203044D01*
X146505025Y-121600000D01*
X146505025Y-121599999D01*
X146458948Y-121553922D01*
X146650000Y-121553922D01*
X146650000Y-121646078D01*
X146673852Y-121735095D01*
X146719930Y-121814905D01*
X146785095Y-121880070D01*
X146864905Y-121926148D01*
X146953922Y-121950000D01*
X147046078Y-121950000D01*
X147135095Y-121926148D01*
X147214905Y-121880070D01*
X147280070Y-121814905D01*
X147326148Y-121735095D01*
X147350000Y-121646078D01*
X147350000Y-121599999D01*
X147494974Y-121599999D01*
X147494974Y-121600000D01*
X148098018Y-122203044D01*
X148179101Y-122029159D01*
X148179105Y-122029150D01*
X148235710Y-121817894D01*
X148235712Y-121817884D01*
X148254775Y-121600000D01*
X148254775Y-121599999D01*
X148235712Y-121382115D01*
X148235710Y-121382105D01*
X148213179Y-121298017D01*
X155996955Y-121298017D01*
X156170840Y-121379101D01*
X156170849Y-121379105D01*
X156382105Y-121435710D01*
X156382115Y-121435712D01*
X156599999Y-121454775D01*
X156600001Y-121454775D01*
X156817884Y-121435712D01*
X156817894Y-121435710D01*
X157029150Y-121379105D01*
X157029159Y-121379101D01*
X157203044Y-121298018D01*
X156600001Y-120694974D01*
X156600000Y-120694974D01*
X155996955Y-121298017D01*
X148213179Y-121298017D01*
X148179105Y-121170849D01*
X148179101Y-121170840D01*
X148098017Y-120996955D01*
X147494974Y-121599999D01*
X147350000Y-121599999D01*
X147350000Y-121553922D01*
X147326148Y-121464905D01*
X147280070Y-121385095D01*
X147214905Y-121319930D01*
X147135095Y-121273852D01*
X147046078Y-121250000D01*
X146953922Y-121250000D01*
X146864905Y-121273852D01*
X146785095Y-121319930D01*
X146719930Y-121385095D01*
X146673852Y-121464905D01*
X146650000Y-121553922D01*
X146458948Y-121553922D01*
X145901980Y-120996954D01*
X145820899Y-121170835D01*
X145820894Y-121170849D01*
X145764289Y-121382105D01*
X145764287Y-121382115D01*
X145745225Y-121599999D01*
X137500500Y-121599999D01*
X137500500Y-119278711D01*
X140449500Y-119278711D01*
X140449500Y-119521288D01*
X140481161Y-119761785D01*
X140543947Y-119996104D01*
X140628404Y-120200000D01*
X140636776Y-120220212D01*
X140758064Y-120430289D01*
X140758066Y-120430292D01*
X140758067Y-120430293D01*
X140905733Y-120622736D01*
X140905739Y-120622743D01*
X141077256Y-120794260D01*
X141077263Y-120794266D01*
X141108038Y-120817880D01*
X141269711Y-120941936D01*
X141479788Y-121063224D01*
X141703900Y-121156054D01*
X141938211Y-121218838D01*
X142118586Y-121242584D01*
X142178711Y-121250500D01*
X142178712Y-121250500D01*
X142421289Y-121250500D01*
X142469388Y-121244167D01*
X142661789Y-121218838D01*
X142896100Y-121156054D01*
X143120212Y-121063224D01*
X143330289Y-120941936D01*
X143522738Y-120794265D01*
X143694265Y-120622738D01*
X143786926Y-120501980D01*
X146396954Y-120501980D01*
X147000000Y-121105025D01*
X147000001Y-121105025D01*
X147603044Y-120501980D01*
X147429164Y-120420899D01*
X147429150Y-120420894D01*
X147217894Y-120364289D01*
X147217884Y-120364287D01*
X147000001Y-120345225D01*
X146999999Y-120345225D01*
X146782115Y-120364287D01*
X146782105Y-120364289D01*
X146570849Y-120420894D01*
X146570835Y-120420899D01*
X146396954Y-120501980D01*
X143786926Y-120501980D01*
X143841936Y-120430289D01*
X143963224Y-120220212D01*
X144056054Y-119996100D01*
X144118838Y-119761789D01*
X144150500Y-119521288D01*
X144150500Y-119278712D01*
X144149377Y-119270185D01*
X144133973Y-119153174D01*
X144118838Y-119038211D01*
X144056054Y-118803900D01*
X143963224Y-118579788D01*
X143841936Y-118369711D01*
X143694265Y-118177262D01*
X143694260Y-118177256D01*
X143522743Y-118005739D01*
X143522736Y-118005733D01*
X143330293Y-117858067D01*
X143330292Y-117858066D01*
X143330289Y-117858064D01*
X143124710Y-117739373D01*
X143120214Y-117736777D01*
X143120205Y-117736773D01*
X142896104Y-117643947D01*
X142665603Y-117582184D01*
X142661789Y-117581162D01*
X142661788Y-117581161D01*
X142661785Y-117581161D01*
X142421289Y-117549500D01*
X142421288Y-117549500D01*
X142178712Y-117549500D01*
X142178711Y-117549500D01*
X141938214Y-117581161D01*
X141703895Y-117643947D01*
X141479794Y-117736773D01*
X141479785Y-117736777D01*
X141269706Y-117858067D01*
X141077263Y-118005733D01*
X141077256Y-118005739D01*
X140905739Y-118177256D01*
X140905733Y-118177263D01*
X140758067Y-118369706D01*
X140636777Y-118579785D01*
X140636773Y-118579794D01*
X140543947Y-118803895D01*
X140481161Y-119038214D01*
X140449500Y-119278711D01*
X137500500Y-119278711D01*
X137500500Y-114800000D01*
X145644723Y-114800000D01*
X145662220Y-115000002D01*
X145663793Y-115017975D01*
X145663793Y-115017979D01*
X145720422Y-115229322D01*
X145720424Y-115229326D01*
X145720425Y-115229330D01*
X145766661Y-115328484D01*
X145812897Y-115427638D01*
X145831146Y-115453700D01*
X145938402Y-115606877D01*
X146093123Y-115761598D01*
X146272361Y-115887102D01*
X146470670Y-115979575D01*
X146682023Y-116036207D01*
X146864926Y-116052208D01*
X146899998Y-116055277D01*
X146900000Y-116055277D01*
X146900002Y-116055277D01*
X146928254Y-116052805D01*
X147117977Y-116036207D01*
X147329330Y-115979575D01*
X147527639Y-115887102D01*
X147706877Y-115761598D01*
X147861598Y-115606877D01*
X147864050Y-115603374D01*
X147918628Y-115559751D01*
X147965624Y-115550500D01*
X150283768Y-115550500D01*
X150283769Y-115550499D01*
X150338538Y-115539605D01*
X150448074Y-115517818D01*
X150448078Y-115517816D01*
X150448082Y-115517816D01*
X150493415Y-115499037D01*
X150602863Y-115453704D01*
X150742162Y-115360627D01*
X151415969Y-114686818D01*
X151477292Y-114653334D01*
X151503650Y-114650500D01*
X151696348Y-114650500D01*
X151763387Y-114670185D01*
X151784028Y-114686817D01*
X151813180Y-114715968D01*
X151846666Y-114777291D01*
X151849500Y-114803651D01*
X151849500Y-116883771D01*
X151882181Y-117048073D01*
X151882184Y-117048082D01*
X151946296Y-117202863D01*
X151946297Y-117202866D01*
X152039372Y-117342161D01*
X152039375Y-117342165D01*
X153757834Y-119060624D01*
X153757838Y-119060627D01*
X153897137Y-119153704D01*
X153897139Y-119153705D01*
X153897143Y-119153707D01*
X153979222Y-119187703D01*
X154006584Y-119199037D01*
X154051918Y-119217816D01*
X154155412Y-119238402D01*
X154216228Y-119250499D01*
X154216232Y-119250500D01*
X154216233Y-119250500D01*
X154216234Y-119250500D01*
X154383767Y-119250500D01*
X155500677Y-119250500D01*
X155567716Y-119270185D01*
X155613471Y-119322989D01*
X155623415Y-119392147D01*
X155602252Y-119445623D01*
X155513335Y-119572608D01*
X155513333Y-119572612D01*
X155420898Y-119770840D01*
X155420894Y-119770849D01*
X155364289Y-119982105D01*
X155364287Y-119982115D01*
X155345225Y-120199999D01*
X155345225Y-120200000D01*
X155364287Y-120417884D01*
X155364289Y-120417894D01*
X155420894Y-120629150D01*
X155420899Y-120629164D01*
X155501980Y-120803044D01*
X156512318Y-119792706D01*
X156573641Y-119759221D01*
X156643333Y-119764205D01*
X156687680Y-119792706D01*
X156814902Y-119919928D01*
X156735095Y-119873852D01*
X156646078Y-119850000D01*
X156553922Y-119850000D01*
X156464905Y-119873852D01*
X156385095Y-119919930D01*
X156319930Y-119985095D01*
X156273852Y-120064905D01*
X156250000Y-120153922D01*
X156250000Y-120246078D01*
X156273852Y-120335095D01*
X156319930Y-120414905D01*
X156385095Y-120480070D01*
X156464905Y-120526148D01*
X156553922Y-120550000D01*
X156646078Y-120550000D01*
X156735095Y-120526148D01*
X156814905Y-120480070D01*
X156880070Y-120414905D01*
X156926148Y-120335095D01*
X156950000Y-120246078D01*
X156950000Y-120153922D01*
X156926148Y-120064905D01*
X156880071Y-119985097D01*
X157698017Y-120803043D01*
X157707146Y-120801434D01*
X157776585Y-120809178D01*
X157830253Y-120852426D01*
X157938402Y-121006877D01*
X158093123Y-121161598D01*
X158272361Y-121287102D01*
X158470670Y-121379575D01*
X158682023Y-121436207D01*
X158900000Y-121455277D01*
X158911350Y-121454283D01*
X158979847Y-121468047D01*
X159009841Y-121490130D01*
X159380334Y-121860624D01*
X159380338Y-121860627D01*
X159519637Y-121953704D01*
X159519639Y-121953705D01*
X159519643Y-121953707D01*
X159547978Y-121965443D01*
X159629084Y-121999037D01*
X159674418Y-122017816D01*
X159731444Y-122029159D01*
X159838728Y-122050499D01*
X159838732Y-122050500D01*
X159838733Y-122050500D01*
X164683768Y-122050500D01*
X164683769Y-122050499D01*
X164738538Y-122039605D01*
X164848074Y-122017818D01*
X164848078Y-122017816D01*
X164848082Y-122017816D01*
X164893415Y-121999037D01*
X165002863Y-121953704D01*
X165142162Y-121860627D01*
X165304772Y-121698017D01*
X167096955Y-121698017D01*
X167270840Y-121779101D01*
X167270849Y-121779105D01*
X167482105Y-121835710D01*
X167482115Y-121835712D01*
X167699999Y-121854775D01*
X167700001Y-121854775D01*
X167917884Y-121835712D01*
X167917894Y-121835710D01*
X168129150Y-121779105D01*
X168129159Y-121779101D01*
X168303044Y-121698018D01*
X167700001Y-121094974D01*
X167700000Y-121094974D01*
X167096955Y-121698017D01*
X165304772Y-121698017D01*
X166253978Y-120748810D01*
X166315297Y-120715328D01*
X166384988Y-120720312D01*
X166440922Y-120762183D01*
X166462788Y-120812686D01*
X166462887Y-120812660D01*
X166463065Y-120813326D01*
X166463769Y-120814951D01*
X166464285Y-120817880D01*
X166520894Y-121029150D01*
X166520899Y-121029164D01*
X166601980Y-121203044D01*
X167251102Y-120553922D01*
X167350000Y-120553922D01*
X167350000Y-120646078D01*
X167373852Y-120735095D01*
X167419930Y-120814905D01*
X167485095Y-120880070D01*
X167564905Y-120926148D01*
X167653922Y-120950000D01*
X167746078Y-120950000D01*
X167835095Y-120926148D01*
X167914905Y-120880070D01*
X167980070Y-120814905D01*
X168026148Y-120735095D01*
X168050000Y-120646078D01*
X168050000Y-120599999D01*
X168194974Y-120599999D01*
X168194974Y-120600000D01*
X168798018Y-121203044D01*
X168879101Y-121029159D01*
X168879105Y-121029150D01*
X168935710Y-120817894D01*
X168935712Y-120817884D01*
X168951275Y-120640000D01*
X174805172Y-120640000D01*
X174824462Y-120934312D01*
X174824464Y-120934324D01*
X174882001Y-121223584D01*
X174882005Y-121223599D01*
X174976812Y-121502888D01*
X175107258Y-121767406D01*
X175107265Y-121767419D01*
X175239581Y-121965442D01*
X176340999Y-120864024D01*
X176395359Y-120995258D01*
X176477437Y-121118097D01*
X176581903Y-121222563D01*
X176704742Y-121304641D01*
X176835974Y-121358999D01*
X175734555Y-122460418D01*
X175932580Y-122592734D01*
X175932593Y-122592741D01*
X176197111Y-122723187D01*
X176476400Y-122817994D01*
X176476415Y-122817998D01*
X176765675Y-122875535D01*
X176765687Y-122875537D01*
X177060000Y-122894827D01*
X177354312Y-122875537D01*
X177354324Y-122875535D01*
X177643584Y-122817998D01*
X177643599Y-122817994D01*
X177922888Y-122723187D01*
X178187410Y-122592740D01*
X178385443Y-122460418D01*
X177284025Y-121359000D01*
X177415258Y-121304641D01*
X177538097Y-121222563D01*
X177642563Y-121118097D01*
X177724641Y-120995258D01*
X177779000Y-120864025D01*
X178880418Y-121965443D01*
X179012740Y-121767410D01*
X179143187Y-121502888D01*
X179237994Y-121223599D01*
X179237998Y-121223584D01*
X179295535Y-120934324D01*
X179295537Y-120934312D01*
X179314827Y-120640000D01*
X181685172Y-120640000D01*
X181704462Y-120934312D01*
X181704464Y-120934324D01*
X181762001Y-121223584D01*
X181762005Y-121223599D01*
X181856812Y-121502888D01*
X181987258Y-121767406D01*
X181987265Y-121767419D01*
X182119581Y-121965442D01*
X183220999Y-120864024D01*
X183275359Y-120995258D01*
X183357437Y-121118097D01*
X183461903Y-121222563D01*
X183584742Y-121304641D01*
X183715974Y-121358999D01*
X182614555Y-122460418D01*
X182812580Y-122592734D01*
X182812593Y-122592741D01*
X183077111Y-122723187D01*
X183356400Y-122817994D01*
X183356415Y-122817998D01*
X183645675Y-122875535D01*
X183645687Y-122875537D01*
X183940000Y-122894827D01*
X184234312Y-122875537D01*
X184234324Y-122875535D01*
X184523584Y-122817998D01*
X184523599Y-122817994D01*
X184802888Y-122723187D01*
X185067410Y-122592740D01*
X185265443Y-122460418D01*
X184164025Y-121359000D01*
X184295258Y-121304641D01*
X184418097Y-121222563D01*
X184522563Y-121118097D01*
X184604641Y-120995258D01*
X184659000Y-120864025D01*
X185760418Y-121965443D01*
X185892740Y-121767410D01*
X186023187Y-121502888D01*
X186117994Y-121223599D01*
X186117998Y-121223584D01*
X186175535Y-120934324D01*
X186175537Y-120934312D01*
X186194827Y-120640000D01*
X186175537Y-120345687D01*
X186175535Y-120345675D01*
X186117998Y-120056415D01*
X186117994Y-120056400D01*
X186023187Y-119777111D01*
X185892741Y-119512593D01*
X185892734Y-119512580D01*
X185760418Y-119314555D01*
X184658999Y-120415974D01*
X184604641Y-120284742D01*
X184522563Y-120161903D01*
X184418097Y-120057437D01*
X184295258Y-119975359D01*
X184164025Y-119921000D01*
X185265442Y-118819581D01*
X185067419Y-118687265D01*
X185067406Y-118687258D01*
X184802888Y-118556812D01*
X184523599Y-118462005D01*
X184523584Y-118462001D01*
X184234324Y-118404464D01*
X184234312Y-118404462D01*
X183940000Y-118385172D01*
X183645687Y-118404462D01*
X183645675Y-118404464D01*
X183356415Y-118462001D01*
X183356400Y-118462005D01*
X183077111Y-118556812D01*
X182812585Y-118687262D01*
X182614556Y-118819581D01*
X183715974Y-119920999D01*
X183584742Y-119975359D01*
X183461903Y-120057437D01*
X183357437Y-120161903D01*
X183275359Y-120284742D01*
X183220999Y-120415974D01*
X182119581Y-119314556D01*
X181987262Y-119512585D01*
X181856812Y-119777111D01*
X181762005Y-120056400D01*
X181762001Y-120056415D01*
X181704464Y-120345675D01*
X181704462Y-120345687D01*
X181685172Y-120640000D01*
X179314827Y-120640000D01*
X179295537Y-120345687D01*
X179295535Y-120345675D01*
X179237998Y-120056415D01*
X179237994Y-120056400D01*
X179143187Y-119777111D01*
X179012741Y-119512593D01*
X179012734Y-119512580D01*
X178880418Y-119314555D01*
X177778999Y-120415974D01*
X177724641Y-120284742D01*
X177642563Y-120161903D01*
X177538097Y-120057437D01*
X177415258Y-119975359D01*
X177284025Y-119921000D01*
X178385442Y-118819581D01*
X178187419Y-118687265D01*
X178187406Y-118687258D01*
X177922888Y-118556812D01*
X177643599Y-118462005D01*
X177643584Y-118462001D01*
X177354324Y-118404464D01*
X177354312Y-118404462D01*
X177060000Y-118385172D01*
X176765687Y-118404462D01*
X176765675Y-118404464D01*
X176476415Y-118462001D01*
X176476400Y-118462005D01*
X176197111Y-118556812D01*
X175932585Y-118687262D01*
X175734556Y-118819581D01*
X176835974Y-119920999D01*
X176704742Y-119975359D01*
X176581903Y-120057437D01*
X176477437Y-120161903D01*
X176395359Y-120284742D01*
X176340999Y-120415974D01*
X175239581Y-119314556D01*
X175107262Y-119512585D01*
X174976812Y-119777111D01*
X174882005Y-120056400D01*
X174882001Y-120056415D01*
X174824464Y-120345675D01*
X174824462Y-120345687D01*
X174805172Y-120640000D01*
X168951275Y-120640000D01*
X168954775Y-120600000D01*
X168954775Y-120599999D01*
X168935712Y-120382115D01*
X168935710Y-120382105D01*
X168879105Y-120170849D01*
X168879101Y-120170840D01*
X168798017Y-119996955D01*
X168194974Y-120599999D01*
X168050000Y-120599999D01*
X168050000Y-120553922D01*
X168026148Y-120464905D01*
X167980070Y-120385095D01*
X167914905Y-120319930D01*
X167835095Y-120273852D01*
X167746078Y-120250000D01*
X167653922Y-120250000D01*
X167564905Y-120273852D01*
X167485095Y-120319930D01*
X167419930Y-120385095D01*
X167373852Y-120464905D01*
X167350000Y-120553922D01*
X167251102Y-120553922D01*
X168303044Y-119501980D01*
X168129164Y-119420899D01*
X168129150Y-119420894D01*
X167917894Y-119364289D01*
X167917884Y-119364287D01*
X167863388Y-119359519D01*
X167798319Y-119334065D01*
X167757342Y-119277474D01*
X167753465Y-119207712D01*
X167759632Y-119188549D01*
X167791259Y-119112194D01*
X167817816Y-119048082D01*
X167850500Y-118883767D01*
X167850500Y-117199992D01*
X178244671Y-117199992D01*
X178244671Y-117200007D01*
X178263964Y-117494363D01*
X178263965Y-117494373D01*
X178263966Y-117494380D01*
X178312697Y-117739372D01*
X178321518Y-117783716D01*
X178321521Y-117783730D01*
X178416349Y-118063080D01*
X178546825Y-118327660D01*
X178546829Y-118327667D01*
X178710725Y-118572955D01*
X178905241Y-118794758D01*
X179127044Y-118989274D01*
X179310998Y-119112188D01*
X179372335Y-119153172D01*
X179636923Y-119283652D01*
X179916278Y-119378481D01*
X180205620Y-119436034D01*
X180233888Y-119437886D01*
X180499993Y-119455329D01*
X180500000Y-119455329D01*
X180500007Y-119455329D01*
X180735675Y-119439881D01*
X180794380Y-119436034D01*
X181083722Y-119378481D01*
X181363077Y-119283652D01*
X181627665Y-119153172D01*
X181872957Y-118989273D01*
X182094758Y-118794758D01*
X182289273Y-118572957D01*
X182453172Y-118327665D01*
X182583652Y-118063077D01*
X182678481Y-117783722D01*
X182736034Y-117494380D01*
X182746011Y-117342161D01*
X182755329Y-117200007D01*
X182755329Y-117199992D01*
X182736035Y-116905636D01*
X182736034Y-116905620D01*
X182678481Y-116616278D01*
X182583652Y-116336923D01*
X182453172Y-116072336D01*
X182429031Y-116036207D01*
X182371763Y-115950499D01*
X182289273Y-115827043D01*
X182192095Y-115716233D01*
X182094758Y-115605241D01*
X181872955Y-115410725D01*
X181627667Y-115246829D01*
X181627660Y-115246825D01*
X181363080Y-115116349D01*
X181083730Y-115021521D01*
X181083724Y-115021519D01*
X181083722Y-115021519D01*
X180794380Y-114963966D01*
X180794373Y-114963965D01*
X180794363Y-114963964D01*
X180500007Y-114944671D01*
X180499993Y-114944671D01*
X180205636Y-114963964D01*
X180205624Y-114963965D01*
X180205620Y-114963966D01*
X180205612Y-114963967D01*
X180205609Y-114963968D01*
X179916283Y-115021518D01*
X179916269Y-115021521D01*
X179636919Y-115116349D01*
X179372334Y-115246828D01*
X179127041Y-115410728D01*
X178905241Y-115605241D01*
X178710728Y-115827041D01*
X178546828Y-116072334D01*
X178416349Y-116336919D01*
X178321521Y-116616269D01*
X178321518Y-116616283D01*
X178263968Y-116905609D01*
X178263964Y-116905636D01*
X178244671Y-117199992D01*
X167850500Y-117199992D01*
X167850500Y-116203650D01*
X167870185Y-116136611D01*
X167886819Y-116115969D01*
X168015969Y-115986819D01*
X168077292Y-115953334D01*
X168103650Y-115950500D01*
X171183768Y-115950500D01*
X171183769Y-115950499D01*
X171246619Y-115937998D01*
X171348074Y-115917818D01*
X171348078Y-115917816D01*
X171348082Y-115917816D01*
X171393415Y-115899037D01*
X171413849Y-115890572D01*
X171483317Y-115883106D01*
X171545796Y-115914382D01*
X171548979Y-115917454D01*
X171593123Y-115961598D01*
X171772361Y-116087102D01*
X171970670Y-116179575D01*
X172182023Y-116236207D01*
X172364926Y-116252208D01*
X172399998Y-116255277D01*
X172400000Y-116255277D01*
X172400002Y-116255277D01*
X172428254Y-116252805D01*
X172617977Y-116236207D01*
X172829330Y-116179575D01*
X173027639Y-116087102D01*
X173206877Y-115961598D01*
X173361598Y-115806877D01*
X173487102Y-115627639D01*
X173579575Y-115429330D01*
X173636207Y-115217977D01*
X173653394Y-115021519D01*
X173655277Y-115000002D01*
X173655277Y-114999997D01*
X173650436Y-114944671D01*
X173636207Y-114782023D01*
X173579575Y-114570670D01*
X173487102Y-114372362D01*
X173487100Y-114372359D01*
X173487099Y-114372357D01*
X173361597Y-114193121D01*
X173206879Y-114038403D01*
X173146216Y-113995927D01*
X173114235Y-113963239D01*
X173110629Y-113957842D01*
X173110628Y-113957841D01*
X173110626Y-113957838D01*
X172992162Y-113839374D01*
X172992161Y-113839373D01*
X172992160Y-113839372D01*
X172873371Y-113760000D01*
X174805172Y-113760000D01*
X174824462Y-114054312D01*
X174824464Y-114054324D01*
X174882001Y-114343584D01*
X174882005Y-114343599D01*
X174976812Y-114622888D01*
X175107258Y-114887406D01*
X175107265Y-114887419D01*
X175239581Y-115085442D01*
X176340999Y-113984024D01*
X176395359Y-114115258D01*
X176477437Y-114238097D01*
X176581903Y-114342563D01*
X176704742Y-114424641D01*
X176835974Y-114478999D01*
X175734555Y-115580418D01*
X175932580Y-115712734D01*
X175932593Y-115712741D01*
X176197111Y-115843187D01*
X176476400Y-115937994D01*
X176476415Y-115937998D01*
X176765675Y-115995535D01*
X176765687Y-115995537D01*
X177060000Y-116014827D01*
X177354312Y-115995537D01*
X177354324Y-115995535D01*
X177643584Y-115937998D01*
X177643599Y-115937994D01*
X177922888Y-115843187D01*
X178187410Y-115712740D01*
X178385443Y-115580418D01*
X177284025Y-114479000D01*
X177415258Y-114424641D01*
X177538097Y-114342563D01*
X177642563Y-114238097D01*
X177724641Y-114115258D01*
X177779000Y-113984025D01*
X178880418Y-115085443D01*
X179012740Y-114887410D01*
X179143187Y-114622888D01*
X179237994Y-114343599D01*
X179237998Y-114343584D01*
X179295535Y-114054324D01*
X179295537Y-114054312D01*
X179314827Y-113760000D01*
X181685172Y-113760000D01*
X181704462Y-114054312D01*
X181704464Y-114054324D01*
X181762001Y-114343584D01*
X181762005Y-114343599D01*
X181856812Y-114622888D01*
X181987258Y-114887406D01*
X181987265Y-114887419D01*
X182119581Y-115085442D01*
X183220999Y-113984024D01*
X183275359Y-114115258D01*
X183357437Y-114238097D01*
X183461903Y-114342563D01*
X183584742Y-114424641D01*
X183715974Y-114478999D01*
X182614555Y-115580418D01*
X182812580Y-115712734D01*
X182812593Y-115712741D01*
X183077111Y-115843187D01*
X183356400Y-115937994D01*
X183356415Y-115937998D01*
X183645675Y-115995535D01*
X183645687Y-115995537D01*
X183940000Y-116014827D01*
X184234312Y-115995537D01*
X184234324Y-115995535D01*
X184523584Y-115937998D01*
X184523599Y-115937994D01*
X184802888Y-115843187D01*
X185067410Y-115712740D01*
X185265443Y-115580418D01*
X184164025Y-114479000D01*
X184295258Y-114424641D01*
X184418097Y-114342563D01*
X184522563Y-114238097D01*
X184604641Y-114115258D01*
X184659000Y-113984025D01*
X185760418Y-115085443D01*
X185892740Y-114887410D01*
X186023187Y-114622888D01*
X186117994Y-114343599D01*
X186117998Y-114343584D01*
X186175535Y-114054324D01*
X186175537Y-114054312D01*
X186194827Y-113760000D01*
X186175537Y-113465687D01*
X186175535Y-113465675D01*
X186117998Y-113176415D01*
X186117994Y-113176400D01*
X186023187Y-112897111D01*
X185892741Y-112632593D01*
X185892734Y-112632580D01*
X185760418Y-112434555D01*
X184658999Y-113535974D01*
X184604641Y-113404742D01*
X184522563Y-113281903D01*
X184418097Y-113177437D01*
X184295258Y-113095359D01*
X184164025Y-113041000D01*
X185265442Y-111939581D01*
X185067419Y-111807265D01*
X185067406Y-111807258D01*
X184802888Y-111676812D01*
X184523599Y-111582005D01*
X184523584Y-111582001D01*
X184234324Y-111524464D01*
X184234312Y-111524462D01*
X183940000Y-111505172D01*
X183645687Y-111524462D01*
X183645675Y-111524464D01*
X183356415Y-111582001D01*
X183356400Y-111582005D01*
X183077111Y-111676812D01*
X182812585Y-111807262D01*
X182614556Y-111939581D01*
X183715974Y-113040999D01*
X183584742Y-113095359D01*
X183461903Y-113177437D01*
X183357437Y-113281903D01*
X183275359Y-113404742D01*
X183220999Y-113535974D01*
X182119581Y-112434556D01*
X181987262Y-112632585D01*
X181856812Y-112897111D01*
X181762005Y-113176400D01*
X181762001Y-113176415D01*
X181704464Y-113465675D01*
X181704462Y-113465687D01*
X181685172Y-113760000D01*
X179314827Y-113760000D01*
X179295537Y-113465687D01*
X179295535Y-113465675D01*
X179237998Y-113176415D01*
X179237994Y-113176400D01*
X179143187Y-112897111D01*
X179012741Y-112632593D01*
X179012734Y-112632580D01*
X178880418Y-112434555D01*
X177778999Y-113535974D01*
X177724641Y-113404742D01*
X177642563Y-113281903D01*
X177538097Y-113177437D01*
X177415258Y-113095359D01*
X177284025Y-113041000D01*
X178385442Y-111939581D01*
X178187419Y-111807265D01*
X178187406Y-111807258D01*
X177922888Y-111676812D01*
X177643599Y-111582005D01*
X177643584Y-111582001D01*
X177354324Y-111524464D01*
X177354312Y-111524462D01*
X177060000Y-111505172D01*
X176765687Y-111524462D01*
X176765675Y-111524464D01*
X176476415Y-111582001D01*
X176476400Y-111582005D01*
X176197111Y-111676812D01*
X175932585Y-111807262D01*
X175734556Y-111939581D01*
X176835974Y-113040999D01*
X176704742Y-113095359D01*
X176581903Y-113177437D01*
X176477437Y-113281903D01*
X176395359Y-113404742D01*
X176340999Y-113535974D01*
X175239581Y-112434556D01*
X175107262Y-112632585D01*
X174976812Y-112897111D01*
X174882005Y-113176400D01*
X174882001Y-113176415D01*
X174824464Y-113465675D01*
X174824462Y-113465687D01*
X174805172Y-113760000D01*
X172873371Y-113760000D01*
X172852860Y-113746295D01*
X172698082Y-113682184D01*
X172698074Y-113682182D01*
X172533771Y-113649500D01*
X172533767Y-113649500D01*
X171616233Y-113649500D01*
X171616228Y-113649500D01*
X171451925Y-113682182D01*
X171451913Y-113682185D01*
X171406583Y-113700962D01*
X171297143Y-113746292D01*
X171297137Y-113746295D01*
X171297137Y-113746296D01*
X171176245Y-113827075D01*
X171157831Y-113839379D01*
X171157831Y-113839380D01*
X170784030Y-114213181D01*
X170722707Y-114246666D01*
X170696349Y-114249500D01*
X167616228Y-114249500D01*
X167451925Y-114282182D01*
X167451917Y-114282184D01*
X167307120Y-114342161D01*
X167307120Y-114342162D01*
X167303651Y-114343599D01*
X167297132Y-114346299D01*
X167157838Y-114439373D01*
X167157834Y-114439376D01*
X166339375Y-115257834D01*
X166339372Y-115257838D01*
X166246299Y-115397130D01*
X166246292Y-115397143D01*
X166202503Y-115502863D01*
X166182184Y-115551916D01*
X166182181Y-115551925D01*
X166149500Y-115716228D01*
X166149500Y-118396349D01*
X166129815Y-118463388D01*
X166113181Y-118484030D01*
X164284030Y-120313181D01*
X164222707Y-120346666D01*
X164196349Y-120349500D01*
X160326151Y-120349500D01*
X160259112Y-120329815D01*
X160238470Y-120313181D01*
X160190065Y-120264776D01*
X160156580Y-120203453D01*
X160154219Y-120187911D01*
X160136207Y-119982023D01*
X160079575Y-119770670D01*
X159987102Y-119572362D01*
X159987100Y-119572359D01*
X159987099Y-119572357D01*
X159861599Y-119393124D01*
X159791464Y-119322989D01*
X159706877Y-119238402D01*
X159527639Y-119112898D01*
X159527640Y-119112898D01*
X159527638Y-119112897D01*
X159388649Y-119048086D01*
X159329330Y-119020425D01*
X159329326Y-119020424D01*
X159329322Y-119020422D01*
X159117977Y-118963793D01*
X158912096Y-118945781D01*
X158847027Y-118920329D01*
X158835222Y-118909934D01*
X157664665Y-117739375D01*
X157664661Y-117739372D01*
X157525366Y-117646297D01*
X157525363Y-117646296D01*
X157415916Y-117600962D01*
X157415914Y-117600961D01*
X157370586Y-117582185D01*
X157370574Y-117582182D01*
X157206271Y-117549500D01*
X157206267Y-117549500D01*
X154703651Y-117549500D01*
X154636612Y-117529815D01*
X154615970Y-117513181D01*
X153586819Y-116484030D01*
X153553334Y-116422707D01*
X153550500Y-116396349D01*
X153550500Y-114316232D01*
X153550499Y-114316228D01*
X153526012Y-114193123D01*
X153517816Y-114151918D01*
X153495125Y-114097137D01*
X153495125Y-114097136D01*
X153453707Y-113997143D01*
X153453705Y-113997140D01*
X153453704Y-113997137D01*
X153360626Y-113857838D01*
X153360622Y-113857834D01*
X153360620Y-113857831D01*
X153360619Y-113857830D01*
X152642165Y-113139375D01*
X152642161Y-113139372D01*
X152502866Y-113046297D01*
X152502863Y-113046296D01*
X152393416Y-113000962D01*
X152393414Y-113000961D01*
X152348086Y-112982185D01*
X152348074Y-112982182D01*
X152183771Y-112949500D01*
X152183767Y-112949500D01*
X151016233Y-112949500D01*
X151016228Y-112949500D01*
X150851925Y-112982182D01*
X150851913Y-112982185D01*
X150806583Y-113000962D01*
X150697143Y-113046292D01*
X150697137Y-113046295D01*
X150697137Y-113046296D01*
X150557840Y-113139373D01*
X150557831Y-113139379D01*
X150557831Y-113139380D01*
X149884030Y-113813181D01*
X149822707Y-113846666D01*
X149796349Y-113849500D01*
X147761823Y-113849500D01*
X147694784Y-113829815D01*
X147690732Y-113827097D01*
X147527639Y-113712898D01*
X147527640Y-113712898D01*
X147527638Y-113712897D01*
X147428484Y-113666661D01*
X147329330Y-113620425D01*
X147329326Y-113620424D01*
X147329322Y-113620422D01*
X147117977Y-113563793D01*
X146900002Y-113544723D01*
X146899998Y-113544723D01*
X146754682Y-113557436D01*
X146682023Y-113563793D01*
X146682020Y-113563793D01*
X146470677Y-113620422D01*
X146470668Y-113620426D01*
X146272361Y-113712898D01*
X146272357Y-113712900D01*
X146093121Y-113838402D01*
X145938402Y-113993121D01*
X145812900Y-114172357D01*
X145812898Y-114172361D01*
X145720426Y-114370668D01*
X145720422Y-114370677D01*
X145663793Y-114582020D01*
X145663793Y-114582024D01*
X145646296Y-114782024D01*
X145644723Y-114800000D01*
X137500500Y-114800000D01*
X137500500Y-112347844D01*
X138200000Y-112347844D01*
X138206401Y-112407372D01*
X138206403Y-112407379D01*
X138256645Y-112542086D01*
X138256649Y-112542093D01*
X138342809Y-112657187D01*
X138342812Y-112657190D01*
X138457906Y-112743350D01*
X138457913Y-112743354D01*
X138592620Y-112793596D01*
X138592627Y-112793598D01*
X138652155Y-112799999D01*
X138652172Y-112800000D01*
X139250000Y-112800000D01*
X139250000Y-111750000D01*
X138200000Y-111750000D01*
X138200000Y-112347844D01*
X137500500Y-112347844D01*
X137500500Y-111340756D01*
X139150000Y-111340756D01*
X139150000Y-111459244D01*
X139180667Y-111573694D01*
X139239910Y-111676306D01*
X139323694Y-111760090D01*
X139426306Y-111819333D01*
X139540756Y-111850000D01*
X139659244Y-111850000D01*
X139773694Y-111819333D01*
X139876306Y-111760090D01*
X139950000Y-111686396D01*
X139950000Y-112800000D01*
X140547828Y-112800000D01*
X140547844Y-112799999D01*
X140607372Y-112793598D01*
X140607379Y-112793596D01*
X140742086Y-112743354D01*
X140742093Y-112743350D01*
X140857187Y-112657190D01*
X140857190Y-112657187D01*
X140943350Y-112542093D01*
X140943355Y-112542084D01*
X140972075Y-112465081D01*
X141013945Y-112409147D01*
X141079409Y-112384729D01*
X141147682Y-112399580D01*
X141179484Y-112424428D01*
X141188216Y-112433913D01*
X141188219Y-112433915D01*
X141188222Y-112433918D01*
X141371365Y-112576464D01*
X141371371Y-112576468D01*
X141371374Y-112576470D01*
X141575497Y-112686936D01*
X141689487Y-112726068D01*
X141795015Y-112762297D01*
X141795017Y-112762297D01*
X141795019Y-112762298D01*
X142023951Y-112800500D01*
X142023952Y-112800500D01*
X142256048Y-112800500D01*
X142256049Y-112800500D01*
X142484981Y-112762298D01*
X142704503Y-112686936D01*
X142908626Y-112576470D01*
X143091784Y-112433913D01*
X143248979Y-112263153D01*
X143375924Y-112068849D01*
X143469157Y-111856300D01*
X143526134Y-111631305D01*
X143526135Y-111631297D01*
X143528893Y-111598017D01*
X148996955Y-111598017D01*
X149170840Y-111679101D01*
X149170849Y-111679105D01*
X149382105Y-111735710D01*
X149382115Y-111735712D01*
X149599999Y-111754775D01*
X149600001Y-111754775D01*
X149817884Y-111735712D01*
X149817894Y-111735710D01*
X150029150Y-111679105D01*
X150029159Y-111679101D01*
X150203044Y-111598018D01*
X149600001Y-110994974D01*
X149600000Y-110994974D01*
X148996955Y-111598017D01*
X143528893Y-111598017D01*
X143545300Y-111400006D01*
X143545300Y-111399993D01*
X143526135Y-111168702D01*
X143526133Y-111168691D01*
X143469157Y-110943699D01*
X143375924Y-110731151D01*
X143248983Y-110536852D01*
X143248980Y-110536849D01*
X143248979Y-110536847D01*
X143215058Y-110499999D01*
X148345225Y-110499999D01*
X148345225Y-110500000D01*
X148364287Y-110717884D01*
X148364289Y-110717894D01*
X148420894Y-110929150D01*
X148420899Y-110929164D01*
X148501980Y-111103044D01*
X149105025Y-110500000D01*
X149105025Y-110499999D01*
X149058948Y-110453922D01*
X149250000Y-110453922D01*
X149250000Y-110546078D01*
X149273852Y-110635095D01*
X149319930Y-110714905D01*
X149385095Y-110780070D01*
X149464905Y-110826148D01*
X149553922Y-110850000D01*
X149646078Y-110850000D01*
X149735095Y-110826148D01*
X149814905Y-110780070D01*
X149880070Y-110714905D01*
X149926148Y-110635095D01*
X149950000Y-110546078D01*
X149950000Y-110499999D01*
X150094974Y-110499999D01*
X150094974Y-110500000D01*
X150698018Y-111103044D01*
X150779101Y-110929159D01*
X150779105Y-110929150D01*
X150787447Y-110898017D01*
X165696955Y-110898017D01*
X165870840Y-110979101D01*
X165870849Y-110979105D01*
X166082105Y-111035710D01*
X166082115Y-111035712D01*
X166299999Y-111054775D01*
X166300001Y-111054775D01*
X166517884Y-111035712D01*
X166517894Y-111035710D01*
X166729150Y-110979105D01*
X166729159Y-110979101D01*
X166903044Y-110898018D01*
X166603043Y-110598017D01*
X175696955Y-110598017D01*
X175870840Y-110679101D01*
X175870849Y-110679105D01*
X176082105Y-110735710D01*
X176082115Y-110735712D01*
X176299999Y-110754775D01*
X176300001Y-110754775D01*
X176517884Y-110735712D01*
X176517894Y-110735710D01*
X176729150Y-110679105D01*
X176729159Y-110679101D01*
X176903044Y-110598018D01*
X176300001Y-109994974D01*
X176300000Y-109994974D01*
X175696955Y-110598017D01*
X166603043Y-110598017D01*
X166300001Y-110294974D01*
X166300000Y-110294974D01*
X165696955Y-110898017D01*
X150787447Y-110898017D01*
X150835710Y-110717894D01*
X150835712Y-110717884D01*
X150854775Y-110500000D01*
X150854775Y-110499999D01*
X150835712Y-110282115D01*
X150835710Y-110282105D01*
X150779105Y-110070849D01*
X150779101Y-110070840D01*
X150698017Y-109896955D01*
X150094974Y-110499999D01*
X149950000Y-110499999D01*
X149950000Y-110453922D01*
X149926148Y-110364905D01*
X149880070Y-110285095D01*
X149814905Y-110219930D01*
X149735095Y-110173852D01*
X149646078Y-110150000D01*
X149553922Y-110150000D01*
X149464905Y-110173852D01*
X149385095Y-110219930D01*
X149319930Y-110285095D01*
X149273852Y-110364905D01*
X149250000Y-110453922D01*
X149058948Y-110453922D01*
X148501980Y-109896954D01*
X148420899Y-110070835D01*
X148420894Y-110070849D01*
X148364289Y-110282105D01*
X148364287Y-110282115D01*
X148345225Y-110499999D01*
X143215058Y-110499999D01*
X143091784Y-110366087D01*
X143091779Y-110366083D01*
X143091777Y-110366081D01*
X142908634Y-110223535D01*
X142908628Y-110223531D01*
X142704504Y-110113064D01*
X142704495Y-110113061D01*
X142484984Y-110037702D01*
X142297404Y-110006401D01*
X142256049Y-109999500D01*
X142023951Y-109999500D01*
X141982596Y-110006401D01*
X141795015Y-110037702D01*
X141575504Y-110113061D01*
X141575495Y-110113064D01*
X141371371Y-110223531D01*
X141371365Y-110223535D01*
X141188222Y-110366081D01*
X141188215Y-110366087D01*
X141179484Y-110375572D01*
X141119595Y-110411561D01*
X141049757Y-110409458D01*
X140992143Y-110369932D01*
X140972075Y-110334918D01*
X140943355Y-110257915D01*
X140943350Y-110257906D01*
X140857190Y-110142812D01*
X140857187Y-110142809D01*
X140742093Y-110056649D01*
X140742086Y-110056645D01*
X140607379Y-110006403D01*
X140607372Y-110006401D01*
X140547844Y-110000000D01*
X139950000Y-110000000D01*
X139950000Y-111113604D01*
X139876306Y-111039910D01*
X139773694Y-110980667D01*
X139659244Y-110950000D01*
X139540756Y-110950000D01*
X139426306Y-110980667D01*
X139323694Y-111039910D01*
X139239910Y-111123694D01*
X139180667Y-111226306D01*
X139150000Y-111340756D01*
X137500500Y-111340756D01*
X137500500Y-110452155D01*
X138200000Y-110452155D01*
X138200000Y-111050000D01*
X139250000Y-111050000D01*
X139250000Y-110000000D01*
X138652155Y-110000000D01*
X138592627Y-110006401D01*
X138592620Y-110006403D01*
X138457913Y-110056645D01*
X138457906Y-110056649D01*
X138342812Y-110142809D01*
X138342809Y-110142812D01*
X138256649Y-110257906D01*
X138256645Y-110257913D01*
X138206403Y-110392620D01*
X138206401Y-110392627D01*
X138200000Y-110452155D01*
X137500500Y-110452155D01*
X137500500Y-109498017D01*
X138996955Y-109498017D01*
X139170840Y-109579101D01*
X139170849Y-109579105D01*
X139382105Y-109635710D01*
X139382115Y-109635712D01*
X139599999Y-109654775D01*
X139600001Y-109654775D01*
X139817884Y-109635712D01*
X139817894Y-109635710D01*
X140029150Y-109579105D01*
X140029159Y-109579101D01*
X140203044Y-109498018D01*
X140107006Y-109401980D01*
X148996954Y-109401980D01*
X149600000Y-110005025D01*
X149600001Y-110005025D01*
X149805026Y-109799999D01*
X165045225Y-109799999D01*
X165045225Y-109800000D01*
X165064287Y-110017884D01*
X165064289Y-110017894D01*
X165120894Y-110229150D01*
X165120899Y-110229164D01*
X165201980Y-110403044D01*
X165805025Y-109800000D01*
X165805025Y-109799999D01*
X165758948Y-109753922D01*
X165950000Y-109753922D01*
X165950000Y-109846078D01*
X165973852Y-109935095D01*
X166019930Y-110014905D01*
X166085095Y-110080070D01*
X166164905Y-110126148D01*
X166253922Y-110150000D01*
X166346078Y-110150000D01*
X166435095Y-110126148D01*
X166514905Y-110080070D01*
X166580070Y-110014905D01*
X166626148Y-109935095D01*
X166650000Y-109846078D01*
X166650000Y-109799999D01*
X166794974Y-109799999D01*
X166794974Y-109800000D01*
X167398018Y-110403044D01*
X167479101Y-110229159D01*
X167479105Y-110229150D01*
X167535710Y-110017894D01*
X167535712Y-110017884D01*
X167554775Y-109800000D01*
X167554775Y-109799999D01*
X167535712Y-109582115D01*
X167535710Y-109582105D01*
X167513710Y-109499999D01*
X175045225Y-109499999D01*
X175045225Y-109500000D01*
X175064287Y-109717884D01*
X175064289Y-109717894D01*
X175120894Y-109929150D01*
X175120899Y-109929164D01*
X175201980Y-110103044D01*
X175805025Y-109500000D01*
X175805025Y-109499999D01*
X175758948Y-109453922D01*
X175950000Y-109453922D01*
X175950000Y-109546078D01*
X175973852Y-109635095D01*
X176019930Y-109714905D01*
X176085095Y-109780070D01*
X176164905Y-109826148D01*
X176253922Y-109850000D01*
X176346078Y-109850000D01*
X176435095Y-109826148D01*
X176514905Y-109780070D01*
X176580070Y-109714905D01*
X176626148Y-109635095D01*
X176650000Y-109546078D01*
X176650000Y-109499999D01*
X176794974Y-109499999D01*
X176794974Y-109500000D01*
X177398018Y-110103044D01*
X177479101Y-109929159D01*
X177479105Y-109929150D01*
X177535710Y-109717894D01*
X177535712Y-109717884D01*
X177554775Y-109500000D01*
X177554775Y-109499999D01*
X177535712Y-109282115D01*
X177535710Y-109282105D01*
X177479105Y-109070849D01*
X177479101Y-109070840D01*
X177398017Y-108896955D01*
X176794974Y-109499999D01*
X176650000Y-109499999D01*
X176650000Y-109453922D01*
X176626148Y-109364905D01*
X176580070Y-109285095D01*
X176514905Y-109219930D01*
X176435095Y-109173852D01*
X176346078Y-109150000D01*
X176253922Y-109150000D01*
X176164905Y-109173852D01*
X176085095Y-109219930D01*
X176019930Y-109285095D01*
X175973852Y-109364905D01*
X175950000Y-109453922D01*
X175758948Y-109453922D01*
X175201980Y-108896954D01*
X175120899Y-109070835D01*
X175120894Y-109070849D01*
X175064289Y-109282105D01*
X175064287Y-109282115D01*
X175045225Y-109499999D01*
X167513710Y-109499999D01*
X167479105Y-109370849D01*
X167479101Y-109370840D01*
X167398017Y-109196955D01*
X166794974Y-109799999D01*
X166650000Y-109799999D01*
X166650000Y-109753922D01*
X166626148Y-109664905D01*
X166580070Y-109585095D01*
X166514905Y-109519930D01*
X166435095Y-109473852D01*
X166346078Y-109450000D01*
X166253922Y-109450000D01*
X166164905Y-109473852D01*
X166085095Y-109519930D01*
X166019930Y-109585095D01*
X165973852Y-109664905D01*
X165950000Y-109753922D01*
X165758948Y-109753922D01*
X165201980Y-109196954D01*
X165120899Y-109370835D01*
X165120894Y-109370849D01*
X165064289Y-109582105D01*
X165064287Y-109582115D01*
X165045225Y-109799999D01*
X149805026Y-109799999D01*
X150203044Y-109401980D01*
X150029164Y-109320899D01*
X150029150Y-109320894D01*
X149817894Y-109264289D01*
X149817884Y-109264287D01*
X149600001Y-109245225D01*
X149599999Y-109245225D01*
X149382115Y-109264287D01*
X149382105Y-109264289D01*
X149170849Y-109320894D01*
X149170835Y-109320899D01*
X148996954Y-109401980D01*
X140107006Y-109401980D01*
X139600001Y-108894974D01*
X139600000Y-108894974D01*
X138996955Y-109498017D01*
X137500500Y-109498017D01*
X137500500Y-108399999D01*
X138345225Y-108399999D01*
X138345225Y-108400000D01*
X138364287Y-108617884D01*
X138364289Y-108617894D01*
X138420894Y-108829150D01*
X138420899Y-108829164D01*
X138501980Y-109003044D01*
X139105025Y-108400000D01*
X139105025Y-108399999D01*
X139058948Y-108353922D01*
X139250000Y-108353922D01*
X139250000Y-108446078D01*
X139273852Y-108535095D01*
X139319930Y-108614905D01*
X139385095Y-108680070D01*
X139464905Y-108726148D01*
X139553922Y-108750000D01*
X139646078Y-108750000D01*
X139735095Y-108726148D01*
X139814905Y-108680070D01*
X139880070Y-108614905D01*
X139926148Y-108535095D01*
X139950000Y-108446078D01*
X139950000Y-108399999D01*
X140094974Y-108399999D01*
X140094974Y-108400000D01*
X140698018Y-109003044D01*
X140779101Y-108829159D01*
X140779105Y-108829150D01*
X140813180Y-108701980D01*
X165696954Y-108701980D01*
X166300000Y-109305025D01*
X166300001Y-109305025D01*
X166903044Y-108701980D01*
X166729164Y-108620899D01*
X166729150Y-108620894D01*
X166517894Y-108564289D01*
X166517884Y-108564287D01*
X166300001Y-108545225D01*
X166299999Y-108545225D01*
X166082115Y-108564287D01*
X166082105Y-108564289D01*
X165870849Y-108620894D01*
X165870835Y-108620899D01*
X165696954Y-108701980D01*
X140813180Y-108701980D01*
X140835710Y-108617894D01*
X140835712Y-108617884D01*
X140854602Y-108401980D01*
X175696954Y-108401980D01*
X176300000Y-109005025D01*
X176300001Y-109005025D01*
X176903044Y-108401980D01*
X176729164Y-108320899D01*
X176729150Y-108320894D01*
X176517894Y-108264289D01*
X176517884Y-108264287D01*
X176300001Y-108245225D01*
X176299999Y-108245225D01*
X176082115Y-108264287D01*
X176082105Y-108264289D01*
X175870849Y-108320894D01*
X175870835Y-108320899D01*
X175696954Y-108401980D01*
X140854602Y-108401980D01*
X140854775Y-108400000D01*
X140854775Y-108399999D01*
X140835712Y-108182115D01*
X140835710Y-108182105D01*
X140779105Y-107970849D01*
X140779101Y-107970840D01*
X140698017Y-107796955D01*
X140094974Y-108399999D01*
X139950000Y-108399999D01*
X139950000Y-108353922D01*
X139926148Y-108264905D01*
X139880070Y-108185095D01*
X139814905Y-108119930D01*
X139735095Y-108073852D01*
X139646078Y-108050000D01*
X139553922Y-108050000D01*
X139464905Y-108073852D01*
X139385095Y-108119930D01*
X139319930Y-108185095D01*
X139273852Y-108264905D01*
X139250000Y-108353922D01*
X139058948Y-108353922D01*
X138501980Y-107796954D01*
X138420899Y-107970835D01*
X138420894Y-107970849D01*
X138364289Y-108182105D01*
X138364287Y-108182115D01*
X138345225Y-108399999D01*
X137500500Y-108399999D01*
X137500500Y-107301980D01*
X138996954Y-107301980D01*
X139600000Y-107905025D01*
X139600001Y-107905025D01*
X140203044Y-107301980D01*
X140029164Y-107220899D01*
X140029150Y-107220894D01*
X139817894Y-107164289D01*
X139817884Y-107164287D01*
X139600001Y-107145225D01*
X139599999Y-107145225D01*
X139382115Y-107164287D01*
X139382105Y-107164289D01*
X139170849Y-107220894D01*
X139170835Y-107220899D01*
X138996954Y-107301980D01*
X137500500Y-107301980D01*
X137500500Y-106152135D01*
X146294388Y-106152135D01*
X146294388Y-107847870D01*
X146294389Y-107847876D01*
X146300796Y-107907483D01*
X146351090Y-108042328D01*
X146351094Y-108042335D01*
X146437340Y-108157544D01*
X146437343Y-108157547D01*
X146552552Y-108243793D01*
X146552559Y-108243797D01*
X146687405Y-108294091D01*
X146687404Y-108294091D01*
X146694332Y-108294835D01*
X146747015Y-108300500D01*
X148442760Y-108300499D01*
X148502371Y-108294091D01*
X148637219Y-108243796D01*
X148752434Y-108157546D01*
X148768831Y-108135642D01*
X149454219Y-108135642D01*
X149648561Y-108226265D01*
X149648570Y-108226269D01*
X149868277Y-108285139D01*
X149868288Y-108285141D01*
X150094886Y-108304966D01*
X150094890Y-108304966D01*
X150321487Y-108285141D01*
X150321498Y-108285139D01*
X150541205Y-108226269D01*
X150541214Y-108226265D01*
X150735556Y-108135642D01*
X150094889Y-107494975D01*
X150094888Y-107494975D01*
X149454219Y-108135642D01*
X148768831Y-108135642D01*
X148838684Y-108042331D01*
X148888979Y-107907483D01*
X148895388Y-107847873D01*
X148895387Y-107755883D01*
X148915071Y-107688848D01*
X148931706Y-107668205D01*
X149599913Y-107000000D01*
X149547252Y-106947339D01*
X149694888Y-106947339D01*
X149694888Y-107052661D01*
X149722147Y-107154394D01*
X149774808Y-107245606D01*
X149849282Y-107320080D01*
X149940494Y-107372741D01*
X150042227Y-107400000D01*
X150147549Y-107400000D01*
X150249282Y-107372741D01*
X150340494Y-107320080D01*
X150414968Y-107245606D01*
X150467629Y-107154394D01*
X150494888Y-107052661D01*
X150494888Y-106999999D01*
X150589863Y-106999999D01*
X150589863Y-107000000D01*
X151230530Y-107640667D01*
X151250418Y-107598017D01*
X165396955Y-107598017D01*
X165570840Y-107679101D01*
X165570849Y-107679105D01*
X165782105Y-107735710D01*
X165782115Y-107735712D01*
X165999999Y-107754775D01*
X166000001Y-107754775D01*
X166217884Y-107735712D01*
X166217894Y-107735710D01*
X166429150Y-107679105D01*
X166429159Y-107679101D01*
X166603044Y-107598018D01*
X166000001Y-106994974D01*
X166000000Y-106994974D01*
X165396955Y-107598017D01*
X151250418Y-107598017D01*
X151321153Y-107446326D01*
X151321157Y-107446317D01*
X151380027Y-107226610D01*
X151380029Y-107226599D01*
X151399854Y-107000002D01*
X151399854Y-106999997D01*
X151380029Y-106773400D01*
X151380027Y-106773389D01*
X151321157Y-106553682D01*
X151321153Y-106553673D01*
X151296124Y-106499999D01*
X164745225Y-106499999D01*
X164745225Y-106500000D01*
X164764287Y-106717884D01*
X164764289Y-106717894D01*
X164820894Y-106929150D01*
X164820899Y-106929164D01*
X164901980Y-107103044D01*
X165505025Y-106500000D01*
X165505025Y-106499999D01*
X165458948Y-106453922D01*
X165650000Y-106453922D01*
X165650000Y-106546078D01*
X165673852Y-106635095D01*
X165719930Y-106714905D01*
X165785095Y-106780070D01*
X165864905Y-106826148D01*
X165953922Y-106850000D01*
X166046078Y-106850000D01*
X166135095Y-106826148D01*
X166214905Y-106780070D01*
X166280070Y-106714905D01*
X166326148Y-106635095D01*
X166350000Y-106546078D01*
X166350000Y-106499999D01*
X166494974Y-106499999D01*
X166494974Y-106500000D01*
X167098018Y-107103044D01*
X167179101Y-106929159D01*
X167179105Y-106929150D01*
X167235710Y-106717894D01*
X167235712Y-106717884D01*
X167254775Y-106500000D01*
X167254775Y-106499999D01*
X167252912Y-106478711D01*
X181499500Y-106478711D01*
X181499500Y-106721288D01*
X181531161Y-106961785D01*
X181593947Y-107196104D01*
X181645300Y-107320080D01*
X181686776Y-107420212D01*
X181808064Y-107630289D01*
X181808066Y-107630292D01*
X181808067Y-107630293D01*
X181955733Y-107822736D01*
X181955739Y-107822743D01*
X182127256Y-107994260D01*
X182127262Y-107994265D01*
X182319711Y-108141936D01*
X182529788Y-108263224D01*
X182753900Y-108356054D01*
X182988211Y-108418838D01*
X183168586Y-108442584D01*
X183228711Y-108450500D01*
X183228712Y-108450500D01*
X183471289Y-108450500D01*
X183519388Y-108444167D01*
X183711789Y-108418838D01*
X183946100Y-108356054D01*
X184170212Y-108263224D01*
X184380289Y-108141936D01*
X184572738Y-107994265D01*
X184744265Y-107822738D01*
X184891936Y-107630289D01*
X185013224Y-107420212D01*
X185106054Y-107196100D01*
X185168838Y-106961789D01*
X185200500Y-106721288D01*
X185200500Y-106478712D01*
X185168838Y-106238211D01*
X185106054Y-106003900D01*
X185013224Y-105779788D01*
X184891936Y-105569711D01*
X184822409Y-105479101D01*
X184744266Y-105377263D01*
X184744260Y-105377256D01*
X184572743Y-105205739D01*
X184572736Y-105205733D01*
X184380293Y-105058067D01*
X184380292Y-105058066D01*
X184380289Y-105058064D01*
X184186762Y-104946331D01*
X184170214Y-104936777D01*
X184170205Y-104936773D01*
X183946104Y-104843947D01*
X183828944Y-104812554D01*
X183711789Y-104781162D01*
X183711788Y-104781161D01*
X183711785Y-104781161D01*
X183471289Y-104749500D01*
X183471288Y-104749500D01*
X183228712Y-104749500D01*
X183228711Y-104749500D01*
X182988214Y-104781161D01*
X182753895Y-104843947D01*
X182529794Y-104936773D01*
X182529785Y-104936777D01*
X182319706Y-105058067D01*
X182127263Y-105205733D01*
X182127256Y-105205739D01*
X181955739Y-105377256D01*
X181955733Y-105377263D01*
X181808067Y-105569706D01*
X181686777Y-105779785D01*
X181686773Y-105779794D01*
X181593947Y-106003895D01*
X181531161Y-106238214D01*
X181499500Y-106478711D01*
X167252912Y-106478711D01*
X167235712Y-106282115D01*
X167235710Y-106282105D01*
X167179105Y-106070849D01*
X167179101Y-106070840D01*
X167098017Y-105896955D01*
X166494974Y-106499999D01*
X166350000Y-106499999D01*
X166350000Y-106453922D01*
X166326148Y-106364905D01*
X166280070Y-106285095D01*
X166214905Y-106219930D01*
X166135095Y-106173852D01*
X166046078Y-106150000D01*
X165953922Y-106150000D01*
X165864905Y-106173852D01*
X165785095Y-106219930D01*
X165719930Y-106285095D01*
X165673852Y-106364905D01*
X165650000Y-106453922D01*
X165458948Y-106453922D01*
X164901980Y-105896954D01*
X164820899Y-106070835D01*
X164820894Y-106070849D01*
X164764289Y-106282105D01*
X164764287Y-106282115D01*
X164745225Y-106499999D01*
X151296124Y-106499999D01*
X151230530Y-106359331D01*
X150589863Y-106999999D01*
X150494888Y-106999999D01*
X150494888Y-106947339D01*
X150467629Y-106845606D01*
X150414968Y-106754394D01*
X150340494Y-106679920D01*
X150249282Y-106627259D01*
X150147549Y-106600000D01*
X150042227Y-106600000D01*
X149940494Y-106627259D01*
X149849282Y-106679920D01*
X149774808Y-106754394D01*
X149722147Y-106845606D01*
X149694888Y-106947339D01*
X149547252Y-106947339D01*
X148931706Y-106331793D01*
X148898221Y-106270470D01*
X148895387Y-106244112D01*
X148895387Y-106152129D01*
X148895386Y-106152123D01*
X148895385Y-106152116D01*
X148888979Y-106092517D01*
X148880897Y-106070849D01*
X148838685Y-105957671D01*
X148838681Y-105957664D01*
X148768829Y-105864355D01*
X149454218Y-105864355D01*
X150094888Y-106505025D01*
X150094889Y-106505025D01*
X150735556Y-105864356D01*
X150735556Y-105864355D01*
X150541219Y-105773735D01*
X150541205Y-105773730D01*
X150321498Y-105714860D01*
X150321487Y-105714858D01*
X150128987Y-105698017D01*
X153796955Y-105698017D01*
X153970840Y-105779101D01*
X153970849Y-105779105D01*
X154182105Y-105835710D01*
X154182115Y-105835712D01*
X154399999Y-105854775D01*
X154400001Y-105854775D01*
X154617884Y-105835712D01*
X154617894Y-105835710D01*
X154829150Y-105779105D01*
X154829159Y-105779101D01*
X155003044Y-105698018D01*
X154703043Y-105398017D01*
X158496955Y-105398017D01*
X158670840Y-105479101D01*
X158670849Y-105479105D01*
X158882105Y-105535710D01*
X158882115Y-105535712D01*
X159099999Y-105554775D01*
X159100001Y-105554775D01*
X159317884Y-105535712D01*
X159317894Y-105535710D01*
X159529150Y-105479105D01*
X159529159Y-105479101D01*
X159694547Y-105401980D01*
X165396954Y-105401980D01*
X166000000Y-106005025D01*
X166000001Y-106005025D01*
X166507007Y-105498017D01*
X169596955Y-105498017D01*
X169770840Y-105579101D01*
X169770849Y-105579105D01*
X169982105Y-105635710D01*
X169982115Y-105635712D01*
X170199999Y-105654775D01*
X170200001Y-105654775D01*
X170417884Y-105635712D01*
X170417894Y-105635710D01*
X170629150Y-105579105D01*
X170629159Y-105579101D01*
X170803044Y-105498018D01*
X170200001Y-104894974D01*
X170200000Y-104894974D01*
X169596955Y-105498017D01*
X166507007Y-105498017D01*
X166603044Y-105401980D01*
X166429164Y-105320899D01*
X166429150Y-105320894D01*
X166217894Y-105264289D01*
X166217884Y-105264287D01*
X166000001Y-105245225D01*
X165999999Y-105245225D01*
X165782115Y-105264287D01*
X165782105Y-105264289D01*
X165570849Y-105320894D01*
X165570835Y-105320899D01*
X165396954Y-105401980D01*
X159694547Y-105401980D01*
X159703044Y-105398018D01*
X159100001Y-104794974D01*
X159100000Y-104794974D01*
X158496955Y-105398017D01*
X154703043Y-105398017D01*
X154400001Y-105094974D01*
X154400000Y-105094974D01*
X153796955Y-105698017D01*
X150128987Y-105698017D01*
X150094890Y-105695034D01*
X150094886Y-105695034D01*
X149868288Y-105714858D01*
X149868277Y-105714860D01*
X149648570Y-105773730D01*
X149648556Y-105773735D01*
X149454218Y-105864355D01*
X148768829Y-105864355D01*
X148752435Y-105842455D01*
X148752432Y-105842452D01*
X148637223Y-105756206D01*
X148637216Y-105756202D01*
X148502370Y-105705908D01*
X148502371Y-105705908D01*
X148442771Y-105699501D01*
X148442769Y-105699500D01*
X148442761Y-105699500D01*
X148442752Y-105699500D01*
X146747017Y-105699500D01*
X146747011Y-105699501D01*
X146687404Y-105705908D01*
X146552559Y-105756202D01*
X146552552Y-105756206D01*
X146437343Y-105842452D01*
X146437340Y-105842455D01*
X146351094Y-105957664D01*
X146351090Y-105957671D01*
X146300796Y-106092517D01*
X146294389Y-106152116D01*
X146294389Y-106152123D01*
X146294388Y-106152135D01*
X137500500Y-106152135D01*
X137500500Y-105635642D01*
X141859331Y-105635642D01*
X142053673Y-105726265D01*
X142053682Y-105726269D01*
X142273389Y-105785139D01*
X142273400Y-105785141D01*
X142499998Y-105804966D01*
X142500002Y-105804966D01*
X142726599Y-105785141D01*
X142726610Y-105785139D01*
X142946317Y-105726269D01*
X142946326Y-105726265D01*
X143140668Y-105635642D01*
X142500001Y-104994975D01*
X142500000Y-104994975D01*
X141859331Y-105635642D01*
X137500500Y-105635642D01*
X137500500Y-104499997D01*
X141195034Y-104499997D01*
X141195034Y-104500002D01*
X141214858Y-104726599D01*
X141214860Y-104726610D01*
X141273730Y-104946317D01*
X141273735Y-104946331D01*
X141364355Y-105140668D01*
X141364356Y-105140668D01*
X142005025Y-104500000D01*
X141952364Y-104447339D01*
X142100000Y-104447339D01*
X142100000Y-104552661D01*
X142127259Y-104654394D01*
X142179920Y-104745606D01*
X142254394Y-104820080D01*
X142345606Y-104872741D01*
X142447339Y-104900000D01*
X142552661Y-104900000D01*
X142654394Y-104872741D01*
X142745606Y-104820080D01*
X142820080Y-104745606D01*
X142872741Y-104654394D01*
X142900000Y-104552661D01*
X142900000Y-104499999D01*
X142994975Y-104499999D01*
X142994975Y-104500000D01*
X143663181Y-105168206D01*
X143696666Y-105229529D01*
X143699500Y-105255886D01*
X143699500Y-105347869D01*
X143699501Y-105347876D01*
X143705908Y-105407483D01*
X143756202Y-105542328D01*
X143756206Y-105542335D01*
X143842452Y-105657544D01*
X143842455Y-105657547D01*
X143957664Y-105743793D01*
X143957671Y-105743797D01*
X144092517Y-105794091D01*
X144092516Y-105794091D01*
X144099444Y-105794835D01*
X144152127Y-105800500D01*
X145847872Y-105800499D01*
X145907483Y-105794091D01*
X146042331Y-105743796D01*
X146157546Y-105657546D01*
X146243796Y-105542331D01*
X146294091Y-105407483D01*
X146300500Y-105347873D01*
X146300500Y-104599999D01*
X153145225Y-104599999D01*
X153145225Y-104600000D01*
X153164287Y-104817884D01*
X153164289Y-104817894D01*
X153220894Y-105029150D01*
X153220899Y-105029164D01*
X153301980Y-105203044D01*
X153905025Y-104600000D01*
X153905025Y-104599999D01*
X153858948Y-104553922D01*
X154050000Y-104553922D01*
X154050000Y-104646078D01*
X154073852Y-104735095D01*
X154119930Y-104814905D01*
X154185095Y-104880070D01*
X154264905Y-104926148D01*
X154353922Y-104950000D01*
X154446078Y-104950000D01*
X154535095Y-104926148D01*
X154614905Y-104880070D01*
X154680070Y-104814905D01*
X154726148Y-104735095D01*
X154750000Y-104646078D01*
X154750000Y-104599999D01*
X154894974Y-104599999D01*
X154894974Y-104600000D01*
X155498018Y-105203044D01*
X155579101Y-105029159D01*
X155579105Y-105029150D01*
X155635710Y-104817894D01*
X155635712Y-104817884D01*
X155654775Y-104600000D01*
X155654775Y-104599999D01*
X155635712Y-104382115D01*
X155635710Y-104382105D01*
X155613710Y-104299999D01*
X157845225Y-104299999D01*
X157845225Y-104300000D01*
X157864287Y-104517884D01*
X157864289Y-104517894D01*
X157920894Y-104729150D01*
X157920899Y-104729164D01*
X158001980Y-104903044D01*
X158605025Y-104300000D01*
X158605025Y-104299999D01*
X158558948Y-104253922D01*
X158750000Y-104253922D01*
X158750000Y-104346078D01*
X158773852Y-104435095D01*
X158819930Y-104514905D01*
X158885095Y-104580070D01*
X158964905Y-104626148D01*
X159053922Y-104650000D01*
X159146078Y-104650000D01*
X159235095Y-104626148D01*
X159314905Y-104580070D01*
X159380070Y-104514905D01*
X159426148Y-104435095D01*
X159450000Y-104346078D01*
X159450000Y-104299999D01*
X159594974Y-104299999D01*
X159594974Y-104300000D01*
X160198018Y-104903044D01*
X160279101Y-104729159D01*
X160279105Y-104729150D01*
X160335710Y-104517894D01*
X160335712Y-104517884D01*
X160346026Y-104399999D01*
X168945225Y-104399999D01*
X168945225Y-104400000D01*
X168964287Y-104617884D01*
X168964289Y-104617894D01*
X169020894Y-104829150D01*
X169020899Y-104829164D01*
X169101980Y-105003044D01*
X169705025Y-104400000D01*
X169705025Y-104399999D01*
X169658948Y-104353922D01*
X169850000Y-104353922D01*
X169850000Y-104446078D01*
X169873852Y-104535095D01*
X169919930Y-104614905D01*
X169985095Y-104680070D01*
X170064905Y-104726148D01*
X170153922Y-104750000D01*
X170246078Y-104750000D01*
X170335095Y-104726148D01*
X170414905Y-104680070D01*
X170480070Y-104614905D01*
X170526148Y-104535095D01*
X170550000Y-104446078D01*
X170550000Y-104399999D01*
X170694974Y-104399999D01*
X170694974Y-104400000D01*
X171298018Y-105003044D01*
X171379101Y-104829159D01*
X171379105Y-104829150D01*
X171435710Y-104617894D01*
X171435712Y-104617884D01*
X171454775Y-104400000D01*
X171454775Y-104399999D01*
X171445852Y-104298017D01*
X175796955Y-104298017D01*
X175970840Y-104379101D01*
X175970849Y-104379105D01*
X176182105Y-104435710D01*
X176182115Y-104435712D01*
X176399999Y-104454775D01*
X176400001Y-104454775D01*
X176617884Y-104435712D01*
X176617894Y-104435710D01*
X176829150Y-104379105D01*
X176829159Y-104379101D01*
X177003044Y-104298018D01*
X176400001Y-103694974D01*
X176400000Y-103694974D01*
X175796955Y-104298017D01*
X171445852Y-104298017D01*
X171435712Y-104182115D01*
X171435710Y-104182105D01*
X171379105Y-103970849D01*
X171379101Y-103970840D01*
X171298017Y-103796955D01*
X170694974Y-104399999D01*
X170550000Y-104399999D01*
X170550000Y-104353922D01*
X170526148Y-104264905D01*
X170480070Y-104185095D01*
X170414905Y-104119930D01*
X170335095Y-104073852D01*
X170246078Y-104050000D01*
X170153922Y-104050000D01*
X170064905Y-104073852D01*
X169985095Y-104119930D01*
X169919930Y-104185095D01*
X169873852Y-104264905D01*
X169850000Y-104353922D01*
X169658948Y-104353922D01*
X169101980Y-103796954D01*
X169020899Y-103970835D01*
X169020894Y-103970849D01*
X168964289Y-104182105D01*
X168964287Y-104182115D01*
X168945225Y-104399999D01*
X160346026Y-104399999D01*
X160354775Y-104300000D01*
X160354775Y-104299999D01*
X160335712Y-104082115D01*
X160335710Y-104082105D01*
X160279105Y-103870849D01*
X160279101Y-103870840D01*
X160198017Y-103696955D01*
X159594974Y-104299999D01*
X159450000Y-104299999D01*
X159450000Y-104253922D01*
X159426148Y-104164905D01*
X159380070Y-104085095D01*
X159314905Y-104019930D01*
X159235095Y-103973852D01*
X159146078Y-103950000D01*
X159053922Y-103950000D01*
X158964905Y-103973852D01*
X158885095Y-104019930D01*
X158819930Y-104085095D01*
X158773852Y-104164905D01*
X158750000Y-104253922D01*
X158558948Y-104253922D01*
X158001980Y-103696954D01*
X157920899Y-103870835D01*
X157920894Y-103870849D01*
X157864289Y-104082105D01*
X157864287Y-104082115D01*
X157845225Y-104299999D01*
X155613710Y-104299999D01*
X155579105Y-104170849D01*
X155579101Y-104170840D01*
X155498017Y-103996955D01*
X154894974Y-104599999D01*
X154750000Y-104599999D01*
X154750000Y-104553922D01*
X154726148Y-104464905D01*
X154680070Y-104385095D01*
X154614905Y-104319930D01*
X154535095Y-104273852D01*
X154446078Y-104250000D01*
X154353922Y-104250000D01*
X154264905Y-104273852D01*
X154185095Y-104319930D01*
X154119930Y-104385095D01*
X154073852Y-104464905D01*
X154050000Y-104553922D01*
X153858948Y-104553922D01*
X153301980Y-103996954D01*
X153220899Y-104170835D01*
X153220894Y-104170849D01*
X153164289Y-104382105D01*
X153164287Y-104382115D01*
X153145225Y-104599999D01*
X146300500Y-104599999D01*
X146300499Y-103652128D01*
X146294091Y-103592517D01*
X146278233Y-103550000D01*
X146260323Y-103501980D01*
X153796954Y-103501980D01*
X154400000Y-104105025D01*
X154400001Y-104105025D01*
X155003044Y-103501980D01*
X154829164Y-103420899D01*
X154829150Y-103420894D01*
X154617894Y-103364289D01*
X154617884Y-103364287D01*
X154400001Y-103345225D01*
X154399999Y-103345225D01*
X154182115Y-103364287D01*
X154182105Y-103364289D01*
X153970849Y-103420894D01*
X153970835Y-103420899D01*
X153796954Y-103501980D01*
X146260323Y-103501980D01*
X146243797Y-103457671D01*
X146243793Y-103457664D01*
X146157547Y-103342455D01*
X146157544Y-103342452D01*
X146042335Y-103256206D01*
X146042328Y-103256202D01*
X145907482Y-103205908D01*
X145907483Y-103205908D01*
X145870943Y-103201980D01*
X158496954Y-103201980D01*
X159100000Y-103805025D01*
X159100001Y-103805025D01*
X159603044Y-103301980D01*
X169596954Y-103301980D01*
X170200000Y-103905025D01*
X170200001Y-103905025D01*
X170803044Y-103301980D01*
X170629164Y-103220899D01*
X170629150Y-103220894D01*
X170551168Y-103199999D01*
X175145225Y-103199999D01*
X175145225Y-103200000D01*
X175164287Y-103417884D01*
X175164289Y-103417894D01*
X175220894Y-103629150D01*
X175220899Y-103629164D01*
X175301980Y-103803044D01*
X175905025Y-103200000D01*
X175905025Y-103199999D01*
X175858948Y-103153922D01*
X176050000Y-103153922D01*
X176050000Y-103246078D01*
X176073852Y-103335095D01*
X176119930Y-103414905D01*
X176185095Y-103480070D01*
X176264905Y-103526148D01*
X176353922Y-103550000D01*
X176446078Y-103550000D01*
X176535095Y-103526148D01*
X176614905Y-103480070D01*
X176680070Y-103414905D01*
X176726148Y-103335095D01*
X176750000Y-103246078D01*
X176750000Y-103199999D01*
X176894974Y-103199999D01*
X176894974Y-103200000D01*
X177498018Y-103803044D01*
X177579101Y-103629159D01*
X177579105Y-103629150D01*
X177635710Y-103417894D01*
X177635712Y-103417884D01*
X177654775Y-103200000D01*
X177654775Y-103199999D01*
X177635712Y-102982115D01*
X177635710Y-102982105D01*
X177579105Y-102770849D01*
X177579101Y-102770840D01*
X177498017Y-102596955D01*
X176894974Y-103199999D01*
X176750000Y-103199999D01*
X176750000Y-103153922D01*
X176726148Y-103064905D01*
X176680070Y-102985095D01*
X176614905Y-102919930D01*
X176535095Y-102873852D01*
X176446078Y-102850000D01*
X176353922Y-102850000D01*
X176264905Y-102873852D01*
X176185095Y-102919930D01*
X176119930Y-102985095D01*
X176073852Y-103064905D01*
X176050000Y-103153922D01*
X175858948Y-103153922D01*
X175301980Y-102596954D01*
X175220899Y-102770835D01*
X175220894Y-102770849D01*
X175164289Y-102982105D01*
X175164287Y-102982115D01*
X175145225Y-103199999D01*
X170551168Y-103199999D01*
X170417894Y-103164289D01*
X170417884Y-103164287D01*
X170200001Y-103145225D01*
X170199999Y-103145225D01*
X169982115Y-103164287D01*
X169982105Y-103164289D01*
X169770849Y-103220894D01*
X169770835Y-103220899D01*
X169596954Y-103301980D01*
X159603044Y-103301980D01*
X159703044Y-103201980D01*
X159529164Y-103120899D01*
X159529150Y-103120894D01*
X159317894Y-103064289D01*
X159317884Y-103064287D01*
X159100001Y-103045225D01*
X159099999Y-103045225D01*
X158882115Y-103064287D01*
X158882105Y-103064289D01*
X158670849Y-103120894D01*
X158670835Y-103120899D01*
X158496954Y-103201980D01*
X145870943Y-103201980D01*
X145847883Y-103199501D01*
X145847881Y-103199500D01*
X145847873Y-103199500D01*
X145847864Y-103199500D01*
X144152129Y-103199500D01*
X144152123Y-103199501D01*
X144092516Y-103205908D01*
X143957671Y-103256202D01*
X143957664Y-103256206D01*
X143842455Y-103342452D01*
X143842452Y-103342455D01*
X143756206Y-103457664D01*
X143756202Y-103457671D01*
X143705908Y-103592517D01*
X143699501Y-103652116D01*
X143699501Y-103652123D01*
X143699500Y-103652135D01*
X143699500Y-103744112D01*
X143679815Y-103811151D01*
X143663181Y-103831793D01*
X142994975Y-104499999D01*
X142900000Y-104499999D01*
X142900000Y-104447339D01*
X142872741Y-104345606D01*
X142820080Y-104254394D01*
X142745606Y-104179920D01*
X142654394Y-104127259D01*
X142552661Y-104100000D01*
X142447339Y-104100000D01*
X142345606Y-104127259D01*
X142254394Y-104179920D01*
X142179920Y-104254394D01*
X142127259Y-104345606D01*
X142100000Y-104447339D01*
X141952364Y-104447339D01*
X141364355Y-103859330D01*
X141273735Y-104053668D01*
X141273730Y-104053682D01*
X141214860Y-104273389D01*
X141214858Y-104273400D01*
X141195034Y-104499997D01*
X137500500Y-104499997D01*
X137500500Y-103364355D01*
X141859330Y-103364355D01*
X142500000Y-104005025D01*
X142500001Y-104005025D01*
X143140668Y-103364356D01*
X143140668Y-103364355D01*
X142946331Y-103273735D01*
X142946317Y-103273730D01*
X142726610Y-103214860D01*
X142726599Y-103214858D01*
X142500002Y-103195034D01*
X142499998Y-103195034D01*
X142273400Y-103214858D01*
X142273389Y-103214860D01*
X142053682Y-103273730D01*
X142053668Y-103273735D01*
X141859330Y-103364355D01*
X137500500Y-103364355D01*
X137500500Y-102101980D01*
X175796954Y-102101980D01*
X176400000Y-102705025D01*
X176400001Y-102705025D01*
X177003044Y-102101980D01*
X176829164Y-102020899D01*
X176829150Y-102020894D01*
X176617894Y-101964289D01*
X176617884Y-101964287D01*
X176400001Y-101945225D01*
X176399999Y-101945225D01*
X176182115Y-101964287D01*
X176182105Y-101964289D01*
X175970849Y-102020894D01*
X175970835Y-102020899D01*
X175796954Y-102101980D01*
X137500500Y-102101980D01*
X137500500Y-101798017D01*
X145996955Y-101798017D01*
X146170840Y-101879101D01*
X146170849Y-101879105D01*
X146382105Y-101935710D01*
X146382115Y-101935712D01*
X146599999Y-101954775D01*
X146600001Y-101954775D01*
X146817884Y-101935712D01*
X146817894Y-101935710D01*
X147029150Y-101879105D01*
X147029159Y-101879101D01*
X147203044Y-101798018D01*
X146600001Y-101194974D01*
X146600000Y-101194974D01*
X145996955Y-101798017D01*
X137500500Y-101798017D01*
X137500500Y-100699999D01*
X145345225Y-100699999D01*
X145345225Y-100700000D01*
X145364287Y-100917884D01*
X145364289Y-100917894D01*
X145420894Y-101129150D01*
X145420899Y-101129164D01*
X145501980Y-101303044D01*
X146105025Y-100700000D01*
X146105025Y-100699999D01*
X146058948Y-100653922D01*
X146250000Y-100653922D01*
X146250000Y-100746078D01*
X146273852Y-100835095D01*
X146319930Y-100914905D01*
X146385095Y-100980070D01*
X146464905Y-101026148D01*
X146553922Y-101050000D01*
X146646078Y-101050000D01*
X146735095Y-101026148D01*
X146814905Y-100980070D01*
X146880070Y-100914905D01*
X146926148Y-100835095D01*
X146950000Y-100746078D01*
X146950000Y-100699999D01*
X147094974Y-100699999D01*
X147094974Y-100700000D01*
X147698018Y-101303044D01*
X147779101Y-101129159D01*
X147779105Y-101129150D01*
X147835710Y-100917894D01*
X147835712Y-100917884D01*
X147854775Y-100700000D01*
X147854775Y-100699999D01*
X147835712Y-100482115D01*
X147835710Y-100482105D01*
X147779105Y-100270849D01*
X147779101Y-100270840D01*
X147698017Y-100096955D01*
X147094974Y-100699999D01*
X146950000Y-100699999D01*
X146950000Y-100653922D01*
X146926148Y-100564905D01*
X146880070Y-100485095D01*
X146814905Y-100419930D01*
X146735095Y-100373852D01*
X146646078Y-100350000D01*
X146553922Y-100350000D01*
X146464905Y-100373852D01*
X146385095Y-100419930D01*
X146319930Y-100485095D01*
X146273852Y-100564905D01*
X146250000Y-100653922D01*
X146058948Y-100653922D01*
X145501980Y-100096954D01*
X145420899Y-100270835D01*
X145420894Y-100270849D01*
X145364289Y-100482105D01*
X145364287Y-100482115D01*
X145345225Y-100699999D01*
X137500500Y-100699999D01*
X137500500Y-99601980D01*
X145996954Y-99601980D01*
X146600000Y-100205025D01*
X146600001Y-100205025D01*
X146907008Y-99898017D01*
X153296955Y-99898017D01*
X153470840Y-99979101D01*
X153470849Y-99979105D01*
X153682105Y-100035710D01*
X153682115Y-100035712D01*
X153899999Y-100054775D01*
X153900001Y-100054775D01*
X154117884Y-100035712D01*
X154117894Y-100035710D01*
X154329150Y-99979105D01*
X154329159Y-99979101D01*
X154503044Y-99898018D01*
X154325026Y-99720000D01*
X157225172Y-99720000D01*
X157244462Y-100014312D01*
X157244464Y-100014324D01*
X157302001Y-100303584D01*
X157302005Y-100303599D01*
X157396812Y-100582888D01*
X157527258Y-100847406D01*
X157527265Y-100847419D01*
X157659581Y-101045442D01*
X158760999Y-99944024D01*
X158815359Y-100075258D01*
X158897437Y-100198097D01*
X159001903Y-100302563D01*
X159124742Y-100384641D01*
X159255974Y-100438999D01*
X158154555Y-101540418D01*
X158352580Y-101672734D01*
X158352593Y-101672741D01*
X158617111Y-101803187D01*
X158896400Y-101897994D01*
X158896415Y-101897998D01*
X159185675Y-101955535D01*
X159185687Y-101955537D01*
X159480000Y-101974827D01*
X159774312Y-101955537D01*
X159774324Y-101955535D01*
X160063584Y-101897998D01*
X160063599Y-101897994D01*
X160342888Y-101803187D01*
X160607410Y-101672740D01*
X160805443Y-101540418D01*
X159704025Y-100439000D01*
X159835258Y-100384641D01*
X159958097Y-100302563D01*
X160062563Y-100198097D01*
X160144641Y-100075258D01*
X160199000Y-99944025D01*
X161300418Y-101045443D01*
X161432740Y-100847410D01*
X161563187Y-100582888D01*
X161657994Y-100303599D01*
X161657998Y-100303584D01*
X161715535Y-100014324D01*
X161715537Y-100014312D01*
X161734827Y-99720000D01*
X164105172Y-99720000D01*
X164124462Y-100014312D01*
X164124464Y-100014324D01*
X164182001Y-100303584D01*
X164182005Y-100303599D01*
X164276812Y-100582888D01*
X164407258Y-100847406D01*
X164407265Y-100847419D01*
X164539581Y-101045442D01*
X165640999Y-99944024D01*
X165695359Y-100075258D01*
X165777437Y-100198097D01*
X165881903Y-100302563D01*
X166004742Y-100384641D01*
X166135974Y-100438999D01*
X165034555Y-101540418D01*
X165232580Y-101672734D01*
X165232593Y-101672741D01*
X165497111Y-101803187D01*
X165776400Y-101897994D01*
X165776415Y-101897998D01*
X166065675Y-101955535D01*
X166065687Y-101955537D01*
X166360000Y-101974827D01*
X166654312Y-101955537D01*
X166654324Y-101955535D01*
X166943584Y-101897998D01*
X166943599Y-101897994D01*
X167222888Y-101803187D01*
X167487410Y-101672740D01*
X167685443Y-101540418D01*
X166584025Y-100439000D01*
X166715258Y-100384641D01*
X166838097Y-100302563D01*
X166942563Y-100198097D01*
X167024641Y-100075258D01*
X167079000Y-99944025D01*
X168180418Y-101045443D01*
X168312740Y-100847410D01*
X168443187Y-100582888D01*
X168537994Y-100303599D01*
X168537998Y-100303584D01*
X168595535Y-100014324D01*
X168595537Y-100014312D01*
X168614827Y-99720000D01*
X168596475Y-99440000D01*
X174805172Y-99440000D01*
X174824462Y-99734312D01*
X174824464Y-99734324D01*
X174882001Y-100023584D01*
X174882005Y-100023599D01*
X174976812Y-100302888D01*
X175107258Y-100567406D01*
X175107265Y-100567419D01*
X175239581Y-100765442D01*
X176340999Y-99664024D01*
X176395359Y-99795258D01*
X176477437Y-99918097D01*
X176581903Y-100022563D01*
X176704742Y-100104641D01*
X176835974Y-100158999D01*
X175734555Y-101260418D01*
X175932580Y-101392734D01*
X175932593Y-101392741D01*
X176197111Y-101523187D01*
X176476400Y-101617994D01*
X176476415Y-101617998D01*
X176765675Y-101675535D01*
X176765687Y-101675537D01*
X177060000Y-101694827D01*
X177354312Y-101675537D01*
X177354324Y-101675535D01*
X177643584Y-101617998D01*
X177643599Y-101617994D01*
X177922888Y-101523187D01*
X178187410Y-101392740D01*
X178385443Y-101260418D01*
X177284025Y-100159000D01*
X177415258Y-100104641D01*
X177538097Y-100022563D01*
X177642563Y-99918097D01*
X177724641Y-99795258D01*
X177779000Y-99664025D01*
X178880418Y-100765443D01*
X179012740Y-100567410D01*
X179143187Y-100302888D01*
X179237994Y-100023599D01*
X179237998Y-100023584D01*
X179295535Y-99734324D01*
X179295537Y-99734312D01*
X179314827Y-99440000D01*
X181685172Y-99440000D01*
X181704462Y-99734312D01*
X181704464Y-99734324D01*
X181762001Y-100023584D01*
X181762005Y-100023599D01*
X181856812Y-100302888D01*
X181987258Y-100567406D01*
X181987265Y-100567419D01*
X182119581Y-100765442D01*
X183220999Y-99664024D01*
X183275359Y-99795258D01*
X183357437Y-99918097D01*
X183461903Y-100022563D01*
X183584742Y-100104641D01*
X183715974Y-100158999D01*
X182614555Y-101260418D01*
X182812580Y-101392734D01*
X182812593Y-101392741D01*
X183077111Y-101523187D01*
X183356400Y-101617994D01*
X183356415Y-101617998D01*
X183645675Y-101675535D01*
X183645687Y-101675537D01*
X183940000Y-101694827D01*
X184234312Y-101675537D01*
X184234324Y-101675535D01*
X184523584Y-101617998D01*
X184523599Y-101617994D01*
X184802888Y-101523187D01*
X185067410Y-101392740D01*
X185265443Y-101260418D01*
X184164025Y-100159000D01*
X184295258Y-100104641D01*
X184418097Y-100022563D01*
X184522563Y-99918097D01*
X184604641Y-99795258D01*
X184659000Y-99664025D01*
X185760418Y-100765443D01*
X185892740Y-100567410D01*
X186023187Y-100302888D01*
X186117994Y-100023599D01*
X186117998Y-100023584D01*
X186175535Y-99734324D01*
X186175537Y-99734312D01*
X186194827Y-99440000D01*
X186175537Y-99145687D01*
X186175535Y-99145675D01*
X186117998Y-98856415D01*
X186117994Y-98856400D01*
X186023187Y-98577111D01*
X185892741Y-98312593D01*
X185892734Y-98312580D01*
X185760418Y-98114555D01*
X184658999Y-99215974D01*
X184604641Y-99084742D01*
X184522563Y-98961903D01*
X184418097Y-98857437D01*
X184295258Y-98775359D01*
X184164025Y-98721000D01*
X185265442Y-97619581D01*
X185067419Y-97487265D01*
X185067406Y-97487258D01*
X184802888Y-97356812D01*
X184523599Y-97262005D01*
X184523584Y-97262001D01*
X184234324Y-97204464D01*
X184234312Y-97204462D01*
X183940000Y-97185172D01*
X183645687Y-97204462D01*
X183645675Y-97204464D01*
X183356415Y-97262001D01*
X183356400Y-97262005D01*
X183077111Y-97356812D01*
X182812585Y-97487262D01*
X182614556Y-97619581D01*
X183715974Y-98720999D01*
X183584742Y-98775359D01*
X183461903Y-98857437D01*
X183357437Y-98961903D01*
X183275359Y-99084742D01*
X183220999Y-99215974D01*
X182119581Y-98114556D01*
X181987262Y-98312585D01*
X181856812Y-98577111D01*
X181762005Y-98856400D01*
X181762001Y-98856415D01*
X181704464Y-99145675D01*
X181704462Y-99145687D01*
X181685172Y-99440000D01*
X179314827Y-99440000D01*
X179295537Y-99145687D01*
X179295535Y-99145675D01*
X179237998Y-98856415D01*
X179237994Y-98856400D01*
X179143187Y-98577111D01*
X179012741Y-98312593D01*
X179012734Y-98312580D01*
X178880418Y-98114555D01*
X177778999Y-99215974D01*
X177724641Y-99084742D01*
X177642563Y-98961903D01*
X177538097Y-98857437D01*
X177415258Y-98775359D01*
X177284025Y-98721000D01*
X178385442Y-97619581D01*
X178187419Y-97487265D01*
X178187406Y-97487258D01*
X177922888Y-97356812D01*
X177643599Y-97262005D01*
X177643584Y-97262001D01*
X177354324Y-97204464D01*
X177354312Y-97204462D01*
X177060000Y-97185172D01*
X176765687Y-97204462D01*
X176765675Y-97204464D01*
X176476415Y-97262001D01*
X176476400Y-97262005D01*
X176197111Y-97356812D01*
X175932585Y-97487262D01*
X175734556Y-97619581D01*
X176835974Y-98720999D01*
X176704742Y-98775359D01*
X176581903Y-98857437D01*
X176477437Y-98961903D01*
X176395359Y-99084742D01*
X176340999Y-99215974D01*
X175239581Y-98114556D01*
X175107262Y-98312585D01*
X174976812Y-98577111D01*
X174882005Y-98856400D01*
X174882001Y-98856415D01*
X174824464Y-99145675D01*
X174824462Y-99145687D01*
X174805172Y-99440000D01*
X168596475Y-99440000D01*
X168595537Y-99425687D01*
X168595535Y-99425675D01*
X168537998Y-99136415D01*
X168537994Y-99136400D01*
X168443187Y-98857111D01*
X168312741Y-98592593D01*
X168312734Y-98592580D01*
X168180418Y-98394555D01*
X167078999Y-99495974D01*
X167024641Y-99364742D01*
X166942563Y-99241903D01*
X166838097Y-99137437D01*
X166715258Y-99055359D01*
X166584025Y-99001000D01*
X167685442Y-97899581D01*
X167487419Y-97767265D01*
X167487406Y-97767258D01*
X167222888Y-97636812D01*
X166943599Y-97542005D01*
X166943584Y-97542001D01*
X166654324Y-97484464D01*
X166654312Y-97484462D01*
X166360000Y-97465172D01*
X166065687Y-97484462D01*
X166065675Y-97484464D01*
X165776415Y-97542001D01*
X165776400Y-97542005D01*
X165497111Y-97636812D01*
X165232585Y-97767262D01*
X165034556Y-97899581D01*
X166135974Y-99000999D01*
X166004742Y-99055359D01*
X165881903Y-99137437D01*
X165777437Y-99241903D01*
X165695359Y-99364742D01*
X165640999Y-99495974D01*
X164539581Y-98394556D01*
X164407262Y-98592585D01*
X164276812Y-98857111D01*
X164182005Y-99136400D01*
X164182001Y-99136415D01*
X164124464Y-99425675D01*
X164124462Y-99425687D01*
X164105172Y-99720000D01*
X161734827Y-99720000D01*
X161715537Y-99425687D01*
X161715535Y-99425675D01*
X161657998Y-99136415D01*
X161657994Y-99136400D01*
X161563187Y-98857111D01*
X161432741Y-98592593D01*
X161432734Y-98592580D01*
X161300418Y-98394555D01*
X160198999Y-99495974D01*
X160144641Y-99364742D01*
X160062563Y-99241903D01*
X159958097Y-99137437D01*
X159835258Y-99055359D01*
X159704025Y-99001000D01*
X160805442Y-97899581D01*
X160607419Y-97767265D01*
X160607406Y-97767258D01*
X160342888Y-97636812D01*
X160063599Y-97542005D01*
X160063584Y-97542001D01*
X159774324Y-97484464D01*
X159774312Y-97484462D01*
X159480000Y-97465172D01*
X159185687Y-97484462D01*
X159185675Y-97484464D01*
X158896415Y-97542001D01*
X158896400Y-97542005D01*
X158617111Y-97636812D01*
X158352585Y-97767262D01*
X158154556Y-97899581D01*
X159255974Y-99000999D01*
X159124742Y-99055359D01*
X159001903Y-99137437D01*
X158897437Y-99241903D01*
X158815359Y-99364742D01*
X158760999Y-99495974D01*
X157659581Y-98394556D01*
X157527262Y-98592585D01*
X157396812Y-98857111D01*
X157302005Y-99136400D01*
X157302001Y-99136415D01*
X157244464Y-99425675D01*
X157244462Y-99425687D01*
X157225172Y-99720000D01*
X154325026Y-99720000D01*
X153900001Y-99294974D01*
X153900000Y-99294974D01*
X153296955Y-99898017D01*
X146907008Y-99898017D01*
X147203044Y-99601980D01*
X147029164Y-99520899D01*
X147029150Y-99520894D01*
X146817894Y-99464289D01*
X146817884Y-99464287D01*
X146600001Y-99445225D01*
X146599999Y-99445225D01*
X146382115Y-99464287D01*
X146382105Y-99464289D01*
X146170849Y-99520894D01*
X146170835Y-99520899D01*
X145996954Y-99601980D01*
X137500500Y-99601980D01*
X137500500Y-98799999D01*
X152645225Y-98799999D01*
X152645225Y-98800000D01*
X152664287Y-99017884D01*
X152664289Y-99017894D01*
X152720894Y-99229150D01*
X152720899Y-99229164D01*
X152801980Y-99403044D01*
X153405025Y-98800000D01*
X153405025Y-98799999D01*
X153358948Y-98753922D01*
X153550000Y-98753922D01*
X153550000Y-98846078D01*
X153573852Y-98935095D01*
X153619930Y-99014905D01*
X153685095Y-99080070D01*
X153764905Y-99126148D01*
X153853922Y-99150000D01*
X153946078Y-99150000D01*
X154035095Y-99126148D01*
X154114905Y-99080070D01*
X154180070Y-99014905D01*
X154226148Y-98935095D01*
X154250000Y-98846078D01*
X154250000Y-98799999D01*
X154394974Y-98799999D01*
X154394974Y-98800000D01*
X154998018Y-99403044D01*
X155079101Y-99229159D01*
X155079105Y-99229150D01*
X155135710Y-99017894D01*
X155135712Y-99017884D01*
X155154775Y-98800000D01*
X155154775Y-98799999D01*
X155135712Y-98582115D01*
X155135710Y-98582105D01*
X155079105Y-98370849D01*
X155079101Y-98370840D01*
X154998017Y-98196955D01*
X154394974Y-98799999D01*
X154250000Y-98799999D01*
X154250000Y-98753922D01*
X154226148Y-98664905D01*
X154180070Y-98585095D01*
X154114905Y-98519930D01*
X154035095Y-98473852D01*
X153946078Y-98450000D01*
X153853922Y-98450000D01*
X153764905Y-98473852D01*
X153685095Y-98519930D01*
X153619930Y-98585095D01*
X153573852Y-98664905D01*
X153550000Y-98753922D01*
X153358948Y-98753922D01*
X152801980Y-98196954D01*
X152720899Y-98370835D01*
X152720894Y-98370849D01*
X152664289Y-98582105D01*
X152664287Y-98582115D01*
X152645225Y-98799999D01*
X137500500Y-98799999D01*
X137500500Y-97798017D01*
X141496955Y-97798017D01*
X141670840Y-97879101D01*
X141670849Y-97879105D01*
X141882105Y-97935710D01*
X141882115Y-97935712D01*
X142099999Y-97954775D01*
X142100001Y-97954775D01*
X142317884Y-97935712D01*
X142317894Y-97935710D01*
X142529150Y-97879105D01*
X142529159Y-97879101D01*
X142703044Y-97798018D01*
X142607006Y-97701980D01*
X153296954Y-97701980D01*
X153900000Y-98305025D01*
X153900001Y-98305025D01*
X154503044Y-97701980D01*
X154329164Y-97620899D01*
X154329150Y-97620894D01*
X154117894Y-97564289D01*
X154117884Y-97564287D01*
X153900001Y-97545225D01*
X153899999Y-97545225D01*
X153682115Y-97564287D01*
X153682105Y-97564289D01*
X153470849Y-97620894D01*
X153470835Y-97620899D01*
X153296954Y-97701980D01*
X142607006Y-97701980D01*
X142100001Y-97194974D01*
X142100000Y-97194974D01*
X141496955Y-97798017D01*
X137500500Y-97798017D01*
X137500500Y-93602135D01*
X139349500Y-93602135D01*
X139349500Y-95397870D01*
X139349501Y-95397876D01*
X139355908Y-95457483D01*
X139406202Y-95592328D01*
X139406206Y-95592335D01*
X139492452Y-95707544D01*
X139492455Y-95707547D01*
X139607664Y-95793793D01*
X139607671Y-95793797D01*
X139742517Y-95844091D01*
X139742516Y-95844091D01*
X139749444Y-95844835D01*
X139802127Y-95850500D01*
X140930657Y-95850499D01*
X140997695Y-95870184D01*
X141043450Y-95922987D01*
X141053394Y-95992146D01*
X141032232Y-96045620D01*
X141013338Y-96072604D01*
X141013333Y-96072612D01*
X140920898Y-96270840D01*
X140920894Y-96270849D01*
X140864289Y-96482105D01*
X140864287Y-96482115D01*
X140845225Y-96699999D01*
X140845225Y-96700000D01*
X140864287Y-96917884D01*
X140864289Y-96917894D01*
X140920894Y-97129150D01*
X140920899Y-97129164D01*
X141001980Y-97303044D01*
X141651102Y-96653922D01*
X141750000Y-96653922D01*
X141750000Y-96746078D01*
X141773852Y-96835095D01*
X141819930Y-96914905D01*
X141885095Y-96980070D01*
X141964905Y-97026148D01*
X142053922Y-97050000D01*
X142146078Y-97050000D01*
X142235095Y-97026148D01*
X142314905Y-96980070D01*
X142380070Y-96914905D01*
X142426148Y-96835095D01*
X142450000Y-96746078D01*
X142450000Y-96699999D01*
X142594974Y-96699999D01*
X142594974Y-96700000D01*
X143198018Y-97303044D01*
X143279101Y-97129159D01*
X143279105Y-97129150D01*
X143335710Y-96917894D01*
X143335712Y-96917884D01*
X143354775Y-96700000D01*
X143354775Y-96699999D01*
X143335712Y-96482115D01*
X143335710Y-96482105D01*
X143281555Y-96279992D01*
X160664671Y-96279992D01*
X160664671Y-96280007D01*
X160683964Y-96574363D01*
X160683965Y-96574373D01*
X160683966Y-96574380D01*
X160718118Y-96746078D01*
X160741518Y-96863716D01*
X160741521Y-96863730D01*
X160836349Y-97143080D01*
X160966825Y-97407660D01*
X160966829Y-97407667D01*
X161130725Y-97652955D01*
X161325241Y-97874758D01*
X161547044Y-98069274D01*
X161710480Y-98178478D01*
X161792335Y-98233172D01*
X162056923Y-98363652D01*
X162336278Y-98458481D01*
X162625620Y-98516034D01*
X162653888Y-98517886D01*
X162919993Y-98535329D01*
X162920000Y-98535329D01*
X162920007Y-98535329D01*
X163155675Y-98519881D01*
X163214380Y-98516034D01*
X163503722Y-98458481D01*
X163783077Y-98363652D01*
X164047665Y-98233172D01*
X164292957Y-98069273D01*
X164514758Y-97874758D01*
X164709273Y-97652957D01*
X164873172Y-97407665D01*
X165003652Y-97143077D01*
X165098481Y-96863722D01*
X165156034Y-96574380D01*
X165161886Y-96485095D01*
X165175329Y-96280007D01*
X165175329Y-96279992D01*
X165163401Y-96098017D01*
X170296955Y-96098017D01*
X170470840Y-96179101D01*
X170470849Y-96179105D01*
X170682105Y-96235710D01*
X170682115Y-96235712D01*
X170899999Y-96254775D01*
X170900001Y-96254775D01*
X171117884Y-96235712D01*
X171117894Y-96235710D01*
X171329150Y-96179105D01*
X171329159Y-96179101D01*
X171503044Y-96098018D01*
X171405018Y-95999992D01*
X178244671Y-95999992D01*
X178244671Y-96000007D01*
X178263964Y-96294363D01*
X178263965Y-96294373D01*
X178263966Y-96294380D01*
X178319657Y-96574363D01*
X178321518Y-96583716D01*
X178321521Y-96583730D01*
X178416349Y-96863080D01*
X178546825Y-97127660D01*
X178546829Y-97127667D01*
X178710725Y-97372955D01*
X178905241Y-97594758D01*
X179127044Y-97789274D01*
X179254980Y-97874758D01*
X179372335Y-97953172D01*
X179636923Y-98083652D01*
X179916278Y-98178481D01*
X180205620Y-98236034D01*
X180233888Y-98237886D01*
X180499993Y-98255329D01*
X180500000Y-98255329D01*
X180500007Y-98255329D01*
X180735675Y-98239881D01*
X180794380Y-98236034D01*
X181083722Y-98178481D01*
X181363077Y-98083652D01*
X181627665Y-97953172D01*
X181872957Y-97789273D01*
X182094758Y-97594758D01*
X182289273Y-97372957D01*
X182453172Y-97127665D01*
X182583652Y-96863077D01*
X182678481Y-96583722D01*
X182736034Y-96294380D01*
X182743590Y-96179101D01*
X182755329Y-96000007D01*
X182755329Y-95999992D01*
X182736035Y-95705636D01*
X182736034Y-95705620D01*
X182678481Y-95416278D01*
X182583652Y-95136923D01*
X182453172Y-94872336D01*
X182399988Y-94792741D01*
X182392882Y-94782105D01*
X182289273Y-94627043D01*
X182239980Y-94570835D01*
X182094758Y-94405241D01*
X181872955Y-94210725D01*
X181627667Y-94046829D01*
X181627660Y-94046825D01*
X181363080Y-93916349D01*
X181083730Y-93821521D01*
X181083724Y-93821519D01*
X181083722Y-93821519D01*
X180794380Y-93763966D01*
X180794373Y-93763965D01*
X180794363Y-93763964D01*
X180500007Y-93744671D01*
X180499993Y-93744671D01*
X180205636Y-93763964D01*
X180205624Y-93763965D01*
X180205620Y-93763966D01*
X180205612Y-93763967D01*
X180205609Y-93763968D01*
X179916283Y-93821518D01*
X179916269Y-93821521D01*
X179636919Y-93916349D01*
X179372334Y-94046828D01*
X179127041Y-94210728D01*
X178905241Y-94405241D01*
X178710728Y-94627041D01*
X178546828Y-94872334D01*
X178416349Y-95136919D01*
X178321521Y-95416269D01*
X178321518Y-95416283D01*
X178263968Y-95705609D01*
X178263964Y-95705636D01*
X178244671Y-95999992D01*
X171405018Y-95999992D01*
X170900001Y-95494974D01*
X170900000Y-95494974D01*
X170296955Y-96098017D01*
X165163401Y-96098017D01*
X165156035Y-95985636D01*
X165156034Y-95985620D01*
X165098481Y-95696278D01*
X165003652Y-95416923D01*
X164873172Y-95152336D01*
X164862873Y-95136923D01*
X164802173Y-95046078D01*
X164709273Y-94907043D01*
X164666655Y-94858447D01*
X164514758Y-94685241D01*
X164292955Y-94490725D01*
X164047667Y-94326829D01*
X164047660Y-94326825D01*
X163783080Y-94196349D01*
X163503730Y-94101521D01*
X163503724Y-94101519D01*
X163503722Y-94101519D01*
X163214380Y-94043966D01*
X163214373Y-94043965D01*
X163214363Y-94043964D01*
X162920007Y-94024671D01*
X162919993Y-94024671D01*
X162625636Y-94043964D01*
X162625624Y-94043965D01*
X162625620Y-94043966D01*
X162625612Y-94043967D01*
X162625609Y-94043968D01*
X162336283Y-94101518D01*
X162336269Y-94101521D01*
X162056919Y-94196349D01*
X161792334Y-94326828D01*
X161547041Y-94490728D01*
X161325241Y-94685241D01*
X161130728Y-94907041D01*
X160966828Y-95152334D01*
X160836349Y-95416919D01*
X160741521Y-95696269D01*
X160741518Y-95696283D01*
X160683968Y-95985609D01*
X160683964Y-95985636D01*
X160664671Y-96279992D01*
X143281555Y-96279992D01*
X143279105Y-96270849D01*
X143279101Y-96270840D01*
X143198017Y-96096955D01*
X142594974Y-96699999D01*
X142450000Y-96699999D01*
X142450000Y-96653922D01*
X142426148Y-96564905D01*
X142380070Y-96485095D01*
X142314905Y-96419930D01*
X142235095Y-96373852D01*
X142146078Y-96350000D01*
X142053922Y-96350000D01*
X141964905Y-96373852D01*
X141885095Y-96419930D01*
X141819930Y-96485095D01*
X141773852Y-96564905D01*
X141750000Y-96653922D01*
X141651102Y-96653922D01*
X142703044Y-95601980D01*
X142529164Y-95520899D01*
X142529150Y-95520894D01*
X142317894Y-95464289D01*
X142317884Y-95464287D01*
X142163691Y-95450797D01*
X142098623Y-95425344D01*
X142057644Y-95368753D01*
X142050499Y-95327274D01*
X142050499Y-93602128D01*
X142044091Y-93542517D01*
X142029964Y-93504641D01*
X141993797Y-93407671D01*
X141993793Y-93407664D01*
X141907547Y-93292455D01*
X141907544Y-93292452D01*
X141792335Y-93206206D01*
X141792328Y-93206202D01*
X141660401Y-93156997D01*
X141604467Y-93115126D01*
X141580050Y-93049662D01*
X141594902Y-92981389D01*
X141616053Y-92953133D01*
X141738108Y-92831078D01*
X141873600Y-92637578D01*
X141973429Y-92423492D01*
X141973432Y-92423486D01*
X142003841Y-92310000D01*
X141057106Y-92310000D01*
X141069089Y-92298017D01*
X143696955Y-92298017D01*
X143870840Y-92379101D01*
X143870849Y-92379105D01*
X144082105Y-92435710D01*
X144082115Y-92435712D01*
X144299999Y-92454775D01*
X144300001Y-92454775D01*
X144517884Y-92435712D01*
X144517894Y-92435710D01*
X144729150Y-92379105D01*
X144729159Y-92379101D01*
X144903044Y-92298018D01*
X144803043Y-92198017D01*
X148096955Y-92198017D01*
X148270840Y-92279101D01*
X148270849Y-92279105D01*
X148482105Y-92335710D01*
X148482115Y-92335712D01*
X148699999Y-92354775D01*
X148700001Y-92354775D01*
X148917884Y-92335712D01*
X148917894Y-92335710D01*
X149129150Y-92279105D01*
X149129159Y-92279101D01*
X149237222Y-92228711D01*
X151949500Y-92228711D01*
X151949500Y-92471288D01*
X151981161Y-92711785D01*
X152043947Y-92946104D01*
X152131302Y-93156997D01*
X152136776Y-93170212D01*
X152258064Y-93380289D01*
X152258066Y-93380292D01*
X152258067Y-93380293D01*
X152405733Y-93572736D01*
X152405739Y-93572743D01*
X152577256Y-93744260D01*
X152577263Y-93744266D01*
X152603355Y-93764287D01*
X152769711Y-93891936D01*
X152979788Y-94013224D01*
X153175269Y-94094195D01*
X153192951Y-94101519D01*
X153203900Y-94106054D01*
X153438211Y-94168838D01*
X153618586Y-94192584D01*
X153678711Y-94200500D01*
X153678712Y-94200500D01*
X153921289Y-94200500D01*
X153969388Y-94194167D01*
X154161789Y-94168838D01*
X154396100Y-94106054D01*
X154620212Y-94013224D01*
X154830289Y-93891936D01*
X155022738Y-93744265D01*
X155194265Y-93572738D01*
X155341936Y-93380289D01*
X155463224Y-93170212D01*
X155556054Y-92946100D01*
X155584484Y-92840000D01*
X157225172Y-92840000D01*
X157244462Y-93134312D01*
X157244464Y-93134324D01*
X157302001Y-93423584D01*
X157302005Y-93423599D01*
X157396812Y-93702888D01*
X157527258Y-93967406D01*
X157527265Y-93967419D01*
X157659581Y-94165442D01*
X158760999Y-93064024D01*
X158815359Y-93195258D01*
X158897437Y-93318097D01*
X159001903Y-93422563D01*
X159124742Y-93504641D01*
X159255974Y-93558999D01*
X158154555Y-94660418D01*
X158352580Y-94792734D01*
X158352593Y-94792741D01*
X158617111Y-94923187D01*
X158896400Y-95017994D01*
X158896415Y-95017998D01*
X159185675Y-95075535D01*
X159185687Y-95075537D01*
X159480000Y-95094827D01*
X159774312Y-95075537D01*
X159774324Y-95075535D01*
X160063584Y-95017998D01*
X160063599Y-95017994D01*
X160342888Y-94923187D01*
X160607410Y-94792740D01*
X160805443Y-94660418D01*
X159704025Y-93559000D01*
X159835258Y-93504641D01*
X159958097Y-93422563D01*
X160062563Y-93318097D01*
X160144641Y-93195258D01*
X160199000Y-93064025D01*
X161300418Y-94165443D01*
X161432740Y-93967410D01*
X161563187Y-93702888D01*
X161657994Y-93423599D01*
X161657998Y-93423584D01*
X161715535Y-93134324D01*
X161715537Y-93134312D01*
X161734827Y-92840000D01*
X164105172Y-92840000D01*
X164124462Y-93134312D01*
X164124464Y-93134324D01*
X164182001Y-93423584D01*
X164182005Y-93423599D01*
X164276812Y-93702888D01*
X164407258Y-93967406D01*
X164407265Y-93967419D01*
X164539581Y-94165442D01*
X165640999Y-93064024D01*
X165695359Y-93195258D01*
X165777437Y-93318097D01*
X165881903Y-93422563D01*
X166004742Y-93504641D01*
X166135974Y-93558999D01*
X165034555Y-94660418D01*
X165232580Y-94792734D01*
X165232593Y-94792741D01*
X165497111Y-94923187D01*
X165776400Y-95017994D01*
X165776415Y-95017998D01*
X166065675Y-95075535D01*
X166065687Y-95075537D01*
X166360000Y-95094827D01*
X166654312Y-95075537D01*
X166654324Y-95075535D01*
X166943584Y-95017998D01*
X166943599Y-95017994D01*
X166996610Y-94999999D01*
X169645225Y-94999999D01*
X169645225Y-95000000D01*
X169664287Y-95217884D01*
X169664289Y-95217894D01*
X169720894Y-95429150D01*
X169720899Y-95429164D01*
X169801980Y-95603044D01*
X170405025Y-95000000D01*
X170405025Y-94999999D01*
X170358948Y-94953922D01*
X170550000Y-94953922D01*
X170550000Y-95046078D01*
X170573852Y-95135095D01*
X170619930Y-95214905D01*
X170685095Y-95280070D01*
X170764905Y-95326148D01*
X170853922Y-95350000D01*
X170946078Y-95350000D01*
X171035095Y-95326148D01*
X171114905Y-95280070D01*
X171180070Y-95214905D01*
X171226148Y-95135095D01*
X171250000Y-95046078D01*
X171250000Y-94999999D01*
X171394974Y-94999999D01*
X171394974Y-95000000D01*
X171998018Y-95603044D01*
X172079101Y-95429159D01*
X172079105Y-95429150D01*
X172135710Y-95217894D01*
X172135712Y-95217884D01*
X172154775Y-95000000D01*
X172154775Y-94999999D01*
X172135712Y-94782115D01*
X172135710Y-94782105D01*
X172079105Y-94570849D01*
X172079101Y-94570840D01*
X171998017Y-94396955D01*
X171394974Y-94999999D01*
X171250000Y-94999999D01*
X171250000Y-94953922D01*
X171226148Y-94864905D01*
X171180070Y-94785095D01*
X171114905Y-94719930D01*
X171035095Y-94673852D01*
X170946078Y-94650000D01*
X170853922Y-94650000D01*
X170764905Y-94673852D01*
X170685095Y-94719930D01*
X170619930Y-94785095D01*
X170573852Y-94864905D01*
X170550000Y-94953922D01*
X170358948Y-94953922D01*
X169801980Y-94396954D01*
X169720899Y-94570835D01*
X169720894Y-94570849D01*
X169664289Y-94782105D01*
X169664287Y-94782115D01*
X169645225Y-94999999D01*
X166996610Y-94999999D01*
X167222888Y-94923187D01*
X167487410Y-94792740D01*
X167685443Y-94660418D01*
X166584025Y-93559000D01*
X166715258Y-93504641D01*
X166838097Y-93422563D01*
X166942563Y-93318097D01*
X167024641Y-93195258D01*
X167079000Y-93064025D01*
X168180418Y-94165443D01*
X168312740Y-93967410D01*
X168345006Y-93901980D01*
X170296954Y-93901980D01*
X170900000Y-94505025D01*
X170900001Y-94505025D01*
X171503044Y-93901980D01*
X171329164Y-93820899D01*
X171329150Y-93820894D01*
X171117894Y-93764289D01*
X171117884Y-93764287D01*
X170900001Y-93745225D01*
X170899999Y-93745225D01*
X170682115Y-93764287D01*
X170682105Y-93764289D01*
X170470849Y-93820894D01*
X170470835Y-93820899D01*
X170296954Y-93901980D01*
X168345006Y-93901980D01*
X168443187Y-93702888D01*
X168537994Y-93423599D01*
X168537998Y-93423584D01*
X168595535Y-93134324D01*
X168595537Y-93134312D01*
X168614827Y-92840000D01*
X168596475Y-92560000D01*
X174805172Y-92560000D01*
X174824462Y-92854312D01*
X174824464Y-92854324D01*
X174882001Y-93143584D01*
X174882005Y-93143599D01*
X174976812Y-93422888D01*
X175107258Y-93687406D01*
X175107265Y-93687419D01*
X175239581Y-93885442D01*
X176340999Y-92784024D01*
X176395359Y-92915258D01*
X176477437Y-93038097D01*
X176581903Y-93142563D01*
X176704742Y-93224641D01*
X176835974Y-93278999D01*
X175734555Y-94380418D01*
X175932580Y-94512734D01*
X175932593Y-94512741D01*
X176197111Y-94643187D01*
X176476400Y-94737994D01*
X176476415Y-94737998D01*
X176765675Y-94795535D01*
X176765687Y-94795537D01*
X177060000Y-94814827D01*
X177354312Y-94795537D01*
X177354324Y-94795535D01*
X177643584Y-94737998D01*
X177643599Y-94737994D01*
X177922888Y-94643187D01*
X178187410Y-94512740D01*
X178385443Y-94380418D01*
X177284025Y-93279000D01*
X177415258Y-93224641D01*
X177538097Y-93142563D01*
X177642563Y-93038097D01*
X177724641Y-92915258D01*
X177779000Y-92784025D01*
X178880418Y-93885443D01*
X179012740Y-93687410D01*
X179143187Y-93422888D01*
X179237994Y-93143599D01*
X179237998Y-93143584D01*
X179295535Y-92854324D01*
X179295537Y-92854312D01*
X179314827Y-92560000D01*
X181685172Y-92560000D01*
X181704462Y-92854312D01*
X181704464Y-92854324D01*
X181762001Y-93143584D01*
X181762005Y-93143599D01*
X181856812Y-93422888D01*
X181987258Y-93687406D01*
X181987265Y-93687419D01*
X182119581Y-93885442D01*
X183220999Y-92784024D01*
X183275359Y-92915258D01*
X183357437Y-93038097D01*
X183461903Y-93142563D01*
X183584742Y-93224641D01*
X183715974Y-93278999D01*
X182614555Y-94380418D01*
X182812580Y-94512734D01*
X182812593Y-94512741D01*
X183077111Y-94643187D01*
X183356400Y-94737994D01*
X183356415Y-94737998D01*
X183645675Y-94795535D01*
X183645687Y-94795537D01*
X183940000Y-94814827D01*
X184234312Y-94795537D01*
X184234324Y-94795535D01*
X184523584Y-94737998D01*
X184523599Y-94737994D01*
X184802888Y-94643187D01*
X185067410Y-94512740D01*
X185265443Y-94380418D01*
X184164025Y-93279000D01*
X184295258Y-93224641D01*
X184418097Y-93142563D01*
X184522563Y-93038097D01*
X184604641Y-92915258D01*
X184659000Y-92784025D01*
X185760418Y-93885443D01*
X185892740Y-93687410D01*
X186023187Y-93422888D01*
X186117994Y-93143599D01*
X186117998Y-93143584D01*
X186175535Y-92854324D01*
X186175537Y-92854312D01*
X186194827Y-92560000D01*
X186175537Y-92265687D01*
X186175535Y-92265675D01*
X186117998Y-91976415D01*
X186117994Y-91976400D01*
X186023187Y-91697111D01*
X185892741Y-91432593D01*
X185892734Y-91432580D01*
X185760418Y-91234555D01*
X184658999Y-92335974D01*
X184604641Y-92204742D01*
X184522563Y-92081903D01*
X184418097Y-91977437D01*
X184295258Y-91895359D01*
X184164025Y-91841000D01*
X185265442Y-90739581D01*
X185067419Y-90607265D01*
X185067406Y-90607258D01*
X184802888Y-90476812D01*
X184523599Y-90382005D01*
X184523584Y-90382001D01*
X184234324Y-90324464D01*
X184234312Y-90324462D01*
X183940000Y-90305172D01*
X183645687Y-90324462D01*
X183645675Y-90324464D01*
X183356415Y-90382001D01*
X183356400Y-90382005D01*
X183077111Y-90476812D01*
X182812585Y-90607262D01*
X182614556Y-90739581D01*
X183715974Y-91840999D01*
X183584742Y-91895359D01*
X183461903Y-91977437D01*
X183357437Y-92081903D01*
X183275359Y-92204742D01*
X183220999Y-92335974D01*
X182119581Y-91234556D01*
X181987262Y-91432585D01*
X181856812Y-91697111D01*
X181762005Y-91976400D01*
X181762001Y-91976415D01*
X181704464Y-92265675D01*
X181704462Y-92265687D01*
X181685172Y-92560000D01*
X179314827Y-92560000D01*
X179295537Y-92265687D01*
X179295535Y-92265675D01*
X179237998Y-91976415D01*
X179237994Y-91976400D01*
X179143187Y-91697111D01*
X179012741Y-91432593D01*
X179012734Y-91432580D01*
X178880418Y-91234555D01*
X177778999Y-92335974D01*
X177724641Y-92204742D01*
X177642563Y-92081903D01*
X177538097Y-91977437D01*
X177415258Y-91895359D01*
X177284025Y-91841000D01*
X178385442Y-90739581D01*
X178187419Y-90607265D01*
X178187406Y-90607258D01*
X177922888Y-90476812D01*
X177643599Y-90382005D01*
X177643584Y-90382001D01*
X177354324Y-90324464D01*
X177354312Y-90324462D01*
X177060000Y-90305172D01*
X176765687Y-90324462D01*
X176765675Y-90324464D01*
X176476415Y-90382001D01*
X176476400Y-90382005D01*
X176197111Y-90476812D01*
X175932585Y-90607262D01*
X175734556Y-90739581D01*
X176835974Y-91840999D01*
X176704742Y-91895359D01*
X176581903Y-91977437D01*
X176477437Y-92081903D01*
X176395359Y-92204742D01*
X176340999Y-92335974D01*
X175239581Y-91234556D01*
X175107262Y-91432585D01*
X174976812Y-91697111D01*
X174882005Y-91976400D01*
X174882001Y-91976415D01*
X174824464Y-92265675D01*
X174824462Y-92265687D01*
X174805172Y-92560000D01*
X168596475Y-92560000D01*
X168595537Y-92545687D01*
X168595535Y-92545675D01*
X168537998Y-92256415D01*
X168537994Y-92256400D01*
X168443187Y-91977111D01*
X168312741Y-91712593D01*
X168312734Y-91712580D01*
X168180418Y-91514555D01*
X167078999Y-92615974D01*
X167024641Y-92484742D01*
X166942563Y-92361903D01*
X166838097Y-92257437D01*
X166715258Y-92175359D01*
X166584025Y-92121000D01*
X167685442Y-91019581D01*
X167487419Y-90887265D01*
X167487406Y-90887258D01*
X167222888Y-90756812D01*
X166943599Y-90662005D01*
X166943584Y-90662001D01*
X166654324Y-90604464D01*
X166654312Y-90604462D01*
X166360000Y-90585172D01*
X166065687Y-90604462D01*
X166065675Y-90604464D01*
X165776415Y-90662001D01*
X165776400Y-90662005D01*
X165497111Y-90756812D01*
X165232585Y-90887262D01*
X165034556Y-91019581D01*
X166135974Y-92120999D01*
X166004742Y-92175359D01*
X165881903Y-92257437D01*
X165777437Y-92361903D01*
X165695359Y-92484742D01*
X165640999Y-92615974D01*
X164539581Y-91514556D01*
X164407262Y-91712585D01*
X164276812Y-91977111D01*
X164182005Y-92256400D01*
X164182001Y-92256415D01*
X164124464Y-92545675D01*
X164124462Y-92545687D01*
X164105172Y-92840000D01*
X161734827Y-92840000D01*
X161715537Y-92545687D01*
X161715535Y-92545675D01*
X161657998Y-92256415D01*
X161657994Y-92256400D01*
X161563187Y-91977111D01*
X161432741Y-91712593D01*
X161432734Y-91712580D01*
X161300418Y-91514555D01*
X160198999Y-92615974D01*
X160144641Y-92484742D01*
X160062563Y-92361903D01*
X159958097Y-92257437D01*
X159835258Y-92175359D01*
X159704025Y-92121000D01*
X160805442Y-91019581D01*
X160607419Y-90887265D01*
X160607406Y-90887258D01*
X160342888Y-90756812D01*
X160063599Y-90662005D01*
X160063584Y-90662001D01*
X159774324Y-90604464D01*
X159774312Y-90604462D01*
X159480000Y-90585172D01*
X159185687Y-90604462D01*
X159185675Y-90604464D01*
X158896415Y-90662001D01*
X158896400Y-90662005D01*
X158617111Y-90756812D01*
X158352585Y-90887262D01*
X158154556Y-91019581D01*
X159255974Y-92120999D01*
X159124742Y-92175359D01*
X159001903Y-92257437D01*
X158897437Y-92361903D01*
X158815359Y-92484742D01*
X158760999Y-92615974D01*
X157659581Y-91514556D01*
X157527262Y-91712585D01*
X157396812Y-91977111D01*
X157302005Y-92256400D01*
X157302001Y-92256415D01*
X157244464Y-92545675D01*
X157244462Y-92545687D01*
X157225172Y-92840000D01*
X155584484Y-92840000D01*
X155618838Y-92711789D01*
X155650500Y-92471288D01*
X155650500Y-92228712D01*
X155618838Y-91988211D01*
X155556054Y-91753900D01*
X155463224Y-91529788D01*
X155341936Y-91319711D01*
X155194265Y-91127262D01*
X155194260Y-91127256D01*
X155022743Y-90955739D01*
X155022736Y-90955733D01*
X154830293Y-90808067D01*
X154830292Y-90808066D01*
X154830289Y-90808064D01*
X154620212Y-90686776D01*
X154619715Y-90686570D01*
X154396104Y-90593947D01*
X154161785Y-90531161D01*
X153921289Y-90499500D01*
X153921288Y-90499500D01*
X153678712Y-90499500D01*
X153678711Y-90499500D01*
X153438214Y-90531161D01*
X153203895Y-90593947D01*
X152979794Y-90686773D01*
X152979785Y-90686777D01*
X152769706Y-90808067D01*
X152577263Y-90955733D01*
X152577256Y-90955739D01*
X152405739Y-91127256D01*
X152405733Y-91127263D01*
X152258067Y-91319706D01*
X152136777Y-91529785D01*
X152136773Y-91529794D01*
X152043947Y-91753895D01*
X151981161Y-91988214D01*
X151949500Y-92228711D01*
X149237222Y-92228711D01*
X149303044Y-92198018D01*
X148700001Y-91594974D01*
X148700000Y-91594974D01*
X148096955Y-92198017D01*
X144803043Y-92198017D01*
X144300001Y-91694974D01*
X144300000Y-91694974D01*
X143696955Y-92298017D01*
X141069089Y-92298017D01*
X141100099Y-92267007D01*
X141165925Y-92152993D01*
X141200000Y-92025826D01*
X141200000Y-91894174D01*
X141165925Y-91767007D01*
X141100099Y-91652993D01*
X141057106Y-91610000D01*
X142003841Y-91610000D01*
X142003840Y-91609999D01*
X141973432Y-91496513D01*
X141973429Y-91496507D01*
X141873600Y-91282422D01*
X141873599Y-91282420D01*
X141815887Y-91199999D01*
X143045225Y-91199999D01*
X143045225Y-91200000D01*
X143064287Y-91417884D01*
X143064289Y-91417894D01*
X143120894Y-91629150D01*
X143120899Y-91629164D01*
X143201980Y-91803044D01*
X143805025Y-91200000D01*
X143805025Y-91199999D01*
X143758948Y-91153922D01*
X143950000Y-91153922D01*
X143950000Y-91246078D01*
X143973852Y-91335095D01*
X144019930Y-91414905D01*
X144085095Y-91480070D01*
X144164905Y-91526148D01*
X144253922Y-91550000D01*
X144346078Y-91550000D01*
X144435095Y-91526148D01*
X144514905Y-91480070D01*
X144580070Y-91414905D01*
X144626148Y-91335095D01*
X144650000Y-91246078D01*
X144650000Y-91199999D01*
X144794974Y-91199999D01*
X144794974Y-91200000D01*
X145398018Y-91803044D01*
X145479101Y-91629159D01*
X145479105Y-91629150D01*
X145535710Y-91417894D01*
X145535712Y-91417884D01*
X145554775Y-91200000D01*
X145554775Y-91199999D01*
X145546026Y-91099999D01*
X147445225Y-91099999D01*
X147445225Y-91100000D01*
X147464287Y-91317884D01*
X147464289Y-91317894D01*
X147520894Y-91529150D01*
X147520899Y-91529164D01*
X147601980Y-91703044D01*
X148205025Y-91100000D01*
X148205025Y-91099999D01*
X148158948Y-91053922D01*
X148350000Y-91053922D01*
X148350000Y-91146078D01*
X148373852Y-91235095D01*
X148419930Y-91314905D01*
X148485095Y-91380070D01*
X148564905Y-91426148D01*
X148653922Y-91450000D01*
X148746078Y-91450000D01*
X148835095Y-91426148D01*
X148914905Y-91380070D01*
X148980070Y-91314905D01*
X149026148Y-91235095D01*
X149050000Y-91146078D01*
X149050000Y-91099999D01*
X149194974Y-91099999D01*
X149194974Y-91100000D01*
X149798018Y-91703044D01*
X149879101Y-91529159D01*
X149879105Y-91529150D01*
X149935710Y-91317894D01*
X149935712Y-91317884D01*
X149954775Y-91100000D01*
X149954775Y-91099999D01*
X149935712Y-90882115D01*
X149935710Y-90882105D01*
X149879105Y-90670849D01*
X149879101Y-90670840D01*
X149798017Y-90496955D01*
X149194974Y-91099999D01*
X149050000Y-91099999D01*
X149050000Y-91053922D01*
X149026148Y-90964905D01*
X148980070Y-90885095D01*
X148914905Y-90819930D01*
X148835095Y-90773852D01*
X148746078Y-90750000D01*
X148653922Y-90750000D01*
X148564905Y-90773852D01*
X148485095Y-90819930D01*
X148419930Y-90885095D01*
X148373852Y-90964905D01*
X148350000Y-91053922D01*
X148158948Y-91053922D01*
X147601980Y-90496954D01*
X147520899Y-90670835D01*
X147520894Y-90670849D01*
X147464289Y-90882105D01*
X147464287Y-90882115D01*
X147445225Y-91099999D01*
X145546026Y-91099999D01*
X145535712Y-90982115D01*
X145535710Y-90982105D01*
X145479105Y-90770849D01*
X145479101Y-90770840D01*
X145398017Y-90596955D01*
X144794974Y-91199999D01*
X144650000Y-91199999D01*
X144650000Y-91153922D01*
X144626148Y-91064905D01*
X144580070Y-90985095D01*
X144514905Y-90919930D01*
X144435095Y-90873852D01*
X144346078Y-90850000D01*
X144253922Y-90850000D01*
X144164905Y-90873852D01*
X144085095Y-90919930D01*
X144019930Y-90985095D01*
X143973852Y-91064905D01*
X143950000Y-91153922D01*
X143758948Y-91153922D01*
X143201980Y-90596954D01*
X143120899Y-90770835D01*
X143120894Y-90770849D01*
X143064289Y-90982105D01*
X143064287Y-90982115D01*
X143045225Y-91199999D01*
X141815887Y-91199999D01*
X141738113Y-91088926D01*
X141738108Y-91088920D01*
X141571082Y-90921894D01*
X141377578Y-90786399D01*
X141163492Y-90686570D01*
X141163486Y-90686567D01*
X141050000Y-90656159D01*
X141050000Y-91602894D01*
X141007007Y-91559901D01*
X140892993Y-91494075D01*
X140765826Y-91460000D01*
X140634174Y-91460000D01*
X140507007Y-91494075D01*
X140392993Y-91559901D01*
X140350000Y-91602894D01*
X140350000Y-90656159D01*
X140349999Y-90656159D01*
X140236513Y-90686567D01*
X140236507Y-90686570D01*
X140022422Y-90786399D01*
X140022420Y-90786400D01*
X139828926Y-90921886D01*
X139828920Y-90921891D01*
X139661891Y-91088920D01*
X139661886Y-91088926D01*
X139526400Y-91282420D01*
X139526399Y-91282422D01*
X139426570Y-91496507D01*
X139426567Y-91496513D01*
X139396159Y-91609999D01*
X139396159Y-91610000D01*
X140342894Y-91610000D01*
X140299901Y-91652993D01*
X140234075Y-91767007D01*
X140200000Y-91894174D01*
X140200000Y-92025826D01*
X140234075Y-92152993D01*
X140299901Y-92267007D01*
X140342894Y-92310000D01*
X139396159Y-92310000D01*
X139426567Y-92423486D01*
X139426570Y-92423492D01*
X139526399Y-92637578D01*
X139661894Y-92831082D01*
X139783946Y-92953134D01*
X139817431Y-93014457D01*
X139812447Y-93084149D01*
X139770575Y-93140082D01*
X139739598Y-93156997D01*
X139607671Y-93206202D01*
X139607664Y-93206206D01*
X139492455Y-93292452D01*
X139492452Y-93292455D01*
X139406206Y-93407664D01*
X139406202Y-93407671D01*
X139355908Y-93542517D01*
X139349501Y-93602116D01*
X139349501Y-93602123D01*
X139349500Y-93602135D01*
X137500500Y-93602135D01*
X137500500Y-90101980D01*
X143696954Y-90101980D01*
X144300000Y-90705025D01*
X144300001Y-90705025D01*
X144903044Y-90101980D01*
X144729164Y-90020899D01*
X144729150Y-90020894D01*
X144658561Y-90001980D01*
X148096954Y-90001980D01*
X148700000Y-90605025D01*
X148700001Y-90605025D01*
X149303044Y-90001980D01*
X149129164Y-89920899D01*
X149129150Y-89920894D01*
X148917894Y-89864289D01*
X148917884Y-89864287D01*
X148700001Y-89845225D01*
X148699999Y-89845225D01*
X148482115Y-89864287D01*
X148482105Y-89864289D01*
X148270849Y-89920894D01*
X148270835Y-89920899D01*
X148096954Y-90001980D01*
X144658561Y-90001980D01*
X144517894Y-89964289D01*
X144517884Y-89964287D01*
X144300001Y-89945225D01*
X144299999Y-89945225D01*
X144082115Y-89964287D01*
X144082105Y-89964289D01*
X143870849Y-90020894D01*
X143870835Y-90020899D01*
X143696954Y-90101980D01*
X137500500Y-90101980D01*
X137500500Y-89324500D01*
X137520185Y-89257461D01*
X137572989Y-89211706D01*
X137624500Y-89200500D01*
X186375500Y-89200500D01*
X186442539Y-89220185D01*
G37*
%TD.AperFunction*%
%TD*%
M02*
