%TF.GenerationSoftware,KiCad,Pcbnew,8.0.4-8.0.4-0~ubuntu22.04.1*%
%TF.CreationDate,2024-08-24T10:10:09-03:00*%
%TF.ProjectId,demodulador_sicom,64656d6f-6475-46c6-9164-6f725f736963,rev?*%
%TF.SameCoordinates,Original*%
%TF.FileFunction,Soldermask,Bot*%
%TF.FilePolarity,Negative*%
%FSLAX46Y46*%
G04 Gerber Fmt 4.6, Leading zero omitted, Abs format (unit mm)*
G04 Created by KiCad (PCBNEW 8.0.4-8.0.4-0~ubuntu22.04.1) date 2024-08-24 10:10:09*
%MOMM*%
%LPD*%
G01*
G04 APERTURE LIST*
%ADD10C,3.500000*%
%ADD11C,3.200000*%
%ADD12C,1.500000*%
%ADD13R,1.700000X1.700000*%
%ADD14O,1.700000X1.700000*%
%ADD15R,1.800000X1.800000*%
%ADD16C,1.800000*%
%ADD17R,1.600000X1.600000*%
%ADD18C,1.600000*%
G04 APERTURE END LIST*
D10*
%TO.C,J4*%
X162920000Y-96280000D03*
X166360000Y-92840000D03*
X166360000Y-99720000D03*
X159480000Y-92840000D03*
X159480000Y-99720000D03*
%TD*%
%TO.C,J3*%
X180500000Y-117200000D03*
X183940000Y-113760000D03*
X183940000Y-120640000D03*
X177060000Y-113760000D03*
X177060000Y-120640000D03*
%TD*%
%TO.C,J2*%
X180500000Y-96000000D03*
X183940000Y-92560000D03*
X183940000Y-99440000D03*
X177060000Y-92560000D03*
X177060000Y-99440000D03*
%TD*%
D11*
%TO.C,H3*%
X183350000Y-106600000D03*
%TD*%
D12*
%TO.C,H4*%
X156600000Y-120200000D03*
%TD*%
%TO.C,H5*%
X172400000Y-115000000D03*
%TD*%
%TO.C,H4*%
X170200000Y-104400000D03*
%TD*%
%TO.C,H4*%
X167700000Y-120600000D03*
%TD*%
%TO.C,H4*%
X148700000Y-91100000D03*
%TD*%
%TO.C,H4*%
X166300000Y-109800000D03*
%TD*%
%TO.C,H4*%
X149600000Y-110500000D03*
%TD*%
%TO.C,H4*%
X153900000Y-98800000D03*
%TD*%
%TO.C,H4*%
X166000000Y-106500000D03*
%TD*%
D11*
%TO.C,H2*%
X153800000Y-92350000D03*
%TD*%
D12*
%TO.C,H4*%
X146600000Y-100700000D03*
%TD*%
%TO.C,H4*%
X176300000Y-109500000D03*
%TD*%
%TO.C,H5*%
X158900000Y-120200000D03*
%TD*%
%TO.C,H4*%
X147000000Y-121600000D03*
%TD*%
%TO.C,H4*%
X154400000Y-104600000D03*
%TD*%
%TO.C,H4*%
X142100000Y-96700000D03*
%TD*%
%TO.C,H4*%
X176400000Y-103200000D03*
%TD*%
%TO.C,H5*%
X146900000Y-114800000D03*
%TD*%
%TO.C,H4*%
X144300000Y-91200000D03*
%TD*%
D11*
%TO.C,H1*%
X142300000Y-119400000D03*
%TD*%
D12*
%TO.C,H4*%
X170900000Y-95000000D03*
%TD*%
%TO.C,H4*%
X139600000Y-108400000D03*
%TD*%
%TO.C,H4*%
X159100000Y-104300000D03*
%TD*%
D13*
%TO.C,J1*%
X140700000Y-94500000D03*
D14*
X140700000Y-91960000D03*
%TD*%
D15*
%TO.C,D1*%
X139600000Y-111400000D03*
D16*
X142140000Y-111400000D03*
%TD*%
D17*
%TO.C,C13*%
X145000000Y-104500000D03*
D18*
X142500000Y-104500000D03*
%TD*%
D17*
%TO.C,C12*%
X147594888Y-107000000D03*
D18*
X150094888Y-107000000D03*
%TD*%
M02*
