<?xml version="1.0" standalone="no"?>
 <!DOCTYPE svg PUBLIC "-//W3C//DTD SVG 1.1//EN" 
 "http://www.w3.org/Graphics/SVG/1.1/DTD/svg11.dtd"> 
<svg
  xmlns:svg="http://www.w3.org/2000/svg"
  xmlns="http://www.w3.org/2000/svg"
  xmlns:xlink="http://www.w3.org/1999/xlink"
  version="1.1"
  width="297.0022mm" height="210.0072mm" viewBox="0.0000 0.0000 297.0022 210.0072">
<title>SVG Image created as demodulador_sicom-F_Mask.svg date 2024/08/24 10:16:02 </title>
  <desc>Image generated by PCBNEW </desc>
<g style="fill:#000000; fill-opacity:1.0000;stroke:#000000; stroke-opacity:1.0000;
stroke-linecap:round; stroke-linejoin:round;"
 transform="translate(0 0) scale(1 1)">
</g>
<g style="fill:#000000; fill-opacity:1.0000; stroke:none;">
<circle cx="162.9200" cy="96.2800" r="1.7500" /> 
</g>
<g style="fill:#000000; fill-opacity:1.0000; stroke:none;">
<circle cx="166.3600" cy="92.8400" r="1.7500" /> 
</g>
<g style="fill:#000000; fill-opacity:1.0000; stroke:none;">
<circle cx="166.3600" cy="99.7200" r="1.7500" /> 
</g>
<g style="fill:#000000; fill-opacity:1.0000; stroke:none;">
<circle cx="159.4800" cy="92.8400" r="1.7500" /> 
</g>
<g style="fill:#000000; fill-opacity:1.0000; stroke:none;">
<circle cx="159.4800" cy="99.7200" r="1.7500" /> 
</g>
<g style="fill:#000000; fill-opacity:1.0000; stroke:none;">
<circle cx="180.5000" cy="117.2000" r="1.7500" /> 
</g>
<g style="fill:#000000; fill-opacity:1.0000; stroke:none;">
<circle cx="183.9400" cy="113.7600" r="1.7500" /> 
</g>
<g style="fill:#000000; fill-opacity:1.0000; stroke:none;">
<circle cx="183.9400" cy="120.6400" r="1.7500" /> 
</g>
<g style="fill:#000000; fill-opacity:1.0000; stroke:none;">
<circle cx="177.0600" cy="113.7600" r="1.7500" /> 
</g>
<g style="fill:#000000; fill-opacity:1.0000; stroke:none;">
<circle cx="177.0600" cy="120.6400" r="1.7500" /> 
</g>
<g style="fill:#000000; fill-opacity:1.0000; stroke:none;">
<circle cx="180.5000" cy="96.0000" r="1.7500" /> 
</g>
<g style="fill:#000000; fill-opacity:1.0000; stroke:none;">
<circle cx="183.9400" cy="92.5600" r="1.7500" /> 
</g>
<g style="fill:#000000; fill-opacity:1.0000; stroke:none;">
<circle cx="183.9400" cy="99.4400" r="1.7500" /> 
</g>
<g style="fill:#000000; fill-opacity:1.0000; stroke:none;">
<circle cx="177.0600" cy="92.5600" r="1.7500" /> 
</g>
<g style="fill:#000000; fill-opacity:1.0000; stroke:none;">
<circle cx="177.0600" cy="99.4400" r="1.7500" /> 
</g>
<g style="fill:#000000; fill-opacity:1.0000; stroke:none;">
<circle cx="183.3500" cy="106.6000" r="1.6000" /> 
</g>
<g style="fill:#000000; fill-opacity:1.0000; stroke:none;">
<circle cx="156.6000" cy="120.2000" r="0.7500" /> 
</g>
<g style="fill:#000000; fill-opacity:1.0000; stroke:none;">
<circle cx="172.4000" cy="115.0000" r="0.7500" /> 
<path style="fill:#000000; fill-opacity:1.0000; stroke:none;fill-rule:evenodd;"
d="M 154.2750,115.2625
154.2560,115.3582
154.2018,115.4393
154.1207,115.4935
154.0250,115.5125
153.3250,115.5125
153.2293,115.4935
153.1482,115.4393
153.0940,115.3582
153.0750,115.2625
153.0750,114.3625
153.0940,114.2668
153.1482,114.1857
153.2293,114.1315
153.3250,114.1125
154.0250,114.1125
154.1207,114.1315
154.2018,114.1857
154.2560,114.2668
154.2750,114.3625
Z" /> 
<path style="fill:#000000; fill-opacity:1.0000; stroke:none;fill-rule:evenodd;"
d="M 152.2750,115.2625
152.2560,115.3582
152.2018,115.4393
152.1207,115.4935
152.0250,115.5125
151.3250,115.5125
151.2293,115.4935
151.1482,115.4393
151.0940,115.3582
151.0750,115.2625
151.0750,114.3625
151.0940,114.2668
151.1482,114.1857
151.2293,114.1315
151.3250,114.1125
152.0250,114.1125
152.1207,114.1315
152.2018,114.1857
152.2560,114.2668
152.2750,114.3625
Z" /> 
<path style="fill:#000000; fill-opacity:1.0000; stroke:none;fill-rule:evenodd;"
d="M 151.2500,120.4125
151.1543,120.3935
151.0732,120.3393
151.0190,120.2582
151.0000,120.1625
151.0000,119.4625
151.0190,119.3668
151.0732,119.2857
151.1543,119.2315
151.2500,119.2125
152.1500,119.2125
152.2457,119.2315
152.3268,119.2857
152.3810,119.3668
152.4000,119.4625
152.4000,120.1625
152.3810,120.2582
152.3268,120.3393
152.2457,120.3935
152.1500,120.4125
Z" /> 
<path style="fill:#000000; fill-opacity:1.0000; stroke:none;fill-rule:evenodd;"
d="M 151.2500,118.4125
151.1543,118.3935
151.0732,118.3393
151.0190,118.2582
151.0000,118.1625
151.0000,117.4625
151.0190,117.3668
151.0732,117.2857
151.1543,117.2315
151.2500,117.2125
152.1500,117.2125
152.2457,117.2315
152.3268,117.2857
152.3810,117.3668
152.4000,117.4625
152.4000,118.1625
152.3810,118.2582
152.3268,118.3393
152.2457,118.3935
152.1500,118.4125
Z" /> 
<path style="fill:#000000; fill-opacity:1.0000; stroke:none;fill-rule:evenodd;"
d="M 173.0950,120.2300
173.0760,120.3257
173.0218,120.4068
172.9407,120.4610
172.8450,120.4800
172.1450,120.4800
172.0493,120.4610
171.9682,120.4068
171.9140,120.3257
171.8950,120.2300
171.8950,119.3300
171.9140,119.2343
171.9682,119.1532
172.0493,119.0990
172.1450,119.0800
172.8450,119.0800
172.9407,119.0990
173.0218,119.1532
173.0760,119.2343
173.0950,119.3300
Z" /> 
<path style="fill:#000000; fill-opacity:1.0000; stroke:none;fill-rule:evenodd;"
d="M 171.0950,120.2300
171.0760,120.3257
171.0218,120.4068
170.9407,120.4610
170.8450,120.4800
170.1450,120.4800
170.0493,120.4610
169.9682,120.4068
169.9140,120.3257
169.8950,120.2300
169.8950,119.3300
169.9140,119.2343
169.9682,119.1532
170.0493,119.0990
170.1450,119.0800
170.8450,119.0800
170.9407,119.0990
171.0218,119.1532
171.0760,119.2343
171.0950,119.3300
Z" /> 
</g>
<g style="fill:#000000; fill-opacity:1.0000; stroke:none;">
<circle cx="170.2000" cy="104.4000" r="0.7500" /> 
</g>
<g style="fill:#000000; fill-opacity:1.0000; stroke:none;">
<circle cx="167.7000" cy="120.6000" r="0.7500" /> 
<path style="fill:#000000; fill-opacity:1.0000; stroke:none;fill-rule:evenodd;"
d="M 157.3750,110.2875
157.3940,110.1918
157.4482,110.1107
157.5293,110.0565
157.6250,110.0375
158.3250,110.0375
158.4207,110.0565
158.5018,110.1107
158.5560,110.1918
158.5750,110.2875
158.5750,111.1875
158.5560,111.2832
158.5018,111.3643
158.4207,111.4185
158.3250,111.4375
157.6250,111.4375
157.5293,111.4185
157.4482,111.3643
157.3940,111.2832
157.3750,111.1875
Z" /> 
<path style="fill:#000000; fill-opacity:1.0000; stroke:none;fill-rule:evenodd;"
d="M 159.3750,110.2875
159.3940,110.1918
159.4482,110.1107
159.5293,110.0565
159.6250,110.0375
160.3250,110.0375
160.4207,110.0565
160.5018,110.1107
160.5560,110.1918
160.5750,110.2875
160.5750,111.1875
160.5560,111.2832
160.5018,111.3643
160.4207,111.4185
160.3250,111.4375
159.6250,111.4375
159.5293,111.4185
159.4482,111.3643
159.3940,111.2832
159.3750,111.1875
Z" /> 
</g>
<g style="fill:#000000; fill-opacity:1.0000; stroke:none;">
<circle cx="148.7000" cy="91.1000" r="0.7500" /> 
</g>
<g style="fill:#000000; fill-opacity:1.0000; stroke:none;">
<circle cx="166.3000" cy="109.8000" r="0.7500" /> 
<path style="fill:#000000; fill-opacity:1.0000; stroke:none;fill-rule:evenodd;"
d="M 148.6250,118.5250
148.5293,118.5060
148.4482,118.4518
148.3940,118.3707
148.3750,118.2750
148.3750,117.3500
148.3940,117.2543
148.4482,117.1732
148.5293,117.1190
148.6250,117.1000
149.8750,117.1000
149.9707,117.1190
150.0518,117.1732
150.1060,117.2543
150.1250,117.3500
150.1250,118.2750
150.1060,118.3707
150.0518,118.4518
149.9707,118.5060
149.8750,118.5250
Z" /> 
<path style="fill:#000000; fill-opacity:1.0000; stroke:none;fill-rule:evenodd;"
d="M 148.6250,115.5500
148.5293,115.5310
148.4482,115.4768
148.3940,115.3957
148.3750,115.3000
148.3750,114.3750
148.3940,114.2793
148.4482,114.1982
148.5293,114.1440
148.6250,114.1250
149.8750,114.1250
149.9707,114.1440
150.0518,114.1982
150.1060,114.2793
150.1250,114.3750
150.1250,115.3000
150.1060,115.3957
150.0518,115.4768
149.9707,115.5310
149.8750,115.5500
Z" /> 
</g>
<g style="fill:#000000; fill-opacity:1.0000; stroke:none;">
<circle cx="149.6000" cy="110.5000" r="0.7500" /> 
</g>
<g style="fill:#000000; fill-opacity:1.0000; stroke:none;">
<circle cx="153.9000" cy="98.8000" r="0.7500" /> 
<path style="fill:#000000; fill-opacity:1.0000; stroke:none;fill-rule:evenodd;"
d="M 174.2825,118.0800
174.2635,118.1757
174.2093,118.2568
174.1282,118.3110
174.0325,118.3300
173.1075,118.3300
173.0118,118.3110
172.9307,118.2568
172.8765,118.1757
172.8575,118.0800
172.8575,116.8300
172.8765,116.7343
172.9307,116.6532
173.0118,116.5990
173.1075,116.5800
174.0325,116.5800
174.1282,116.5990
174.2093,116.6532
174.2635,116.7343
174.2825,116.8300
Z" /> 
<path style="fill:#000000; fill-opacity:1.0000; stroke:none;fill-rule:evenodd;"
d="M 171.3075,118.0800
171.2885,118.1757
171.2343,118.2568
171.1532,118.3110
171.0575,118.3300
170.1325,118.3300
170.0368,118.3110
169.9557,118.2568
169.9015,118.1757
169.8825,118.0800
169.8825,116.8300
169.9015,116.7343
169.9557,116.6532
170.0368,116.5990
170.1325,116.5800
171.0575,116.5800
171.1532,116.5990
171.2343,116.6532
171.2885,116.7343
171.3075,116.8300
Z" /> 
</g>
<g style="fill:#000000; fill-opacity:1.0000; stroke:none;">
<circle cx="166.0000" cy="106.5000" r="0.7500" /> 
<path style="fill:#000000; fill-opacity:1.0000; stroke:none;fill-rule:evenodd;"
d="M 162.2750,109.1000
162.1793,109.0810
162.0982,109.0268
162.0440,108.9457
162.0250,108.8500
162.0250,107.9250
162.0440,107.8293
162.0982,107.7482
162.1793,107.6940
162.2750,107.6750
163.5250,107.6750
163.6207,107.6940
163.7018,107.7482
163.7560,107.8293
163.7750,107.9250
163.7750,108.8500
163.7560,108.9457
163.7018,109.0268
163.6207,109.0810
163.5250,109.1000
Z" /> 
<path style="fill:#000000; fill-opacity:1.0000; stroke:none;fill-rule:evenodd;"
d="M 162.2750,106.1250
162.1793,106.1060
162.0982,106.0518
162.0440,105.9707
162.0250,105.8750
162.0250,104.9500
162.0440,104.8543
162.0982,104.7732
162.1793,104.7190
162.2750,104.7000
163.5250,104.7000
163.6207,104.7190
163.7018,104.7732
163.7560,104.8543
163.7750,104.9500
163.7750,105.8750
163.7560,105.9707
163.7018,106.0518
163.6207,106.1060
163.5250,106.1250
Z" /> 
</g>
<g style="fill:#000000; fill-opacity:1.0000; stroke:none;">
<circle cx="153.8000" cy="92.3500" r="1.6000" /> 
<path style="fill:#000000; fill-opacity:1.0000; stroke:none;fill-rule:evenodd;"
d="M 172.0075,102.7800
172.0265,102.6843
172.0807,102.6032
172.1618,102.5490
172.2575,102.5300
172.9325,102.5300
173.0282,102.5490
173.1093,102.6032
173.1635,102.6843
173.1825,102.7800
173.1825,103.7300
173.1635,103.8257
173.1093,103.9068
173.0282,103.9610
172.9325,103.9800
172.2575,103.9800
172.1618,103.9610
172.0807,103.9068
172.0265,103.8257
172.0075,103.7300
Z" /> 
<path style="fill:#000000; fill-opacity:1.0000; stroke:none;fill-rule:evenodd;"
d="M 174.0825,102.7800
174.1015,102.6843
174.1557,102.6032
174.2368,102.5490
174.3325,102.5300
175.0075,102.5300
175.1032,102.5490
175.1843,102.6032
175.2385,102.6843
175.2575,102.7800
175.2575,103.7300
175.2385,103.8257
175.1843,103.9068
175.1032,103.9610
175.0075,103.9800
174.3325,103.9800
174.2368,103.9610
174.1557,103.9068
174.1015,103.8257
174.0825,103.7300
Z" /> 
<path style="fill:#000000; fill-opacity:1.0000; stroke:none;fill-rule:evenodd;"
d="M 138.3500,106.1500
138.2543,106.1310
138.1732,106.0768
138.1190,105.9957
138.1000,105.9000
138.1000,102.9000
138.1190,102.8043
138.1732,102.7232
138.2543,102.6690
138.3500,102.6500
139.6500,102.6500
139.7457,102.6690
139.8268,102.7232
139.8810,102.8043
139.9000,102.9000
139.9000,105.9000
139.8810,105.9957
139.8268,106.0768
139.7457,106.1310
139.6500,106.1500
Z" /> 
<path style="fill:#000000; fill-opacity:1.0000; stroke:none;fill-rule:evenodd;"
d="M 138.3500,101.1500
138.2543,101.1310
138.1732,101.0768
138.1190,100.9957
138.1000,100.9000
138.1000,97.9000
138.1190,97.8043
138.1732,97.7232
138.2543,97.6690
138.3500,97.6500
139.6500,97.6500
139.7457,97.6690
139.8268,97.7232
139.8810,97.8043
139.9000,97.9000
139.9000,100.9000
139.8810,100.9957
139.8268,101.0768
139.7457,101.1310
139.6500,101.1500
Z" /> 
<path style="fill:#000000; fill-opacity:1.0000; stroke:none;fill-rule:evenodd;"
d="M 172.1450,108.0550
172.0493,108.0360
171.9682,107.9818
171.9140,107.9007
171.8950,107.8050
171.8950,107.1050
171.9140,107.0093
171.9682,106.9282
172.0493,106.8740
172.1450,106.8550
173.0450,106.8550
173.1407,106.8740
173.2218,106.9282
173.2760,107.0093
173.2950,107.1050
173.2950,107.8050
173.2760,107.9007
173.2218,107.9818
173.1407,108.0360
173.0450,108.0550
Z" /> 
<path style="fill:#000000; fill-opacity:1.0000; stroke:none;fill-rule:evenodd;"
d="M 172.1450,106.0550
172.0493,106.0360
171.9682,105.9818
171.9140,105.9007
171.8950,105.8050
171.8950,105.1050
171.9140,105.0093
171.9682,104.9282
172.0493,104.8740
172.1450,104.8550
173.0450,104.8550
173.1407,104.8740
173.2218,104.9282
173.2760,105.0093
173.2950,105.1050
173.2950,105.8050
173.2760,105.9007
173.2218,105.9818
173.1407,106.0360
173.0450,106.0550
Z" /> 
<path style="fill:#000000; fill-opacity:1.0000; stroke:none;fill-rule:evenodd;"
d="M 157.4000,107.9500
157.4190,107.8543
157.4732,107.7732
157.5543,107.7190
157.6500,107.7000
158.3500,107.7000
158.4457,107.7190
158.5268,107.7732
158.5810,107.8543
158.6000,107.9500
158.6000,108.8500
158.5810,108.9457
158.5268,109.0268
158.4457,109.0810
158.3500,109.1000
157.6500,109.1000
157.5543,109.0810
157.4732,109.0268
157.4190,108.9457
157.4000,108.8500
Z" /> 
<path style="fill:#000000; fill-opacity:1.0000; stroke:none;fill-rule:evenodd;"
d="M 159.4000,107.9500
159.4190,107.8543
159.4732,107.7732
159.5543,107.7190
159.6500,107.7000
160.3500,107.7000
160.4457,107.7190
160.5268,107.7732
160.5810,107.8543
160.6000,107.9500
160.6000,108.8500
160.5810,108.9457
160.5268,109.0268
160.4457,109.0810
160.3500,109.1000
159.6500,109.1000
159.5543,109.0810
159.4732,109.0268
159.4190,108.9457
159.4000,108.8500
Z" /> 
<path style="fill:#000000; fill-opacity:1.0000; stroke:none;fill-rule:evenodd;"
d="M 154.4125,113.1125
154.3935,113.2082
154.3393,113.2893
154.2582,113.3435
154.1625,113.3625
153.2375,113.3625
153.1418,113.3435
153.0607,113.2893
153.0065,113.2082
152.9875,113.1125
152.9875,111.8625
153.0065,111.7668
153.0607,111.6857
153.1418,111.6315
153.2375,111.6125
154.1625,111.6125
154.2582,111.6315
154.3393,111.6857
154.3935,111.7668
154.4125,111.8625
Z" /> 
<path style="fill:#000000; fill-opacity:1.0000; stroke:none;fill-rule:evenodd;"
d="M 151.4375,113.1125
151.4185,113.2082
151.3643,113.2893
151.2832,113.3435
151.1875,113.3625
150.2625,113.3625
150.1668,113.3435
150.0857,113.2893
150.0315,113.2082
150.0125,113.1125
150.0125,111.8625
150.0315,111.7668
150.0857,111.6857
150.1668,111.6315
150.2625,111.6125
151.1875,111.6125
151.2832,111.6315
151.3643,111.6857
151.4185,111.7668
151.4375,111.8625
Z" /> 
<path style="fill:#000000; fill-opacity:1.0000; stroke:none;fill-rule:evenodd;"
d="M 148.0875,103.9750
148.1065,103.8793
148.1607,103.7982
148.2418,103.7440
148.3375,103.7250
149.2625,103.7250
149.3582,103.7440
149.4393,103.7982
149.4935,103.8793
149.5125,103.9750
149.5125,105.2250
149.4935,105.3207
149.4393,105.4018
149.3582,105.4560
149.2625,105.4750
148.3375,105.4750
148.2418,105.4560
148.1607,105.4018
148.1065,105.3207
148.0875,105.2250
Z" /> 
<path style="fill:#000000; fill-opacity:1.0000; stroke:none;fill-rule:evenodd;"
d="M 151.0625,103.9750
151.0815,103.8793
151.1357,103.7982
151.2168,103.7440
151.3125,103.7250
152.2375,103.7250
152.3332,103.7440
152.4143,103.7982
152.4685,103.8793
152.4875,103.9750
152.4875,105.2250
152.4685,105.3207
152.4143,105.4018
152.3332,105.4560
152.2375,105.4750
151.3125,105.4750
151.2168,105.4560
151.1357,105.4018
151.0815,105.3207
151.0625,105.2250
Z" /> 
<path style="fill:#000000; fill-opacity:1.0000; stroke:none;fill-rule:evenodd;"
d="M 155.3250,116.2000
155.4207,116.2190
155.5018,116.2732
155.5560,116.3543
155.5750,116.4500
155.5750,117.3750
155.5560,117.4707
155.5018,117.5518
155.4207,117.6060
155.3250,117.6250
154.0750,117.6250
153.9793,117.6060
153.8982,117.5518
153.8440,117.4707
153.8250,117.3750
153.8250,116.4500
153.8440,116.3543
153.8982,116.2732
153.9793,116.2190
154.0750,116.2000
Z" /> 
<path style="fill:#000000; fill-opacity:1.0000; stroke:none;fill-rule:evenodd;"
d="M 155.3250,119.1750
155.4207,119.1940
155.5018,119.2482
155.5560,119.3293
155.5750,119.4250
155.5750,120.3500
155.5560,120.4457
155.5018,120.5268
155.4207,120.5810
155.3250,120.6000
154.0750,120.6000
153.9793,120.5810
153.8982,120.5268
153.8440,120.4457
153.8250,120.3500
153.8250,119.4250
153.8440,119.3293
153.8982,119.2482
153.9793,119.1940
154.0750,119.1750
Z" /> 
</g>
<g style="fill:#000000; fill-opacity:1.0000; stroke:none;">
<circle cx="146.6000" cy="100.7000" r="0.7500" /> 
<path style="fill:#000000; fill-opacity:1.0000; stroke:none;fill-rule:evenodd;"
d="M 172.0075,108.9800
172.0265,108.8843
172.0807,108.8032
172.1618,108.7490
172.2575,108.7300
172.9325,108.7300
173.0282,108.7490
173.1093,108.8032
173.1635,108.8843
173.1825,108.9800
173.1825,109.9300
173.1635,110.0257
173.1093,110.1068
173.0282,110.1610
172.9325,110.1800
172.2575,110.1800
172.1618,110.1610
172.0807,110.1068
172.0265,110.0257
172.0075,109.9300
Z" /> 
<path style="fill:#000000; fill-opacity:1.0000; stroke:none;fill-rule:evenodd;"
d="M 174.0825,108.9800
174.1015,108.8843
174.1557,108.8032
174.2368,108.7490
174.3325,108.7300
175.0075,108.7300
175.1032,108.7490
175.1843,108.8032
175.2385,108.8843
175.2575,108.9800
175.2575,109.9300
175.2385,110.0257
175.1843,110.1068
175.1032,110.1610
175.0075,110.1800
174.3325,110.1800
174.2368,110.1610
174.1557,110.1068
174.1015,110.0257
174.0825,109.9300
Z" /> 
<path style="fill:#000000; fill-opacity:1.0000; stroke:none;fill-rule:evenodd;"
d="M 148.2000,110.5000
148.1810,110.5957
148.1268,110.6768
148.0457,110.7310
147.9500,110.7500
147.2500,110.7500
147.1543,110.7310
147.0732,110.6768
147.0190,110.5957
147.0000,110.5000
147.0000,109.6000
147.0190,109.5043
147.0732,109.4232
147.1543,109.3690
147.2500,109.3500
147.9500,109.3500
148.0457,109.3690
148.1268,109.4232
148.1810,109.5043
148.2000,109.6000
Z" /> 
<path style="fill:#000000; fill-opacity:1.0000; stroke:none;fill-rule:evenodd;"
d="M 146.2000,110.5000
146.1810,110.5957
146.1268,110.6768
146.0457,110.7310
145.9500,110.7500
145.2500,110.7500
145.1543,110.7310
145.0732,110.6768
145.0190,110.5957
145.0000,110.5000
145.0000,109.6000
145.0190,109.5043
145.0732,109.4232
145.1543,109.3690
145.2500,109.3500
145.9500,109.3500
146.0457,109.3690
146.1268,109.4232
146.1810,109.5043
146.2000,109.6000
Z" /> 
</g>
<g style="fill:#000000; fill-opacity:1.0000; stroke:none;">
<circle cx="176.3000" cy="109.5000" r="0.7500" /> 
<path style="fill:#000000; fill-opacity:1.0000; stroke:none;fill-rule:evenodd;"
d="M 151.1000,109.6125
151.1190,109.5168
151.1732,109.4357
151.2543,109.3815
151.3500,109.3625
152.0500,109.3625
152.1457,109.3815
152.2268,109.4357
152.2810,109.5168
152.3000,109.6125
152.3000,110.5125
152.2810,110.6082
152.2268,110.6893
152.1457,110.7435
152.0500,110.7625
151.3500,110.7625
151.2543,110.7435
151.1732,110.6893
151.1190,110.6082
151.1000,110.5125
Z" /> 
<path style="fill:#000000; fill-opacity:1.0000; stroke:none;fill-rule:evenodd;"
d="M 153.1000,109.6125
153.1190,109.5168
153.1732,109.4357
153.2543,109.3815
153.3500,109.3625
154.0500,109.3625
154.1457,109.3815
154.2268,109.4357
154.2810,109.5168
154.3000,109.6125
154.3000,110.5125
154.2810,110.6082
154.2268,110.6893
154.1457,110.7435
154.0500,110.7625
153.3500,110.7625
153.2543,110.7435
153.1732,110.6893
153.1190,110.6082
153.1000,110.5125
Z" /> 
<path style="fill:#000000; fill-opacity:1.0000; stroke:none;fill-rule:evenodd;"
d="M 162.0575,120.4550
162.0765,120.3593
162.1307,120.2782
162.2118,120.2240
162.3075,120.2050
162.9825,120.2050
163.0782,120.2240
163.1593,120.2782
163.2135,120.3593
163.2325,120.4550
163.2325,121.4050
163.2135,121.5007
163.1593,121.5818
163.0782,121.6360
162.9825,121.6550
162.3075,121.6550
162.2118,121.6360
162.1307,121.5818
162.0765,121.5007
162.0575,121.4050
Z" /> 
<path style="fill:#000000; fill-opacity:1.0000; stroke:none;fill-rule:evenodd;"
d="M 164.1325,120.4550
164.1515,120.3593
164.2057,120.2782
164.2868,120.2240
164.3825,120.2050
165.0575,120.2050
165.1532,120.2240
165.2343,120.2782
165.2885,120.3593
165.3075,120.4550
165.3075,121.4050
165.2885,121.5007
165.2343,121.5818
165.1532,121.6360
165.0575,121.6550
164.3825,121.6550
164.2868,121.6360
164.2057,121.5818
164.1515,121.5007
164.1325,121.4050
Z" /> 
<path style="fill:#000000; fill-opacity:1.0000; stroke:none;fill-rule:evenodd;"
d="M 157.3750,115.7125
157.3940,115.6168
157.4482,115.5357
157.5293,115.4815
157.6250,115.4625
158.3250,115.4625
158.4207,115.4815
158.5018,115.5357
158.5560,115.6168
158.5750,115.7125
158.5750,116.6125
158.5560,116.7082
158.5018,116.7893
158.4207,116.8435
158.3250,116.8625
157.6250,116.8625
157.5293,116.8435
157.4482,116.7893
157.3940,116.7082
157.3750,116.6125
Z" /> 
<path style="fill:#000000; fill-opacity:1.0000; stroke:none;fill-rule:evenodd;"
d="M 159.3750,115.7125
159.3940,115.6168
159.4482,115.5357
159.5293,115.4815
159.6250,115.4625
160.3250,115.4625
160.4207,115.4815
160.5018,115.5357
160.5560,115.6168
160.5750,115.7125
160.5750,116.6125
160.5560,116.7082
160.5018,116.7893
160.4207,116.8435
160.3250,116.8625
159.6250,116.8625
159.5293,116.8435
159.4482,116.7893
159.3940,116.7082
159.3750,116.6125
Z" /> 
<path style="fill:#000000; fill-opacity:1.0000; stroke:none;fill-rule:evenodd;"
d="M 141.2750,102.3000
141.1793,102.2810
141.0982,102.2268
141.0440,102.1457
141.0250,102.0500
141.0250,101.1250
141.0440,101.0293
141.0982,100.9482
141.1793,100.8940
141.2750,100.8750
142.5250,100.8750
142.6207,100.8940
142.7018,100.9482
142.7560,101.0293
142.7750,101.1250
142.7750,102.0500
142.7560,102.1457
142.7018,102.2268
142.6207,102.2810
142.5250,102.3000
Z" /> 
<path style="fill:#000000; fill-opacity:1.0000; stroke:none;fill-rule:evenodd;"
d="M 141.2750,99.3250
141.1793,99.3060
141.0982,99.2518
141.0440,99.1707
141.0250,99.0750
141.0250,98.1500
141.0440,98.0543
141.0982,97.9732
141.1793,97.9190
141.2750,97.9000
142.5250,97.9000
142.6207,97.9190
142.7018,97.9732
142.7560,98.0543
142.7750,98.1500
142.7750,99.0750
142.7560,99.1707
142.7018,99.2518
142.6207,99.3060
142.5250,99.3250
Z" /> 
</g>
<g style="fill:#000000; fill-opacity:1.0000; stroke:none;">
<circle cx="158.9000" cy="120.2000" r="0.7500" /> 
<path style="fill:#000000; fill-opacity:1.0000; stroke:none;fill-rule:evenodd;"
d="M 171.9700,101.7550
171.8743,101.7360
171.7932,101.6818
171.7390,101.6007
171.7200,101.5050
171.7200,100.5800
171.7390,100.4843
171.7932,100.4032
171.8743,100.3490
171.9700,100.3300
173.2200,100.3300
173.3157,100.3490
173.3968,100.4032
173.4510,100.4843
173.4700,100.5800
173.4700,101.5050
173.4510,101.6007
173.3968,101.6818
173.3157,101.7360
173.2200,101.7550
Z" /> 
<path style="fill:#000000; fill-opacity:1.0000; stroke:none;fill-rule:evenodd;"
d="M 171.9700,98.7800
171.8743,98.7610
171.7932,98.7068
171.7390,98.6257
171.7200,98.5300
171.7200,97.6050
171.7390,97.5093
171.7932,97.4282
171.8743,97.3740
171.9700,97.3550
173.2200,97.3550
173.3157,97.3740
173.3968,97.4282
173.4510,97.5093
173.4700,97.6050
173.4700,98.5300
173.4510,98.6257
173.3968,98.7068
173.3157,98.7610
173.2200,98.7800
Z" /> 
</g>
<g style="fill:#000000; fill-opacity:1.0000; stroke:none;">
<circle cx="147.0000" cy="121.6000" r="0.7500" /> 
</g>
<g style="fill:#000000; fill-opacity:1.0000; stroke:none;">
<circle cx="154.4000" cy="104.6000" r="0.7500" /> 
</g>
<g style="fill:#000000; fill-opacity:1.0000; stroke:none;">
<circle cx="142.1000" cy="96.7000" r="0.7500" /> 
</g>
<g style="fill:#000000; fill-opacity:1.0000; stroke:none;">
<circle cx="176.4000" cy="103.2000" r="0.7500" /> 
</g>
<g style="fill:#000000; fill-opacity:1.0000; stroke:none;">
<circle cx="146.9000" cy="114.8000" r="0.7500" /> 
<path style="fill:#000000; fill-opacity:1.0000; stroke:none;fill-rule:evenodd;"
d="M 156.3500,111.8875
156.4457,111.9065
156.5268,111.9607
156.5810,112.0418
156.6000,112.1375
156.6000,112.8375
156.5810,112.9332
156.5268,113.0143
156.4457,113.0685
156.3500,113.0875
155.4500,113.0875
155.3543,113.0685
155.2732,113.0143
155.2190,112.9332
155.2000,112.8375
155.2000,112.1375
155.2190,112.0418
155.2732,111.9607
155.3543,111.9065
155.4500,111.8875
Z" /> 
<path style="fill:#000000; fill-opacity:1.0000; stroke:none;fill-rule:evenodd;"
d="M 156.3500,113.8875
156.4457,113.9065
156.5268,113.9607
156.5810,114.0418
156.6000,114.1375
156.6000,114.8375
156.5810,114.9332
156.5268,115.0143
156.4457,115.0685
156.3500,115.0875
155.4500,115.0875
155.3543,115.0685
155.2732,115.0143
155.2190,114.9332
155.2000,114.8375
155.2000,114.1375
155.2190,114.0418
155.2732,113.9607
155.3543,113.9065
155.4500,113.8875
Z" /> 
</g>
<g style="fill:#000000; fill-opacity:1.0000; stroke:none;">
<circle cx="144.3000" cy="91.2000" r="0.7500" /> 
<path style="fill:#000000; fill-opacity:1.0000; stroke:none;fill-rule:evenodd;"
d="M 172.1450,114.0550
172.0493,114.0360
171.9682,113.9818
171.9140,113.9007
171.8950,113.8050
171.8950,113.1050
171.9140,113.0093
171.9682,112.9282
172.0493,112.8740
172.1450,112.8550
173.0450,112.8550
173.1407,112.8740
173.2218,112.9282
173.2760,113.0093
173.2950,113.1050
173.2950,113.8050
173.2760,113.9007
173.2218,113.9818
173.1407,114.0360
173.0450,114.0550
Z" /> 
<path style="fill:#000000; fill-opacity:1.0000; stroke:none;fill-rule:evenodd;"
d="M 172.1450,112.0550
172.0493,112.0360
171.9682,111.9818
171.9140,111.9007
171.8950,111.8050
171.8950,111.1050
171.9140,111.0093
171.9682,110.9282
172.0493,110.8740
172.1450,110.8550
173.0450,110.8550
173.1407,110.8740
173.2218,110.9282
173.2760,111.0093
173.2950,111.1050
173.2950,111.8050
173.2760,111.9007
173.2218,111.9818
173.1407,112.0360
173.0450,112.0550
Z" /> 
</g>
<g style="fill:#000000; fill-opacity:1.0000; stroke:none;">
<circle cx="142.3000" cy="119.4000" r="1.6000" /> 
</g>
<g style="fill:#000000; fill-opacity:1.0000; stroke:none;">
<circle cx="170.9000" cy="95.0000" r="0.7500" /> 
<path style="fill:#000000; fill-opacity:1.0000; stroke:none;fill-rule:evenodd;"
d="M 143.8950,102.8500
143.7993,102.8310
143.7182,102.7768
143.6640,102.6957
143.6450,102.6000
143.6450,100.9000
143.6640,100.8043
143.7182,100.7232
143.7993,100.6690
143.8950,100.6500
144.5950,100.6500
144.6907,100.6690
144.7718,100.7232
144.8260,100.8043
144.8450,100.9000
144.8450,102.6000
144.8260,102.6957
144.7718,102.7768
144.6907,102.8310
144.5950,102.8500
Z" /> 
<path style="fill:#000000; fill-opacity:1.0000; stroke:none;fill-rule:evenodd;"
d="M 143.8750,98.6500
143.7793,98.6310
143.6982,98.5768
143.6440,98.4957
143.6250,98.4000
143.6250,92.5000
143.6440,92.4043
143.6982,92.3232
143.7793,92.2690
143.8750,92.2500
149.1750,92.2500
149.2707,92.2690
149.3518,92.3232
149.4060,92.4043
149.4250,92.5000
149.4250,98.4000
149.4060,98.4957
149.3518,98.5768
149.2707,98.6310
149.1750,98.6500
Z" /> 
<path style="fill:#000000; fill-opacity:1.0000; stroke:none;fill-rule:evenodd;"
d="M 148.4550,102.8500
148.3593,102.8310
148.2782,102.7768
148.2240,102.6957
148.2050,102.6000
148.2050,100.9000
148.2240,100.8043
148.2782,100.7232
148.3593,100.6690
148.4550,100.6500
149.1550,100.6500
149.2507,100.6690
149.3318,100.7232
149.3860,100.8043
149.4050,100.9000
149.4050,102.6000
149.3860,102.6957
149.3318,102.7768
149.2507,102.8310
149.1550,102.8500
Z" /> 
</g>
<g style="fill:#000000; fill-opacity:1.0000; stroke:none;">
<circle cx="139.6000" cy="108.4000" r="0.7500" /> 
<path style="fill:#000000; fill-opacity:1.0000; stroke:none;fill-rule:evenodd;"
d="M 157.3750,112.4875
157.3940,112.3918
157.4482,112.3107
157.5293,112.2565
157.6250,112.2375
158.3250,112.2375
158.4207,112.2565
158.5018,112.3107
158.5560,112.3918
158.5750,112.4875
158.5750,113.3875
158.5560,113.4832
158.5018,113.5643
158.4207,113.6185
158.3250,113.6375
157.6250,113.6375
157.5293,113.6185
157.4482,113.5643
157.3940,113.4832
157.3750,113.3875
Z" /> 
<path style="fill:#000000; fill-opacity:1.0000; stroke:none;fill-rule:evenodd;"
d="M 159.3750,112.4875
159.3940,112.3918
159.4482,112.3107
159.5293,112.2565
159.6250,112.2375
160.3250,112.2375
160.4207,112.2565
160.5018,112.3107
160.5560,112.3918
160.5750,112.4875
160.5750,113.3875
160.5560,113.4832
160.5018,113.5643
160.4207,113.6185
160.3250,113.6375
159.6250,113.6375
159.5293,113.6185
159.4482,113.5643
159.3940,113.4832
159.3750,113.3875
Z" /> 
<path style="fill:#000000; fill-opacity:1.0000; stroke:none;fill-rule:evenodd;"
d="M 157.3750,118.1375
157.3940,118.0418
157.4482,117.9607
157.5293,117.9065
157.6250,117.8875
158.3250,117.8875
158.4207,117.9065
158.5018,117.9607
158.5560,118.0418
158.5750,118.1375
158.5750,119.0375
158.5560,119.1332
158.5018,119.2143
158.4207,119.2685
158.3250,119.2875
157.6250,119.2875
157.5293,119.2685
157.4482,119.2143
157.3940,119.1332
157.3750,119.0375
Z" /> 
<path style="fill:#000000; fill-opacity:1.0000; stroke:none;fill-rule:evenodd;"
d="M 159.3750,118.1375
159.3940,118.0418
159.4482,117.9607
159.5293,117.9065
159.6250,117.8875
160.3250,117.8875
160.4207,117.9065
160.5018,117.9607
160.5560,118.0418
160.5750,118.1375
160.5750,119.0375
160.5560,119.1332
160.5018,119.2143
160.4207,119.2685
160.3250,119.2875
159.6250,119.2875
159.5293,119.2685
159.4482,119.2143
159.3940,119.1332
159.3750,119.0375
Z" /> 
<path style="fill:#000000; fill-opacity:1.0000; stroke:none;fill-rule:evenodd;"
d="M 162.0200,111.1700
162.0314,111.1126
162.0639,111.0639
162.1126,111.0314
162.1700,111.0200
163.8200,111.0200
163.8774,111.0314
163.9261,111.0639
163.9586,111.1126
163.9700,111.1700
163.9700,111.4700
163.9586,111.5274
163.9261,111.5761
163.8774,111.6086
163.8200,111.6200
162.1700,111.6200
162.1126,111.6086
162.0639,111.5761
162.0314,111.5274
162.0200,111.4700
Z" /> 
<path style="fill:#000000; fill-opacity:1.0000; stroke:none;fill-rule:evenodd;"
d="M 162.0200,112.4400
162.0314,112.3826
162.0639,112.3339
162.1126,112.3014
162.1700,112.2900
163.8200,112.2900
163.8774,112.3014
163.9261,112.3339
163.9586,112.3826
163.9700,112.4400
163.9700,112.7400
163.9586,112.7974
163.9261,112.8461
163.8774,112.8786
163.8200,112.8900
162.1700,112.8900
162.1126,112.8786
162.0639,112.8461
162.0314,112.7974
162.0200,112.7400
Z" /> 
<path style="fill:#000000; fill-opacity:1.0000; stroke:none;fill-rule:evenodd;"
d="M 162.0200,113.7100
162.0314,113.6526
162.0639,113.6039
162.1126,113.5714
162.1700,113.5600
163.8200,113.5600
163.8774,113.5714
163.9261,113.6039
163.9586,113.6526
163.9700,113.7100
163.9700,114.0100
163.9586,114.0674
163.9261,114.1161
163.8774,114.1486
163.8200,114.1600
162.1700,114.1600
162.1126,114.1486
162.0639,114.1161
162.0314,114.0674
162.0200,114.0100
Z" /> 
<path style="fill:#000000; fill-opacity:1.0000; stroke:none;fill-rule:evenodd;"
d="M 162.0200,114.9800
162.0314,114.9226
162.0639,114.8739
162.1126,114.8414
162.1700,114.8300
163.8200,114.8300
163.8774,114.8414
163.9261,114.8739
163.9586,114.9226
163.9700,114.9800
163.9700,115.2800
163.9586,115.3374
163.9261,115.3861
163.8774,115.4186
163.8200,115.4300
162.1700,115.4300
162.1126,115.4186
162.0639,115.3861
162.0314,115.3374
162.0200,115.2800
Z" /> 
<path style="fill:#000000; fill-opacity:1.0000; stroke:none;fill-rule:evenodd;"
d="M 162.0200,116.2500
162.0314,116.1926
162.0639,116.1439
162.1126,116.1114
162.1700,116.1000
163.8200,116.1000
163.8774,116.1114
163.9261,116.1439
163.9586,116.1926
163.9700,116.2500
163.9700,116.5500
163.9586,116.6074
163.9261,116.6561
163.8774,116.6886
163.8200,116.7000
162.1700,116.7000
162.1126,116.6886
162.0639,116.6561
162.0314,116.6074
162.0200,116.5500
Z" /> 
<path style="fill:#000000; fill-opacity:1.0000; stroke:none;fill-rule:evenodd;"
d="M 162.0200,117.5200
162.0314,117.4626
162.0639,117.4139
162.1126,117.3814
162.1700,117.3700
163.8200,117.3700
163.8774,117.3814
163.9261,117.4139
163.9586,117.4626
163.9700,117.5200
163.9700,117.8200
163.9586,117.8774
163.9261,117.9261
163.8774,117.9586
163.8200,117.9700
162.1700,117.9700
162.1126,117.9586
162.0639,117.9261
162.0314,117.8774
162.0200,117.8200
Z" /> 
<path style="fill:#000000; fill-opacity:1.0000; stroke:none;fill-rule:evenodd;"
d="M 162.0200,118.7900
162.0314,118.7326
162.0639,118.6839
162.1126,118.6514
162.1700,118.6400
163.8200,118.6400
163.8774,118.6514
163.9261,118.6839
163.9586,118.7326
163.9700,118.7900
163.9700,119.0900
163.9586,119.1474
163.9261,119.1961
163.8774,119.2286
163.8200,119.2400
162.1700,119.2400
162.1126,119.2286
162.0639,119.1961
162.0314,119.1474
162.0200,119.0900
Z" /> 
<path style="fill:#000000; fill-opacity:1.0000; stroke:none;fill-rule:evenodd;"
d="M 166.9700,118.7900
166.9814,118.7326
167.0139,118.6839
167.0626,118.6514
167.1200,118.6400
168.7700,118.6400
168.8274,118.6514
168.8761,118.6839
168.9086,118.7326
168.9200,118.7900
168.9200,119.0900
168.9086,119.1474
168.8761,119.1961
168.8274,119.2286
168.7700,119.2400
167.1200,119.2400
167.0626,119.2286
167.0139,119.1961
166.9814,119.1474
166.9700,119.0900
Z" /> 
<path style="fill:#000000; fill-opacity:1.0000; stroke:none;fill-rule:evenodd;"
d="M 166.9700,117.5200
166.9814,117.4626
167.0139,117.4139
167.0626,117.3814
167.1200,117.3700
168.7700,117.3700
168.8274,117.3814
168.8761,117.4139
168.9086,117.4626
168.9200,117.5200
168.9200,117.8200
168.9086,117.8774
168.8761,117.9261
168.8274,117.9586
168.7700,117.9700
167.1200,117.9700
167.0626,117.9586
167.0139,117.9261
166.9814,117.8774
166.9700,117.8200
Z" /> 
<path style="fill:#000000; fill-opacity:1.0000; stroke:none;fill-rule:evenodd;"
d="M 166.9700,116.2500
166.9814,116.1926
167.0139,116.1439
167.0626,116.1114
167.1200,116.1000
168.7700,116.1000
168.8274,116.1114
168.8761,116.1439
168.9086,116.1926
168.9200,116.2500
168.9200,116.5500
168.9086,116.6074
168.8761,116.6561
168.8274,116.6886
168.7700,116.7000
167.1200,116.7000
167.0626,116.6886
167.0139,116.6561
166.9814,116.6074
166.9700,116.5500
Z" /> 
<path style="fill:#000000; fill-opacity:1.0000; stroke:none;fill-rule:evenodd;"
d="M 166.9700,114.9800
166.9814,114.9226
167.0139,114.8739
167.0626,114.8414
167.1200,114.8300
168.7700,114.8300
168.8274,114.8414
168.8761,114.8739
168.9086,114.9226
168.9200,114.9800
168.9200,115.2800
168.9086,115.3374
168.8761,115.3861
168.8274,115.4186
168.7700,115.4300
167.1200,115.4300
167.0626,115.4186
167.0139,115.3861
166.9814,115.3374
166.9700,115.2800
Z" /> 
<path style="fill:#000000; fill-opacity:1.0000; stroke:none;fill-rule:evenodd;"
d="M 166.9700,113.7100
166.9814,113.6526
167.0139,113.6039
167.0626,113.5714
167.1200,113.5600
168.7700,113.5600
168.8274,113.5714
168.8761,113.6039
168.9086,113.6526
168.9200,113.7100
168.9200,114.0100
168.9086,114.0674
168.8761,114.1161
168.8274,114.1486
168.7700,114.1600
167.1200,114.1600
167.0626,114.1486
167.0139,114.1161
166.9814,114.0674
166.9700,114.0100
Z" /> 
<path style="fill:#000000; fill-opacity:1.0000; stroke:none;fill-rule:evenodd;"
d="M 166.9700,112.4400
166.9814,112.3826
167.0139,112.3339
167.0626,112.3014
167.1200,112.2900
168.7700,112.2900
168.8274,112.3014
168.8761,112.3339
168.9086,112.3826
168.9200,112.4400
168.9200,112.7400
168.9086,112.7974
168.8761,112.8461
168.8274,112.8786
168.7700,112.8900
167.1200,112.8900
167.0626,112.8786
167.0139,112.8461
166.9814,112.7974
166.9700,112.7400
Z" /> 
<path style="fill:#000000; fill-opacity:1.0000; stroke:none;fill-rule:evenodd;"
d="M 166.9700,111.1700
166.9814,111.1126
167.0139,111.0639
167.0626,111.0314
167.1200,111.0200
168.7700,111.0200
168.8274,111.0314
168.8761,111.0639
168.9086,111.1126
168.9200,111.1700
168.9200,111.4700
168.9086,111.5274
168.8761,111.5761
168.8274,111.6086
168.7700,111.6200
167.1200,111.6200
167.0626,111.6086
167.0139,111.5761
166.9814,111.5274
166.9700,111.4700
Z" /> 
</g>
<g style="fill:#000000; fill-opacity:1.0000; stroke:none;">
<circle cx="159.1000" cy="104.3000" r="0.7500" /> 
<path style="fill:#000000; fill-opacity:1.0000; stroke:none;fill-rule:evenodd;"
d="M 139.8500,95.3500
139.8500,93.6500
141.5500,93.6500
141.5500,95.3500
Z" /> 
</g>
<g style="fill:#000000; fill-opacity:1.0000; stroke:none;">
<circle cx="140.7000" cy="91.9600" r="0.8500" /> 
<path style="fill:#000000; fill-opacity:1.0000; stroke:none;fill-rule:evenodd;"
d="M 138.7000,112.3000
138.7000,110.5000
140.5000,110.5000
140.5000,112.3000
Z" /> 
<circle cx="142.1400" cy="111.4000" r="0.9000" /> 
<path style="fill:#000000; fill-opacity:1.0000; stroke:none;fill-rule:evenodd;"
d="M 145.8000,103.7000
145.8000,105.3000
144.2000,105.3000
144.2000,103.7000
Z" /> 
</g>
<g style="fill:#000000; fill-opacity:1.0000; stroke:none;">
<circle cx="142.5000" cy="104.5000" r="0.8000" /> 
<path style="fill:#000000; fill-opacity:1.0000; stroke:none;fill-rule:evenodd;"
d="M 146.7949,107.8000
146.7949,106.2000
148.3949,106.2000
148.3949,107.8000
Z" /> 
</g>
<g style="fill:#000000; fill-opacity:1.0000; stroke:none;">
<circle cx="150.0949" cy="107.0000" r="0.8000" /> 
</g> 
</svg>
