<?xml version="1.0" standalone="no"?>
 <!DOCTYPE svg PUBLIC "-//W3C//DTD SVG 1.1//EN" 
 "http://www.w3.org/Graphics/SVG/1.1/DTD/svg11.dtd"> 
<svg
  xmlns:svg="http://www.w3.org/2000/svg"
  xmlns="http://www.w3.org/2000/svg"
  xmlns:xlink="http://www.w3.org/1999/xlink"
  version="1.1"
  width="297.0022mm" height="210.0072mm" viewBox="0.0000 0.0000 297.0022 210.0072">
<title>SVG Image created as demodulador_sicom-B_Cu.svg date 2024/08/24 15:47:45 </title>
  <desc>Image generated by PCBNEW </desc>
<g style="fill:#000000; fill-opacity:1.0000;stroke:#000000; stroke-opacity:1.0000;
stroke-linecap:round; stroke-linejoin:round;"
 transform="translate(0 0) scale(1 1)">
</g>
<g style="fill:#000000; fill-opacity:1.0000; 
stroke:#000000; stroke-width:0.0212; stroke-opacity:1; 
stroke-linecap:round; stroke-linejoin:round;">
<rect x="131.950000" y="83.650000" width="76.250000" height="50.086422" rx="0.000000" />
</g>
<g style="fill:none; 
stroke:#FFFFFF; stroke-width:0.3000; stroke-opacity:1; 
stroke-linecap:round; stroke-linejoin:round;">
<text x="203.2000" y="106.2000"
transform="scale(-1 1) translate(-406.400000 0)"
textLength="16.5286" font-size="2.0000" lengthAdjust="spacingAndGlyphs"
text-anchor="start" opacity="0" stroke-opacity="0">DEMO BOTTOM</text>
<g class="stroked-text"><desc>DEMO BOTTOM</desc>
<path d="M202.6455 106.0008
L202.6455 104.5008
" />
<path d="M202.6455 104.5008
L202.2883 104.5008
" />
<path d="M202.2883 104.5008
L202.0741 104.5723
" />
<path d="M202.0741 104.5723
L201.9312 104.7151
" />
<path d="M201.9312 104.7151
L201.8598 104.8580
" />
<path d="M201.8598 104.8580
L201.7883 105.1437
" />
<path d="M201.7883 105.1437
L201.7883 105.3580
" />
<path d="M201.7883 105.3580
L201.8598 105.6437
" />
<path d="M201.8598 105.6437
L201.9312 105.7865
" />
<path d="M201.9312 105.7865
L202.0741 105.9294
" />
<path d="M202.0741 105.9294
L202.2883 106.0008
" />
<path d="M202.2883 106.0008
L202.6455 106.0008
" />
<path d="M201.1455 105.2151
L200.6455 105.2151
" />
<path d="M200.4312 106.0008
L201.1455 106.0008
" />
<path d="M201.1455 106.0008
L201.1455 104.5008
" />
<path d="M201.1455 104.5008
L200.4312 104.5008
" />
<path d="M199.7883 106.0008
L199.7883 104.5008
" />
<path d="M199.7883 104.5008
L199.2883 105.5723
" />
<path d="M199.2883 105.5723
L198.7883 104.5008
" />
<path d="M198.7883 104.5008
L198.7883 106.0008
" />
<path d="M197.7883 104.5008
L197.5026 104.5008
" />
<path d="M197.5026 104.5008
L197.3598 104.5723
" />
<path d="M197.3598 104.5723
L197.2169 104.7151
" />
<path d="M197.2169 104.7151
L197.1455 105.0008
" />
<path d="M197.1455 105.0008
L197.1455 105.5008
" />
<path d="M197.1455 105.5008
L197.2169 105.7865
" />
<path d="M197.2169 105.7865
L197.3598 105.9294
" />
<path d="M197.3598 105.9294
L197.5026 106.0008
" />
<path d="M197.5026 106.0008
L197.7883 106.0008
" />
<path d="M197.7883 106.0008
L197.9312 105.9294
" />
<path d="M197.9312 105.9294
L198.0741 105.7865
" />
<path d="M198.0741 105.7865
L198.1455 105.5008
" />
<path d="M198.1455 105.5008
L198.1455 105.0008
" />
<path d="M198.1455 105.0008
L198.0741 104.7151
" />
<path d="M198.0741 104.7151
L197.9312 104.5723
" />
<path d="M197.9312 104.5723
L197.7883 104.5008
" />
<path d="M194.8598 105.2151
L194.6455 105.2865
" />
<path d="M194.6455 105.2865
L194.5741 105.3580
" />
<path d="M194.5741 105.3580
L194.5026 105.5008
" />
<path d="M194.5026 105.5008
L194.5026 105.7151
" />
<path d="M194.5026 105.7151
L194.5741 105.8580
" />
<path d="M194.5741 105.8580
L194.6455 105.9294
" />
<path d="M194.6455 105.9294
L194.7883 106.0008
" />
<path d="M194.7883 106.0008
L195.3598 106.0008
" />
<path d="M195.3598 106.0008
L195.3598 104.5008
" />
<path d="M195.3598 104.5008
L194.8598 104.5008
" />
<path d="M194.8598 104.5008
L194.7169 104.5723
" />
<path d="M194.7169 104.5723
L194.6455 104.6437
" />
<path d="M194.6455 104.6437
L194.5741 104.7865
" />
<path d="M194.5741 104.7865
L194.5741 104.9294
" />
<path d="M194.5741 104.9294
L194.6455 105.0723
" />
<path d="M194.6455 105.0723
L194.7169 105.1437
" />
<path d="M194.7169 105.1437
L194.8598 105.2151
" />
<path d="M194.8598 105.2151
L195.3598 105.2151
" />
<path d="M193.5741 104.5008
L193.2883 104.5008
" />
<path d="M193.2883 104.5008
L193.1455 104.5723
" />
<path d="M193.1455 104.5723
L193.0026 104.7151
" />
<path d="M193.0026 104.7151
L192.9312 105.0008
" />
<path d="M192.9312 105.0008
L192.9312 105.5008
" />
<path d="M192.9312 105.5008
L193.0026 105.7865
" />
<path d="M193.0026 105.7865
L193.1455 105.9294
" />
<path d="M193.1455 105.9294
L193.2883 106.0008
" />
<path d="M193.2883 106.0008
L193.5741 106.0008
" />
<path d="M193.5741 106.0008
L193.7169 105.9294
" />
<path d="M193.7169 105.9294
L193.8598 105.7865
" />
<path d="M193.8598 105.7865
L193.9312 105.5008
" />
<path d="M193.9312 105.5008
L193.9312 105.0008
" />
<path d="M193.9312 105.0008
L193.8598 104.7151
" />
<path d="M193.8598 104.7151
L193.7169 104.5723
" />
<path d="M193.7169 104.5723
L193.5741 104.5008
" />
<path d="M192.5026 104.5008
L191.6455 104.5008
" />
<path d="M192.0741 106.0008
L192.0741 104.5008
" />
<path d="M191.3598 104.5008
L190.5026 104.5008
" />
<path d="M190.9312 106.0008
L190.9312 104.5008
" />
<path d="M189.7169 104.5008
L189.4312 104.5008
" />
<path d="M189.4312 104.5008
L189.2883 104.5723
" />
<path d="M189.2883 104.5723
L189.1455 104.7151
" />
<path d="M189.1455 104.7151
L189.0741 105.0008
" />
<path d="M189.0741 105.0008
L189.0741 105.5008
" />
<path d="M189.0741 105.5008
L189.1455 105.7865
" />
<path d="M189.1455 105.7865
L189.2883 105.9294
" />
<path d="M189.2883 105.9294
L189.4312 106.0008
" />
<path d="M189.4312 106.0008
L189.7169 106.0008
" />
<path d="M189.7169 106.0008
L189.8598 105.9294
" />
<path d="M189.8598 105.9294
L190.0026 105.7865
" />
<path d="M190.0026 105.7865
L190.0741 105.5008
" />
<path d="M190.0741 105.5008
L190.0741 105.0008
" />
<path d="M190.0741 105.0008
L190.0026 104.7151
" />
<path d="M190.0026 104.7151
L189.8598 104.5723
" />
<path d="M189.8598 104.5723
L189.7169 104.5008
" />
<path d="M188.4312 106.0008
L188.4312 104.5008
" />
<path d="M188.4312 104.5008
L187.9312 105.5723
" />
<path d="M187.9312 105.5723
L187.4312 104.5008
" />
<path d="M187.4312 104.5008
L187.4312 106.0008
" />
</g></g>
<g style="fill:#FFFFFF; fill-opacity:1.0000; stroke:none;">
<circle cx="156.6000" cy="120.2000" r="0.7500" /> 
</g>
<g style="fill:#FFFFFF; fill-opacity:1.0000; stroke:none;">
<circle cx="172.4000" cy="115.0000" r="0.7500" /> 
</g>
<g style="fill:#FFFFFF; fill-opacity:1.0000; stroke:none;">
<circle cx="170.2000" cy="104.4000" r="0.7500" /> 
</g>
<g style="fill:#FFFFFF; fill-opacity:1.0000; stroke:none;">
<circle cx="167.7000" cy="120.6000" r="0.7500" /> 
</g>
<g style="fill:#FFFFFF; fill-opacity:1.0000; stroke:none;">
<circle cx="148.7000" cy="91.1000" r="0.7500" /> 
</g>
<g style="fill:#FFFFFF; fill-opacity:1.0000; stroke:none;">
<circle cx="166.3000" cy="109.8000" r="0.7500" /> 
</g>
<g style="fill:#FFFFFF; fill-opacity:1.0000; stroke:none;">
<circle cx="149.6000" cy="110.5000" r="0.7500" /> 
</g>
<g style="fill:#FFFFFF; fill-opacity:1.0000; stroke:none;">
<circle cx="153.9000" cy="98.8000" r="0.7500" /> 
</g>
<g style="fill:#FFFFFF; fill-opacity:1.0000; stroke:none;">
<circle cx="166.0000" cy="106.5000" r="0.7500" /> 
</g>
<g style="fill:#FFFFFF; fill-opacity:1.0000; stroke:none;">
<circle cx="146.6000" cy="100.7000" r="0.7500" /> 
</g>
<g style="fill:#FFFFFF; fill-opacity:1.0000; stroke:none;">
<circle cx="176.3000" cy="109.5000" r="0.7500" /> 
</g>
<g style="fill:#FFFFFF; fill-opacity:1.0000; stroke:none;">
<circle cx="158.9000" cy="120.2000" r="0.7500" /> 
</g>
<g style="fill:#FFFFFF; fill-opacity:1.0000; stroke:none;">
<circle cx="147.0000" cy="121.6000" r="0.7500" /> 
</g>
<g style="fill:#FFFFFF; fill-opacity:1.0000; stroke:none;">
<circle cx="154.4000" cy="104.6000" r="0.7500" /> 
</g>
<g style="fill:#FFFFFF; fill-opacity:1.0000; stroke:none;">
<circle cx="142.1000" cy="96.7000" r="0.7500" /> 
</g>
<g style="fill:#FFFFFF; fill-opacity:1.0000; stroke:none;">
<circle cx="176.4000" cy="103.2000" r="0.7500" /> 
</g>
<g style="fill:#FFFFFF; fill-opacity:1.0000; stroke:none;">
<circle cx="146.9000" cy="114.8000" r="0.7500" /> 
</g>
<g style="fill:#FFFFFF; fill-opacity:1.0000; stroke:none;">
<circle cx="144.3000" cy="91.2000" r="0.7500" /> 
</g>
<g style="fill:#FFFFFF; fill-opacity:1.0000; stroke:none;">
<circle cx="170.9000" cy="95.0000" r="0.7500" /> 
</g>
<g style="fill:#FFFFFF; fill-opacity:1.0000; stroke:none;">
<circle cx="139.6000" cy="108.4000" r="0.7500" /> 
</g>
<g style="fill:#FFFFFF; fill-opacity:1.0000; stroke:none;">
<circle cx="159.1000" cy="104.3000" r="0.7500" /> 
<path style="fill:#FFFFFF; fill-opacity:1.0000; stroke:none;fill-rule:evenodd;"
d="M 139.8500,95.3500
139.8500,93.6500
141.5500,93.6500
141.5500,95.3500
Z" /> 
</g>
<g style="fill:#FFFFFF; fill-opacity:1.0000; stroke:none;">
<circle cx="140.7000" cy="91.9600" r="0.8500" /> 
<circle cx="180.5000" cy="96.0000" r="1.7500" /> 
</g>
<g style="fill:#FFFFFF; fill-opacity:1.0000; stroke:none;">
<circle cx="183.9400" cy="99.4400" r="1.7500" /> 
</g>
<g style="fill:#FFFFFF; fill-opacity:1.0000; stroke:none;">
<circle cx="183.9400" cy="92.5600" r="1.7500" /> 
</g>
<g style="fill:#FFFFFF; fill-opacity:1.0000; stroke:none;">
<circle cx="177.0600" cy="99.4400" r="1.7500" /> 
</g>
<g style="fill:#FFFFFF; fill-opacity:1.0000; stroke:none;">
<circle cx="177.0600" cy="92.5600" r="1.7500" /> 
</g>
<g style="fill:#FFFFFF; fill-opacity:1.0000; stroke:none;">
<circle cx="162.9200" cy="96.2800" r="1.7500" /> 
</g>
<g style="fill:#FFFFFF; fill-opacity:1.0000; stroke:none;">
<circle cx="166.3600" cy="99.7200" r="1.7500" /> 
</g>
<g style="fill:#FFFFFF; fill-opacity:1.0000; stroke:none;">
<circle cx="166.3600" cy="92.8400" r="1.7500" /> 
</g>
<g style="fill:#FFFFFF; fill-opacity:1.0000; stroke:none;">
<circle cx="159.4800" cy="99.7200" r="1.7500" /> 
</g>
<g style="fill:#FFFFFF; fill-opacity:1.0000; stroke:none;">
<circle cx="159.4800" cy="92.8400" r="1.7500" /> 
</g>
<g style="fill:#FFFFFF; fill-opacity:1.0000; stroke:none;">
<circle cx="180.5000" cy="117.2000" r="1.7500" /> 
</g>
<g style="fill:#FFFFFF; fill-opacity:1.0000; stroke:none;">
<circle cx="183.9400" cy="120.6400" r="1.7500" /> 
</g>
<g style="fill:#FFFFFF; fill-opacity:1.0000; stroke:none;">
<circle cx="183.9400" cy="113.7600" r="1.7500" /> 
</g>
<g style="fill:#FFFFFF; fill-opacity:1.0000; stroke:none;">
<circle cx="177.0600" cy="120.6400" r="1.7500" /> 
</g>
<g style="fill:#FFFFFF; fill-opacity:1.0000; stroke:none;">
<circle cx="177.0600" cy="113.7600" r="1.7500" /> 
<path style="fill:#FFFFFF; fill-opacity:1.0000; stroke:none;fill-rule:evenodd;"
d="M 138.7000,112.3000
138.7000,110.5000
140.5000,110.5000
140.5000,112.3000
Z" /> 
</g>
<g style="fill:#FFFFFF; fill-opacity:1.0000; stroke:none;">
<circle cx="142.1400" cy="111.4000" r="0.9000" /> 
<path style="fill:#FFFFFF; fill-opacity:1.0000; stroke:none;fill-rule:evenodd;"
d="M 145.8000,103.7000
145.8000,105.3000
144.2000,105.3000
144.2000,103.7000
Z" /> 
</g>
<g style="fill:#FFFFFF; fill-opacity:1.0000; stroke:none;">
<circle cx="142.5000" cy="104.5000" r="0.8000" /> 
<path style="fill:#FFFFFF; fill-opacity:1.0000; stroke:none;fill-rule:evenodd;"
d="M 146.7949,107.8000
146.7949,106.2000
148.3949,106.2000
148.3949,107.8000
Z" /> 
</g>
<g style="fill:#FFFFFF; fill-opacity:1.0000; stroke:none;">
<circle cx="150.0949" cy="107.0000" r="0.8000" /> 
</g>
<g style="fill:none; 
stroke:#FFFFFF; stroke-width:0.7000; stroke-opacity:1; 
stroke-linecap:round; stroke-linejoin:round;">
<path d="M152.7000 114.4000
L152.7000 116.8000
" />
<path d="M167.0000 118.8000
L164.6000 121.2000
" />
<path d="M154.3000 118.4000
L157.1225 118.4000
" />
<path d="M167.7000 115.1000
L167.0000 115.8000
" />
<path d="M164.6000 121.2000
L159.9225 121.2000
" />
<path d="M167.0000 115.8000
L167.0000 118.8000
" />
<path d="M150.2000 114.7000
L151.1000 113.8000
" />
<path d="M157.1225 118.4000
L158.8800 120.1575
" />
<path d="M147.1000 114.7000
L150.2000 114.7000
" />
<path d="M172.4500 114.5000
L171.7000 114.5000
" />
<path d="M152.7000 116.8000
L154.3000 118.4000
" />
<path d="M171.1000 115.1000
L167.7000 115.1000
" />
<path d="M171.7000 114.5000
L171.1000 115.1000
" />
<path d="M151.1000 113.8000
L152.1000 113.8000
" />
<path d="M152.1000 113.8000
L152.7000 114.4000
" />
<path d="M159.9225 121.2000
L158.8800 120.1575
" />
<path style="fill:#FFFFFF; fill-opacity:1.0000; stroke:none;fill-rule:evenodd;"
d="M 186.4425,89.2202
186.4883,89.2730
186.4995,89.3245
186.4995,123.0755
186.4798,123.1425
186.4270,123.1883
186.3755,123.1995
137.6245,123.1995
137.5575,123.1798
137.5117,123.1270
137.5005,123.0755
137.5005,122.6980
146.3970,122.6980
146.5708,122.7791
146.5708,122.7791
146.7821,122.8357
146.7821,122.8357
147.0000,122.8548
147.0000,122.8548
147.2179,122.8357
147.2179,122.8357
147.4291,122.7791
147.4292,122.7791
147.6030,122.6980
147.0000,122.0950
147.0000,122.0950
146.3970,122.6980
137.5005,122.6980
137.5005,121.6000
145.7452,121.6000
145.7452,121.6000
145.7643,121.8179
145.7643,121.8179
145.8209,122.0292
145.8209,122.0292
145.9020,122.2030
146.5050,121.6000
146.5050,121.6000
146.4589,121.5539
146.6500,121.5539
146.6500,121.6461
146.6739,121.7351
146.7199,121.8149
146.7851,121.8801
146.8649,121.9261
146.9539,121.9500
147.0461,121.9500
147.1351,121.9261
147.2149,121.8801
147.2801,121.8149
147.3261,121.7351
147.3500,121.6461
147.3500,121.6000
147.4950,121.6000
147.4950,121.6000
148.0980,122.2030
148.1791,122.0292
148.1791,122.0292
148.2357,121.8179
148.2357,121.8179
148.2548,121.6000
148.2548,121.6000
148.2357,121.3821
148.2357,121.3821
148.2132,121.2980
155.9970,121.2980
156.1708,121.3791
156.1708,121.3791
156.3821,121.4357
156.3821,121.4357
156.6000,121.4548
156.6000,121.4548
156.8179,121.4357
156.8179,121.4357
157.0291,121.3791
157.0292,121.3791
157.2030,121.2980
156.6000,120.6950
156.6000,120.6950
155.9970,121.2980
148.2132,121.2980
148.1791,121.1708
148.1791,121.1708
148.0980,120.9970
147.4950,121.6000
147.3500,121.6000
147.3500,121.5539
147.3261,121.4649
147.2801,121.3851
147.2149,121.3199
147.1351,121.2739
147.0461,121.2500
146.9539,121.2500
146.8649,121.2739
146.7851,121.3199
146.7199,121.3851
146.6739,121.4649
146.6500,121.5539
146.4589,121.5539
145.9020,120.9970
145.8209,121.1708
145.8209,121.1708
145.7643,121.3821
145.7643,121.3821
145.7452,121.6000
137.5005,121.6000
137.5005,119.2787
140.4495,119.2787
140.4495,119.5213
140.4812,119.7618
140.5439,119.9961
140.6284,120.2000
140.6368,120.2202
140.7581,120.4303
140.7581,120.4303
140.7581,120.4303
140.9057,120.6227
140.9057,120.6227
141.0773,120.7943
141.0773,120.7943
141.1080,120.8179
141.2697,120.9419
141.4798,121.0632
141.7039,121.1561
141.9382,121.2188
142.1186,121.2426
142.1787,121.2505
142.1787,121.2505
142.4213,121.2505
142.4694,121.2442
142.6618,121.2188
142.8961,121.1561
143.1202,121.0632
143.3303,120.9419
143.5227,120.7943
143.6943,120.6227
143.7869,120.5020
146.3970,120.5020
147.0000,121.1050
147.0000,121.1050
147.6030,120.5020
147.4292,120.4209
147.4291,120.4209
147.2179,120.3643
147.2179,120.3643
147.0000,120.3452
147.0000,120.3452
146.7821,120.3643
146.7821,120.3643
146.5708,120.4209
146.5708,120.4209
146.3970,120.5020
143.7869,120.5020
143.8419,120.4303
143.9632,120.2202
144.0561,119.9961
144.1188,119.7618
144.1505,119.5213
144.1505,119.2787
144.1494,119.2702
144.1340,119.1532
144.1188,119.0382
144.0561,118.8039
143.9632,118.5798
143.8419,118.3697
143.6943,118.1773
143.6943,118.1773
143.5227,118.0057
143.5227,118.0057
143.3303,117.8581
143.3303,117.8581
143.3303,117.8581
143.1247,117.7394
143.1202,117.7368
143.1202,117.7368
142.8961,117.6439
142.6656,117.5822
142.6618,117.5812
142.6618,117.5812
142.6618,117.5812
142.4213,117.5495
142.4213,117.5495
142.1787,117.5495
142.1787,117.5495
141.9382,117.5812
141.7039,117.6439
141.4798,117.7368
141.4798,117.7368
141.2697,117.8581
141.0773,118.0057
141.0773,118.0057
140.9057,118.1773
140.9057,118.1773
140.7581,118.3697
140.6368,118.5798
140.6368,118.5798
140.5439,118.8039
140.4812,119.0382
140.4495,119.2787
137.5005,119.2787
137.5005,114.8000
145.6447,114.8000
145.6622,115.0000
145.6638,115.0180
145.6638,115.0180
145.7204,115.2293
145.7204,115.2293
145.7204,115.2293
145.7667,115.3285
145.8129,115.4276
145.8311,115.4537
145.9384,115.6069
146.0931,115.7616
146.2724,115.8871
146.4707,115.9796
146.6820,116.0362
146.8649,116.0522
146.9000,116.0553
146.9000,116.0553
146.9000,116.0553
146.9283,116.0528
147.1180,116.0362
147.3293,115.9796
147.5276,115.8871
147.7069,115.7616
147.8616,115.6069
147.8640,115.6034
147.9186,115.5598
147.9656,115.5505
150.2838,115.5505
150.2838,115.5505
150.3385,115.5396
150.4481,115.5178
150.4481,115.5178
150.4481,115.5178
150.4934,115.4990
150.6029,115.4537
150.7422,115.3606
151.4160,114.6868
151.4773,114.6533
151.5036,114.6505
151.6963,114.6505
151.7634,114.6702
151.7840,114.6868
151.8132,114.7160
151.8467,114.7773
151.8495,114.8037
151.8495,116.8838
151.8822,117.0481
151.8822,117.0481
151.9463,117.2029
151.9463,117.2029
152.0394,117.3422
152.0394,117.3422
153.7578,119.0606
153.7578,119.0606
153.8971,119.1537
153.8971,119.1537
153.8971,119.1537
153.9792,119.1877
154.0066,119.1990
154.0519,119.2178
154.1554,119.2384
154.2162,119.2505
154.2162,119.2505
154.2162,119.2505
154.2162,119.2505
154.3838,119.2505
155.5007,119.2505
155.5677,119.2702
155.6135,119.3230
155.6234,119.3921
155.6023,119.4456
155.5133,119.5726
155.5133,119.5726
155.4209,119.7708
155.4209,119.7708
155.3643,119.9821
155.3643,119.9821
155.3452,120.2000
155.3452,120.2000
155.3643,120.4179
155.3643,120.4179
155.4209,120.6291
155.4209,120.6292
155.5020,120.8030
156.5123,119.7927
156.5736,119.7592
156.6433,119.7642
156.6877,119.7927
156.8149,119.9199
156.7351,119.8739
156.6461,119.8500
156.5539,119.8500
156.4649,119.8739
156.3851,119.9199
156.3199,119.9851
156.2739,120.0649
156.2500,120.1539
156.2500,120.2461
156.2739,120.3351
156.3199,120.4149
156.3851,120.4801
156.4649,120.5261
156.5539,120.5500
156.6461,120.5500
156.7351,120.5261
156.8149,120.4801
156.8801,120.4149
156.9261,120.3351
156.9500,120.2461
156.9500,120.1539
156.9261,120.0649
156.8801,119.9851
157.6980,120.8030
157.7071,120.8014
157.7766,120.8092
157.8303,120.8524
157.9384,121.0069
158.0931,121.1616
158.2724,121.2871
158.4707,121.3796
158.6820,121.4362
158.9000,121.4553
158.9113,121.4543
158.9798,121.4680
159.0098,121.4901
159.3803,121.8606
159.3803,121.8606
159.5196,121.9537
159.5196,121.9537
159.5196,121.9537
159.5480,121.9654
159.6291,121.9990
159.6744,122.0178
159.7314,122.0292
159.8387,122.0505
159.8387,122.0505
159.8387,122.0505
164.6838,122.0505
164.6838,122.0505
164.7385,122.0396
164.8481,122.0178
164.8481,122.0178
164.8481,122.0178
164.8934,121.9990
165.0029,121.9537
165.1422,121.8606
165.3048,121.6980
167.0970,121.6980
167.2708,121.7791
167.2708,121.7791
167.4821,121.8357
167.4821,121.8357
167.7000,121.8548
167.7000,121.8548
167.9179,121.8357
167.9179,121.8357
168.1291,121.7791
168.1292,121.7791
168.3030,121.6980
167.7000,121.0950
167.7000,121.0950
167.0970,121.6980
165.3048,121.6980
166.2540,120.7488
166.3153,120.7153
166.3850,120.7203
166.4409,120.7622
166.4628,120.8127
166.4629,120.8127
166.4631,120.8133
166.4638,120.8150
166.4643,120.8179
166.5209,121.0292
166.5209,121.0292
166.6020,121.2030
167.2511,120.5539
167.3500,120.5539
167.3500,120.6461
167.3739,120.7351
167.4199,120.8149
167.4851,120.8801
167.5649,120.9261
167.6539,120.9500
167.7461,120.9500
167.8351,120.9261
167.9149,120.8801
167.9801,120.8149
168.0261,120.7351
168.0500,120.6461
168.0500,120.6000
168.1950,120.6000
168.1950,120.6000
168.7980,121.2030
168.8791,121.0292
168.8791,121.0292
168.9357,120.8179
168.9357,120.8179
168.9513,120.6400
174.8052,120.6400
174.8245,120.9343
174.8245,120.9343
174.8820,121.2236
174.8820,121.2236
174.9768,121.5029
175.1073,121.7674
175.1073,121.7674
175.2396,121.9654
176.3410,120.8640
176.3954,120.9953
176.4774,121.1181
176.5819,121.2226
176.7047,121.3046
176.8360,121.3590
175.7346,122.4604
175.9326,122.5927
175.9326,122.5927
176.1971,122.7232
176.4764,122.8180
176.4764,122.8180
176.7657,122.8755
176.7657,122.8755
177.0600,122.8948
177.3543,122.8755
177.3543,122.8755
177.6436,122.8180
177.6436,122.8180
177.9229,122.7232
178.1874,122.5927
178.3854,122.4604
177.2840,121.3590
177.4153,121.3046
177.5381,121.2226
177.6426,121.1181
177.7246,120.9953
177.7790,120.8640
178.8804,121.9654
179.0127,121.7674
179.1432,121.5029
179.2380,121.2236
179.2380,121.2236
179.2955,120.9343
179.2955,120.9343
179.3148,120.6400
181.6852,120.6400
181.7045,120.9343
181.7045,120.9343
181.7620,121.2236
181.7620,121.2236
181.8568,121.5029
181.9873,121.7674
181.9873,121.7674
182.1196,121.9654
183.2210,120.8640
183.2754,120.9953
183.3574,121.1181
183.4619,121.2226
183.5847,121.3046
183.7160,121.3590
182.6146,122.4604
182.8126,122.5927
182.8126,122.5927
183.0771,122.7232
183.3564,122.8180
183.3564,122.8180
183.6457,122.8755
183.6457,122.8755
183.9400,122.8948
184.2343,122.8755
184.2343,122.8755
184.5236,122.8180
184.5236,122.8180
184.8029,122.7232
185.0674,122.5927
185.2654,122.4604
184.1640,121.3590
184.2953,121.3046
184.4181,121.2226
184.5226,121.1181
184.6046,120.9953
184.6590,120.8640
185.7604,121.9654
185.8927,121.7674
186.0232,121.5029
186.1180,121.2236
186.1180,121.2236
186.1755,120.9343
186.1755,120.9343
186.1948,120.6400
186.1755,120.3457
186.1755,120.3457
186.1180,120.0564
186.1180,120.0564
186.0232,119.7771
185.8927,119.5126
185.8927,119.5126
185.7604,119.3146
184.6590,120.4160
184.6046,120.2847
184.5226,120.1619
184.4181,120.0574
184.2953,119.9754
184.1640,119.9210
185.2654,118.8196
185.0674,118.6873
185.0674,118.6873
184.8029,118.5568
184.5236,118.4620
184.5236,118.4620
184.2343,118.4045
184.2343,118.4045
183.9400,118.3852
183.6457,118.4045
183.6457,118.4045
183.3564,118.4620
183.3564,118.4620
183.0771,118.5568
182.8126,118.6873
182.6146,118.8196
183.7160,119.9210
183.5847,119.9754
183.4619,120.0574
183.3574,120.1619
183.2754,120.2847
183.2210,120.4160
182.1196,119.3146
181.9873,119.5126
181.8568,119.7771
181.7620,120.0564
181.7620,120.0564
181.7045,120.3457
181.7045,120.3457
181.6852,120.6400
179.3148,120.6400
179.2955,120.3457
179.2955,120.3457
179.2380,120.0564
179.2380,120.0564
179.1432,119.7771
179.0127,119.5126
179.0127,119.5126
178.8804,119.3146
177.7790,120.4160
177.7246,120.2847
177.6426,120.1619
177.5381,120.0574
177.4153,119.9754
177.2840,119.9210
178.3854,118.8196
178.1874,118.6873
178.1874,118.6873
177.9229,118.5568
177.6436,118.4620
177.6436,118.4620
177.3543,118.4045
177.3543,118.4045
177.0600,118.3852
176.7657,118.4045
176.7657,118.4045
176.4764,118.4620
176.4764,118.4620
176.1971,118.5568
175.9326,118.6873
175.7346,118.8196
176.8360,119.9210
176.7047,119.9754
176.5819,120.0574
176.4774,120.1619
176.3954,120.2847
176.3410,120.4160
175.2396,119.3146
175.1073,119.5126
174.9768,119.7771
174.8820,120.0564
174.8820,120.0564
174.8245,120.3457
174.8245,120.3457
174.8052,120.6400
168.9513,120.6400
168.9548,120.6000
168.9548,120.6000
168.9357,120.3821
168.9357,120.3821
168.8791,120.1708
168.8791,120.1708
168.7980,119.9970
168.1950,120.6000
168.0500,120.6000
168.0500,120.5539
168.0261,120.4649
167.9801,120.3851
167.9149,120.3199
167.8351,120.2739
167.7461,120.2500
167.6539,120.2500
167.5649,120.2739
167.4851,120.3199
167.4199,120.3851
167.3739,120.4649
167.3500,120.5539
167.2511,120.5539
168.3030,119.5020
168.1292,119.4209
168.1291,119.4209
167.9179,119.3643
167.9179,119.3643
167.8634,119.3595
167.7983,119.3341
167.7573,119.2775
167.7535,119.2077
167.7596,119.1885
167.7913,119.1122
167.8178,119.0481
167.8505,118.8838
167.8505,117.2000
178.2447,117.2000
178.2447,117.2000
178.2640,117.4944
178.2640,117.4944
178.2640,117.4944
178.3127,117.7394
178.3215,117.7837
178.3215,117.7837
178.4163,118.0631
178.5468,118.3277
178.5468,118.3277
178.7107,118.5730
178.9052,118.7948
179.1270,118.9893
179.3110,119.1122
179.3723,119.1532
179.6369,119.2837
179.9163,119.3785
180.2056,119.4360
180.2339,119.4379
180.5000,119.4553
180.5000,119.4553
180.5000,119.4553
180.7357,119.4399
180.7944,119.4360
181.0837,119.3785
181.3631,119.2837
181.6277,119.1532
181.8730,118.9893
182.0948,118.7948
182.2893,118.5730
182.4532,118.3277
182.5837,118.0631
182.6785,117.7837
182.7360,117.4944
182.7460,117.3422
182.7553,117.2000
182.7553,117.2000
182.7360,116.9056
182.7360,116.9056
182.6785,116.6163
182.5837,116.3369
182.4532,116.0723
182.4290,116.0362
182.3718,115.9505
182.2893,115.8270
182.1921,115.7162
182.0948,115.6052
181.8730,115.4107
181.6277,115.2468
181.6277,115.2468
181.3631,115.1163
181.0837,115.0215
181.0837,115.0215
181.0837,115.0215
180.7944,114.9640
180.7944,114.9640
180.7944,114.9640
180.5000,114.9447
180.5000,114.9447
180.2056,114.9640
180.2056,114.9640
180.2056,114.9640
180.2056,114.9640
180.2056,114.9640
179.9163,115.0215
179.9163,115.0215
179.6369,115.1163
179.3723,115.2468
179.1270,115.4107
178.9052,115.6052
178.7107,115.8270
178.5468,116.0723
178.4163,116.3369
178.3215,116.6163
178.3215,116.6163
178.2640,116.9056
178.2640,116.9056
178.2447,117.2000
167.8505,117.2000
167.8505,116.2036
167.8702,116.1366
167.8868,116.1160
168.0160,115.9868
168.0773,115.9533
168.1036,115.9505
171.1838,115.9505
171.1838,115.9505
171.2466,115.9380
171.3481,115.9178
171.3481,115.9178
171.3481,115.9178
171.3934,115.8990
171.4138,115.8906
171.4833,115.8831
171.5458,115.9144
171.5490,115.9175
171.5931,115.9616
171.7724,116.0871
171.9707,116.1796
172.1820,116.2362
172.3649,116.2522
172.4000,116.2553
172.4000,116.2553
172.4000,116.2553
172.4283,116.2528
172.6180,116.2362
172.8293,116.1796
173.0276,116.0871
173.2069,115.9616
173.3616,115.8069
173.4871,115.6276
173.5796,115.4293
173.6362,115.2180
173.6534,115.0215
173.6553,115.0000
173.6553,115.0000
173.6504,114.9447
173.6362,114.7820
173.5796,114.5707
173.4871,114.3724
173.4871,114.3724
173.4871,114.3724
173.3616,114.1931
173.2069,114.0384
173.1462,113.9959
173.1142,113.9632
173.1106,113.9578
173.1106,113.9578
173.1106,113.9578
172.9922,113.8394
172.9922,113.8394
172.9922,113.8394
172.8734,113.7600
174.8052,113.7600
174.8245,114.0543
174.8245,114.0543
174.8820,114.3436
174.8820,114.3436
174.9768,114.6229
175.1073,114.8874
175.1073,114.8874
175.2396,115.0854
176.3410,113.9840
176.3954,114.1153
176.4774,114.2381
176.5819,114.3426
176.7047,114.4246
176.8360,114.4790
175.7346,115.5804
175.9326,115.7127
175.9326,115.7127
176.1971,115.8432
176.4764,115.9380
176.4764,115.9380
176.7657,115.9955
176.7657,115.9955
177.0600,116.0148
177.3543,115.9955
177.3543,115.9955
177.6436,115.9380
177.6436,115.9380
177.9229,115.8432
178.1874,115.7127
178.3854,115.5804
177.2840,114.4790
177.4153,114.4246
177.5381,114.3426
177.6426,114.2381
177.7246,114.1153
177.7790,113.9840
178.8804,115.0854
179.0127,114.8874
179.1432,114.6229
179.2380,114.3436
179.2380,114.3436
179.2955,114.0543
179.2955,114.0543
179.3148,113.7600
181.6852,113.7600
181.7045,114.0543
181.7045,114.0543
181.7620,114.3436
181.7620,114.3436
181.8568,114.6229
181.9873,114.8874
181.9873,114.8874
182.1196,115.0854
183.2210,113.9840
183.2754,114.1153
183.3574,114.2381
183.4619,114.3426
183.5847,114.4246
183.7160,114.4790
182.6146,115.5804
182.8126,115.7127
182.8126,115.7127
183.0771,115.8432
183.3564,115.9380
183.3564,115.9380
183.6457,115.9955
183.6457,115.9955
183.9400,116.0148
184.2343,115.9955
184.2343,115.9955
184.5236,115.9380
184.5236,115.9380
184.8029,115.8432
185.0674,115.7127
185.2654,115.5804
184.1640,114.4790
184.2953,114.4246
184.4181,114.3426
184.5226,114.2381
184.6046,114.1153
184.6590,113.9840
185.7604,115.0854
185.8927,114.8874
186.0232,114.6229
186.1180,114.3436
186.1180,114.3436
186.1755,114.0543
186.1755,114.0543
186.1948,113.7600
186.1755,113.4657
186.1755,113.4657
186.1180,113.1764
186.1180,113.1764
186.0232,112.8971
185.8927,112.6326
185.8927,112.6326
185.7604,112.4346
184.6590,113.5360
184.6046,113.4047
184.5226,113.2819
184.4181,113.1774
184.2953,113.0954
184.1640,113.0410
185.2654,111.9396
185.0674,111.8073
185.0674,111.8073
184.8029,111.6768
184.5236,111.5820
184.5236,111.5820
184.2343,111.5245
184.2343,111.5245
183.9400,111.5052
183.6457,111.5245
183.6457,111.5245
183.3564,111.5820
183.3564,111.5820
183.0771,111.6768
182.8126,111.8073
182.6146,111.9396
183.7160,113.0410
183.5847,113.0954
183.4619,113.1774
183.3574,113.2819
183.2754,113.4047
183.2210,113.5360
182.1196,112.4346
181.9873,112.6326
181.8568,112.8971
181.7620,113.1764
181.7620,113.1764
181.7045,113.4657
181.7045,113.4657
181.6852,113.7600
179.3148,113.7600
179.2955,113.4657
179.2955,113.4657
179.2380,113.1764
179.2380,113.1764
179.1432,112.8971
179.0127,112.6326
179.0127,112.6326
178.8804,112.4346
177.7790,113.5360
177.7246,113.4047
177.6426,113.2819
177.5381,113.1774
177.4153,113.0954
177.2840,113.0410
178.3854,111.9396
178.1874,111.8073
178.1874,111.8073
177.9229,111.6768
177.6436,111.5820
177.6436,111.5820
177.3543,111.5245
177.3543,111.5245
177.0600,111.5052
176.7657,111.5245
176.7657,111.5245
176.4764,111.5820
176.4764,111.5820
176.1971,111.6768
175.9326,111.8073
175.7346,111.9396
176.8360,113.0410
176.7047,113.0954
176.5819,113.1774
176.4774,113.2819
176.3954,113.4047
176.3410,113.5360
175.2396,112.4346
175.1073,112.6326
174.9768,112.8971
174.8820,113.1764
174.8820,113.1764
174.8245,113.4657
174.8245,113.4657
174.8052,113.7600
172.8734,113.7600
172.8529,113.7463
172.6981,113.6822
172.6981,113.6822
172.5338,113.6495
172.5338,113.6495
171.6162,113.6495
171.6162,113.6495
171.4519,113.6822
171.4519,113.6822
171.4066,113.7010
171.2971,113.7463
171.2971,113.7463
171.2971,113.7463
171.1762,113.8271
171.1578,113.8394
171.1578,113.8394
170.7840,114.2132
170.7227,114.2467
170.6963,114.2495
167.6162,114.2495
167.4519,114.2822
167.4519,114.2822
167.3071,114.3422
167.3071,114.3422
167.3037,114.3436
167.2971,114.3463
167.1578,114.4394
167.1578,114.4394
166.3394,115.2578
166.3394,115.2578
166.2463,115.3971
166.2463,115.3971
166.2025,115.5029
166.1822,115.5519
166.1822,115.5519
166.1495,115.7162
166.1495,118.3963
166.1298,118.4634
166.1132,118.4840
164.2840,120.3132
164.2227,120.3467
164.1963,120.3495
160.3262,120.3495
160.2591,120.3298
160.2385,120.3132
160.1901,120.2648
160.1566,120.2035
160.1542,120.1879
160.1362,119.9820
160.0796,119.7707
159.9871,119.5724
159.9871,119.5724
159.9871,119.5724
159.8616,119.3931
159.7915,119.3230
159.7069,119.2384
159.5276,119.1129
159.5276,119.1129
159.5276,119.1129
159.3886,119.0481
159.3293,119.0204
159.3293,119.0204
159.3293,119.0204
159.1180,118.9638
158.9121,118.9458
158.8470,118.9203
158.8352,118.9099
157.6647,117.7394
157.6647,117.7394
157.5254,117.6463
157.5254,117.6463
157.4159,117.6010
157.4159,117.6010
157.3706,117.5822
157.3706,117.5822
157.2063,117.5495
157.2063,117.5495
154.7037,117.5495
154.6366,117.5298
154.6160,117.5132
153.5868,116.4840
153.5533,116.4227
153.5505,116.3963
153.5505,114.3162
153.5505,114.3162
153.5260,114.1931
153.5178,114.1519
153.4951,114.0971
153.4951,114.0971
153.4537,113.9971
153.4537,113.9971
153.4537,113.9971
153.3606,113.8578
153.3606,113.8578
153.3606,113.8578
153.3606,113.8578
152.6422,113.1394
152.6422,113.1394
152.5029,113.0463
152.5029,113.0463
152.3934,113.0010
152.3934,113.0010
152.3481,112.9822
152.3481,112.9822
152.1838,112.9495
152.1838,112.9495
151.0162,112.9495
151.0162,112.9495
150.8519,112.9822
150.8519,112.9822
150.8066,113.0010
150.6971,113.0463
150.6971,113.0463
150.6971,113.0463
150.5578,113.1394
150.5578,113.1394
150.5578,113.1394
149.8840,113.8132
149.8227,113.8467
149.7963,113.8495
147.7618,113.8495
147.6948,113.8298
147.6907,113.8271
147.5276,113.7129
147.5276,113.7129
147.5276,113.7129
147.4285,113.6667
147.3293,113.6204
147.3293,113.6204
147.3293,113.6204
147.1180,113.5638
146.9000,113.5447
146.9000,113.5447
146.7547,113.5574
146.6820,113.5638
146.6820,113.5638
146.4707,113.6204
146.4707,113.6204
146.2724,113.7129
146.2724,113.7129
146.0931,113.8384
145.9384,113.9931
145.8129,114.1724
145.8129,114.1724
145.7204,114.3707
145.7204,114.3707
145.6638,114.5820
145.6638,114.5820
145.6463,114.7820
145.6447,114.8000
137.5005,114.8000
137.5005,112.3478
138.2000,112.3478
138.2064,112.4074
138.2064,112.4074
138.2566,112.5421
138.2566,112.5421
138.3428,112.6572
138.3428,112.6572
138.4579,112.7433
138.4579,112.7434
138.5926,112.7936
138.5926,112.7936
138.6522,112.8000
138.6522,112.8000
139.2500,112.8000
139.2500,111.7500
138.2000,111.7500
138.2000,112.3478
137.5005,112.3478
137.5005,111.3408
139.1500,111.3408
139.1500,111.4592
139.1807,111.5737
139.2399,111.6763
139.3237,111.7601
139.4263,111.8193
139.5408,111.8500
139.6592,111.8500
139.7737,111.8193
139.8763,111.7601
139.9500,111.6864
139.9500,112.8000
140.5478,112.8000
140.5478,112.8000
140.6074,112.7936
140.6074,112.7936
140.7421,112.7434
140.7421,112.7433
140.8572,112.6572
140.8572,112.6572
140.9433,112.5421
140.9434,112.5421
140.9721,112.4651
141.0139,112.4091
141.0794,112.3847
141.1477,112.3996
141.1795,112.4244
141.1882,112.4339
141.1882,112.4339
141.1882,112.4339
141.3714,112.5765
141.3714,112.5765
141.3714,112.5765
141.5755,112.6869
141.6895,112.7261
141.7950,112.7623
141.7950,112.7623
141.7950,112.7623
142.0240,112.8005
142.0240,112.8005
142.2560,112.8005
142.2560,112.8005
142.4850,112.7623
142.7045,112.6869
142.9086,112.5765
143.0918,112.4339
143.2490,112.2632
143.3759,112.0688
143.4692,111.8563
143.5261,111.6313
143.5261,111.6313
143.5289,111.5980
148.9970,111.5980
149.1708,111.6791
149.1708,111.6791
149.3821,111.7357
149.3821,111.7357
149.6000,111.7548
149.6000,111.7548
149.8179,111.7357
149.8179,111.7357
150.0291,111.6791
150.0292,111.6791
150.2030,111.5980
149.6000,110.9950
149.6000,110.9950
148.9970,111.5980
143.5289,111.5980
143.5453,111.4000
143.5453,111.4000
143.5261,111.1687
143.5261,111.1687
143.4692,110.9437
143.3759,110.7312
143.2490,110.5369
143.2490,110.5368
143.2490,110.5368
143.2151,110.5000
148.3452,110.5000
148.3452,110.5000
148.3643,110.7179
148.3643,110.7179
148.4209,110.9291
148.4209,110.9292
148.5020,111.1030
149.1050,110.5000
149.1050,110.5000
149.0589,110.4539
149.2500,110.4539
149.2500,110.5461
149.2739,110.6351
149.3199,110.7149
149.3851,110.7801
149.4649,110.8261
149.5539,110.8500
149.6461,110.8500
149.7351,110.8261
149.8149,110.7801
149.8801,110.7149
149.9261,110.6351
149.9500,110.5461
149.9500,110.5000
150.0950,110.5000
150.0950,110.5000
150.6980,111.1030
150.7791,110.9292
150.7791,110.9291
150.7874,110.8980
165.6970,110.8980
165.8708,110.9791
165.8708,110.9791
166.0821,111.0357
166.0821,111.0357
166.3000,111.0548
166.3000,111.0548
166.5179,111.0357
166.5179,111.0357
166.7292,110.9791
166.7292,110.9791
166.9030,110.8980
166.6030,110.5980
175.6970,110.5980
175.8708,110.6791
175.8708,110.6791
176.0821,110.7357
176.0821,110.7357
176.3000,110.7548
176.3000,110.7548
176.5179,110.7357
176.5179,110.7357
176.7292,110.6791
176.7292,110.6791
176.9030,110.5980
176.3000,109.9950
176.3000,109.9950
175.6970,110.5980
166.6030,110.5980
166.3000,110.2950
166.3000,110.2950
165.6970,110.8980
150.7874,110.8980
150.8357,110.7179
150.8357,110.7179
150.8548,110.5000
150.8548,110.5000
150.8357,110.2821
150.8357,110.2821
150.7791,110.0708
150.7791,110.0708
150.6980,109.8970
150.0950,110.5000
149.9500,110.5000
149.9500,110.4539
149.9261,110.3649
149.8801,110.2851
149.8149,110.2199
149.7351,110.1739
149.6461,110.1500
149.5539,110.1500
149.4649,110.1739
149.3851,110.2199
149.3199,110.2851
149.2739,110.3649
149.2500,110.4539
149.0589,110.4539
148.5020,109.8970
148.4209,110.0708
148.4209,110.0708
148.3643,110.2821
148.3643,110.2821
148.3452,110.5000
143.2151,110.5000
143.0918,110.3661
143.0918,110.3661
143.0918,110.3661
142.9086,110.2235
142.9086,110.2235
142.7045,110.1131
142.7045,110.1131
142.4850,110.0377
142.2974,110.0064
142.2560,109.9995
142.0240,109.9995
141.9826,110.0064
141.7950,110.0377
141.5755,110.1131
141.5755,110.1131
141.3714,110.2235
141.3714,110.2235
141.1882,110.3661
141.1882,110.3661
141.1795,110.3756
141.1196,110.4116
141.0498,110.4095
140.9921,110.3699
140.9721,110.3349
140.9434,110.2579
140.9433,110.2579
140.8572,110.1428
140.8572,110.1428
140.7421,110.0566
140.7421,110.0566
140.6074,110.0064
140.6074,110.0064
140.5478,110.0000
139.9500,110.0000
139.9500,111.1136
139.8763,111.0399
139.7737,110.9807
139.6592,110.9500
139.5408,110.9500
139.4263,110.9807
139.3237,111.0399
139.2399,111.1237
139.1807,111.2263
139.1500,111.3408
137.5005,111.3408
137.5005,110.4522
138.2000,110.4522
138.2000,111.0500
139.2500,111.0500
139.2500,110.0000
138.6522,110.0000
138.5926,110.0064
138.5926,110.0064
138.4579,110.0566
138.4579,110.0566
138.3428,110.1428
138.3428,110.1428
138.2566,110.2579
138.2566,110.2579
138.2064,110.3926
138.2064,110.3926
138.2000,110.4522
137.5005,110.4522
137.5005,109.4980
138.9970,109.4980
139.1708,109.5791
139.1708,109.5791
139.3821,109.6357
139.3821,109.6357
139.6000,109.6548
139.6000,109.6548
139.8179,109.6357
139.8179,109.6357
140.0291,109.5791
140.0292,109.5791
140.2030,109.4980
140.1070,109.4020
148.9970,109.4020
149.6000,110.0050
149.6000,110.0050
149.8050,109.8000
165.0452,109.8000
165.0452,109.8000
165.0643,110.0179
165.0643,110.0179
165.1209,110.2291
165.1209,110.2292
165.2020,110.4030
165.8050,109.8000
165.8050,109.8000
165.7589,109.7539
165.9500,109.7539
165.9500,109.8461
165.9739,109.9351
166.0199,110.0149
166.0851,110.0801
166.1649,110.1261
166.2539,110.1500
166.3461,110.1500
166.4351,110.1261
166.5149,110.0801
166.5801,110.0149
166.6261,109.9351
166.6500,109.8461
166.6500,109.8000
166.7950,109.8000
166.7950,109.8000
167.3980,110.4030
167.4791,110.2292
167.4791,110.2291
167.5357,110.0179
167.5357,110.0179
167.5548,109.8000
167.5548,109.8000
167.5357,109.5821
167.5357,109.5821
167.5137,109.5000
175.0452,109.5000
175.0452,109.5000
175.0643,109.7179
175.0643,109.7179
175.1209,109.9291
175.1209,109.9292
175.2020,110.1030
175.8050,109.5000
175.8050,109.5000
175.7589,109.4539
175.9500,109.4539
175.9500,109.5461
175.9739,109.6351
176.0199,109.7149
176.0851,109.7801
176.1649,109.8261
176.2539,109.8500
176.3461,109.8500
176.4351,109.8261
176.5149,109.7801
176.5801,109.7149
176.6261,109.6351
176.6500,109.5461
176.6500,109.5000
176.7950,109.5000
176.7950,109.5000
177.3980,110.1030
177.4791,109.9292
177.4791,109.9291
177.5357,109.7179
177.5357,109.7179
177.5548,109.5000
177.5548,109.5000
177.5357,109.2821
177.5357,109.2821
177.4791,109.0708
177.4791,109.0708
177.3980,108.8970
176.7950,109.5000
176.6500,109.5000
176.6500,109.4539
176.6261,109.3649
176.5801,109.2851
176.5149,109.2199
176.4351,109.1739
176.3461,109.1500
176.2539,109.1500
176.1649,109.1739
176.0851,109.2199
176.0199,109.2851
175.9739,109.3649
175.9500,109.4539
175.7589,109.4539
175.2020,108.8970
175.1209,109.0708
175.1209,109.0708
175.0643,109.2821
175.0643,109.2821
175.0452,109.5000
167.5137,109.5000
167.4791,109.3708
167.4791,109.3708
167.3980,109.1970
166.7950,109.8000
166.6500,109.8000
166.6500,109.7539
166.6261,109.6649
166.5801,109.5851
166.5149,109.5199
166.4351,109.4739
166.3461,109.4500
166.2539,109.4500
166.1649,109.4739
166.0851,109.5199
166.0199,109.5851
165.9739,109.6649
165.9500,109.7539
165.7589,109.7539
165.2020,109.1970
165.1209,109.3708
165.1209,109.3708
165.0643,109.5821
165.0643,109.5821
165.0452,109.8000
149.8050,109.8000
150.2030,109.4020
150.0292,109.3209
150.0291,109.3209
149.8179,109.2643
149.8179,109.2643
149.6000,109.2452
149.6000,109.2452
149.3821,109.2643
149.3821,109.2643
149.1708,109.3209
149.1708,109.3209
148.9970,109.4020
140.1070,109.4020
139.6000,108.8950
139.6000,108.8950
138.9970,109.4980
137.5005,109.4980
137.5005,108.4000
138.3452,108.4000
138.3452,108.4000
138.3643,108.6179
138.3643,108.6179
138.4209,108.8291
138.4209,108.8292
138.5020,109.0030
139.1050,108.4000
139.1050,108.4000
139.0589,108.3539
139.2500,108.3539
139.2500,108.4461
139.2739,108.5351
139.3199,108.6149
139.3851,108.6801
139.4649,108.7261
139.5539,108.7500
139.6461,108.7500
139.7351,108.7261
139.8149,108.6801
139.8801,108.6149
139.9261,108.5351
139.9500,108.4461
139.9500,108.4000
140.0950,108.4000
140.0950,108.4000
140.6980,109.0030
140.7791,108.8292
140.7791,108.8291
140.8132,108.7020
165.6970,108.7020
166.3000,109.3050
166.3000,109.3050
166.9030,108.7020
166.7292,108.6209
166.7292,108.6209
166.5179,108.5643
166.5179,108.5643
166.3000,108.5452
166.3000,108.5452
166.0821,108.5643
166.0821,108.5643
165.8708,108.6209
165.8708,108.6209
165.6970,108.7020
140.8132,108.7020
140.8357,108.6179
140.8357,108.6179
140.8546,108.4020
175.6970,108.4020
176.3000,109.0050
176.3000,109.0050
176.9030,108.4020
176.7292,108.3209
176.7292,108.3209
176.5179,108.2643
176.5179,108.2643
176.3000,108.2452
176.3000,108.2452
176.0821,108.2643
176.0821,108.2643
175.8708,108.3209
175.8708,108.3209
175.6970,108.4020
140.8546,108.4020
140.8548,108.4000
140.8548,108.4000
140.8357,108.1821
140.8357,108.1821
140.7791,107.9708
140.7791,107.9708
140.6980,107.7970
140.0950,108.4000
139.9500,108.4000
139.9500,108.3539
139.9261,108.2649
139.8801,108.1851
139.8149,108.1199
139.7351,108.0739
139.6461,108.0500
139.5539,108.0500
139.4649,108.0739
139.3851,108.1199
139.3199,108.1851
139.2739,108.2649
139.2500,108.3539
139.0589,108.3539
138.5020,107.7970
138.4209,107.9708
138.4209,107.9708
138.3643,108.1821
138.3643,108.1821
138.3452,108.4000
137.5005,108.4000
137.5005,107.3020
138.9970,107.3020
139.6000,107.9050
139.6000,107.9050
140.2030,107.3020
140.0292,107.2209
140.0291,107.2209
139.8179,107.1643
139.8179,107.1643
139.6000,107.1452
139.6000,107.1452
139.3821,107.1643
139.3821,107.1643
139.1708,107.2209
139.1708,107.2209
138.9970,107.3020
137.5005,107.3020
137.5005,106.1521
146.2944,106.1521
146.2944,107.8479
146.2944,107.8479
146.3008,107.9075
146.3511,108.0423
146.3511,108.0423
146.4373,108.1575
146.4373,108.1575
146.5526,108.2438
146.5526,108.2438
146.6874,108.2941
146.6874,108.2941
146.6943,108.2948
146.7470,108.3005
148.4428,108.3005
148.5024,108.2941
148.6372,108.2438
148.7524,108.1575
148.7688,108.1356
149.4542,108.1356
149.6486,108.2263
149.6486,108.2263
149.8683,108.2851
149.8683,108.2851
150.0949,108.3050
150.0949,108.3050
150.3215,108.2851
150.3215,108.2851
150.5412,108.2263
150.5412,108.2263
150.7356,108.1356
150.0949,107.4950
150.0949,107.4950
149.4542,108.1356
148.7688,108.1356
148.8387,108.0423
148.8890,107.9075
148.8954,107.8479
148.8954,107.7559
148.9151,107.6888
148.9317,107.6682
149.5999,107.0000
149.5473,106.9473
149.6949,106.9473
149.6949,107.0527
149.7221,107.1544
149.7748,107.2456
149.8493,107.3201
149.9405,107.3727
150.0422,107.4000
150.1475,107.4000
150.2493,107.3727
150.3405,107.3201
150.4150,107.2456
150.4676,107.1544
150.4949,107.0527
150.4949,107.0000
150.5899,107.0000
150.5899,107.0000
151.2305,107.6407
151.2504,107.5980
165.3970,107.5980
165.5708,107.6791
165.5708,107.6791
165.7821,107.7357
165.7821,107.7357
166.0000,107.7548
166.0000,107.7548
166.2179,107.7357
166.2179,107.7357
166.4291,107.6791
166.4292,107.6791
166.6030,107.5980
166.0000,106.9950
166.0000,106.9950
165.3970,107.5980
151.2504,107.5980
151.3212,107.4463
151.3212,107.4463
151.3800,107.2266
151.3800,107.2266
151.3999,107.0000
151.3999,107.0000
151.3800,106.7734
151.3800,106.7734
151.3212,106.5537
151.3212,106.5537
151.2961,106.5000
164.7452,106.5000
164.7452,106.5000
164.7643,106.7179
164.7643,106.7179
164.8209,106.9291
164.8209,106.9292
164.9020,107.1030
165.5050,106.5000
165.5050,106.5000
165.4589,106.4539
165.6500,106.4539
165.6500,106.5461
165.6739,106.6351
165.7199,106.7149
165.7851,106.7801
165.8649,106.8261
165.9539,106.8500
166.0461,106.8500
166.1351,106.8261
166.2149,106.7801
166.2801,106.7149
166.3261,106.6351
166.3500,106.5461
166.3500,106.5000
166.4950,106.5000
166.4950,106.5000
167.0980,107.1030
167.1791,106.9292
167.1791,106.9291
167.2357,106.7179
167.2357,106.7179
167.2548,106.5000
167.2548,106.5000
167.2529,106.4787
181.4995,106.4787
181.4995,106.7213
181.5312,106.9618
181.5939,107.1961
181.6453,107.3201
181.6868,107.4202
181.8081,107.6303
181.8081,107.6303
181.8081,107.6303
181.9557,107.8227
181.9557,107.8227
182.1273,107.9943
182.1273,107.9943
182.3197,108.1419
182.5298,108.2632
182.7539,108.3561
182.9882,108.4188
183.1686,108.4426
183.2287,108.4505
183.2287,108.4505
183.4713,108.4505
183.5194,108.4442
183.7118,108.4188
183.9461,108.3561
184.1702,108.2632
184.3803,108.1419
184.5727,107.9943
184.7443,107.8227
184.8919,107.6303
185.0132,107.4202
185.1061,107.1961
185.1688,106.9618
185.2005,106.7213
185.2005,106.4787
185.1688,106.2382
185.1061,106.0039
185.0132,105.7798
184.8919,105.5697
184.8224,105.4791
184.7443,105.3773
184.7443,105.3773
184.5727,105.2057
184.5727,105.2057
184.3803,105.0581
184.3803,105.0581
184.3803,105.0581
184.1868,104.9463
184.1702,104.9368
184.1702,104.9368
183.9461,104.8439
183.8289,104.8126
183.7118,104.7812
183.7118,104.7812
183.7118,104.7812
183.4713,104.7495
183.4713,104.7495
183.2287,104.7495
183.2287,104.7495
182.9882,104.7812
182.7539,104.8439
182.5298,104.9368
182.5298,104.9368
182.3197,105.0581
182.1273,105.2057
182.1273,105.2057
181.9557,105.3773
181.9557,105.3773
181.8081,105.5697
181.6868,105.7798
181.6868,105.7798
181.5939,106.0039
181.5312,106.2382
181.4995,106.4787
167.2529,106.4787
167.2357,106.2821
167.2357,106.2821
167.1791,106.0708
167.1791,106.0708
167.0980,105.8970
166.4950,106.5000
166.3500,106.5000
166.3500,106.4539
166.3261,106.3649
166.2801,106.2851
166.2149,106.2199
166.1351,106.1739
166.0461,106.1500
165.9539,106.1500
165.8649,106.1739
165.7851,106.2199
165.7199,106.2851
165.6739,106.3649
165.6500,106.4539
165.4589,106.4539
164.9020,105.8970
164.8209,106.0708
164.8209,106.0708
164.7643,106.2821
164.7643,106.2821
164.7452,106.5000
151.2961,106.5000
151.2305,106.3593
150.5899,107.0000
150.4949,107.0000
150.4949,106.9473
150.4676,106.8456
150.4150,106.7544
150.3405,106.6799
150.2493,106.6273
150.1475,106.6000
150.0422,106.6000
149.9405,106.6273
149.8493,106.6799
149.7748,106.7544
149.7221,106.8456
149.6949,106.9473
149.5473,106.9473
148.9317,106.3318
148.8982,106.2705
148.8954,106.2441
148.8954,106.1521
148.8954,106.1521
148.8954,106.1521
148.8890,106.0925
148.8809,106.0708
148.8387,105.9577
148.8387,105.9577
148.7688,105.8644
149.4542,105.8644
150.0949,106.5050
150.0949,106.5050
150.7356,105.8644
150.7356,105.8644
150.5412,105.7737
150.5412,105.7737
150.3215,105.7149
150.3215,105.7149
150.1290,105.6980
153.7970,105.6980
153.9708,105.7791
153.9708,105.7791
154.1821,105.8357
154.1821,105.8357
154.4000,105.8548
154.4000,105.8548
154.6179,105.8357
154.6179,105.8357
154.8291,105.7791
154.8292,105.7791
155.0030,105.6980
154.7030,105.3980
158.4970,105.3980
158.6708,105.4791
158.6708,105.4791
158.8821,105.5357
158.8821,105.5357
159.1000,105.5548
159.1000,105.5548
159.3179,105.5357
159.3179,105.5357
159.5291,105.4791
159.5292,105.4791
159.6945,105.4020
165.3970,105.4020
166.0000,106.0050
166.0000,106.0050
166.5070,105.4980
169.5970,105.4980
169.7708,105.5791
169.7708,105.5791
169.9821,105.6357
169.9821,105.6357
170.2000,105.6548
170.2000,105.6548
170.4179,105.6357
170.4179,105.6357
170.6291,105.5791
170.6292,105.5791
170.8030,105.4980
170.2000,104.8950
170.2000,104.8950
169.5970,105.4980
166.5070,105.4980
166.6030,105.4020
166.4292,105.3209
166.4291,105.3209
166.2179,105.2643
166.2179,105.2643
166.0000,105.2452
166.0000,105.2452
165.7821,105.2643
165.7821,105.2643
165.5708,105.3209
165.5708,105.3209
165.3970,105.4020
159.6945,105.4020
159.7030,105.3980
159.1000,104.7950
159.1000,104.7950
158.4970,105.3980
154.7030,105.3980
154.4000,105.0950
154.4000,105.0950
153.7970,105.6980
150.1290,105.6980
150.0949,105.6950
150.0949,105.6950
149.8683,105.7149
149.8683,105.7149
149.6486,105.7737
149.6486,105.7737
149.4542,105.8644
148.7688,105.8644
148.7524,105.8425
148.7524,105.8425
148.6372,105.7562
148.6372,105.7562
148.5024,105.7059
148.5024,105.7059
148.4428,105.6995
148.4428,105.6995
148.4428,105.6995
148.4428,105.6995
146.7470,105.6995
146.7470,105.6995
146.6874,105.7059
146.5526,105.7562
146.5526,105.7562
146.4373,105.8425
146.4373,105.8425
146.3511,105.9577
146.3511,105.9577
146.3008,106.0925
146.2944,106.1521
146.2944,106.1521
146.2944,106.1521
137.5005,106.1521
137.5005,105.6356
141.8593,105.6356
142.0537,105.7263
142.0537,105.7263
142.2734,105.7851
142.2734,105.7851
142.5000,105.8050
142.5000,105.8050
142.7266,105.7851
142.7266,105.7851
142.9463,105.7263
142.9463,105.7263
143.1407,105.6356
142.5000,104.9950
142.5000,104.9950
141.8593,105.6356
137.5005,105.6356
137.5005,104.5000
141.1950,104.5000
141.1950,104.5000
141.2149,104.7266
141.2149,104.7266
141.2737,104.9463
141.2737,104.9463
141.3644,105.1407
141.3644,105.1407
142.0050,104.5000
141.9524,104.4473
142.1000,104.4473
142.1000,104.5527
142.1273,104.6544
142.1799,104.7456
142.2544,104.8201
142.3456,104.8727
142.4473,104.9000
142.5527,104.9000
142.6544,104.8727
142.7456,104.8201
142.8201,104.7456
142.8727,104.6544
142.9000,104.5527
142.9000,104.5000
142.9950,104.5000
142.9950,104.5000
143.6632,105.1682
143.6967,105.2295
143.6995,105.2559
143.6995,105.3479
143.6995,105.3479
143.7059,105.4075
143.7562,105.5423
143.7562,105.5423
143.8425,105.6575
143.8425,105.6575
143.9577,105.7438
143.9577,105.7438
144.0925,105.7941
144.0925,105.7941
144.0994,105.7948
144.1521,105.8005
145.8479,105.8005
145.9075,105.7941
146.0423,105.7438
146.1575,105.6575
146.2438,105.5423
146.2941,105.4075
146.3005,105.3479
146.3005,104.6000
153.1452,104.6000
153.1452,104.6000
153.1643,104.8179
153.1643,104.8179
153.2209,105.0292
153.2209,105.0292
153.3020,105.2030
153.9050,104.6000
153.9050,104.6000
153.8589,104.5539
154.0500,104.5539
154.0500,104.6461
154.0739,104.7351
154.1199,104.8149
154.1851,104.8801
154.2649,104.9261
154.3539,104.9500
154.4461,104.9500
154.5351,104.9261
154.6149,104.8801
154.6801,104.8149
154.7261,104.7351
154.7500,104.6461
154.7500,104.6000
154.8950,104.6000
154.8950,104.6000
155.4980,105.2030
155.5791,105.0292
155.5791,105.0292
155.6357,104.8179
155.6357,104.8179
155.6548,104.6000
155.6548,104.6000
155.6357,104.3821
155.6357,104.3821
155.6137,104.3000
157.8452,104.3000
157.8452,104.3000
157.8643,104.5179
157.8643,104.5179
157.9209,104.7291
157.9209,104.7292
158.0020,104.9030
158.6050,104.3000
158.6050,104.3000
158.5589,104.2539
158.7500,104.2539
158.7500,104.3461
158.7739,104.4351
158.8199,104.5149
158.8851,104.5801
158.9649,104.6261
159.0539,104.6500
159.1461,104.6500
159.2351,104.6261
159.3149,104.5801
159.3801,104.5149
159.4261,104.4351
159.4500,104.3461
159.4500,104.3000
159.5950,104.3000
159.5950,104.3000
160.1980,104.9030
160.2791,104.7292
160.2791,104.7291
160.3357,104.5179
160.3357,104.5179
160.3460,104.4000
168.9452,104.4000
168.9452,104.4000
168.9643,104.6179
168.9643,104.6179
169.0209,104.8291
169.0209,104.8292
169.1020,105.0030
169.7050,104.4000
169.7050,104.4000
169.6589,104.3539
169.8500,104.3539
169.8500,104.4461
169.8739,104.5351
169.9199,104.6149
169.9851,104.6801
170.0649,104.7261
170.1539,104.7500
170.2461,104.7500
170.3351,104.7261
170.4149,104.6801
170.4801,104.6149
170.5261,104.5351
170.5500,104.4461
170.5500,104.4000
170.6950,104.4000
170.6950,104.4000
171.2980,105.0030
171.3791,104.8292
171.3791,104.8291
171.4357,104.6179
171.4357,104.6179
171.4548,104.4000
171.4548,104.4000
171.4459,104.2980
175.7970,104.2980
175.9708,104.3791
175.9708,104.3791
176.1821,104.4357
176.1821,104.4357
176.4000,104.4548
176.4000,104.4548
176.6179,104.4357
176.6179,104.4357
176.8291,104.3791
176.8292,104.3791
177.0030,104.2980
176.4000,103.6950
176.4000,103.6950
175.7970,104.2980
171.4459,104.2980
171.4357,104.1821
171.4357,104.1821
171.3791,103.9708
171.3791,103.9708
171.2980,103.7970
170.6950,104.4000
170.5500,104.4000
170.5500,104.3539
170.5261,104.2649
170.4801,104.1851
170.4149,104.1199
170.3351,104.0739
170.2461,104.0500
170.1539,104.0500
170.0649,104.0739
169.9851,104.1199
169.9199,104.1851
169.8739,104.2649
169.8500,104.3539
169.6589,104.3539
169.1020,103.7970
169.0209,103.9708
169.0209,103.9708
168.9643,104.1821
168.9643,104.1821
168.9452,104.4000
160.3460,104.4000
160.3548,104.3000
160.3548,104.3000
160.3357,104.0821
160.3357,104.0821
160.2791,103.8708
160.2791,103.8708
160.1980,103.6970
159.5950,104.3000
159.4500,104.3000
159.4500,104.2539
159.4261,104.1649
159.3801,104.0851
159.3149,104.0199
159.2351,103.9739
159.1461,103.9500
159.0539,103.9500
158.9649,103.9739
158.8851,104.0199
158.8199,104.0851
158.7739,104.1649
158.7500,104.2539
158.5589,104.2539
158.0020,103.6970
157.9209,103.8708
157.9209,103.8708
157.8643,104.0821
157.8643,104.0821
157.8452,104.3000
155.6137,104.3000
155.5791,104.1708
155.5791,104.1708
155.4980,103.9970
154.8950,104.6000
154.7500,104.6000
154.7500,104.5539
154.7261,104.4649
154.6801,104.3851
154.6149,104.3199
154.5351,104.2739
154.4461,104.2500
154.3539,104.2500
154.2649,104.2739
154.1851,104.3199
154.1199,104.3851
154.0739,104.4649
154.0500,104.5539
153.8589,104.5539
153.3020,103.9970
153.2209,104.1708
153.2209,104.1708
153.1643,104.3821
153.1643,104.3821
153.1452,104.6000
146.3005,104.6000
146.3005,103.6521
146.2941,103.5925
146.2782,103.5500
146.2603,103.5020
153.7970,103.5020
154.4000,104.1050
154.4000,104.1050
155.0030,103.5020
154.8292,103.4209
154.8291,103.4209
154.6179,103.3643
154.6179,103.3643
154.4000,103.3452
154.4000,103.3452
154.1821,103.3643
154.1821,103.3643
153.9708,103.4209
153.9708,103.4209
153.7970,103.5020
146.2603,103.5020
146.2438,103.4577
146.2438,103.4577
146.1575,103.3425
146.1575,103.3425
146.0423,103.2562
146.0423,103.2562
145.9075,103.2059
145.9075,103.2059
145.8709,103.2020
158.4970,103.2020
159.1000,103.8050
159.1000,103.8050
159.6030,103.3020
169.5970,103.3020
170.2000,103.9050
170.2000,103.9050
170.8030,103.3020
170.6292,103.2209
170.6291,103.2209
170.5512,103.2000
175.1452,103.2000
175.1452,103.2000
175.1643,103.4179
175.1643,103.4179
175.2209,103.6291
175.2209,103.6292
175.3020,103.8030
175.9050,103.2000
175.9050,103.2000
175.8589,103.1539
176.0500,103.1539
176.0500,103.2461
176.0739,103.3351
176.1199,103.4149
176.1851,103.4801
176.2649,103.5261
176.3539,103.5500
176.4461,103.5500
176.5351,103.5261
176.6149,103.4801
176.6801,103.4149
176.7261,103.3351
176.7500,103.2461
176.7500,103.2000
176.8950,103.2000
176.8950,103.2000
177.4980,103.8030
177.5791,103.6292
177.5791,103.6291
177.6357,103.4179
177.6357,103.4179
177.6548,103.2000
177.6548,103.2000
177.6357,102.9821
177.6357,102.9821
177.5791,102.7708
177.5791,102.7708
177.4980,102.5970
176.8950,103.2000
176.7500,103.2000
176.7500,103.1539
176.7261,103.0649
176.6801,102.9851
176.6149,102.9199
176.5351,102.8739
176.4461,102.8500
176.3539,102.8500
176.2649,102.8739
176.1851,102.9199
176.1199,102.9851
176.0739,103.0649
176.0500,103.1539
175.8589,103.1539
175.3020,102.5970
175.2209,102.7708
175.2209,102.7708
175.1643,102.9821
175.1643,102.9821
175.1452,103.2000
170.5512,103.2000
170.4179,103.1643
170.4179,103.1643
170.2000,103.1452
170.2000,103.1452
169.9821,103.1643
169.9821,103.1643
169.7708,103.2209
169.7708,103.2209
169.5970,103.3020
159.6030,103.3020
159.7030,103.2020
159.5292,103.1209
159.5291,103.1209
159.3179,103.0643
159.3179,103.0643
159.1000,103.0452
159.1000,103.0452
158.8821,103.0643
158.8821,103.0643
158.6708,103.1209
158.6708,103.1209
158.4970,103.2020
145.8709,103.2020
145.8479,103.1995
145.8479,103.1995
145.8479,103.1995
145.8479,103.1995
144.1521,103.1995
144.1521,103.1995
144.0925,103.2059
143.9577,103.2562
143.9577,103.2562
143.8425,103.3425
143.8425,103.3425
143.7562,103.4577
143.7562,103.4577
143.7059,103.5925
143.6995,103.6521
143.6995,103.6521
143.6995,103.6521
143.6995,103.7441
143.6798,103.8112
143.6632,103.8318
142.9950,104.5000
142.9000,104.5000
142.9000,104.4473
142.8727,104.3456
142.8201,104.2544
142.7456,104.1799
142.6544,104.1273
142.5527,104.1000
142.4473,104.1000
142.3456,104.1273
142.2544,104.1799
142.1799,104.2544
142.1273,104.3456
142.1000,104.4473
141.9524,104.4473
141.3644,103.8593
141.2737,104.0537
141.2737,104.0537
141.2149,104.2734
141.2149,104.2734
141.1950,104.5000
137.5005,104.5000
137.5005,103.3644
141.8593,103.3644
142.5000,104.0050
142.5000,104.0050
143.1407,103.3644
143.1407,103.3644
142.9463,103.2737
142.9463,103.2737
142.7266,103.2149
142.7266,103.2149
142.5000,103.1950
142.5000,103.1950
142.2734,103.2149
142.2734,103.2149
142.0537,103.2737
142.0537,103.2737
141.8593,103.3644
137.5005,103.3644
137.5005,102.1020
175.7970,102.1020
176.4000,102.7050
176.4000,102.7050
177.0030,102.1020
176.8292,102.0209
176.8291,102.0209
176.6179,101.9643
176.6179,101.9643
176.4000,101.9452
176.4000,101.9452
176.1821,101.9643
176.1821,101.9643
175.9708,102.0209
175.9708,102.0209
175.7970,102.1020
137.5005,102.1020
137.5005,101.7980
145.9970,101.7980
146.1708,101.8791
146.1708,101.8791
146.3821,101.9357
146.3821,101.9357
146.6000,101.9548
146.6000,101.9548
146.8179,101.9357
146.8179,101.9357
147.0291,101.8791
147.0292,101.8791
147.2030,101.7980
146.6000,101.1950
146.6000,101.1950
145.9970,101.7980
137.5005,101.7980
137.5005,100.7000
145.3452,100.7000
145.3452,100.7000
145.3643,100.9179
145.3643,100.9179
145.4209,101.1291
145.4209,101.1292
145.5020,101.3030
146.1050,100.7000
146.1050,100.7000
146.0589,100.6539
146.2500,100.6539
146.2500,100.7461
146.2739,100.8351
146.3199,100.9149
146.3851,100.9801
146.4649,101.0261
146.5539,101.0500
146.6461,101.0500
146.7351,101.0261
146.8149,100.9801
146.8801,100.9149
146.9261,100.8351
146.9500,100.7461
146.9500,100.7000
147.0950,100.7000
147.0950,100.7000
147.6980,101.3030
147.7791,101.1292
147.7791,101.1291
147.8357,100.9179
147.8357,100.9179
147.8548,100.7000
147.8548,100.7000
147.8357,100.4821
147.8357,100.4821
147.7791,100.2708
147.7791,100.2708
147.6980,100.0970
147.0950,100.7000
146.9500,100.7000
146.9500,100.6539
146.9261,100.5649
146.8801,100.4851
146.8149,100.4199
146.7351,100.3739
146.6461,100.3500
146.5539,100.3500
146.4649,100.3739
146.3851,100.4199
146.3199,100.4851
146.2739,100.5649
146.2500,100.6539
146.0589,100.6539
145.5020,100.0970
145.4209,100.2708
145.4209,100.2708
145.3643,100.4821
145.3643,100.4821
145.3452,100.7000
137.5005,100.7000
137.5005,99.6020
145.9970,99.6020
146.6000,100.2050
146.6000,100.2050
146.9070,99.8980
153.2970,99.8980
153.4708,99.9791
153.4708,99.9791
153.6821,100.0357
153.6821,100.0357
153.9000,100.0548
153.9000,100.0548
154.1179,100.0357
154.1179,100.0357
154.3291,99.9791
154.3292,99.9791
154.5030,99.8980
154.3250,99.7200
157.2252,99.7200
157.2445,100.0143
157.2445,100.0143
157.3020,100.3036
157.3020,100.3036
157.3968,100.5829
157.5273,100.8474
157.5273,100.8474
157.6596,101.0454
158.7610,99.9440
158.8154,100.0753
158.8974,100.1981
159.0019,100.3026
159.1247,100.3846
159.2560,100.4390
158.1546,101.5404
158.3526,101.6727
158.3526,101.6727
158.6171,101.8032
158.8964,101.8980
158.8964,101.8980
159.1857,101.9555
159.1857,101.9555
159.4800,101.9748
159.7743,101.9555
159.7743,101.9555
160.0636,101.8980
160.0636,101.8980
160.3429,101.8032
160.6074,101.6727
160.8054,101.5404
159.7040,100.4390
159.8353,100.3846
159.9581,100.3026
160.0626,100.1981
160.1446,100.0753
160.1990,99.9440
161.3004,101.0454
161.4327,100.8474
161.5632,100.5829
161.6580,100.3036
161.6580,100.3036
161.7155,100.0143
161.7155,100.0143
161.7348,99.7200
164.1052,99.7200
164.1245,100.0143
164.1245,100.0143
164.1820,100.3036
164.1820,100.3036
164.2768,100.5829
164.4073,100.8474
164.4073,100.8474
164.5396,101.0454
165.6410,99.9440
165.6954,100.0753
165.7774,100.1981
165.8819,100.3026
166.0047,100.3846
166.1360,100.4390
165.0346,101.5404
165.2326,101.6727
165.2326,101.6727
165.4971,101.8032
165.7764,101.8980
165.7764,101.8980
166.0657,101.9555
166.0657,101.9555
166.3600,101.9748
166.6543,101.9555
166.6543,101.9555
166.9436,101.8980
166.9436,101.8980
167.2229,101.8032
167.4874,101.6727
167.6854,101.5404
166.5840,100.4390
166.7153,100.3846
166.8381,100.3026
166.9426,100.1981
167.0246,100.0753
167.0790,99.9440
168.1804,101.0454
168.3127,100.8474
168.4432,100.5829
168.5380,100.3036
168.5380,100.3036
168.5955,100.0143
168.5955,100.0143
168.6148,99.7200
168.5965,99.4400
174.8052,99.4400
174.8245,99.7343
174.8245,99.7343
174.8820,100.0236
174.8820,100.0236
174.9768,100.3029
175.1073,100.5674
175.1073,100.5674
175.2396,100.7654
176.3410,99.6640
176.3954,99.7953
176.4774,99.9181
176.5819,100.0226
176.7047,100.1046
176.8360,100.1590
175.7346,101.2604
175.9326,101.3927
175.9326,101.3927
176.1971,101.5232
176.4764,101.6180
176.4764,101.6180
176.7657,101.6755
176.7657,101.6755
177.0600,101.6948
177.3543,101.6755
177.3543,101.6755
177.6436,101.6180
177.6436,101.6180
177.9229,101.5232
178.1874,101.3927
178.3854,101.2604
177.2840,100.1590
177.4153,100.1046
177.5381,100.0226
177.6426,99.9181
177.7246,99.7953
177.7790,99.6640
178.8804,100.7654
179.0127,100.5674
179.1432,100.3029
179.2380,100.0236
179.2380,100.0236
179.2955,99.7343
179.2955,99.7343
179.3148,99.4400
181.6852,99.4400
181.7045,99.7343
181.7045,99.7343
181.7620,100.0236
181.7620,100.0236
181.8568,100.3029
181.9873,100.5674
181.9873,100.5674
182.1196,100.7654
183.2210,99.6640
183.2754,99.7953
183.3574,99.9181
183.4619,100.0226
183.5847,100.1046
183.7160,100.1590
182.6146,101.2604
182.8126,101.3927
182.8126,101.3927
183.0771,101.5232
183.3564,101.6180
183.3564,101.6180
183.6457,101.6755
183.6457,101.6755
183.9400,101.6948
184.2343,101.6755
184.2343,101.6755
184.5236,101.6180
184.5236,101.6180
184.8029,101.5232
185.0674,101.3927
185.2654,101.2604
184.1640,100.1590
184.2953,100.1046
184.4181,100.0226
184.5226,99.9181
184.6046,99.7953
184.6590,99.6640
185.7604,100.7654
185.8927,100.5674
186.0232,100.3029
186.1180,100.0236
186.1180,100.0236
186.1755,99.7343
186.1755,99.7343
186.1948,99.4400
186.1755,99.1457
186.1755,99.1457
186.1180,98.8564
186.1180,98.8564
186.0232,98.5771
185.8927,98.3126
185.8927,98.3126
185.7604,98.1146
184.6590,99.2160
184.6046,99.0847
184.5226,98.9619
184.4181,98.8574
184.2953,98.7754
184.1640,98.7210
185.2654,97.6196
185.0674,97.4873
185.0674,97.4873
184.8029,97.3568
184.5236,97.2620
184.5236,97.2620
184.2343,97.2045
184.2343,97.2045
183.9400,97.1852
183.6457,97.2045
183.6457,97.2045
183.3564,97.2620
183.3564,97.2620
183.0771,97.3568
182.8126,97.4873
182.6146,97.6196
183.7160,98.7210
183.5847,98.7754
183.4619,98.8574
183.3574,98.9619
183.2754,99.0847
183.2210,99.2160
182.1196,98.1146
181.9873,98.3126
181.8568,98.5771
181.7620,98.8564
181.7620,98.8564
181.7045,99.1457
181.7045,99.1457
181.6852,99.4400
179.3148,99.4400
179.2955,99.1457
179.2955,99.1457
179.2380,98.8564
179.2380,98.8564
179.1432,98.5771
179.0127,98.3126
179.0127,98.3126
178.8804,98.1146
177.7790,99.2160
177.7246,99.0847
177.6426,98.9619
177.5381,98.8574
177.4153,98.7754
177.2840,98.7210
178.3854,97.6196
178.1874,97.4873
178.1874,97.4873
177.9229,97.3568
177.6436,97.2620
177.6436,97.2620
177.3543,97.2045
177.3543,97.2045
177.0600,97.1852
176.7657,97.2045
176.7657,97.2045
176.4764,97.2620
176.4764,97.2620
176.1971,97.3568
175.9326,97.4873
175.7346,97.6196
176.8360,98.7210
176.7047,98.7754
176.5819,98.8574
176.4774,98.9619
176.3954,99.0847
176.3410,99.2160
175.2396,98.1146
175.1073,98.3126
174.9768,98.5771
174.8820,98.8564
174.8820,98.8564
174.8245,99.1457
174.8245,99.1457
174.8052,99.4400
168.5965,99.4400
168.5955,99.4257
168.5955,99.4257
168.5380,99.1364
168.5380,99.1364
168.4432,98.8571
168.3127,98.5926
168.3127,98.5926
168.1804,98.3946
167.0790,99.4960
167.0246,99.3647
166.9426,99.2419
166.8381,99.1374
166.7153,99.0554
166.5840,99.0010
167.6854,97.8996
167.4874,97.7673
167.4874,97.7673
167.2229,97.6368
166.9436,97.5420
166.9436,97.5420
166.6543,97.4845
166.6543,97.4845
166.3600,97.4652
166.0657,97.4845
166.0657,97.4845
165.7764,97.5420
165.7764,97.5420
165.4971,97.6368
165.2326,97.7673
165.0346,97.8996
166.1360,99.0010
166.0047,99.0554
165.8819,99.1374
165.7774,99.2419
165.6954,99.3647
165.6410,99.4960
164.5396,98.3946
164.4073,98.5926
164.2768,98.8571
164.1820,99.1364
164.1820,99.1364
164.1245,99.4257
164.1245,99.4257
164.1052,99.7200
161.7348,99.7200
161.7155,99.4257
161.7155,99.4257
161.6580,99.1364
161.6580,99.1364
161.5632,98.8571
161.4327,98.5926
161.4327,98.5926
161.3004,98.3946
160.1990,99.4960
160.1446,99.3647
160.0626,99.2419
159.9581,99.1374
159.8353,99.0554
159.7040,99.0010
160.8054,97.8996
160.6074,97.7673
160.6074,97.7673
160.3429,97.6368
160.0636,97.5420
160.0636,97.5420
159.7743,97.4845
159.7743,97.4845
159.4800,97.4652
159.1857,97.4845
159.1857,97.4845
158.8964,97.5420
158.8964,97.5420
158.6171,97.6368
158.3526,97.7673
158.1546,97.8996
159.2560,99.0010
159.1247,99.0554
159.0019,99.1374
158.8974,99.2419
158.8154,99.3647
158.7610,99.4960
157.6596,98.3946
157.5273,98.5926
157.3968,98.8571
157.3020,99.1364
157.3020,99.1364
157.2445,99.4257
157.2445,99.4257
157.2252,99.7200
154.3250,99.7200
153.9000,99.2950
153.9000,99.2950
153.2970,99.8980
146.9070,99.8980
147.2030,99.6020
147.0292,99.5209
147.0291,99.5209
146.8179,99.4643
146.8179,99.4643
146.6000,99.4452
146.6000,99.4452
146.3821,99.4643
146.3821,99.4643
146.1708,99.5209
146.1708,99.5209
145.9970,99.6020
137.5005,99.6020
137.5005,98.8000
152.6452,98.8000
152.6452,98.8000
152.6643,99.0179
152.6643,99.0179
152.7209,99.2291
152.7209,99.2292
152.8020,99.4030
153.4050,98.8000
153.4050,98.8000
153.3589,98.7539
153.5500,98.7539
153.5500,98.8461
153.5739,98.9351
153.6199,99.0149
153.6851,99.0801
153.7649,99.1261
153.8539,99.1500
153.9461,99.1500
154.0351,99.1261
154.1149,99.0801
154.1801,99.0149
154.2261,98.9351
154.2500,98.8461
154.2500,98.8000
154.3950,98.8000
154.3950,98.8000
154.9980,99.4030
155.0791,99.2292
155.0791,99.2291
155.1357,99.0179
155.1357,99.0179
155.1548,98.8000
155.1548,98.8000
155.1357,98.5821
155.1357,98.5821
155.0791,98.3708
155.0791,98.3708
154.9980,98.1970
154.3950,98.8000
154.2500,98.8000
154.2500,98.7539
154.2261,98.6649
154.1801,98.5851
154.1149,98.5199
154.0351,98.4739
153.9461,98.4500
153.8539,98.4500
153.7649,98.4739
153.6851,98.5199
153.6199,98.5851
153.5739,98.6649
153.5500,98.7539
153.3589,98.7539
152.8020,98.1970
152.7209,98.3708
152.7209,98.3708
152.6643,98.5821
152.6643,98.5821
152.6452,98.8000
137.5005,98.8000
137.5005,97.7980
141.4970,97.7980
141.6708,97.8791
141.6708,97.8791
141.8821,97.9357
141.8821,97.9357
142.1000,97.9548
142.1000,97.9548
142.3179,97.9357
142.3179,97.9357
142.5291,97.8791
142.5292,97.8791
142.7030,97.7980
142.6070,97.7020
153.2970,97.7020
153.9000,98.3050
153.9000,98.3050
154.5030,97.7020
154.3292,97.6209
154.3291,97.6209
154.1179,97.5643
154.1179,97.5643
153.9000,97.5452
153.9000,97.5452
153.6821,97.5643
153.6821,97.5643
153.4708,97.6209
153.4708,97.6209
153.2970,97.7020
142.6070,97.7020
142.1000,97.1950
142.1000,97.1950
141.4970,97.7980
137.5005,97.7980
137.5005,93.6021
139.3495,93.6021
139.3495,95.3979
139.3495,95.3979
139.3559,95.4575
139.4062,95.5923
139.4062,95.5923
139.4925,95.7075
139.4925,95.7075
139.6077,95.7938
139.6077,95.7938
139.7425,95.8441
139.7425,95.8441
139.7494,95.8448
139.8021,95.8505
140.9307,95.8505
140.9977,95.8702
141.0435,95.9230
141.0534,95.9921
141.0322,96.0456
141.0133,96.0726
141.0133,96.0726
140.9209,96.2708
140.9209,96.2708
140.8643,96.4821
140.8643,96.4821
140.8452,96.7000
140.8452,96.7000
140.8643,96.9179
140.8643,96.9179
140.9209,97.1291
140.9209,97.1292
141.0020,97.3030
141.6511,96.6539
141.7500,96.6539
141.7500,96.7461
141.7739,96.8351
141.8199,96.9149
141.8851,96.9801
141.9649,97.0261
142.0539,97.0500
142.1461,97.0500
142.2351,97.0261
142.3149,96.9801
142.3801,96.9149
142.4261,96.8351
142.4500,96.7461
142.4500,96.7000
142.5950,96.7000
142.5950,96.7000
143.1980,97.3030
143.2791,97.1292
143.2791,97.1291
143.3357,96.9179
143.3357,96.9179
143.3548,96.7000
143.3548,96.7000
143.3357,96.4821
143.3357,96.4821
143.2816,96.2800
160.6647,96.2800
160.6647,96.2800
160.6840,96.5744
160.6840,96.5744
160.6840,96.5744
160.7181,96.7461
160.7415,96.8637
160.7415,96.8637
160.8363,97.1431
160.9668,97.4077
160.9668,97.4077
161.1307,97.6530
161.3252,97.8748
161.5470,98.0693
161.7105,98.1785
161.7923,98.2332
162.0569,98.3637
162.3363,98.4585
162.6256,98.5160
162.6539,98.5179
162.9200,98.5353
162.9200,98.5353
162.9200,98.5353
163.1557,98.5199
163.2144,98.5160
163.5037,98.4585
163.7831,98.3637
164.0477,98.2332
164.2930,98.0693
164.5148,97.8748
164.7093,97.6530
164.8732,97.4077
165.0037,97.1431
165.0985,96.8637
165.1560,96.5744
165.1619,96.4851
165.1753,96.2800
165.1753,96.2800
165.1634,96.0980
170.2970,96.0980
170.4708,96.1791
170.4708,96.1791
170.6821,96.2357
170.6821,96.2357
170.9000,96.2548
170.9000,96.2548
171.1179,96.2357
171.1179,96.2357
171.3291,96.1791
171.3292,96.1791
171.5030,96.0980
171.4050,96.0000
178.2447,96.0000
178.2447,96.0000
178.2640,96.2944
178.2640,96.2944
178.2640,96.2944
178.3197,96.5744
178.3215,96.5837
178.3215,96.5837
178.4163,96.8631
178.5468,97.1277
178.5468,97.1277
178.7107,97.3730
178.9052,97.5948
179.1270,97.7893
179.2550,97.8748
179.3723,97.9532
179.6369,98.0837
179.9163,98.1785
180.2056,98.2360
180.2339,98.2379
180.5000,98.2553
180.5000,98.2553
180.5000,98.2553
180.7357,98.2399
180.7944,98.2360
181.0837,98.1785
181.3631,98.0837
181.6277,97.9532
181.8730,97.7893
182.0948,97.5948
182.2893,97.3730
182.4532,97.1277
182.5837,96.8631
182.6785,96.5837
182.7360,96.2944
182.7436,96.1791
182.7553,96.0000
182.7553,96.0000
182.7360,95.7056
182.7360,95.7056
182.6785,95.4163
182.5837,95.1369
182.4532,94.8723
182.4000,94.7927
182.3929,94.7821
182.2893,94.6270
182.2400,94.5708
182.0948,94.4052
181.8730,94.2107
181.6277,94.0468
181.6277,94.0468
181.3631,93.9163
181.0837,93.8215
181.0837,93.8215
181.0837,93.8215
180.7944,93.7640
180.7944,93.7640
180.7944,93.7640
180.5000,93.7447
180.5000,93.7447
180.2056,93.7640
180.2056,93.7640
180.2056,93.7640
180.2056,93.7640
180.2056,93.7640
179.9163,93.8215
179.9163,93.8215
179.6369,93.9163
179.3723,94.0468
179.1270,94.2107
178.9052,94.4052
178.7107,94.6270
178.5468,94.8723
178.4163,95.1369
178.3215,95.4163
178.3215,95.4163
178.2640,95.7056
178.2640,95.7056
178.2447,96.0000
171.4050,96.0000
170.9000,95.4950
170.9000,95.4950
170.2970,96.0980
165.1634,96.0980
165.1560,95.9856
165.1560,95.9856
165.0985,95.6963
165.0037,95.4169
164.8732,95.1523
164.8629,95.1369
164.8022,95.0461
164.7093,94.9070
164.6667,94.8584
164.5148,94.6852
164.2930,94.4907
164.0477,94.3268
164.0477,94.3268
163.7831,94.1963
163.5037,94.1015
163.5037,94.1015
163.5037,94.1015
163.2144,94.0440
163.2144,94.0440
163.2144,94.0440
162.9200,94.0247
162.9200,94.0247
162.6256,94.0440
162.6256,94.0440
162.6256,94.0440
162.6256,94.0440
162.6256,94.0440
162.3363,94.1015
162.3363,94.1015
162.0569,94.1963
161.7923,94.3268
161.5470,94.4907
161.3252,94.6852
161.1307,94.9070
160.9668,95.1523
160.8363,95.4169
160.7415,95.6963
160.7415,95.6963
160.6840,95.9856
160.6840,95.9856
160.6647,96.2800
143.2816,96.2800
143.2791,96.2708
143.2791,96.2708
143.1980,96.0970
142.5950,96.7000
142.4500,96.7000
142.4500,96.6539
142.4261,96.5649
142.3801,96.4851
142.3149,96.4199
142.2351,96.3739
142.1461,96.3500
142.0539,96.3500
141.9649,96.3739
141.8851,96.4199
141.8199,96.4851
141.7739,96.5649
141.7500,96.6539
141.6511,96.6539
142.7030,95.6020
142.5292,95.5209
142.5291,95.5209
142.3179,95.4643
142.3179,95.4643
142.1637,95.4508
142.0986,95.4253
142.0576,95.3688
142.0505,95.3273
142.0505,93.6021
142.0441,93.5425
142.0300,93.5046
141.9938,93.4077
141.9938,93.4077
141.9075,93.2925
141.9075,93.2925
141.7923,93.2062
141.7923,93.2062
141.6604,93.1570
141.6045,93.1151
141.5800,93.0497
141.5949,92.9814
141.6161,92.9531
141.7381,92.8311
141.8736,92.6376
141.9734,92.4235
141.9734,92.4235
142.0038,92.3100
141.0571,92.3100
141.0691,92.2980
143.6970,92.2980
143.8708,92.3791
143.8708,92.3791
144.0821,92.4357
144.0821,92.4357
144.3000,92.4548
144.3000,92.4548
144.5179,92.4357
144.5179,92.4357
144.7292,92.3791
144.7292,92.3791
144.9030,92.2980
144.8030,92.1980
148.0970,92.1980
148.2708,92.2791
148.2708,92.2791
148.4821,92.3357
148.4821,92.3357
148.7000,92.3548
148.7000,92.3548
148.9179,92.3357
148.9179,92.3357
149.1291,92.2791
149.1292,92.2791
149.2372,92.2287
151.9495,92.2287
151.9495,92.4713
151.9812,92.7118
152.0439,92.9461
152.1313,93.1570
152.1368,93.1702
152.2581,93.3803
152.2581,93.3803
152.2581,93.3803
152.4057,93.5727
152.4057,93.5727
152.5773,93.7443
152.5773,93.7443
152.6034,93.7643
152.7697,93.8919
152.9798,94.0132
153.1753,94.0942
153.1930,94.1015
153.2039,94.1061
153.4382,94.1688
153.6186,94.1926
153.6787,94.2005
153.6787,94.2005
153.9213,94.2005
153.9694,94.1942
154.1618,94.1688
154.3961,94.1061
154.6202,94.0132
154.8303,93.8919
155.0227,93.7443
155.1943,93.5727
155.3419,93.3803
155.4632,93.1702
155.5561,92.9461
155.5845,92.8400
157.2252,92.8400
157.2445,93.1343
157.2445,93.1343
157.3020,93.4236
157.3020,93.4236
157.3968,93.7029
157.5273,93.9674
157.5273,93.9674
157.6596,94.1654
158.7610,93.0640
158.8154,93.1953
158.8974,93.3181
159.0019,93.4226
159.1247,93.5046
159.2560,93.5590
158.1546,94.6604
158.3526,94.7927
158.3526,94.7927
158.6171,94.9232
158.8964,95.0180
158.8964,95.0180
159.1857,95.0755
159.1857,95.0755
159.4800,95.0948
159.7743,95.0755
159.7743,95.0755
160.0636,95.0180
160.0636,95.0180
160.3429,94.9232
160.6074,94.7927
160.8054,94.6604
159.7040,93.5590
159.8353,93.5046
159.9581,93.4226
160.0626,93.3181
160.1446,93.1953
160.1990,93.0640
161.3004,94.1654
161.4327,93.9674
161.5632,93.7029
161.6580,93.4236
161.6580,93.4236
161.7155,93.1343
161.7155,93.1343
161.7348,92.8400
164.1052,92.8400
164.1245,93.1343
164.1245,93.1343
164.1820,93.4236
164.1820,93.4236
164.2768,93.7029
164.4073,93.9674
164.4073,93.9674
164.5396,94.1654
165.6410,93.0640
165.6954,93.1953
165.7774,93.3181
165.8819,93.4226
166.0047,93.5046
166.1360,93.5590
165.0346,94.6604
165.2326,94.7927
165.2326,94.7927
165.4971,94.9232
165.7764,95.0180
165.7764,95.0180
166.0657,95.0755
166.0657,95.0755
166.3600,95.0948
166.6543,95.0755
166.6543,95.0755
166.9436,95.0180
166.9436,95.0180
166.9966,95.0000
169.6452,95.0000
169.6452,95.0000
169.6643,95.2179
169.6643,95.2179
169.7209,95.4291
169.7209,95.4292
169.8020,95.6030
170.4050,95.0000
170.4050,95.0000
170.3589,94.9539
170.5500,94.9539
170.5500,95.0461
170.5739,95.1351
170.6199,95.2149
170.6851,95.2801
170.7649,95.3261
170.8539,95.3500
170.9461,95.3500
171.0351,95.3261
171.1149,95.2801
171.1801,95.2149
171.2261,95.1351
171.2500,95.0461
171.2500,95.0000
171.3950,95.0000
171.3950,95.0000
171.9980,95.6030
172.0791,95.4292
172.0791,95.4291
172.1357,95.2179
172.1357,95.2179
172.1548,95.0000
172.1548,95.0000
172.1357,94.7821
172.1357,94.7821
172.0791,94.5708
172.0791,94.5708
171.9980,94.3970
171.3950,95.0000
171.2500,95.0000
171.2500,94.9539
171.2261,94.8649
171.1801,94.7851
171.1149,94.7199
171.0351,94.6739
170.9461,94.6500
170.8539,94.6500
170.7649,94.6739
170.6851,94.7199
170.6199,94.7851
170.5739,94.8649
170.5500,94.9539
170.3589,94.9539
169.8020,94.3970
169.7209,94.5708
169.7209,94.5708
169.6643,94.7821
169.6643,94.7821
169.6452,95.0000
166.9966,95.0000
167.2229,94.9232
167.4874,94.7927
167.6854,94.6604
166.5840,93.5590
166.7153,93.5046
166.8381,93.4226
166.9426,93.3181
167.0246,93.1953
167.0790,93.0640
168.1804,94.1654
168.3127,93.9674
168.3450,93.9020
170.2970,93.9020
170.9000,94.5050
170.9000,94.5050
171.5030,93.9020
171.3292,93.8209
171.3291,93.8209
171.1179,93.7643
171.1179,93.7643
170.9000,93.7452
170.9000,93.7452
170.6821,93.7643
170.6821,93.7643
170.4708,93.8209
170.4708,93.8209
170.2970,93.9020
168.3450,93.9020
168.4432,93.7029
168.5380,93.4236
168.5380,93.4236
168.5955,93.1343
168.5955,93.1343
168.6148,92.8400
168.5965,92.5600
174.8052,92.5600
174.8245,92.8543
174.8245,92.8543
174.8820,93.1436
174.8820,93.1436
174.9768,93.4229
175.1073,93.6874
175.1073,93.6874
175.2396,93.8854
176.3410,92.7840
176.3954,92.9153
176.4774,93.0381
176.5819,93.1426
176.7047,93.2246
176.8360,93.2790
175.7346,94.3804
175.9326,94.5127
175.9326,94.5127
176.1971,94.6432
176.4764,94.7380
176.4764,94.7380
176.7657,94.7955
176.7657,94.7955
177.0600,94.8148
177.3543,94.7955
177.3543,94.7955
177.6436,94.7380
177.6436,94.7380
177.9229,94.6432
178.1874,94.5127
178.3854,94.3804
177.2840,93.2790
177.4153,93.2246
177.5381,93.1426
177.6426,93.0381
177.7246,92.9153
177.7790,92.7840
178.8804,93.8854
179.0127,93.6874
179.1432,93.4229
179.2380,93.1436
179.2380,93.1436
179.2955,92.8543
179.2955,92.8543
179.3148,92.5600
181.6852,92.5600
181.7045,92.8543
181.7045,92.8543
181.7620,93.1436
181.7620,93.1436
181.8568,93.4229
181.9873,93.6874
181.9873,93.6874
182.1196,93.8854
183.2210,92.7840
183.2754,92.9153
183.3574,93.0381
183.4619,93.1426
183.5847,93.2246
183.7160,93.2790
182.6146,94.3804
182.8126,94.5127
182.8126,94.5127
183.0771,94.6432
183.3564,94.7380
183.3564,94.7380
183.6457,94.7955
183.6457,94.7955
183.9400,94.8148
184.2343,94.7955
184.2343,94.7955
184.5236,94.7380
184.5236,94.7380
184.8029,94.6432
185.0674,94.5127
185.2654,94.3804
184.1640,93.2790
184.2953,93.2246
184.4181,93.1426
184.5226,93.0381
184.6046,92.9153
184.6590,92.7840
185.7604,93.8854
185.8927,93.6874
186.0232,93.4229
186.1180,93.1436
186.1180,93.1436
186.1755,92.8543
186.1755,92.8543
186.1948,92.5600
186.1755,92.2657
186.1755,92.2657
186.1180,91.9764
186.1180,91.9764
186.0232,91.6971
185.8927,91.4326
185.8927,91.4326
185.7604,91.2346
184.6590,92.3360
184.6046,92.2047
184.5226,92.0819
184.4181,91.9774
184.2953,91.8954
184.1640,91.8410
185.2654,90.7396
185.0674,90.6073
185.0674,90.6073
184.8029,90.4768
184.5236,90.3820
184.5236,90.3820
184.2343,90.3245
184.2343,90.3245
183.9400,90.3052
183.6457,90.3245
183.6457,90.3245
183.3564,90.3820
183.3564,90.3820
183.0771,90.4768
182.8126,90.6073
182.6146,90.7396
183.7160,91.8410
183.5847,91.8954
183.4619,91.9774
183.3574,92.0819
183.2754,92.2047
183.2210,92.3360
182.1196,91.2346
181.9873,91.4326
181.8568,91.6971
181.7620,91.9764
181.7620,91.9764
181.7045,92.2657
181.7045,92.2657
181.6852,92.5600
179.3148,92.5600
179.2955,92.2657
179.2955,92.2657
179.2380,91.9764
179.2380,91.9764
179.1432,91.6971
179.0127,91.4326
179.0127,91.4326
178.8804,91.2346
177.7790,92.3360
177.7246,92.2047
177.6426,92.0819
177.5381,91.9774
177.4153,91.8954
177.2840,91.8410
178.3854,90.7396
178.1874,90.6073
178.1874,90.6073
177.9229,90.4768
177.6436,90.3820
177.6436,90.3820
177.3543,90.3245
177.3543,90.3245
177.0600,90.3052
176.7657,90.3245
176.7657,90.3245
176.4764,90.3820
176.4764,90.3820
176.1971,90.4768
175.9326,90.6073
175.7346,90.7396
176.8360,91.8410
176.7047,91.8954
176.5819,91.9774
176.4774,92.0819
176.3954,92.2047
176.3410,92.3360
175.2396,91.2346
175.1073,91.4326
174.9768,91.6971
174.8820,91.9764
174.8820,91.9764
174.8245,92.2657
174.8245,92.2657
174.8052,92.5600
168.5965,92.5600
168.5955,92.5457
168.5955,92.5457
168.5380,92.2564
168.5380,92.2564
168.4432,91.9771
168.3127,91.7126
168.3127,91.7126
168.1804,91.5146
167.0790,92.6160
167.0246,92.4847
166.9426,92.3619
166.8381,92.2574
166.7153,92.1754
166.5840,92.1210
167.6854,91.0196
167.4874,90.8873
167.4874,90.8873
167.2229,90.7568
166.9436,90.6620
166.9436,90.6620
166.6543,90.6045
166.6543,90.6045
166.3600,90.5852
166.0657,90.6045
166.0657,90.6045
165.7764,90.6620
165.7764,90.6620
165.4971,90.7568
165.2326,90.8873
165.0346,91.0196
166.1360,92.1210
166.0047,92.1754
165.8819,92.2574
165.7774,92.3619
165.6954,92.4847
165.6410,92.6160
164.5396,91.5146
164.4073,91.7126
164.2768,91.9771
164.1820,92.2564
164.1820,92.2564
164.1245,92.5457
164.1245,92.5457
164.1052,92.8400
161.7348,92.8400
161.7155,92.5457
161.7155,92.5457
161.6580,92.2564
161.6580,92.2564
161.5632,91.9771
161.4327,91.7126
161.4327,91.7126
161.3004,91.5146
160.1990,92.6160
160.1446,92.4847
160.0626,92.3619
159.9581,92.2574
159.8353,92.1754
159.7040,92.1210
160.8054,91.0196
160.6074,90.8873
160.6074,90.8873
160.3429,90.7568
160.0636,90.6620
160.0636,90.6620
159.7743,90.6045
159.7743,90.6045
159.4800,90.5852
159.1857,90.6045
159.1857,90.6045
158.8964,90.6620
158.8964,90.6620
158.6171,90.7568
158.3526,90.8873
158.1546,91.0196
159.2560,92.1210
159.1247,92.1754
159.0019,92.2574
158.8974,92.3619
158.8154,92.4847
158.7610,92.6160
157.6596,91.5146
157.5273,91.7126
157.3968,91.9771
157.3020,92.2564
157.3020,92.2564
157.2445,92.5457
157.2445,92.5457
157.2252,92.8400
155.5845,92.8400
155.6188,92.7118
155.6505,92.4713
155.6505,92.2287
155.6188,91.9882
155.5561,91.7539
155.4632,91.5298
155.3419,91.3197
155.1943,91.1273
155.1943,91.1273
155.0227,90.9557
155.0227,90.9557
154.8303,90.8081
154.8303,90.8081
154.8303,90.8081
154.6202,90.6868
154.6197,90.6866
154.3961,90.5939
154.1618,90.5312
153.9213,90.4995
153.9213,90.4995
153.6787,90.4995
153.6787,90.4995
153.4382,90.5312
153.2039,90.5939
152.9798,90.6868
152.9798,90.6868
152.7697,90.8081
152.5773,90.9557
152.5773,90.9557
152.4057,91.1273
152.4057,91.1273
152.2581,91.3197
152.1368,91.5298
152.1368,91.5298
152.0439,91.7539
151.9812,91.9882
151.9495,92.2287
149.2372,92.2287
149.3030,92.1980
148.7000,91.5950
148.7000,91.5950
148.0970,92.1980
144.8030,92.1980
144.3000,91.6950
144.3000,91.6950
143.6970,92.2980
141.0691,92.2980
141.1001,92.2670
141.1659,92.1530
141.2000,92.0258
141.2000,91.8942
141.1659,91.7670
141.1001,91.6530
141.0571,91.6100
142.0038,91.6100
142.0038,91.6100
141.9734,91.4965
141.9734,91.4965
141.8736,91.2824
141.8736,91.2824
141.8159,91.2000
143.0452,91.2000
143.0452,91.2000
143.0643,91.4179
143.0643,91.4179
143.1209,91.6291
143.1209,91.6292
143.2020,91.8030
143.8050,91.2000
143.8050,91.2000
143.7589,91.1539
143.9500,91.1539
143.9500,91.2461
143.9739,91.3351
144.0199,91.4149
144.0851,91.4801
144.1649,91.5261
144.2539,91.5500
144.3461,91.5500
144.4351,91.5261
144.5149,91.4801
144.5801,91.4149
144.6261,91.3351
144.6500,91.2461
144.6500,91.2000
144.7950,91.2000
144.7950,91.2000
145.3980,91.8030
145.4791,91.6292
145.4791,91.6291
145.5357,91.4179
145.5357,91.4179
145.5548,91.2000
145.5548,91.2000
145.5460,91.1000
147.4452,91.1000
147.4452,91.1000
147.4643,91.3179
147.4643,91.3179
147.5209,91.5292
147.5209,91.5292
147.6020,91.7030
148.2050,91.1000
148.2050,91.1000
148.1589,91.0539
148.3500,91.0539
148.3500,91.1461
148.3739,91.2351
148.4199,91.3149
148.4851,91.3801
148.5649,91.4261
148.6539,91.4500
148.7461,91.4500
148.8351,91.4261
148.9149,91.3801
148.9801,91.3149
149.0261,91.2351
149.0500,91.1461
149.0500,91.1000
149.1950,91.1000
149.1950,91.1000
149.7980,91.7030
149.8791,91.5292
149.8791,91.5292
149.9357,91.3179
149.9357,91.3179
149.9548,91.1000
149.9548,91.1000
149.9357,90.8821
149.9357,90.8821
149.8791,90.6708
149.8791,90.6708
149.7980,90.4970
149.1950,91.1000
149.0500,91.1000
149.0500,91.0539
149.0261,90.9649
148.9801,90.8851
148.9149,90.8199
148.8351,90.7739
148.7461,90.7500
148.6539,90.7500
148.5649,90.7739
148.4851,90.8199
148.4199,90.8851
148.3739,90.9649
148.3500,91.0539
148.1589,91.0539
147.6020,90.4970
147.5209,90.6708
147.5209,90.6708
147.4643,90.8821
147.4643,90.8821
147.4452,91.1000
145.5460,91.1000
145.5357,90.9821
145.5357,90.9821
145.4791,90.7708
145.4791,90.7708
145.3980,90.5970
144.7950,91.2000
144.6500,91.2000
144.6500,91.1539
144.6261,91.0649
144.5801,90.9851
144.5149,90.9199
144.4351,90.8739
144.3461,90.8500
144.2539,90.8500
144.1649,90.8739
144.0851,90.9199
144.0199,90.9851
143.9739,91.0649
143.9500,91.1539
143.7589,91.1539
143.2020,90.5970
143.1209,90.7708
143.1209,90.7708
143.0643,90.9821
143.0643,90.9821
143.0452,91.2000
141.8159,91.2000
141.7381,91.0889
141.7381,91.0889
141.5711,90.9219
141.3776,90.7864
141.1635,90.6866
141.1635,90.6866
141.0500,90.6562
141.0500,91.6029
141.0070,91.5599
140.8930,91.4941
140.7658,91.4600
140.6342,91.4600
140.5070,91.4941
140.3930,91.5599
140.3500,91.6029
140.3500,90.6562
140.3500,90.6562
140.2365,90.6866
140.2365,90.6866
140.0224,90.7864
140.0224,90.7864
139.8289,90.9219
139.8289,90.9219
139.6619,91.0889
139.6619,91.0889
139.5264,91.2824
139.5264,91.2824
139.4266,91.4965
139.4266,91.4965
139.3962,91.6100
139.3962,91.6100
140.3429,91.6100
140.2999,91.6530
140.2341,91.7670
140.2000,91.8942
140.2000,92.0258
140.2341,92.1530
140.2999,92.2670
140.3429,92.3100
139.3962,92.3100
139.4266,92.4235
139.4266,92.4235
139.5264,92.6376
139.6619,92.8311
139.7839,92.9531
139.8174,93.0145
139.8124,93.0841
139.7706,93.1401
139.7396,93.1570
139.6077,93.2062
139.6077,93.2062
139.4925,93.2925
139.4925,93.2925
139.4062,93.4077
139.4062,93.4077
139.3559,93.5425
139.3495,93.6021
139.3495,93.6021
139.3495,93.6021
137.5005,93.6021
137.5005,90.1020
143.6970,90.1020
144.3000,90.7050
144.3000,90.7050
144.9030,90.1020
144.7292,90.0209
144.7292,90.0209
144.6586,90.0020
148.0970,90.0020
148.7000,90.6050
148.7000,90.6050
149.3030,90.0020
149.1292,89.9209
149.1291,89.9209
148.9179,89.8643
148.9179,89.8643
148.7000,89.8452
148.7000,89.8452
148.4821,89.8643
148.4821,89.8643
148.2708,89.9209
148.2708,89.9209
148.0970,90.0020
144.6586,90.0020
144.5179,89.9643
144.5179,89.9643
144.3000,89.9452
144.3000,89.9452
144.0821,89.9643
144.0821,89.9643
143.8708,90.0209
143.8708,90.0209
143.6970,90.1020
137.5005,90.1020
137.5005,89.3245
137.5202,89.2575
137.5730,89.2117
137.6245,89.2005
186.3755,89.2005
Z" /> 
</g>
<g style="fill:#000000; fill-opacity:1.0000; stroke:none;">
<circle cx="183.3500" cy="106.6000" r="0.1750" /> 
</g>
<g style="fill:#000000; fill-opacity:1.0000; stroke:none;">
<circle cx="156.6000" cy="120.2000" r="0.1750" /> 
</g>
<g style="fill:#000000; fill-opacity:1.0000; stroke:none;">
<circle cx="172.4000" cy="115.0000" r="0.1750" /> 
</g>
<g style="fill:#000000; fill-opacity:1.0000; stroke:none;">
<circle cx="170.2000" cy="104.4000" r="0.1750" /> 
</g>
<g style="fill:#000000; fill-opacity:1.0000; stroke:none;">
<circle cx="167.7000" cy="120.6000" r="0.1750" /> 
</g>
<g style="fill:#000000; fill-opacity:1.0000; stroke:none;">
<circle cx="148.7000" cy="91.1000" r="0.1750" /> 
</g>
<g style="fill:#000000; fill-opacity:1.0000; stroke:none;">
<circle cx="166.3000" cy="109.8000" r="0.1750" /> 
</g>
<g style="fill:#000000; fill-opacity:1.0000; stroke:none;">
<circle cx="149.6000" cy="110.5000" r="0.1750" /> 
</g>
<g style="fill:#000000; fill-opacity:1.0000; stroke:none;">
<circle cx="153.9000" cy="98.8000" r="0.1750" /> 
</g>
<g style="fill:#000000; fill-opacity:1.0000; stroke:none;">
<circle cx="166.0000" cy="106.5000" r="0.1750" /> 
</g>
<g style="fill:#000000; fill-opacity:1.0000; stroke:none;">
<circle cx="153.8000" cy="92.3500" r="0.1750" /> 
</g>
<g style="fill:#000000; fill-opacity:1.0000; stroke:none;">
<circle cx="146.6000" cy="100.7000" r="0.1750" /> 
</g>
<g style="fill:#000000; fill-opacity:1.0000; stroke:none;">
<circle cx="176.3000" cy="109.5000" r="0.1750" /> 
</g>
<g style="fill:#000000; fill-opacity:1.0000; stroke:none;">
<circle cx="158.9000" cy="120.2000" r="0.1750" /> 
</g>
<g style="fill:#000000; fill-opacity:1.0000; stroke:none;">
<circle cx="147.0000" cy="121.6000" r="0.1750" /> 
</g>
<g style="fill:#000000; fill-opacity:1.0000; stroke:none;">
<circle cx="154.4000" cy="104.6000" r="0.1750" /> 
</g>
<g style="fill:#000000; fill-opacity:1.0000; stroke:none;">
<circle cx="142.1000" cy="96.7000" r="0.1750" /> 
</g>
<g style="fill:#000000; fill-opacity:1.0000; stroke:none;">
<circle cx="176.4000" cy="103.2000" r="0.1750" /> 
</g>
<g style="fill:#000000; fill-opacity:1.0000; stroke:none;">
<circle cx="146.9000" cy="114.8000" r="0.1750" /> 
</g>
<g style="fill:#000000; fill-opacity:1.0000; stroke:none;">
<circle cx="144.3000" cy="91.2000" r="0.1750" /> 
</g>
<g style="fill:#000000; fill-opacity:1.0000; stroke:none;">
<circle cx="142.3000" cy="119.4000" r="0.1750" /> 
</g>
<g style="fill:#000000; fill-opacity:1.0000; stroke:none;">
<circle cx="170.9000" cy="95.0000" r="0.1750" /> 
</g>
<g style="fill:#000000; fill-opacity:1.0000; stroke:none;">
<circle cx="139.6000" cy="108.4000" r="0.1750" /> 
</g>
<g style="fill:#000000; fill-opacity:1.0000; stroke:none;">
<circle cx="159.1000" cy="104.3000" r="0.1750" /> 
</g>
<g style="fill:#000000; fill-opacity:1.0000; stroke:none;">
<circle cx="140.7000" cy="94.5000" r="0.1750" /> 
</g>
<g style="fill:#000000; fill-opacity:1.0000; stroke:none;">
<circle cx="140.7000" cy="91.9600" r="0.1750" /> 
</g>
<g style="fill:#000000; fill-opacity:1.0000; stroke:none;">
<circle cx="180.5000" cy="96.0000" r="0.1750" /> 
</g>
<g style="fill:#000000; fill-opacity:1.0000; stroke:none;">
<circle cx="183.9400" cy="99.4400" r="0.1750" /> 
</g>
<g style="fill:#000000; fill-opacity:1.0000; stroke:none;">
<circle cx="183.9400" cy="92.5600" r="0.1750" /> 
</g>
<g style="fill:#000000; fill-opacity:1.0000; stroke:none;">
<circle cx="177.0600" cy="99.4400" r="0.1750" /> 
</g>
<g style="fill:#000000; fill-opacity:1.0000; stroke:none;">
<circle cx="177.0600" cy="92.5600" r="0.1750" /> 
</g>
<g style="fill:#000000; fill-opacity:1.0000; stroke:none;">
<circle cx="162.9200" cy="96.2800" r="0.1750" /> 
</g>
<g style="fill:#000000; fill-opacity:1.0000; stroke:none;">
<circle cx="166.3600" cy="99.7200" r="0.1750" /> 
</g>
<g style="fill:#000000; fill-opacity:1.0000; stroke:none;">
<circle cx="166.3600" cy="92.8400" r="0.1750" /> 
</g>
<g style="fill:#000000; fill-opacity:1.0000; stroke:none;">
<circle cx="159.4800" cy="99.7200" r="0.1750" /> 
</g>
<g style="fill:#000000; fill-opacity:1.0000; stroke:none;">
<circle cx="159.4800" cy="92.8400" r="0.1750" /> 
</g>
<g style="fill:#000000; fill-opacity:1.0000; stroke:none;">
<circle cx="180.5000" cy="117.2000" r="0.1750" /> 
</g>
<g style="fill:#000000; fill-opacity:1.0000; stroke:none;">
<circle cx="183.9400" cy="120.6400" r="0.1750" /> 
</g>
<g style="fill:#000000; fill-opacity:1.0000; stroke:none;">
<circle cx="183.9400" cy="113.7600" r="0.1750" /> 
</g>
<g style="fill:#000000; fill-opacity:1.0000; stroke:none;">
<circle cx="177.0600" cy="120.6400" r="0.1750" /> 
</g>
<g style="fill:#000000; fill-opacity:1.0000; stroke:none;">
<circle cx="177.0600" cy="113.7600" r="0.1750" /> 
</g>
<g style="fill:#000000; fill-opacity:1.0000; stroke:none;">
<circle cx="139.6000" cy="111.4000" r="0.1750" /> 
</g>
<g style="fill:#000000; fill-opacity:1.0000; stroke:none;">
<circle cx="142.1400" cy="111.4000" r="0.1750" /> 
</g>
<g style="fill:#000000; fill-opacity:1.0000; stroke:none;">
<circle cx="145.0000" cy="104.5000" r="0.1750" /> 
</g>
<g style="fill:#000000; fill-opacity:1.0000; stroke:none;">
<circle cx="142.5000" cy="104.5000" r="0.1750" /> 
</g>
<g style="fill:#000000; fill-opacity:1.0000; stroke:none;">
<circle cx="147.5949" cy="107.0000" r="0.1750" /> 
</g>
<g style="fill:#000000; fill-opacity:1.0000; stroke:none;">
<circle cx="150.0949" cy="107.0000" r="0.1750" /> 
</g> 
</svg>
