<?xml version="1.0" standalone="no"?>
 <!DOCTYPE svg PUBLIC "-//W3C//DTD SVG 1.1//EN" 
 "http://www.w3.org/Graphics/SVG/1.1/DTD/svg11.dtd"> 
<svg
  xmlns:svg="http://www.w3.org/2000/svg"
  xmlns="http://www.w3.org/2000/svg"
  xmlns:xlink="http://www.w3.org/1999/xlink"
  version="1.1"
  width="297.0022mm" height="210.0072mm" viewBox="0.0000 0.0000 297.0022 210.0072">
<title>SVG Image created as demodulador_sicom-F_Mask.svg date 2024/08/24 16:07:32 </title>
  <desc>Image generated by PCBNEW </desc>
<g style="fill:#000000; fill-opacity:1.0000;stroke:#000000; stroke-opacity:1.0000;
stroke-linecap:round; stroke-linejoin:round;"
 transform="translate(0 0) scale(1 1)">
</g>
<g style="fill:#000000; fill-opacity:1.0000; stroke:none;">
<circle cx="113.6522" cy="106.6000" r="1.6000" /> 
</g>
<g style="fill:#000000; fill-opacity:1.0000; stroke:none;">
<circle cx="140.4022" cy="120.2000" r="0.7500" /> 
</g>
<g style="fill:#000000; fill-opacity:1.0000; stroke:none;">
<circle cx="124.6022" cy="115.0000" r="0.7500" /> 
<path style="fill:#000000; fill-opacity:1.0000; stroke:none;fill-rule:evenodd;"
d="M 142.7272,115.2625
142.7462,115.3582
142.8004,115.4393
142.8815,115.4935
142.9772,115.5125
143.6772,115.5125
143.7729,115.4935
143.8540,115.4393
143.9082,115.3582
143.9272,115.2625
143.9272,114.3625
143.9082,114.2668
143.8540,114.1857
143.7729,114.1315
143.6772,114.1125
142.9772,114.1125
142.8815,114.1315
142.8004,114.1857
142.7462,114.2668
142.7272,114.3625
Z" /> 
<path style="fill:#000000; fill-opacity:1.0000; stroke:none;fill-rule:evenodd;"
d="M 144.7272,115.2625
144.7462,115.3582
144.8004,115.4393
144.8815,115.4935
144.9772,115.5125
145.6772,115.5125
145.7729,115.4935
145.8540,115.4393
145.9082,115.3582
145.9272,115.2625
145.9272,114.3625
145.9082,114.2668
145.8540,114.1857
145.7729,114.1315
145.6772,114.1125
144.9772,114.1125
144.8815,114.1315
144.8004,114.1857
144.7462,114.2668
144.7272,114.3625
Z" /> 
<path style="fill:#000000; fill-opacity:1.0000; stroke:none;fill-rule:evenodd;"
d="M 145.7522,120.4125
145.8479,120.3935
145.9290,120.3393
145.9832,120.2582
146.0022,120.1625
146.0022,119.4625
145.9832,119.3668
145.9290,119.2857
145.8479,119.2315
145.7522,119.2125
144.8522,119.2125
144.7565,119.2315
144.6754,119.2857
144.6212,119.3668
144.6022,119.4625
144.6022,120.1625
144.6212,120.2582
144.6754,120.3393
144.7565,120.3935
144.8522,120.4125
Z" /> 
<path style="fill:#000000; fill-opacity:1.0000; stroke:none;fill-rule:evenodd;"
d="M 145.7522,118.4125
145.8479,118.3935
145.9290,118.3393
145.9832,118.2582
146.0022,118.1625
146.0022,117.4625
145.9832,117.3668
145.9290,117.2857
145.8479,117.2315
145.7522,117.2125
144.8522,117.2125
144.7565,117.2315
144.6754,117.2857
144.6212,117.3668
144.6022,117.4625
144.6022,118.1625
144.6212,118.2582
144.6754,118.3393
144.7565,118.3935
144.8522,118.4125
Z" /> 
<path style="fill:#000000; fill-opacity:1.0000; stroke:none;fill-rule:evenodd;"
d="M 123.9072,120.2300
123.9262,120.3257
123.9804,120.4068
124.0615,120.4610
124.1572,120.4800
124.8572,120.4800
124.9529,120.4610
125.0340,120.4068
125.0882,120.3257
125.1072,120.2300
125.1072,119.3300
125.0882,119.2343
125.0340,119.1532
124.9529,119.0990
124.8572,119.0800
124.1572,119.0800
124.0615,119.0990
123.9804,119.1532
123.9262,119.2343
123.9072,119.3300
Z" /> 
<path style="fill:#000000; fill-opacity:1.0000; stroke:none;fill-rule:evenodd;"
d="M 125.9072,120.2300
125.9262,120.3257
125.9804,120.4068
126.0615,120.4610
126.1572,120.4800
126.8572,120.4800
126.9529,120.4610
127.0340,120.4068
127.0882,120.3257
127.1072,120.2300
127.1072,119.3300
127.0882,119.2343
127.0340,119.1532
126.9529,119.0990
126.8572,119.0800
126.1572,119.0800
126.0615,119.0990
125.9804,119.1532
125.9262,119.2343
125.9072,119.3300
Z" /> 
</g>
<g style="fill:#000000; fill-opacity:1.0000; stroke:none;">
<circle cx="126.8022" cy="104.4000" r="0.7500" /> 
</g>
<g style="fill:#000000; fill-opacity:1.0000; stroke:none;">
<circle cx="129.3022" cy="120.6000" r="0.7500" /> 
<path style="fill:#000000; fill-opacity:1.0000; stroke:none;fill-rule:evenodd;"
d="M 139.6272,110.2875
139.6082,110.1918
139.5540,110.1107
139.4729,110.0565
139.3772,110.0375
138.6772,110.0375
138.5815,110.0565
138.5004,110.1107
138.4462,110.1918
138.4272,110.2875
138.4272,111.1875
138.4462,111.2832
138.5004,111.3643
138.5815,111.4185
138.6772,111.4375
139.3772,111.4375
139.4729,111.4185
139.5540,111.3643
139.6082,111.2832
139.6272,111.1875
Z" /> 
<path style="fill:#000000; fill-opacity:1.0000; stroke:none;fill-rule:evenodd;"
d="M 137.6272,110.2875
137.6082,110.1918
137.5540,110.1107
137.4729,110.0565
137.3772,110.0375
136.6772,110.0375
136.5815,110.0565
136.5004,110.1107
136.4462,110.1918
136.4272,110.2875
136.4272,111.1875
136.4462,111.2832
136.5004,111.3643
136.5815,111.4185
136.6772,111.4375
137.3772,111.4375
137.4729,111.4185
137.5540,111.3643
137.6082,111.2832
137.6272,111.1875
Z" /> 
</g>
<g style="fill:#000000; fill-opacity:1.0000; stroke:none;">
<circle cx="148.3022" cy="91.1000" r="0.7500" /> 
</g>
<g style="fill:#000000; fill-opacity:1.0000; stroke:none;">
<circle cx="130.7022" cy="109.8000" r="0.7500" /> 
<path style="fill:#000000; fill-opacity:1.0000; stroke:none;fill-rule:evenodd;"
d="M 148.3772,118.5250
148.4729,118.5060
148.5540,118.4518
148.6082,118.3707
148.6272,118.2750
148.6272,117.3500
148.6082,117.2543
148.5540,117.1732
148.4729,117.1190
148.3772,117.1000
147.1272,117.1000
147.0315,117.1190
146.9504,117.1732
146.8962,117.2543
146.8772,117.3500
146.8772,118.2750
146.8962,118.3707
146.9504,118.4518
147.0315,118.5060
147.1272,118.5250
Z" /> 
<path style="fill:#000000; fill-opacity:1.0000; stroke:none;fill-rule:evenodd;"
d="M 148.3772,115.5500
148.4729,115.5310
148.5540,115.4768
148.6082,115.3957
148.6272,115.3000
148.6272,114.3750
148.6082,114.2793
148.5540,114.1982
148.4729,114.1440
148.3772,114.1250
147.1272,114.1250
147.0315,114.1440
146.9504,114.1982
146.8962,114.2793
146.8772,114.3750
146.8772,115.3000
146.8962,115.3957
146.9504,115.4768
147.0315,115.5310
147.1272,115.5500
Z" /> 
</g>
<g style="fill:#000000; fill-opacity:1.0000; stroke:none;">
<circle cx="147.4022" cy="110.5000" r="0.7500" /> 
</g>
<g style="fill:#000000; fill-opacity:1.0000; stroke:none;">
<circle cx="143.1022" cy="98.8000" r="0.7500" /> 
<path style="fill:#000000; fill-opacity:1.0000; stroke:none;fill-rule:evenodd;"
d="M 122.7197,118.0800
122.7387,118.1757
122.7929,118.2568
122.8740,118.3110
122.9697,118.3300
123.8947,118.3300
123.9904,118.3110
124.0715,118.2568
124.1257,118.1757
124.1447,118.0800
124.1447,116.8300
124.1257,116.7343
124.0715,116.6532
123.9904,116.5990
123.8947,116.5800
122.9697,116.5800
122.8740,116.5990
122.7929,116.6532
122.7387,116.7343
122.7197,116.8300
Z" /> 
<path style="fill:#000000; fill-opacity:1.0000; stroke:none;fill-rule:evenodd;"
d="M 125.6947,118.0800
125.7137,118.1757
125.7679,118.2568
125.8490,118.3110
125.9447,118.3300
126.8697,118.3300
126.9654,118.3110
127.0465,118.2568
127.1007,118.1757
127.1197,118.0800
127.1197,116.8300
127.1007,116.7343
127.0465,116.6532
126.9654,116.5990
126.8697,116.5800
125.9447,116.5800
125.8490,116.5990
125.7679,116.6532
125.7137,116.7343
125.6947,116.8300
Z" /> 
</g>
<g style="fill:#000000; fill-opacity:1.0000; stroke:none;">
<circle cx="131.0022" cy="106.5000" r="0.7500" /> 
<path style="fill:#000000; fill-opacity:1.0000; stroke:none;fill-rule:evenodd;"
d="M 134.7272,109.1000
134.8229,109.0810
134.9040,109.0268
134.9582,108.9457
134.9772,108.8500
134.9772,107.9250
134.9582,107.8293
134.9040,107.7482
134.8229,107.6940
134.7272,107.6750
133.4772,107.6750
133.3815,107.6940
133.3004,107.7482
133.2462,107.8293
133.2272,107.9250
133.2272,108.8500
133.2462,108.9457
133.3004,109.0268
133.3815,109.0810
133.4772,109.1000
Z" /> 
<path style="fill:#000000; fill-opacity:1.0000; stroke:none;fill-rule:evenodd;"
d="M 134.7272,106.1250
134.8229,106.1060
134.9040,106.0518
134.9582,105.9707
134.9772,105.8750
134.9772,104.9500
134.9582,104.8543
134.9040,104.7732
134.8229,104.7190
134.7272,104.7000
133.4772,104.7000
133.3815,104.7190
133.3004,104.7732
133.2462,104.8543
133.2272,104.9500
133.2272,105.8750
133.2462,105.9707
133.3004,106.0518
133.3815,106.1060
133.4772,106.1250
Z" /> 
</g>
<g style="fill:#000000; fill-opacity:1.0000; stroke:none;">
<circle cx="143.2022" cy="92.3500" r="1.6000" /> 
<path style="fill:#000000; fill-opacity:1.0000; stroke:none;fill-rule:evenodd;"
d="M 124.9947,102.7800
124.9757,102.6843
124.9215,102.6032
124.8404,102.5490
124.7447,102.5300
124.0697,102.5300
123.9740,102.5490
123.8929,102.6032
123.8387,102.6843
123.8197,102.7800
123.8197,103.7300
123.8387,103.8257
123.8929,103.9068
123.9740,103.9610
124.0697,103.9800
124.7447,103.9800
124.8404,103.9610
124.9215,103.9068
124.9757,103.8257
124.9947,103.7300
Z" /> 
<path style="fill:#000000; fill-opacity:1.0000; stroke:none;fill-rule:evenodd;"
d="M 122.9197,102.7800
122.9007,102.6843
122.8465,102.6032
122.7654,102.5490
122.6697,102.5300
121.9947,102.5300
121.8990,102.5490
121.8179,102.6032
121.7637,102.6843
121.7447,102.7800
121.7447,103.7300
121.7637,103.8257
121.8179,103.9068
121.8990,103.9610
121.9947,103.9800
122.6697,103.9800
122.7654,103.9610
122.8465,103.9068
122.9007,103.8257
122.9197,103.7300
Z" /> 
<path style="fill:#000000; fill-opacity:1.0000; stroke:none;fill-rule:evenodd;"
d="M 158.6522,106.1500
158.7479,106.1310
158.8290,106.0768
158.8832,105.9957
158.9022,105.9000
158.9022,102.9000
158.8832,102.8043
158.8290,102.7232
158.7479,102.6690
158.6522,102.6500
157.3522,102.6500
157.2565,102.6690
157.1754,102.7232
157.1212,102.8043
157.1022,102.9000
157.1022,105.9000
157.1212,105.9957
157.1754,106.0768
157.2565,106.1310
157.3522,106.1500
Z" /> 
<path style="fill:#000000; fill-opacity:1.0000; stroke:none;fill-rule:evenodd;"
d="M 158.6522,101.1500
158.7479,101.1310
158.8290,101.0768
158.8832,100.9957
158.9022,100.9000
158.9022,97.9000
158.8832,97.8043
158.8290,97.7232
158.7479,97.6690
158.6522,97.6500
157.3522,97.6500
157.2565,97.6690
157.1754,97.7232
157.1212,97.8043
157.1022,97.9000
157.1022,100.9000
157.1212,100.9957
157.1754,101.0768
157.2565,101.1310
157.3522,101.1500
Z" /> 
<path style="fill:#000000; fill-opacity:1.0000; stroke:none;fill-rule:evenodd;"
d="M 124.8572,108.0550
124.9529,108.0360
125.0340,107.9818
125.0882,107.9007
125.1072,107.8050
125.1072,107.1050
125.0882,107.0093
125.0340,106.9282
124.9529,106.8740
124.8572,106.8550
123.9572,106.8550
123.8615,106.8740
123.7804,106.9282
123.7262,107.0093
123.7072,107.1050
123.7072,107.8050
123.7262,107.9007
123.7804,107.9818
123.8615,108.0360
123.9572,108.0550
Z" /> 
<path style="fill:#000000; fill-opacity:1.0000; stroke:none;fill-rule:evenodd;"
d="M 124.8572,106.0550
124.9529,106.0360
125.0340,105.9818
125.0882,105.9007
125.1072,105.8050
125.1072,105.1050
125.0882,105.0093
125.0340,104.9282
124.9529,104.8740
124.8572,104.8550
123.9572,104.8550
123.8615,104.8740
123.7804,104.9282
123.7262,105.0093
123.7072,105.1050
123.7072,105.8050
123.7262,105.9007
123.7804,105.9818
123.8615,106.0360
123.9572,106.0550
Z" /> 
<path style="fill:#000000; fill-opacity:1.0000; stroke:none;fill-rule:evenodd;"
d="M 139.6022,107.9500
139.5832,107.8543
139.5290,107.7732
139.4479,107.7190
139.3522,107.7000
138.6522,107.7000
138.5565,107.7190
138.4754,107.7732
138.4212,107.8543
138.4022,107.9500
138.4022,108.8500
138.4212,108.9457
138.4754,109.0268
138.5565,109.0810
138.6522,109.1000
139.3522,109.1000
139.4479,109.0810
139.5290,109.0268
139.5832,108.9457
139.6022,108.8500
Z" /> 
<path style="fill:#000000; fill-opacity:1.0000; stroke:none;fill-rule:evenodd;"
d="M 137.6022,107.9500
137.5832,107.8543
137.5290,107.7732
137.4479,107.7190
137.3522,107.7000
136.6522,107.7000
136.5565,107.7190
136.4754,107.7732
136.4212,107.8543
136.4022,107.9500
136.4022,108.8500
136.4212,108.9457
136.4754,109.0268
136.5565,109.0810
136.6522,109.1000
137.3522,109.1000
137.4479,109.0810
137.5290,109.0268
137.5832,108.9457
137.6022,108.8500
Z" /> 
<path style="fill:#000000; fill-opacity:1.0000; stroke:none;fill-rule:evenodd;"
d="M 142.5897,113.1125
142.6087,113.2082
142.6629,113.2893
142.7440,113.3435
142.8397,113.3625
143.7647,113.3625
143.8604,113.3435
143.9415,113.2893
143.9957,113.2082
144.0147,113.1125
144.0147,111.8625
143.9957,111.7668
143.9415,111.6857
143.8604,111.6315
143.7647,111.6125
142.8397,111.6125
142.7440,111.6315
142.6629,111.6857
142.6087,111.7668
142.5897,111.8625
Z" /> 
<path style="fill:#000000; fill-opacity:1.0000; stroke:none;fill-rule:evenodd;"
d="M 145.5647,113.1125
145.5837,113.2082
145.6379,113.2893
145.7190,113.3435
145.8147,113.3625
146.7397,113.3625
146.8354,113.3435
146.9165,113.2893
146.9707,113.2082
146.9897,113.1125
146.9897,111.8625
146.9707,111.7668
146.9165,111.6857
146.8354,111.6315
146.7397,111.6125
145.8147,111.6125
145.7190,111.6315
145.6379,111.6857
145.5837,111.7668
145.5647,111.8625
Z" /> 
<path style="fill:#000000; fill-opacity:1.0000; stroke:none;fill-rule:evenodd;"
d="M 148.9147,103.9750
148.8957,103.8793
148.8415,103.7982
148.7604,103.7440
148.6647,103.7250
147.7397,103.7250
147.6440,103.7440
147.5629,103.7982
147.5087,103.8793
147.4897,103.9750
147.4897,105.2250
147.5087,105.3207
147.5629,105.4018
147.6440,105.4560
147.7397,105.4750
148.6647,105.4750
148.7604,105.4560
148.8415,105.4018
148.8957,105.3207
148.9147,105.2250
Z" /> 
<path style="fill:#000000; fill-opacity:1.0000; stroke:none;fill-rule:evenodd;"
d="M 145.9397,103.9750
145.9207,103.8793
145.8665,103.7982
145.7854,103.7440
145.6897,103.7250
144.7647,103.7250
144.6690,103.7440
144.5879,103.7982
144.5337,103.8793
144.5147,103.9750
144.5147,105.2250
144.5337,105.3207
144.5879,105.4018
144.6690,105.4560
144.7647,105.4750
145.6897,105.4750
145.7854,105.4560
145.8665,105.4018
145.9207,105.3207
145.9397,105.2250
Z" /> 
<path style="fill:#000000; fill-opacity:1.0000; stroke:none;fill-rule:evenodd;"
d="M 141.6772,116.2000
141.5815,116.2190
141.5004,116.2732
141.4462,116.3543
141.4272,116.4500
141.4272,117.3750
141.4462,117.4707
141.5004,117.5518
141.5815,117.6060
141.6772,117.6250
142.9272,117.6250
143.0229,117.6060
143.1040,117.5518
143.1582,117.4707
143.1772,117.3750
143.1772,116.4500
143.1582,116.3543
143.1040,116.2732
143.0229,116.2190
142.9272,116.2000
Z" /> 
<path style="fill:#000000; fill-opacity:1.0000; stroke:none;fill-rule:evenodd;"
d="M 141.6772,119.1750
141.5815,119.1940
141.5004,119.2482
141.4462,119.3293
141.4272,119.4250
141.4272,120.3500
141.4462,120.4457
141.5004,120.5268
141.5815,120.5810
141.6772,120.6000
142.9272,120.6000
143.0229,120.5810
143.1040,120.5268
143.1582,120.4457
143.1772,120.3500
143.1772,119.4250
143.1582,119.3293
143.1040,119.2482
143.0229,119.1940
142.9272,119.1750
Z" /> 
</g>
<g style="fill:#000000; fill-opacity:1.0000; stroke:none;">
<circle cx="150.4022" cy="100.7000" r="0.7500" /> 
<path style="fill:#000000; fill-opacity:1.0000; stroke:none;fill-rule:evenodd;"
d="M 124.9947,108.9800
124.9757,108.8843
124.9215,108.8032
124.8404,108.7490
124.7447,108.7300
124.0697,108.7300
123.9740,108.7490
123.8929,108.8032
123.8387,108.8843
123.8197,108.9800
123.8197,109.9300
123.8387,110.0257
123.8929,110.1068
123.9740,110.1610
124.0697,110.1800
124.7447,110.1800
124.8404,110.1610
124.9215,110.1068
124.9757,110.0257
124.9947,109.9300
Z" /> 
<path style="fill:#000000; fill-opacity:1.0000; stroke:none;fill-rule:evenodd;"
d="M 122.9197,108.9800
122.9007,108.8843
122.8465,108.8032
122.7654,108.7490
122.6697,108.7300
121.9947,108.7300
121.8990,108.7490
121.8179,108.8032
121.7637,108.8843
121.7447,108.9800
121.7447,109.9300
121.7637,110.0257
121.8179,110.1068
121.8990,110.1610
121.9947,110.1800
122.6697,110.1800
122.7654,110.1610
122.8465,110.1068
122.9007,110.0257
122.9197,109.9300
Z" /> 
<path style="fill:#000000; fill-opacity:1.0000; stroke:none;fill-rule:evenodd;"
d="M 148.8022,110.5000
148.8212,110.5957
148.8754,110.6768
148.9565,110.7310
149.0522,110.7500
149.7522,110.7500
149.8479,110.7310
149.9290,110.6768
149.9832,110.5957
150.0022,110.5000
150.0022,109.6000
149.9832,109.5043
149.9290,109.4232
149.8479,109.3690
149.7522,109.3500
149.0522,109.3500
148.9565,109.3690
148.8754,109.4232
148.8212,109.5043
148.8022,109.6000
Z" /> 
<path style="fill:#000000; fill-opacity:1.0000; stroke:none;fill-rule:evenodd;"
d="M 150.8022,110.5000
150.8212,110.5957
150.8754,110.6768
150.9565,110.7310
151.0522,110.7500
151.7522,110.7500
151.8479,110.7310
151.9290,110.6768
151.9832,110.5957
152.0022,110.5000
152.0022,109.6000
151.9832,109.5043
151.9290,109.4232
151.8479,109.3690
151.7522,109.3500
151.0522,109.3500
150.9565,109.3690
150.8754,109.4232
150.8212,109.5043
150.8022,109.6000
Z" /> 
</g>
<g style="fill:#000000; fill-opacity:1.0000; stroke:none;">
<circle cx="120.7022" cy="109.5000" r="0.7500" /> 
<path style="fill:#000000; fill-opacity:1.0000; stroke:none;fill-rule:evenodd;"
d="M 145.9022,109.6125
145.8832,109.5168
145.8290,109.4357
145.7479,109.3815
145.6522,109.3625
144.9522,109.3625
144.8565,109.3815
144.7754,109.4357
144.7212,109.5168
144.7022,109.6125
144.7022,110.5125
144.7212,110.6082
144.7754,110.6893
144.8565,110.7435
144.9522,110.7625
145.6522,110.7625
145.7479,110.7435
145.8290,110.6893
145.8832,110.6082
145.9022,110.5125
Z" /> 
<path style="fill:#000000; fill-opacity:1.0000; stroke:none;fill-rule:evenodd;"
d="M 143.9022,109.6125
143.8832,109.5168
143.8290,109.4357
143.7479,109.3815
143.6522,109.3625
142.9522,109.3625
142.8565,109.3815
142.7754,109.4357
142.7212,109.5168
142.7022,109.6125
142.7022,110.5125
142.7212,110.6082
142.7754,110.6893
142.8565,110.7435
142.9522,110.7625
143.6522,110.7625
143.7479,110.7435
143.8290,110.6893
143.8832,110.6082
143.9022,110.5125
Z" /> 
<path style="fill:#000000; fill-opacity:1.0000; stroke:none;fill-rule:evenodd;"
d="M 134.9447,120.4550
134.9257,120.3593
134.8715,120.2782
134.7904,120.2240
134.6947,120.2050
134.0197,120.2050
133.9240,120.2240
133.8429,120.2782
133.7887,120.3593
133.7697,120.4550
133.7697,121.4050
133.7887,121.5007
133.8429,121.5818
133.9240,121.6360
134.0197,121.6550
134.6947,121.6550
134.7904,121.6360
134.8715,121.5818
134.9257,121.5007
134.9447,121.4050
Z" /> 
<path style="fill:#000000; fill-opacity:1.0000; stroke:none;fill-rule:evenodd;"
d="M 132.8697,120.4550
132.8507,120.3593
132.7965,120.2782
132.7154,120.2240
132.6197,120.2050
131.9447,120.2050
131.8490,120.2240
131.7679,120.2782
131.7137,120.3593
131.6947,120.4550
131.6947,121.4050
131.7137,121.5007
131.7679,121.5818
131.8490,121.6360
131.9447,121.6550
132.6197,121.6550
132.7154,121.6360
132.7965,121.5818
132.8507,121.5007
132.8697,121.4050
Z" /> 
<path style="fill:#000000; fill-opacity:1.0000; stroke:none;fill-rule:evenodd;"
d="M 139.6272,115.7125
139.6082,115.6168
139.5540,115.5357
139.4729,115.4815
139.3772,115.4625
138.6772,115.4625
138.5815,115.4815
138.5004,115.5357
138.4462,115.6168
138.4272,115.7125
138.4272,116.6125
138.4462,116.7082
138.5004,116.7893
138.5815,116.8435
138.6772,116.8625
139.3772,116.8625
139.4729,116.8435
139.5540,116.7893
139.6082,116.7082
139.6272,116.6125
Z" /> 
<path style="fill:#000000; fill-opacity:1.0000; stroke:none;fill-rule:evenodd;"
d="M 137.6272,115.7125
137.6082,115.6168
137.5540,115.5357
137.4729,115.4815
137.3772,115.4625
136.6772,115.4625
136.5815,115.4815
136.5004,115.5357
136.4462,115.6168
136.4272,115.7125
136.4272,116.6125
136.4462,116.7082
136.5004,116.7893
136.5815,116.8435
136.6772,116.8625
137.3772,116.8625
137.4729,116.8435
137.5540,116.7893
137.6082,116.7082
137.6272,116.6125
Z" /> 
<path style="fill:#000000; fill-opacity:1.0000; stroke:none;fill-rule:evenodd;"
d="M 155.7272,102.3000
155.8229,102.2810
155.9040,102.2268
155.9582,102.1457
155.9772,102.0500
155.9772,101.1250
155.9582,101.0293
155.9040,100.9482
155.8229,100.8940
155.7272,100.8750
154.4772,100.8750
154.3815,100.8940
154.3004,100.9482
154.2462,101.0293
154.2272,101.1250
154.2272,102.0500
154.2462,102.1457
154.3004,102.2268
154.3815,102.2810
154.4772,102.3000
Z" /> 
<path style="fill:#000000; fill-opacity:1.0000; stroke:none;fill-rule:evenodd;"
d="M 155.7272,99.3250
155.8229,99.3060
155.9040,99.2518
155.9582,99.1707
155.9772,99.0750
155.9772,98.1500
155.9582,98.0543
155.9040,97.9732
155.8229,97.9190
155.7272,97.9000
154.4772,97.9000
154.3815,97.9190
154.3004,97.9732
154.2462,98.0543
154.2272,98.1500
154.2272,99.0750
154.2462,99.1707
154.3004,99.2518
154.3815,99.3060
154.4772,99.3250
Z" /> 
</g>
<g style="fill:#000000; fill-opacity:1.0000; stroke:none;">
<circle cx="138.1022" cy="120.2000" r="0.7500" /> 
<path style="fill:#000000; fill-opacity:1.0000; stroke:none;fill-rule:evenodd;"
d="M 125.0322,101.7550
125.1279,101.7360
125.2090,101.6818
125.2632,101.6007
125.2822,101.5050
125.2822,100.5800
125.2632,100.4843
125.2090,100.4032
125.1279,100.3490
125.0322,100.3300
123.7822,100.3300
123.6865,100.3490
123.6054,100.4032
123.5512,100.4843
123.5322,100.5800
123.5322,101.5050
123.5512,101.6007
123.6054,101.6818
123.6865,101.7360
123.7822,101.7550
Z" /> 
<path style="fill:#000000; fill-opacity:1.0000; stroke:none;fill-rule:evenodd;"
d="M 125.0322,98.7800
125.1279,98.7610
125.2090,98.7068
125.2632,98.6257
125.2822,98.5300
125.2822,97.6050
125.2632,97.5093
125.2090,97.4282
125.1279,97.3740
125.0322,97.3550
123.7822,97.3550
123.6865,97.3740
123.6054,97.4282
123.5512,97.5093
123.5322,97.6050
123.5322,98.5300
123.5512,98.6257
123.6054,98.7068
123.6865,98.7610
123.7822,98.7800
Z" /> 
</g>
<g style="fill:#000000; fill-opacity:1.0000; stroke:none;">
<circle cx="150.0022" cy="121.6000" r="0.7500" /> 
</g>
<g style="fill:#000000; fill-opacity:1.0000; stroke:none;">
<circle cx="142.6022" cy="104.6000" r="0.7500" /> 
</g>
<g style="fill:#000000; fill-opacity:1.0000; stroke:none;">
<circle cx="154.9022" cy="96.7000" r="0.7500" /> 
</g>
<g style="fill:#000000; fill-opacity:1.0000; stroke:none;">
<circle cx="120.6022" cy="103.2000" r="0.7500" /> 
</g>
<g style="fill:#000000; fill-opacity:1.0000; stroke:none;">
<circle cx="150.1022" cy="114.8000" r="0.7500" /> 
<path style="fill:#000000; fill-opacity:1.0000; stroke:none;fill-rule:evenodd;"
d="M 140.6522,111.8875
140.5565,111.9065
140.4754,111.9607
140.4212,112.0418
140.4022,112.1375
140.4022,112.8375
140.4212,112.9332
140.4754,113.0143
140.5565,113.0685
140.6522,113.0875
141.5522,113.0875
141.6479,113.0685
141.7290,113.0143
141.7832,112.9332
141.8022,112.8375
141.8022,112.1375
141.7832,112.0418
141.7290,111.9607
141.6479,111.9065
141.5522,111.8875
Z" /> 
<path style="fill:#000000; fill-opacity:1.0000; stroke:none;fill-rule:evenodd;"
d="M 140.6522,113.8875
140.5565,113.9065
140.4754,113.9607
140.4212,114.0418
140.4022,114.1375
140.4022,114.8375
140.4212,114.9332
140.4754,115.0143
140.5565,115.0685
140.6522,115.0875
141.5522,115.0875
141.6479,115.0685
141.7290,115.0143
141.7832,114.9332
141.8022,114.8375
141.8022,114.1375
141.7832,114.0418
141.7290,113.9607
141.6479,113.9065
141.5522,113.8875
Z" /> 
</g>
<g style="fill:#000000; fill-opacity:1.0000; stroke:none;">
<circle cx="152.7022" cy="91.2000" r="0.7500" /> 
<path style="fill:#000000; fill-opacity:1.0000; stroke:none;fill-rule:evenodd;"
d="M 124.8572,114.0550
124.9529,114.0360
125.0340,113.9818
125.0882,113.9007
125.1072,113.8050
125.1072,113.1050
125.0882,113.0093
125.0340,112.9282
124.9529,112.8740
124.8572,112.8550
123.9572,112.8550
123.8615,112.8740
123.7804,112.9282
123.7262,113.0093
123.7072,113.1050
123.7072,113.8050
123.7262,113.9007
123.7804,113.9818
123.8615,114.0360
123.9572,114.0550
Z" /> 
<path style="fill:#000000; fill-opacity:1.0000; stroke:none;fill-rule:evenodd;"
d="M 124.8572,112.0550
124.9529,112.0360
125.0340,111.9818
125.0882,111.9007
125.1072,111.8050
125.1072,111.1050
125.0882,111.0093
125.0340,110.9282
124.9529,110.8740
124.8572,110.8550
123.9572,110.8550
123.8615,110.8740
123.7804,110.9282
123.7262,111.0093
123.7072,111.1050
123.7072,111.8050
123.7262,111.9007
123.7804,111.9818
123.8615,112.0360
123.9572,112.0550
Z" /> 
</g>
<g style="fill:#000000; fill-opacity:1.0000; stroke:none;">
<circle cx="154.7022" cy="119.4000" r="1.6000" /> 
</g>
<g style="fill:#000000; fill-opacity:1.0000; stroke:none;">
<circle cx="126.1022" cy="95.0000" r="0.7500" /> 
<path style="fill:#000000; fill-opacity:1.0000; stroke:none;fill-rule:evenodd;"
d="M 153.1072,102.8500
153.2029,102.8310
153.2840,102.7768
153.3382,102.6957
153.3572,102.6000
153.3572,100.9000
153.3382,100.8043
153.2840,100.7232
153.2029,100.6690
153.1072,100.6500
152.4072,100.6500
152.3115,100.6690
152.2304,100.7232
152.1762,100.8043
152.1572,100.9000
152.1572,102.6000
152.1762,102.6957
152.2304,102.7768
152.3115,102.8310
152.4072,102.8500
Z" /> 
<path style="fill:#000000; fill-opacity:1.0000; stroke:none;fill-rule:evenodd;"
d="M 153.1272,98.6500
153.2229,98.6310
153.3040,98.5768
153.3582,98.4957
153.3772,98.4000
153.3772,92.5000
153.3582,92.4043
153.3040,92.3232
153.2229,92.2690
153.1272,92.2500
147.8272,92.2500
147.7315,92.2690
147.6504,92.3232
147.5962,92.4043
147.5772,92.5000
147.5772,98.4000
147.5962,98.4957
147.6504,98.5768
147.7315,98.6310
147.8272,98.6500
Z" /> 
<path style="fill:#000000; fill-opacity:1.0000; stroke:none;fill-rule:evenodd;"
d="M 148.5472,102.8500
148.6429,102.8310
148.7240,102.7768
148.7782,102.6957
148.7972,102.6000
148.7972,100.9000
148.7782,100.8043
148.7240,100.7232
148.6429,100.6690
148.5472,100.6500
147.8472,100.6500
147.7515,100.6690
147.6704,100.7232
147.6162,100.8043
147.5972,100.9000
147.5972,102.6000
147.6162,102.6957
147.6704,102.7768
147.7515,102.8310
147.8472,102.8500
Z" /> 
</g>
<g style="fill:#000000; fill-opacity:1.0000; stroke:none;">
<circle cx="157.4022" cy="108.4000" r="0.7500" /> 
<path style="fill:#000000; fill-opacity:1.0000; stroke:none;fill-rule:evenodd;"
d="M 139.6272,112.4875
139.6082,112.3918
139.5540,112.3107
139.4729,112.2565
139.3772,112.2375
138.6772,112.2375
138.5815,112.2565
138.5004,112.3107
138.4462,112.3918
138.4272,112.4875
138.4272,113.3875
138.4462,113.4832
138.5004,113.5643
138.5815,113.6185
138.6772,113.6375
139.3772,113.6375
139.4729,113.6185
139.5540,113.5643
139.6082,113.4832
139.6272,113.3875
Z" /> 
<path style="fill:#000000; fill-opacity:1.0000; stroke:none;fill-rule:evenodd;"
d="M 137.6272,112.4875
137.6082,112.3918
137.5540,112.3107
137.4729,112.2565
137.3772,112.2375
136.6772,112.2375
136.5815,112.2565
136.5004,112.3107
136.4462,112.3918
136.4272,112.4875
136.4272,113.3875
136.4462,113.4832
136.5004,113.5643
136.5815,113.6185
136.6772,113.6375
137.3772,113.6375
137.4729,113.6185
137.5540,113.5643
137.6082,113.4832
137.6272,113.3875
Z" /> 
<path style="fill:#000000; fill-opacity:1.0000; stroke:none;fill-rule:evenodd;"
d="M 139.6272,118.1375
139.6082,118.0418
139.5540,117.9607
139.4729,117.9065
139.3772,117.8875
138.6772,117.8875
138.5815,117.9065
138.5004,117.9607
138.4462,118.0418
138.4272,118.1375
138.4272,119.0375
138.4462,119.1332
138.5004,119.2143
138.5815,119.2685
138.6772,119.2875
139.3772,119.2875
139.4729,119.2685
139.5540,119.2143
139.6082,119.1332
139.6272,119.0375
Z" /> 
<path style="fill:#000000; fill-opacity:1.0000; stroke:none;fill-rule:evenodd;"
d="M 137.6272,118.1375
137.6082,118.0418
137.5540,117.9607
137.4729,117.9065
137.3772,117.8875
136.6772,117.8875
136.5815,117.9065
136.5004,117.9607
136.4462,118.0418
136.4272,118.1375
136.4272,119.0375
136.4462,119.1332
136.5004,119.2143
136.5815,119.2685
136.6772,119.2875
137.3772,119.2875
137.4729,119.2685
137.5540,119.2143
137.6082,119.1332
137.6272,119.0375
Z" /> 
<path style="fill:#000000; fill-opacity:1.0000; stroke:none;fill-rule:evenodd;"
d="M 134.9822,111.1700
134.9708,111.1126
134.9383,111.0639
134.8896,111.0314
134.8322,111.0200
133.1822,111.0200
133.1248,111.0314
133.0761,111.0639
133.0436,111.1126
133.0322,111.1700
133.0322,111.4700
133.0436,111.5274
133.0761,111.5761
133.1248,111.6086
133.1822,111.6200
134.8322,111.6200
134.8896,111.6086
134.9383,111.5761
134.9708,111.5274
134.9822,111.4700
Z" /> 
<path style="fill:#000000; fill-opacity:1.0000; stroke:none;fill-rule:evenodd;"
d="M 134.9822,112.4400
134.9708,112.3826
134.9383,112.3339
134.8896,112.3014
134.8322,112.2900
133.1822,112.2900
133.1248,112.3014
133.0761,112.3339
133.0436,112.3826
133.0322,112.4400
133.0322,112.7400
133.0436,112.7974
133.0761,112.8461
133.1248,112.8786
133.1822,112.8900
134.8322,112.8900
134.8896,112.8786
134.9383,112.8461
134.9708,112.7974
134.9822,112.7400
Z" /> 
<path style="fill:#000000; fill-opacity:1.0000; stroke:none;fill-rule:evenodd;"
d="M 134.9822,113.7100
134.9708,113.6526
134.9383,113.6039
134.8896,113.5714
134.8322,113.5600
133.1822,113.5600
133.1248,113.5714
133.0761,113.6039
133.0436,113.6526
133.0322,113.7100
133.0322,114.0100
133.0436,114.0674
133.0761,114.1161
133.1248,114.1486
133.1822,114.1600
134.8322,114.1600
134.8896,114.1486
134.9383,114.1161
134.9708,114.0674
134.9822,114.0100
Z" /> 
<path style="fill:#000000; fill-opacity:1.0000; stroke:none;fill-rule:evenodd;"
d="M 134.9822,114.9800
134.9708,114.9226
134.9383,114.8739
134.8896,114.8414
134.8322,114.8300
133.1822,114.8300
133.1248,114.8414
133.0761,114.8739
133.0436,114.9226
133.0322,114.9800
133.0322,115.2800
133.0436,115.3374
133.0761,115.3861
133.1248,115.4186
133.1822,115.4300
134.8322,115.4300
134.8896,115.4186
134.9383,115.3861
134.9708,115.3374
134.9822,115.2800
Z" /> 
<path style="fill:#000000; fill-opacity:1.0000; stroke:none;fill-rule:evenodd;"
d="M 134.9822,116.2500
134.9708,116.1926
134.9383,116.1439
134.8896,116.1114
134.8322,116.1000
133.1822,116.1000
133.1248,116.1114
133.0761,116.1439
133.0436,116.1926
133.0322,116.2500
133.0322,116.5500
133.0436,116.6074
133.0761,116.6561
133.1248,116.6886
133.1822,116.7000
134.8322,116.7000
134.8896,116.6886
134.9383,116.6561
134.9708,116.6074
134.9822,116.5500
Z" /> 
<path style="fill:#000000; fill-opacity:1.0000; stroke:none;fill-rule:evenodd;"
d="M 134.9822,117.5200
134.9708,117.4626
134.9383,117.4139
134.8896,117.3814
134.8322,117.3700
133.1822,117.3700
133.1248,117.3814
133.0761,117.4139
133.0436,117.4626
133.0322,117.5200
133.0322,117.8200
133.0436,117.8774
133.0761,117.9261
133.1248,117.9586
133.1822,117.9700
134.8322,117.9700
134.8896,117.9586
134.9383,117.9261
134.9708,117.8774
134.9822,117.8200
Z" /> 
<path style="fill:#000000; fill-opacity:1.0000; stroke:none;fill-rule:evenodd;"
d="M 134.9822,118.7900
134.9708,118.7326
134.9383,118.6839
134.8896,118.6514
134.8322,118.6400
133.1822,118.6400
133.1248,118.6514
133.0761,118.6839
133.0436,118.7326
133.0322,118.7900
133.0322,119.0900
133.0436,119.1474
133.0761,119.1961
133.1248,119.2286
133.1822,119.2400
134.8322,119.2400
134.8896,119.2286
134.9383,119.1961
134.9708,119.1474
134.9822,119.0900
Z" /> 
<path style="fill:#000000; fill-opacity:1.0000; stroke:none;fill-rule:evenodd;"
d="M 130.0322,118.7900
130.0208,118.7326
129.9883,118.6839
129.9396,118.6514
129.8822,118.6400
128.2322,118.6400
128.1748,118.6514
128.1261,118.6839
128.0936,118.7326
128.0822,118.7900
128.0822,119.0900
128.0936,119.1474
128.1261,119.1961
128.1748,119.2286
128.2322,119.2400
129.8822,119.2400
129.9396,119.2286
129.9883,119.1961
130.0208,119.1474
130.0322,119.0900
Z" /> 
<path style="fill:#000000; fill-opacity:1.0000; stroke:none;fill-rule:evenodd;"
d="M 130.0322,117.5200
130.0208,117.4626
129.9883,117.4139
129.9396,117.3814
129.8822,117.3700
128.2322,117.3700
128.1748,117.3814
128.1261,117.4139
128.0936,117.4626
128.0822,117.5200
128.0822,117.8200
128.0936,117.8774
128.1261,117.9261
128.1748,117.9586
128.2322,117.9700
129.8822,117.9700
129.9396,117.9586
129.9883,117.9261
130.0208,117.8774
130.0322,117.8200
Z" /> 
<path style="fill:#000000; fill-opacity:1.0000; stroke:none;fill-rule:evenodd;"
d="M 130.0322,116.2500
130.0208,116.1926
129.9883,116.1439
129.9396,116.1114
129.8822,116.1000
128.2322,116.1000
128.1748,116.1114
128.1261,116.1439
128.0936,116.1926
128.0822,116.2500
128.0822,116.5500
128.0936,116.6074
128.1261,116.6561
128.1748,116.6886
128.2322,116.7000
129.8822,116.7000
129.9396,116.6886
129.9883,116.6561
130.0208,116.6074
130.0322,116.5500
Z" /> 
<path style="fill:#000000; fill-opacity:1.0000; stroke:none;fill-rule:evenodd;"
d="M 130.0322,114.9800
130.0208,114.9226
129.9883,114.8739
129.9396,114.8414
129.8822,114.8300
128.2322,114.8300
128.1748,114.8414
128.1261,114.8739
128.0936,114.9226
128.0822,114.9800
128.0822,115.2800
128.0936,115.3374
128.1261,115.3861
128.1748,115.4186
128.2322,115.4300
129.8822,115.4300
129.9396,115.4186
129.9883,115.3861
130.0208,115.3374
130.0322,115.2800
Z" /> 
<path style="fill:#000000; fill-opacity:1.0000; stroke:none;fill-rule:evenodd;"
d="M 130.0322,113.7100
130.0208,113.6526
129.9883,113.6039
129.9396,113.5714
129.8822,113.5600
128.2322,113.5600
128.1748,113.5714
128.1261,113.6039
128.0936,113.6526
128.0822,113.7100
128.0822,114.0100
128.0936,114.0674
128.1261,114.1161
128.1748,114.1486
128.2322,114.1600
129.8822,114.1600
129.9396,114.1486
129.9883,114.1161
130.0208,114.0674
130.0322,114.0100
Z" /> 
<path style="fill:#000000; fill-opacity:1.0000; stroke:none;fill-rule:evenodd;"
d="M 130.0322,112.4400
130.0208,112.3826
129.9883,112.3339
129.9396,112.3014
129.8822,112.2900
128.2322,112.2900
128.1748,112.3014
128.1261,112.3339
128.0936,112.3826
128.0822,112.4400
128.0822,112.7400
128.0936,112.7974
128.1261,112.8461
128.1748,112.8786
128.2322,112.8900
129.8822,112.8900
129.9396,112.8786
129.9883,112.8461
130.0208,112.7974
130.0322,112.7400
Z" /> 
<path style="fill:#000000; fill-opacity:1.0000; stroke:none;fill-rule:evenodd;"
d="M 130.0322,111.1700
130.0208,111.1126
129.9883,111.0639
129.9396,111.0314
129.8822,111.0200
128.2322,111.0200
128.1748,111.0314
128.1261,111.0639
128.0936,111.1126
128.0822,111.1700
128.0822,111.4700
128.0936,111.5274
128.1261,111.5761
128.1748,111.6086
128.2322,111.6200
129.8822,111.6200
129.9396,111.6086
129.9883,111.5761
130.0208,111.5274
130.0322,111.4700
Z" /> 
</g>
<g style="fill:#000000; fill-opacity:1.0000; stroke:none;">
<circle cx="137.9022" cy="104.3000" r="0.7500" /> 
<path style="fill:#000000; fill-opacity:1.0000; stroke:none;fill-rule:evenodd;"
d="M 157.1522,95.3500
157.1522,93.6500
155.4522,93.6500
155.4522,95.3500
Z" /> 
</g>
<g style="fill:#000000; fill-opacity:1.0000; stroke:none;">
<circle cx="156.3022" cy="91.9600" r="0.8500" /> 
<circle cx="116.5022" cy="96.0000" r="1.7500" /> 
</g>
<g style="fill:#000000; fill-opacity:1.0000; stroke:none;">
<circle cx="113.0622" cy="99.4400" r="1.7500" /> 
</g>
<g style="fill:#000000; fill-opacity:1.0000; stroke:none;">
<circle cx="113.0622" cy="92.5600" r="1.7500" /> 
</g>
<g style="fill:#000000; fill-opacity:1.0000; stroke:none;">
<circle cx="119.9422" cy="99.4400" r="1.7500" /> 
</g>
<g style="fill:#000000; fill-opacity:1.0000; stroke:none;">
<circle cx="119.9422" cy="92.5600" r="1.7500" /> 
</g>
<g style="fill:#000000; fill-opacity:1.0000; stroke:none;">
<circle cx="134.0822" cy="96.2800" r="1.7500" /> 
</g>
<g style="fill:#000000; fill-opacity:1.0000; stroke:none;">
<circle cx="130.6422" cy="99.7200" r="1.7500" /> 
</g>
<g style="fill:#000000; fill-opacity:1.0000; stroke:none;">
<circle cx="130.6422" cy="92.8400" r="1.7500" /> 
</g>
<g style="fill:#000000; fill-opacity:1.0000; stroke:none;">
<circle cx="137.5222" cy="99.7200" r="1.7500" /> 
</g>
<g style="fill:#000000; fill-opacity:1.0000; stroke:none;">
<circle cx="137.5222" cy="92.8400" r="1.7500" /> 
</g>
<g style="fill:#000000; fill-opacity:1.0000; stroke:none;">
<circle cx="116.5022" cy="117.2000" r="1.7500" /> 
</g>
<g style="fill:#000000; fill-opacity:1.0000; stroke:none;">
<circle cx="113.0622" cy="120.6400" r="1.7500" /> 
</g>
<g style="fill:#000000; fill-opacity:1.0000; stroke:none;">
<circle cx="113.0622" cy="113.7600" r="1.7500" /> 
</g>
<g style="fill:#000000; fill-opacity:1.0000; stroke:none;">
<circle cx="119.9422" cy="120.6400" r="1.7500" /> 
</g>
<g style="fill:#000000; fill-opacity:1.0000; stroke:none;">
<circle cx="119.9422" cy="113.7600" r="1.7500" /> 
<path style="fill:#000000; fill-opacity:1.0000; stroke:none;fill-rule:evenodd;"
d="M 158.3022,112.3000
158.3022,110.5000
156.5022,110.5000
156.5022,112.3000
Z" /> 
</g>
<g style="fill:#000000; fill-opacity:1.0000; stroke:none;">
<circle cx="154.8622" cy="111.4000" r="0.9000" /> 
<path style="fill:#000000; fill-opacity:1.0000; stroke:none;fill-rule:evenodd;"
d="M 151.2022,103.7000
151.2022,105.3000
152.8022,105.3000
152.8022,103.7000
Z" /> 
</g>
<g style="fill:#000000; fill-opacity:1.0000; stroke:none;">
<circle cx="154.5022" cy="104.5000" r="0.8000" /> 
<path style="fill:#000000; fill-opacity:1.0000; stroke:none;fill-rule:evenodd;"
d="M 150.2073,107.8000
150.2073,106.2000
148.6073,106.2000
148.6073,107.8000
Z" /> 
</g>
<g style="fill:#000000; fill-opacity:1.0000; stroke:none;">
<circle cx="146.9073" cy="107.0000" r="0.8000" /> 
</g> 
</svg>
