<?xml version="1.0" standalone="no"?>
 <!DOCTYPE svg PUBLIC "-//W3C//DTD SVG 1.1//EN" 
 "http://www.w3.org/Graphics/SVG/1.1/DTD/svg11.dtd"> 
<svg
  xmlns:svg="http://www.w3.org/2000/svg"
  xmlns="http://www.w3.org/2000/svg"
  xmlns:xlink="http://www.w3.org/1999/xlink"
  version="1.1"
  width="297.0022mm" height="210.0072mm" viewBox="0.0000 0.0000 297.0022 210.0072">
<title>SVG Image created as modulador_sicom-F_Mask.svg date 2024/08/24 16:03:05 </title>
  <desc>Image generated by PCBNEW </desc>
<g style="fill:#000000; fill-opacity:1.0000;stroke:#000000; stroke-opacity:1.0000;
stroke-linecap:round; stroke-linejoin:round;"
 transform="translate(0 0) scale(1 1)">
</g>
<g style="fill:none; 
stroke:#000000; stroke-width:0.3000; stroke-opacity:1; 
stroke-linecap:round; stroke-linejoin:round;">
<text x="107.2272" y="90.2500"
transform="scale(-1 1) translate(-214.454400 0)"
textLength="10.7429" font-size="2.0000" lengthAdjust="spacingAndGlyphs"
text-anchor="start" opacity="0" stroke-opacity="0">MOD TOP</text>
<g class="stroked-text"><desc>MOD TOP</desc>
<path d="M106.6727 90.0508
L106.6727 88.5508
" />
<path d="M106.6727 88.5508
L106.1727 89.6223
" />
<path d="M106.1727 89.6223
L105.6727 88.5508
" />
<path d="M105.6727 88.5508
L105.6727 90.0508
" />
<path d="M104.6727 88.5508
L104.3870 88.5508
" />
<path d="M104.3870 88.5508
L104.2441 88.6223
" />
<path d="M104.2441 88.6223
L104.1013 88.7651
" />
<path d="M104.1013 88.7651
L104.0298 89.0508
" />
<path d="M104.0298 89.0508
L104.0298 89.5508
" />
<path d="M104.0298 89.5508
L104.1013 89.8365
" />
<path d="M104.1013 89.8365
L104.2441 89.9794
" />
<path d="M104.2441 89.9794
L104.3870 90.0508
" />
<path d="M104.3870 90.0508
L104.6727 90.0508
" />
<path d="M104.6727 90.0508
L104.8155 89.9794
" />
<path d="M104.8155 89.9794
L104.9584 89.8365
" />
<path d="M104.9584 89.8365
L105.0298 89.5508
" />
<path d="M105.0298 89.5508
L105.0298 89.0508
" />
<path d="M105.0298 89.0508
L104.9584 88.7651
" />
<path d="M104.9584 88.7651
L104.8155 88.6223
" />
<path d="M104.8155 88.6223
L104.6727 88.5508
" />
<path d="M103.3870 90.0508
L103.3870 88.5508
" />
<path d="M103.3870 88.5508
L103.0298 88.5508
" />
<path d="M103.0298 88.5508
L102.8155 88.6223
" />
<path d="M102.8155 88.6223
L102.6727 88.7651
" />
<path d="M102.6727 88.7651
L102.6013 88.9080
" />
<path d="M102.6013 88.9080
L102.5298 89.1937
" />
<path d="M102.5298 89.1937
L102.5298 89.4080
" />
<path d="M102.5298 89.4080
L102.6013 89.6937
" />
<path d="M102.6013 89.6937
L102.6727 89.8365
" />
<path d="M102.6727 89.8365
L102.8155 89.9794
" />
<path d="M102.8155 89.9794
L103.0298 90.0508
" />
<path d="M103.0298 90.0508
L103.3870 90.0508
" />
<path d="M100.9584 88.5508
L100.1013 88.5508
" />
<path d="M100.5298 90.0508
L100.5298 88.5508
" />
<path d="M99.3155 88.5508
L99.0298 88.5508
" />
<path d="M99.0298 88.5508
L98.8870 88.6223
" />
<path d="M98.8870 88.6223
L98.7441 88.7651
" />
<path d="M98.7441 88.7651
L98.6727 89.0508
" />
<path d="M98.6727 89.0508
L98.6727 89.5508
" />
<path d="M98.6727 89.5508
L98.7441 89.8365
" />
<path d="M98.7441 89.8365
L98.8870 89.9794
" />
<path d="M98.8870 89.9794
L99.0298 90.0508
" />
<path d="M99.0298 90.0508
L99.3155 90.0508
" />
<path d="M99.3155 90.0508
L99.4584 89.9794
" />
<path d="M99.4584 89.9794
L99.6013 89.8365
" />
<path d="M99.6013 89.8365
L99.6727 89.5508
" />
<path d="M99.6727 89.5508
L99.6727 89.0508
" />
<path d="M99.6727 89.0508
L99.6013 88.7651
" />
<path d="M99.6013 88.7651
L99.4584 88.6223
" />
<path d="M99.4584 88.6223
L99.3155 88.5508
" />
<path d="M98.0298 90.0508
L98.0298 88.5508
" />
<path d="M98.0298 88.5508
L97.4584 88.5508
" />
<path d="M97.4584 88.5508
L97.3155 88.6223
" />
<path d="M97.3155 88.6223
L97.2441 88.6937
" />
<path d="M97.2441 88.6937
L97.1727 88.8365
" />
<path d="M97.1727 88.8365
L97.1727 89.0508
" />
<path d="M97.1727 89.0508
L97.2441 89.1937
" />
<path d="M97.2441 89.1937
L97.3155 89.2651
" />
<path d="M97.3155 89.2651
L97.4584 89.3365
" />
<path d="M97.4584 89.3365
L98.0298 89.3365
" />
</g></g>
<g style="fill:#000000; fill-opacity:1.0000; stroke:none;">
<circle cx="145.0522" cy="77.9500" r="0.7500" /> 
</g>
<g style="fill:#000000; fill-opacity:1.0000; stroke:none;">
<circle cx="144.9022" cy="81.4000" r="0.7500" /> 
<path style="fill:#000000; fill-opacity:1.0000; stroke:none;fill-rule:evenodd;"
d="M 124.7022,99.1000
124.6065,99.1190
124.5254,99.1732
124.4712,99.2543
124.4522,99.3500
124.4522,100.0500
124.4712,100.1457
124.5254,100.2268
124.6065,100.2810
124.7022,100.3000
125.6022,100.3000
125.6979,100.2810
125.7790,100.2268
125.8332,100.1457
125.8522,100.0500
125.8522,99.3500
125.8332,99.2543
125.7790,99.1732
125.6979,99.1190
125.6022,99.1000
Z" /> 
<path style="fill:#000000; fill-opacity:1.0000; stroke:none;fill-rule:evenodd;"
d="M 124.7022,101.1000
124.6065,101.1190
124.5254,101.1732
124.4712,101.2543
124.4522,101.3500
124.4522,102.0500
124.4712,102.1457
124.5254,102.2268
124.6065,102.2810
124.7022,102.3000
125.6022,102.3000
125.6979,102.2810
125.7790,102.2268
125.8332,102.1457
125.8522,102.0500
125.8522,101.3500
125.8332,101.2543
125.7790,101.1732
125.6979,101.1190
125.6022,101.1000
Z" /> 
<path style="fill:#000000; fill-opacity:1.0000; stroke:none;fill-rule:evenodd;"
d="M 147.7022,95.7250
147.6832,95.6293
147.6290,95.5482
147.5479,95.4940
147.4522,95.4750
146.7522,95.4750
146.6565,95.4940
146.5754,95.5482
146.5212,95.6293
146.5022,95.7250
146.5022,96.6250
146.5212,96.7207
146.5754,96.8018
146.6565,96.8560
146.7522,96.8750
147.4522,96.8750
147.5479,96.8560
147.6290,96.8018
147.6832,96.7207
147.7022,96.6250
Z" /> 
<path style="fill:#000000; fill-opacity:1.0000; stroke:none;fill-rule:evenodd;"
d="M 145.7022,95.7250
145.6832,95.6293
145.6290,95.5482
145.5479,95.4940
145.4522,95.4750
144.7522,95.4750
144.6565,95.4940
144.5754,95.5482
144.5212,95.6293
144.5022,95.7250
144.5022,96.6250
144.5212,96.7207
144.5754,96.8018
144.6565,96.8560
144.7522,96.8750
145.4522,96.8750
145.5479,96.8560
145.6290,96.8018
145.6832,96.7207
145.7022,96.6250
Z" /> 
</g>
<g style="fill:#000000; fill-opacity:1.0000; stroke:none;">
<circle cx="113.2022" cy="105.5000" r="1.6000" /> 
<path style="fill:#000000; fill-opacity:1.0000; stroke:none;fill-rule:evenodd;"
d="M 132.7022,101.4500
132.7212,101.5457
132.7754,101.6268
132.8565,101.6810
132.9522,101.7000
133.6522,101.7000
133.7479,101.6810
133.8290,101.6268
133.8832,101.5457
133.9022,101.4500
133.9022,100.5500
133.8832,100.4543
133.8290,100.3732
133.7479,100.3190
133.6522,100.3000
132.9522,100.3000
132.8565,100.3190
132.7754,100.3732
132.7212,100.4543
132.7022,100.5500
Z" /> 
<path style="fill:#000000; fill-opacity:1.0000; stroke:none;fill-rule:evenodd;"
d="M 134.7022,101.4500
134.7212,101.5457
134.7754,101.6268
134.8565,101.6810
134.9522,101.7000
135.6522,101.7000
135.7479,101.6810
135.8290,101.6268
135.8832,101.5457
135.9022,101.4500
135.9022,100.5500
135.8832,100.4543
135.8290,100.3732
135.7479,100.3190
135.6522,100.3000
134.9522,100.3000
134.8565,100.3190
134.7754,100.3732
134.7212,100.4543
134.7022,100.5500
Z" /> 
</g>
<g style="fill:#000000; fill-opacity:1.0000; stroke:none;">
<circle cx="154.8022" cy="92.2000" r="0.7500" /> 
</g>
<g style="fill:#000000; fill-opacity:1.0000; stroke:none;">
<circle cx="145.1522" cy="93.4000" r="0.7500" /> 
<path style="fill:#000000; fill-opacity:1.0000; stroke:none;fill-rule:evenodd;"
d="M 128.1522,85.4750
128.1332,85.3793
128.0790,85.2982
127.9979,85.2440
127.9022,85.2250
127.2022,85.2250
127.1065,85.2440
127.0254,85.2982
126.9712,85.3793
126.9522,85.4750
126.9522,86.3750
126.9712,86.4707
127.0254,86.5518
127.1065,86.6060
127.2022,86.6250
127.9022,86.6250
127.9979,86.6060
128.0790,86.5518
128.1332,86.4707
128.1522,86.3750
Z" /> 
<path style="fill:#000000; fill-opacity:1.0000; stroke:none;fill-rule:evenodd;"
d="M 126.1522,85.4750
126.1332,85.3793
126.0790,85.2982
125.9979,85.2440
125.9022,85.2250
125.2022,85.2250
125.1065,85.2440
125.0254,85.2982
124.9712,85.3793
124.9522,85.4750
124.9522,86.3750
124.9712,86.4707
125.0254,86.5518
125.1065,86.6060
125.2022,86.6250
125.9022,86.6250
125.9979,86.6060
126.0790,86.5518
126.1332,86.4707
126.1522,86.3750
Z" /> 
<path style="fill:#000000; fill-opacity:1.0000; stroke:none;fill-rule:evenodd;"
d="M 137.0022,102.6750
136.9832,102.5793
136.9290,102.4982
136.8479,102.4440
136.7522,102.4250
135.8272,102.4250
135.7315,102.4440
135.6504,102.4982
135.5962,102.5793
135.5772,102.6750
135.5772,103.9250
135.5962,104.0207
135.6504,104.1018
135.7315,104.1560
135.8272,104.1750
136.7522,104.1750
136.8479,104.1560
136.9290,104.1018
136.9832,104.0207
137.0022,103.9250
Z" /> 
<path style="fill:#000000; fill-opacity:1.0000; stroke:none;fill-rule:evenodd;"
d="M 134.0272,102.6750
134.0082,102.5793
133.9540,102.4982
133.8729,102.4440
133.7772,102.4250
132.8522,102.4250
132.7565,102.4440
132.6754,102.4982
132.6212,102.5793
132.6022,102.6750
132.6022,103.9250
132.6212,104.0207
132.6754,104.1018
132.7565,104.1560
132.8522,104.1750
133.7772,104.1750
133.8729,104.1560
133.9540,104.1018
134.0082,104.0207
134.0272,103.9250
Z" /> 
<path style="fill:#000000; fill-opacity:1.0000; stroke:none;fill-rule:evenodd;"
d="M 137.9772,97.4500
137.8815,97.4690
137.8004,97.5232
137.7462,97.6043
137.7272,97.7000
137.7272,98.6250
137.7462,98.7207
137.8004,98.8018
137.8815,98.8560
137.9772,98.8750
139.2272,98.8750
139.3229,98.8560
139.4040,98.8018
139.4582,98.7207
139.4772,98.6250
139.4772,97.7000
139.4582,97.6043
139.4040,97.5232
139.3229,97.4690
139.2272,97.4500
Z" /> 
<path style="fill:#000000; fill-opacity:1.0000; stroke:none;fill-rule:evenodd;"
d="M 137.9772,100.4250
137.8815,100.4440
137.8004,100.4982
137.7462,100.5793
137.7272,100.6750
137.7272,101.6000
137.7462,101.6957
137.8004,101.7768
137.8815,101.8310
137.9772,101.8500
139.2272,101.8500
139.3229,101.8310
139.4040,101.7768
139.4582,101.6957
139.4772,101.6000
139.4772,100.6750
139.4582,100.5793
139.4040,100.4982
139.3229,100.4440
139.2272,100.4250
Z" /> 
</g>
<g style="fill:#000000; fill-opacity:1.0000; stroke:none;">
<circle cx="155.4022" cy="105.3000" r="1.6000" /> 
<path style="fill:#000000; fill-opacity:1.0000; stroke:none;fill-rule:evenodd;"
d="M 122.1272,87.8000
122.2229,87.7810
122.3040,87.7268
122.3582,87.6457
122.3772,87.5500
122.3772,86.8500
122.3582,86.7543
122.3040,86.6732
122.2229,86.6190
122.1272,86.6000
121.2272,86.6000
121.1315,86.6190
121.0504,86.6732
120.9962,86.7543
120.9772,86.8500
120.9772,87.5500
120.9962,87.6457
121.0504,87.7268
121.1315,87.7810
121.2272,87.8000
Z" /> 
<path style="fill:#000000; fill-opacity:1.0000; stroke:none;fill-rule:evenodd;"
d="M 122.1272,85.8000
122.2229,85.7810
122.3040,85.7268
122.3582,85.6457
122.3772,85.5500
122.3772,84.8500
122.3582,84.7543
122.3040,84.6732
122.2229,84.6190
122.1272,84.6000
121.2272,84.6000
121.1315,84.6190
121.0504,84.6732
120.9962,84.7543
120.9772,84.8500
120.9772,85.5500
120.9962,85.6457
121.0504,85.7268
121.1315,85.7810
121.2272,85.8000
Z" /> 
<path style="fill:#000000; fill-opacity:1.0000; stroke:none;fill-rule:evenodd;"
d="M 157.9647,90.7500
158.0604,90.7310
158.1415,90.6768
158.1957,90.5957
158.2147,90.5000
158.2147,87.5000
158.1957,87.4043
158.1415,87.3232
158.0604,87.2690
157.9647,87.2500
156.6647,87.2500
156.5690,87.2690
156.4879,87.3232
156.4337,87.4043
156.4147,87.5000
156.4147,90.5000
156.4337,90.5957
156.4879,90.6768
156.5690,90.7310
156.6647,90.7500
Z" /> 
<path style="fill:#000000; fill-opacity:1.0000; stroke:none;fill-rule:evenodd;"
d="M 157.9647,85.7500
158.0604,85.7310
158.1415,85.6768
158.1957,85.5957
158.2147,85.5000
158.2147,82.5000
158.1957,82.4043
158.1415,82.3232
158.0604,82.2690
157.9647,82.2500
156.6647,82.2500
156.5690,82.2690
156.4879,82.3232
156.4337,82.4043
156.4147,82.5000
156.4147,85.5000
156.4337,85.5957
156.4879,85.6768
156.5690,85.7310
156.6647,85.7500
Z" /> 
<path style="fill:#000000; fill-opacity:1.0000; stroke:none;fill-rule:evenodd;"
d="M 124.9522,95.2500
124.8565,95.2690
124.7754,95.3232
124.7212,95.4043
124.7022,95.5000
124.7022,96.2000
124.7212,96.2957
124.7754,96.3768
124.8565,96.4310
124.9522,96.4500
125.8522,96.4500
125.9479,96.4310
126.0290,96.3768
126.0832,96.2957
126.1022,96.2000
126.1022,95.5000
126.0832,95.4043
126.0290,95.3232
125.9479,95.2690
125.8522,95.2500
Z" /> 
<path style="fill:#000000; fill-opacity:1.0000; stroke:none;fill-rule:evenodd;"
d="M 124.9522,97.2500
124.8565,97.2690
124.7754,97.3232
124.7212,97.4043
124.7022,97.5000
124.7022,98.2000
124.7212,98.2957
124.7754,98.3768
124.8565,98.4310
124.9522,98.4500
125.8522,98.4500
125.9479,98.4310
126.0290,98.3768
126.0832,98.2957
126.1022,98.2000
126.1022,97.5000
126.0832,97.4043
126.0290,97.3232
125.9479,97.2690
125.8522,97.2500
Z" /> 
<path style="fill:#000000; fill-opacity:1.0000; stroke:none;fill-rule:evenodd;"
d="M 147.9022,87.8750
147.8832,87.7793
147.8290,87.6982
147.7479,87.6440
147.6522,87.6250
146.7272,87.6250
146.6315,87.6440
146.5504,87.6982
146.4962,87.7793
146.4772,87.8750
146.4772,89.1250
146.4962,89.2207
146.5504,89.3018
146.6315,89.3560
146.7272,89.3750
147.6522,89.3750
147.7479,89.3560
147.8290,89.3018
147.8832,89.2207
147.9022,89.1250
Z" /> 
<path style="fill:#000000; fill-opacity:1.0000; stroke:none;fill-rule:evenodd;"
d="M 144.9272,87.8750
144.9082,87.7793
144.8540,87.6982
144.7729,87.6440
144.6772,87.6250
143.7522,87.6250
143.6565,87.6440
143.5754,87.6982
143.5212,87.7793
143.5022,87.8750
143.5022,89.1250
143.5212,89.2207
143.5754,89.3018
143.6565,89.3560
143.7522,89.3750
144.6772,89.3750
144.7729,89.3560
144.8540,89.3018
144.9082,89.2207
144.9272,89.1250
Z" /> 
</g>
<g style="fill:#000000; fill-opacity:1.0000; stroke:none;">
<circle cx="139.7022" cy="88.1000" r="0.7500" /> 
<path style="fill:#000000; fill-opacity:1.0000; stroke:none;fill-rule:evenodd;"
d="M 122.4022,99.1000
122.3065,99.1190
122.2254,99.1732
122.1712,99.2543
122.1522,99.3500
122.1522,100.0500
122.1712,100.1457
122.2254,100.2268
122.3065,100.2810
122.4022,100.3000
123.3022,100.3000
123.3979,100.2810
123.4790,100.2268
123.5332,100.1457
123.5522,100.0500
123.5522,99.3500
123.5332,99.2543
123.4790,99.1732
123.3979,99.1190
123.3022,99.1000
Z" /> 
<path style="fill:#000000; fill-opacity:1.0000; stroke:none;fill-rule:evenodd;"
d="M 122.4022,101.1000
122.3065,101.1190
122.2254,101.1732
122.1712,101.2543
122.1522,101.3500
122.1522,102.0500
122.1712,102.1457
122.2254,102.2268
122.3065,102.2810
122.4022,102.3000
123.3022,102.3000
123.3979,102.2810
123.4790,102.2268
123.5332,102.1457
123.5522,102.0500
123.5522,101.3500
123.5332,101.2543
123.4790,101.1732
123.3979,101.1190
123.3022,101.1000
Z" /> 
</g>
<g style="fill:#000000; fill-opacity:1.0000; stroke:none;">
<circle cx="131.1022" cy="105.2250" r="0.7500" /> 
<path style="fill:#000000; fill-opacity:1.0000; stroke:none;fill-rule:evenodd;"
d="M 152.1247,87.1000
152.2204,87.0810
152.3015,87.0268
152.3557,86.9457
152.3747,86.8500
152.3747,85.1500
152.3557,85.0543
152.3015,84.9732
152.2204,84.9190
152.1247,84.9000
151.4247,84.9000
151.3290,84.9190
151.2479,84.9732
151.1937,85.0543
151.1747,85.1500
151.1747,86.8500
151.1937,86.9457
151.2479,87.0268
151.3290,87.0810
151.4247,87.1000
Z" /> 
<path style="fill:#000000; fill-opacity:1.0000; stroke:none;fill-rule:evenodd;"
d="M 152.1447,82.9000
152.2404,82.8810
152.3215,82.8268
152.3757,82.7457
152.3947,82.6500
152.3947,76.7500
152.3757,76.6543
152.3215,76.5732
152.2404,76.5190
152.1447,76.5000
146.8447,76.5000
146.7490,76.5190
146.6679,76.5732
146.6137,76.6543
146.5947,76.7500
146.5947,82.6500
146.6137,82.7457
146.6679,82.8268
146.7490,82.8810
146.8447,82.9000
Z" /> 
<path style="fill:#000000; fill-opacity:1.0000; stroke:none;fill-rule:evenodd;"
d="M 147.5647,87.1000
147.6604,87.0810
147.7415,87.0268
147.7957,86.9457
147.8147,86.8500
147.8147,85.1500
147.7957,85.0543
147.7415,84.9732
147.6604,84.9190
147.5647,84.9000
146.8647,84.9000
146.7690,84.9190
146.6879,84.9732
146.6337,85.0543
146.6147,85.1500
146.6147,86.8500
146.6337,86.9457
146.6879,87.0268
146.7690,87.0810
146.8647,87.1000
Z" /> 
<path style="fill:#000000; fill-opacity:1.0000; stroke:none;fill-rule:evenodd;"
d="M 155.0397,86.7125
155.1354,86.6935
155.2165,86.6393
155.2707,86.5582
155.2897,86.4625
155.2897,85.5375
155.2707,85.4418
155.2165,85.3607
155.1354,85.3065
155.0397,85.2875
153.7897,85.2875
153.6940,85.3065
153.6129,85.3607
153.5587,85.4418
153.5397,85.5375
153.5397,86.4625
153.5587,86.5582
153.6129,86.6393
153.6940,86.6935
153.7897,86.7125
Z" /> 
<path style="fill:#000000; fill-opacity:1.0000; stroke:none;fill-rule:evenodd;"
d="M 155.0397,83.7375
155.1354,83.7185
155.2165,83.6643
155.2707,83.5832
155.2897,83.4875
155.2897,82.5625
155.2707,82.4668
155.2165,82.3857
155.1354,82.3315
155.0397,82.3125
153.7897,82.3125
153.6940,82.3315
153.6129,82.3857
153.5587,82.4668
153.5397,82.5625
153.5397,83.4875
153.5587,83.5832
153.6129,83.6643
153.6940,83.7185
153.7897,83.7375
Z" /> 
</g>
<g style="fill:#000000; fill-opacity:1.0000; stroke:none;">
<circle cx="123.3522" cy="78.7750" r="0.7500" /> 
</g>
<g style="fill:#000000; fill-opacity:1.0000; stroke:none;">
<circle cx="113.0022" cy="78.1000" r="1.6000" /> 
<path style="fill:#000000; fill-opacity:1.0000; stroke:none;fill-rule:evenodd;"
d="M 140.2522,92.2250
140.2332,92.1293
140.1790,92.0482
140.0979,91.9940
140.0022,91.9750
139.3022,91.9750
139.2065,91.9940
139.1254,92.0482
139.0712,92.1293
139.0522,92.2250
139.0522,93.1250
139.0712,93.2207
139.1254,93.3018
139.2065,93.3560
139.3022,93.3750
140.0022,93.3750
140.0979,93.3560
140.1790,93.3018
140.2332,93.2207
140.2522,93.1250
Z" /> 
<path style="fill:#000000; fill-opacity:1.0000; stroke:none;fill-rule:evenodd;"
d="M 138.2522,92.2250
138.2332,92.1293
138.1790,92.0482
138.0979,91.9940
138.0022,91.9750
137.3022,91.9750
137.2065,91.9940
137.1254,92.0482
137.0712,92.1293
137.0522,92.2250
137.0522,93.1250
137.0712,93.2207
137.1254,93.3018
137.2065,93.3560
137.3022,93.3750
138.0022,93.3750
138.0979,93.3560
138.1790,93.3018
138.2332,93.2207
138.2522,93.1250
Z" /> 
<path style="fill:#000000; fill-opacity:1.0000; stroke:none;fill-rule:evenodd;"
d="M 135.2772,91.6500
135.3729,91.6310
135.4540,91.5768
135.5082,91.4957
135.5272,91.4000
135.5272,90.4750
135.5082,90.3793
135.4540,90.2982
135.3729,90.2440
135.2772,90.2250
134.0272,90.2250
133.9315,90.2440
133.8504,90.2982
133.7962,90.3793
133.7772,90.4750
133.7772,91.4000
133.7962,91.4957
133.8504,91.5768
133.9315,91.6310
134.0272,91.6500
Z" /> 
<path style="fill:#000000; fill-opacity:1.0000; stroke:none;fill-rule:evenodd;"
d="M 135.2772,88.6750
135.3729,88.6560
135.4540,88.6018
135.5082,88.5207
135.5272,88.4250
135.5272,87.5000
135.5082,87.4043
135.4540,87.3232
135.3729,87.2690
135.2772,87.2500
134.0272,87.2500
133.9315,87.2690
133.8504,87.3232
133.7962,87.4043
133.7772,87.5000
133.7772,88.4250
133.7962,88.5207
133.8504,88.6018
133.9315,88.6560
134.0272,88.6750
Z" /> 
</g>
<g style="fill:#000000; fill-opacity:1.0000; stroke:none;">
<circle cx="128.3772" cy="102.3250" r="0.7500" /> 
<path style="fill:#000000; fill-opacity:1.0000; stroke:none;fill-rule:evenodd;"
d="M 122.4022,95.2500
122.3065,95.2690
122.2254,95.3232
122.1712,95.4043
122.1522,95.5000
122.1522,96.2000
122.1712,96.2957
122.2254,96.3768
122.3065,96.4310
122.4022,96.4500
123.3022,96.4500
123.3979,96.4310
123.4790,96.3768
123.5332,96.2957
123.5522,96.2000
123.5522,95.5000
123.5332,95.4043
123.4790,95.3232
123.3979,95.2690
123.3022,95.2500
Z" /> 
<path style="fill:#000000; fill-opacity:1.0000; stroke:none;fill-rule:evenodd;"
d="M 122.4022,97.2500
122.3065,97.2690
122.2254,97.3232
122.1712,97.4043
122.1522,97.5000
122.1522,98.2000
122.1712,98.2957
122.2254,98.3768
122.3065,98.4310
122.4022,98.4500
123.3022,98.4500
123.3979,98.4310
123.4790,98.3768
123.5332,98.2957
123.5522,98.2000
123.5522,97.5000
123.5332,97.4043
123.4790,97.3232
123.3979,97.2690
123.3022,97.2500
Z" /> 
<path style="fill:#000000; fill-opacity:1.0000; stroke:none;fill-rule:evenodd;"
d="M 127.9522,91.8000
127.9712,91.8957
128.0254,91.9768
128.1065,92.0310
128.2022,92.0500
128.9022,92.0500
128.9979,92.0310
129.0790,91.9768
129.1332,91.8957
129.1522,91.8000
129.1522,90.9000
129.1332,90.8043
129.0790,90.7232
128.9979,90.6690
128.9022,90.6500
128.2022,90.6500
128.1065,90.6690
128.0254,90.7232
127.9712,90.8043
127.9522,90.9000
Z" /> 
<path style="fill:#000000; fill-opacity:1.0000; stroke:none;fill-rule:evenodd;"
d="M 129.9522,91.8000
129.9712,91.8957
130.0254,91.9768
130.1065,92.0310
130.2022,92.0500
130.9022,92.0500
130.9979,92.0310
131.0790,91.9768
131.1332,91.8957
131.1522,91.8000
131.1522,90.9000
131.1332,90.8043
131.0790,90.7232
130.9979,90.6690
130.9022,90.6500
130.2022,90.6500
130.1065,90.6690
130.0254,90.7232
129.9712,90.8043
129.9522,90.9000
Z" /> 
<path style="fill:#000000; fill-opacity:1.0000; stroke:none;fill-rule:evenodd;"
d="M 130.6522,100.3500
130.5565,100.3690
130.4754,100.4232
130.4212,100.5043
130.4022,100.6000
130.4022,101.3000
130.4212,101.3957
130.4754,101.4768
130.5565,101.5310
130.6522,101.5500
131.5522,101.5500
131.6479,101.5310
131.7290,101.4768
131.7832,101.3957
131.8022,101.3000
131.8022,100.6000
131.7832,100.5043
131.7290,100.4232
131.6479,100.3690
131.5522,100.3500
Z" /> 
<path style="fill:#000000; fill-opacity:1.0000; stroke:none;fill-rule:evenodd;"
d="M 130.6522,102.3500
130.5565,102.3690
130.4754,102.4232
130.4212,102.5043
130.4022,102.6000
130.4022,103.3000
130.4212,103.3957
130.4754,103.4768
130.5565,103.5310
130.6522,103.5500
131.5522,103.5500
131.6479,103.5310
131.7290,103.4768
131.7832,103.3957
131.8022,103.3000
131.8022,102.6000
131.7832,102.5043
131.7290,102.4232
131.6479,102.3690
131.5522,102.3500
Z" /> 
</g>
<g style="fill:#000000; fill-opacity:1.0000; stroke:none;">
<circle cx="120.1522" cy="101.9500" r="0.7500" /> 
</g>
<g style="fill:#000000; fill-opacity:1.0000; stroke:none;">
<circle cx="124.8022" cy="88.7500" r="0.7500" /> 
<path style="fill:#000000; fill-opacity:1.0000; stroke:none;fill-rule:evenodd;"
d="M 149.7022,95.9500
149.7212,96.0457
149.7754,96.1268
149.8565,96.1810
149.9522,96.2000
150.6522,96.2000
150.7479,96.1810
150.8290,96.1268
150.8832,96.0457
150.9022,95.9500
150.9022,95.0500
150.8832,94.9543
150.8290,94.8732
150.7479,94.8190
150.6522,94.8000
149.9522,94.8000
149.8565,94.8190
149.7754,94.8732
149.7212,94.9543
149.7022,95.0500
Z" /> 
<path style="fill:#000000; fill-opacity:1.0000; stroke:none;fill-rule:evenodd;"
d="M 151.7022,95.9500
151.7212,96.0457
151.7754,96.1268
151.8565,96.1810
151.9522,96.2000
152.6522,96.2000
152.7479,96.1810
152.8290,96.1268
152.8832,96.0457
152.9022,95.9500
152.9022,95.0500
152.8832,94.9543
152.8290,94.8732
152.7479,94.8190
152.6522,94.8000
151.9522,94.8000
151.8565,94.8190
151.7754,94.8732
151.7212,94.9543
151.7022,95.0500
Z" /> 
<path style="fill:#000000; fill-opacity:1.0000; stroke:none;fill-rule:evenodd;"
d="M 140.2772,90.1500
140.2582,90.0543
140.2040,89.9732
140.1229,89.9190
140.0272,89.9000
139.3272,89.9000
139.2315,89.9190
139.1504,89.9732
139.0962,90.0543
139.0772,90.1500
139.0772,91.0500
139.0962,91.1457
139.1504,91.2268
139.2315,91.2810
139.3272,91.3000
140.0272,91.3000
140.1229,91.2810
140.2040,91.2268
140.2582,91.1457
140.2772,91.0500
Z" /> 
<path style="fill:#000000; fill-opacity:1.0000; stroke:none;fill-rule:evenodd;"
d="M 138.2772,90.1500
138.2582,90.0543
138.2040,89.9732
138.1229,89.9190
138.0272,89.9000
137.3272,89.9000
137.2315,89.9190
137.1504,89.9732
137.0962,90.0543
137.0772,90.1500
137.0772,91.0500
137.0962,91.1457
137.1504,91.2268
137.2315,91.2810
137.3272,91.3000
138.0272,91.3000
138.1229,91.2810
138.2040,91.2268
138.2582,91.1457
138.2772,91.0500
Z" /> 
<path style="fill:#000000; fill-opacity:1.0000; stroke:none;fill-rule:evenodd;"
d="M 128.1022,92.7250
128.0448,92.7364
127.9961,92.7689
127.9636,92.8176
127.9522,92.8750
127.9522,94.5250
127.9636,94.5824
127.9961,94.6311
128.0448,94.6636
128.1022,94.6750
128.4022,94.6750
128.4596,94.6636
128.5083,94.6311
128.5408,94.5824
128.5522,94.5250
128.5522,92.8750
128.5408,92.8176
128.5083,92.7689
128.4596,92.7364
128.4022,92.7250
Z" /> 
<path style="fill:#000000; fill-opacity:1.0000; stroke:none;fill-rule:evenodd;"
d="M 129.3722,92.7250
129.3148,92.7364
129.2661,92.7689
129.2336,92.8176
129.2222,92.8750
129.2222,94.5250
129.2336,94.5824
129.2661,94.6311
129.3148,94.6636
129.3722,94.6750
129.6722,94.6750
129.7296,94.6636
129.7783,94.6311
129.8108,94.5824
129.8222,94.5250
129.8222,92.8750
129.8108,92.8176
129.7783,92.7689
129.7296,92.7364
129.6722,92.7250
Z" /> 
<path style="fill:#000000; fill-opacity:1.0000; stroke:none;fill-rule:evenodd;"
d="M 130.6422,92.7250
130.5848,92.7364
130.5361,92.7689
130.5036,92.8176
130.4922,92.8750
130.4922,94.5250
130.5036,94.5824
130.5361,94.6311
130.5848,94.6636
130.6422,94.6750
130.9422,94.6750
130.9996,94.6636
131.0483,94.6311
131.0808,94.5824
131.0922,94.5250
131.0922,92.8750
131.0808,92.8176
131.0483,92.7689
130.9996,92.7364
130.9422,92.7250
Z" /> 
<path style="fill:#000000; fill-opacity:1.0000; stroke:none;fill-rule:evenodd;"
d="M 131.9122,92.7250
131.8548,92.7364
131.8061,92.7689
131.7736,92.8176
131.7622,92.8750
131.7622,94.5250
131.7736,94.5824
131.8061,94.6311
131.8548,94.6636
131.9122,94.6750
132.2122,94.6750
132.2696,94.6636
132.3183,94.6311
132.3508,94.5824
132.3622,94.5250
132.3622,92.8750
132.3508,92.8176
132.3183,92.7689
132.2696,92.7364
132.2122,92.7250
Z" /> 
<path style="fill:#000000; fill-opacity:1.0000; stroke:none;fill-rule:evenodd;"
d="M 133.1822,92.7250
133.1248,92.7364
133.0761,92.7689
133.0436,92.8176
133.0322,92.8750
133.0322,94.5250
133.0436,94.5824
133.0761,94.6311
133.1248,94.6636
133.1822,94.6750
133.4822,94.6750
133.5396,94.6636
133.5883,94.6311
133.6208,94.5824
133.6322,94.5250
133.6322,92.8750
133.6208,92.8176
133.5883,92.7689
133.5396,92.7364
133.4822,92.7250
Z" /> 
<path style="fill:#000000; fill-opacity:1.0000; stroke:none;fill-rule:evenodd;"
d="M 134.4522,92.7250
134.3948,92.7364
134.3461,92.7689
134.3136,92.8176
134.3022,92.8750
134.3022,94.5250
134.3136,94.5824
134.3461,94.6311
134.3948,94.6636
134.4522,94.6750
134.7522,94.6750
134.8096,94.6636
134.8583,94.6311
134.8908,94.5824
134.9022,94.5250
134.9022,92.8750
134.8908,92.8176
134.8583,92.7689
134.8096,92.7364
134.7522,92.7250
Z" /> 
<path style="fill:#000000; fill-opacity:1.0000; stroke:none;fill-rule:evenodd;"
d="M 135.7222,92.7250
135.6648,92.7364
135.6161,92.7689
135.5836,92.8176
135.5722,92.8750
135.5722,94.5250
135.5836,94.5824
135.6161,94.6311
135.6648,94.6636
135.7222,94.6750
136.0222,94.6750
136.0796,94.6636
136.1283,94.6311
136.1608,94.5824
136.1722,94.5250
136.1722,92.8750
136.1608,92.8176
136.1283,92.7689
136.0796,92.7364
136.0222,92.7250
Z" /> 
<path style="fill:#000000; fill-opacity:1.0000; stroke:none;fill-rule:evenodd;"
d="M 135.7222,97.6750
135.6648,97.6864
135.6161,97.7189
135.5836,97.7676
135.5722,97.8250
135.5722,99.4750
135.5836,99.5324
135.6161,99.5811
135.6648,99.6136
135.7222,99.6250
136.0222,99.6250
136.0796,99.6136
136.1283,99.5811
136.1608,99.5324
136.1722,99.4750
136.1722,97.8250
136.1608,97.7676
136.1283,97.7189
136.0796,97.6864
136.0222,97.6750
Z" /> 
<path style="fill:#000000; fill-opacity:1.0000; stroke:none;fill-rule:evenodd;"
d="M 134.4522,97.6750
134.3948,97.6864
134.3461,97.7189
134.3136,97.7676
134.3022,97.8250
134.3022,99.4750
134.3136,99.5324
134.3461,99.5811
134.3948,99.6136
134.4522,99.6250
134.7522,99.6250
134.8096,99.6136
134.8583,99.5811
134.8908,99.5324
134.9022,99.4750
134.9022,97.8250
134.8908,97.7676
134.8583,97.7189
134.8096,97.6864
134.7522,97.6750
Z" /> 
<path style="fill:#000000; fill-opacity:1.0000; stroke:none;fill-rule:evenodd;"
d="M 133.1822,97.6750
133.1248,97.6864
133.0761,97.7189
133.0436,97.7676
133.0322,97.8250
133.0322,99.4750
133.0436,99.5324
133.0761,99.5811
133.1248,99.6136
133.1822,99.6250
133.4822,99.6250
133.5396,99.6136
133.5883,99.5811
133.6208,99.5324
133.6322,99.4750
133.6322,97.8250
133.6208,97.7676
133.5883,97.7189
133.5396,97.6864
133.4822,97.6750
Z" /> 
<path style="fill:#000000; fill-opacity:1.0000; stroke:none;fill-rule:evenodd;"
d="M 131.9122,97.6750
131.8548,97.6864
131.8061,97.7189
131.7736,97.7676
131.7622,97.8250
131.7622,99.4750
131.7736,99.5324
131.8061,99.5811
131.8548,99.6136
131.9122,99.6250
132.2122,99.6250
132.2696,99.6136
132.3183,99.5811
132.3508,99.5324
132.3622,99.4750
132.3622,97.8250
132.3508,97.7676
132.3183,97.7189
132.2696,97.6864
132.2122,97.6750
Z" /> 
<path style="fill:#000000; fill-opacity:1.0000; stroke:none;fill-rule:evenodd;"
d="M 130.6422,97.6750
130.5848,97.6864
130.5361,97.7189
130.5036,97.7676
130.4922,97.8250
130.4922,99.4750
130.5036,99.5324
130.5361,99.5811
130.5848,99.6136
130.6422,99.6250
130.9422,99.6250
130.9996,99.6136
131.0483,99.5811
131.0808,99.5324
131.0922,99.4750
131.0922,97.8250
131.0808,97.7676
131.0483,97.7189
130.9996,97.6864
130.9422,97.6750
Z" /> 
<path style="fill:#000000; fill-opacity:1.0000; stroke:none;fill-rule:evenodd;"
d="M 129.3722,97.6750
129.3148,97.6864
129.2661,97.7189
129.2336,97.7676
129.2222,97.8250
129.2222,99.4750
129.2336,99.5324
129.2661,99.5811
129.3148,99.6136
129.3722,99.6250
129.6722,99.6250
129.7296,99.6136
129.7783,99.5811
129.8108,99.5324
129.8222,99.4750
129.8222,97.8250
129.8108,97.7676
129.7783,97.7189
129.7296,97.6864
129.6722,97.6750
Z" /> 
<path style="fill:#000000; fill-opacity:1.0000; stroke:none;fill-rule:evenodd;"
d="M 128.1022,97.6750
128.0448,97.6864
127.9961,97.7189
127.9636,97.7676
127.9522,97.8250
127.9522,99.4750
127.9636,99.5324
127.9961,99.5811
128.0448,99.6136
128.1022,99.6250
128.4022,99.6250
128.4596,99.6136
128.5083,99.5811
128.5408,99.5324
128.5522,99.4750
128.5522,97.8250
128.5408,97.7676
128.5083,97.7189
128.4596,97.6864
128.4022,97.6750
Z" /> 
<path style="fill:#000000; fill-opacity:1.0000; stroke:none;fill-rule:evenodd;"
d="M 151.0022,88.3000
151.0022,89.9000
152.6022,89.9000
152.6022,88.3000
Z" /> 
</g>
<g style="fill:#000000; fill-opacity:1.0000; stroke:none;">
<circle cx="154.3022" cy="89.1000" r="0.8000" /> 
<path style="fill:#000000; fill-opacity:1.0000; stroke:none;fill-rule:evenodd;"
d="M 157.6147,96.4000
157.6147,94.6000
155.8147,94.6000
155.8147,96.4000
Z" /> 
</g>
<g style="fill:#000000; fill-opacity:1.0000; stroke:none;">
<circle cx="154.1747" cy="95.5000" r="0.9000" /> 
<path style="fill:#000000; fill-opacity:1.0000; stroke:none;fill-rule:evenodd;"
d="M 145.6272,89.7250
145.6272,91.3250
147.2272,91.3250
147.2272,89.7250
Z" /> 
</g>
<g style="fill:#000000; fill-opacity:1.0000; stroke:none;">
<circle cx="148.9272" cy="90.5250" r="0.8000" /> 
</g>
<g style="fill:#000000; fill-opacity:1.0000; stroke:none;">
<circle cx="120.8522" cy="82.6000" r="0.7200" /> 
</g>
<g style="fill:#000000; fill-opacity:1.0000; stroke:none;">
<circle cx="123.3922" cy="82.6000" r="0.7200" /> 
</g>
<g style="fill:#000000; fill-opacity:1.0000; stroke:none;">
<circle cx="125.9322" cy="82.6000" r="0.7200" /> 
</g>
<g style="fill:#000000; fill-opacity:1.0000; stroke:none;">
<circle cx="146.2022" cy="102.7500" r="1.7500" /> 
</g>
<g style="fill:#000000; fill-opacity:1.0000; stroke:none;">
<circle cx="142.7622" cy="106.1900" r="1.7500" /> 
</g>
<g style="fill:#000000; fill-opacity:1.0000; stroke:none;">
<circle cx="142.7622" cy="99.3100" r="1.7500" /> 
</g>
<g style="fill:#000000; fill-opacity:1.0000; stroke:none;">
<circle cx="149.6422" cy="106.1900" r="1.7500" /> 
</g>
<g style="fill:#000000; fill-opacity:1.0000; stroke:none;">
<circle cx="149.6422" cy="99.3100" r="1.7500" /> 
</g>
<g style="fill:#000000; fill-opacity:1.0000; stroke:none;">
<circle cx="115.8022" cy="93.6500" r="1.7500" /> 
</g>
<g style="fill:#000000; fill-opacity:1.0000; stroke:none;">
<circle cx="112.3622" cy="97.0900" r="1.7500" /> 
</g>
<g style="fill:#000000; fill-opacity:1.0000; stroke:none;">
<circle cx="112.3622" cy="90.2100" r="1.7500" /> 
</g>
<g style="fill:#000000; fill-opacity:1.0000; stroke:none;">
<circle cx="119.2422" cy="97.0900" r="1.7500" /> 
</g>
<g style="fill:#000000; fill-opacity:1.0000; stroke:none;">
<circle cx="119.2422" cy="90.2100" r="1.7500" /> 
<path style="fill:#000000; fill-opacity:1.0000; stroke:none;fill-rule:evenodd;"
d="M 126.3522,94.5000
126.3522,92.9000
124.7522,92.9000
124.7522,94.5000
Z" /> 
</g>
<g style="fill:#000000; fill-opacity:1.0000; stroke:none;">
<circle cx="123.0522" cy="93.7000" r="0.8000" /> 
<path style="fill:#000000; fill-opacity:1.0000; stroke:none;fill-rule:evenodd;"
d="M 130.6073,89.5500
130.6073,87.9500
129.0073,87.9500
129.0073,89.5500
Z" /> 
</g>
<g style="fill:#000000; fill-opacity:1.0000; stroke:none;">
<circle cx="127.3073" cy="88.7500" r="0.8000" /> 
</g>
<g style="fill:#000000; fill-opacity:1.0000; stroke:none;">
<circle cx="134.5522" cy="81.1000" r="1.7500" /> 
</g>
<g style="fill:#000000; fill-opacity:1.0000; stroke:none;">
<circle cx="131.1122" cy="84.5400" r="1.7500" /> 
</g>
<g style="fill:#000000; fill-opacity:1.0000; stroke:none;">
<circle cx="131.1122" cy="77.6600" r="1.7500" /> 
</g>
<g style="fill:#000000; fill-opacity:1.0000; stroke:none;">
<circle cx="137.9922" cy="84.5400" r="1.7500" /> 
</g>
<g style="fill:#000000; fill-opacity:1.0000; stroke:none;">
<circle cx="137.9922" cy="77.6600" r="1.7500" /> 
<path style="fill:#000000; fill-opacity:1.0000; stroke:none;fill-rule:evenodd;"
d="M 141.6022,96.1500
143.2022,96.1500
143.2022,94.5500
141.6022,94.5500
Z" /> 
</g>
<g style="fill:#000000; fill-opacity:1.0000; stroke:none;">
<circle cx="142.4022" cy="92.8500" r="0.8000" /> 
<path style="fill:#000000; fill-opacity:1.0000; stroke:none;fill-rule:evenodd;"
d="M 156.3647,80.0900
156.3647,78.3900
154.6647,78.3900
154.6647,80.0900
Z" /> 
</g>
<g style="fill:#000000; fill-opacity:1.0000; stroke:none;">
<circle cx="155.5147" cy="76.7000" r="0.8500" /> 
</g> 
</svg>
