<?xml version="1.0" standalone="no"?>
 <!DOCTYPE svg PUBLIC "-//W3C//DTD SVG 1.1//EN" 
 "http://www.w3.org/Graphics/SVG/1.1/DTD/svg11.dtd"> 
<svg
  xmlns:svg="http://www.w3.org/2000/svg"
  xmlns="http://www.w3.org/2000/svg"
  xmlns:xlink="http://www.w3.org/1999/xlink"
  version="1.1"
  width="297.0022mm" height="210.0072mm" viewBox="0.0000 0.0000 297.0022 210.0072">
<title>SVG Image created as modulador_sicom-B_Cu.svg date 2024/08/24 15:47:16 </title>
  <desc>Image generated by PCBNEW </desc>
<g style="fill:#000000; fill-opacity:1.0000;stroke:#000000; stroke-opacity:1.0000;
stroke-linecap:round; stroke-linejoin:round;"
 transform="translate(0 0) scale(1 1)">
</g>
<g style="fill:#000000; fill-opacity:1.0000; 
stroke:#000000; stroke-width:0.0212; stroke-opacity:1; 
stroke-linecap:round; stroke-linejoin:round;">
<rect x="131.339250" y="68.521750" width="76.510750" height="47.026500" rx="0.000000" />
</g>
<g style="fill:none; 
stroke:#FFFFFF; stroke-width:0.3000; stroke-opacity:1; 
stroke-linecap:round; stroke-linejoin:round;">
<text x="202.8500" y="93.4250"
transform="scale(-1 1) translate(-405.700000 0)"
textLength="15.1714" font-size="2.0000" lengthAdjust="spacingAndGlyphs"
text-anchor="start" opacity="0" stroke-opacity="0">MOD BOTTOM</text>
<g class="stroked-text"><desc>MOD BOTTOM</desc>
<path d="M202.2955 93.2258
L202.2955 91.7258
" />
<path d="M202.2955 91.7258
L201.7955 92.7973
" />
<path d="M201.7955 92.7973
L201.2955 91.7258
" />
<path d="M201.2955 91.7258
L201.2955 93.2258
" />
<path d="M200.2955 91.7258
L200.0098 91.7258
" />
<path d="M200.0098 91.7258
L199.8669 91.7973
" />
<path d="M199.8669 91.7973
L199.7241 91.9401
" />
<path d="M199.7241 91.9401
L199.6526 92.2258
" />
<path d="M199.6526 92.2258
L199.6526 92.7258
" />
<path d="M199.6526 92.7258
L199.7241 93.0115
" />
<path d="M199.7241 93.0115
L199.8669 93.1544
" />
<path d="M199.8669 93.1544
L200.0098 93.2258
" />
<path d="M200.0098 93.2258
L200.2955 93.2258
" />
<path d="M200.2955 93.2258
L200.4383 93.1544
" />
<path d="M200.4383 93.1544
L200.5812 93.0115
" />
<path d="M200.5812 93.0115
L200.6526 92.7258
" />
<path d="M200.6526 92.7258
L200.6526 92.2258
" />
<path d="M200.6526 92.2258
L200.5812 91.9401
" />
<path d="M200.5812 91.9401
L200.4383 91.7973
" />
<path d="M200.4383 91.7973
L200.2955 91.7258
" />
<path d="M199.0098 93.2258
L199.0098 91.7258
" />
<path d="M199.0098 91.7258
L198.6526 91.7258
" />
<path d="M198.6526 91.7258
L198.4383 91.7973
" />
<path d="M198.4383 91.7973
L198.2955 91.9401
" />
<path d="M198.2955 91.9401
L198.2241 92.0830
" />
<path d="M198.2241 92.0830
L198.1526 92.3687
" />
<path d="M198.1526 92.3687
L198.1526 92.5830
" />
<path d="M198.1526 92.5830
L198.2241 92.8687
" />
<path d="M198.2241 92.8687
L198.2955 93.0115
" />
<path d="M198.2955 93.0115
L198.4383 93.1544
" />
<path d="M198.4383 93.1544
L198.6526 93.2258
" />
<path d="M198.6526 93.2258
L199.0098 93.2258
" />
<path d="M195.8669 92.4401
L195.6526 92.5115
" />
<path d="M195.6526 92.5115
L195.5812 92.5830
" />
<path d="M195.5812 92.5830
L195.5098 92.7258
" />
<path d="M195.5098 92.7258
L195.5098 92.9401
" />
<path d="M195.5098 92.9401
L195.5812 93.0830
" />
<path d="M195.5812 93.0830
L195.6526 93.1544
" />
<path d="M195.6526 93.1544
L195.7955 93.2258
" />
<path d="M195.7955 93.2258
L196.3669 93.2258
" />
<path d="M196.3669 93.2258
L196.3669 91.7258
" />
<path d="M196.3669 91.7258
L195.8669 91.7258
" />
<path d="M195.8669 91.7258
L195.7241 91.7973
" />
<path d="M195.7241 91.7973
L195.6526 91.8687
" />
<path d="M195.6526 91.8687
L195.5812 92.0115
" />
<path d="M195.5812 92.0115
L195.5812 92.1544
" />
<path d="M195.5812 92.1544
L195.6526 92.2973
" />
<path d="M195.6526 92.2973
L195.7241 92.3687
" />
<path d="M195.7241 92.3687
L195.8669 92.4401
" />
<path d="M195.8669 92.4401
L196.3669 92.4401
" />
<path d="M194.5812 91.7258
L194.2955 91.7258
" />
<path d="M194.2955 91.7258
L194.1526 91.7973
" />
<path d="M194.1526 91.7973
L194.0098 91.9401
" />
<path d="M194.0098 91.9401
L193.9383 92.2258
" />
<path d="M193.9383 92.2258
L193.9383 92.7258
" />
<path d="M193.9383 92.7258
L194.0098 93.0115
" />
<path d="M194.0098 93.0115
L194.1526 93.1544
" />
<path d="M194.1526 93.1544
L194.2955 93.2258
" />
<path d="M194.2955 93.2258
L194.5812 93.2258
" />
<path d="M194.5812 93.2258
L194.7241 93.1544
" />
<path d="M194.7241 93.1544
L194.8669 93.0115
" />
<path d="M194.8669 93.0115
L194.9383 92.7258
" />
<path d="M194.9383 92.7258
L194.9383 92.2258
" />
<path d="M194.9383 92.2258
L194.8669 91.9401
" />
<path d="M194.8669 91.9401
L194.7241 91.7973
" />
<path d="M194.7241 91.7973
L194.5812 91.7258
" />
<path d="M193.5098 91.7258
L192.6526 91.7258
" />
<path d="M193.0812 93.2258
L193.0812 91.7258
" />
<path d="M192.3669 91.7258
L191.5098 91.7258
" />
<path d="M191.9383 93.2258
L191.9383 91.7258
" />
<path d="M190.7241 91.7258
L190.4383 91.7258
" />
<path d="M190.4383 91.7258
L190.2955 91.7973
" />
<path d="M190.2955 91.7973
L190.1526 91.9401
" />
<path d="M190.1526 91.9401
L190.0812 92.2258
" />
<path d="M190.0812 92.2258
L190.0812 92.7258
" />
<path d="M190.0812 92.7258
L190.1526 93.0115
" />
<path d="M190.1526 93.0115
L190.2955 93.1544
" />
<path d="M190.2955 93.1544
L190.4383 93.2258
" />
<path d="M190.4383 93.2258
L190.7241 93.2258
" />
<path d="M190.7241 93.2258
L190.8669 93.1544
" />
<path d="M190.8669 93.1544
L191.0098 93.0115
" />
<path d="M191.0098 93.0115
L191.0812 92.7258
" />
<path d="M191.0812 92.7258
L191.0812 92.2258
" />
<path d="M191.0812 92.2258
L191.0098 91.9401
" />
<path d="M191.0098 91.9401
L190.8669 91.7973
" />
<path d="M190.8669 91.7973
L190.7241 91.7258
" />
<path d="M189.4383 93.2258
L189.4383 91.7258
" />
<path d="M189.4383 91.7258
L188.9383 92.7973
" />
<path d="M188.9383 92.7973
L188.4383 91.7258
" />
<path d="M188.4383 91.7258
L188.4383 93.2258
" />
</g></g>
<g style="fill:#FFFFFF; fill-opacity:1.0000; stroke:none;">
<circle cx="151.9500" cy="77.9500" r="0.7500" /> 
</g>
<g style="fill:#FFFFFF; fill-opacity:1.0000; stroke:none;">
<circle cx="152.1000" cy="81.4000" r="0.7500" /> 
</g>
<g style="fill:#FFFFFF; fill-opacity:1.0000; stroke:none;">
<circle cx="142.2000" cy="92.2000" r="0.7500" /> 
</g>
<g style="fill:#FFFFFF; fill-opacity:1.0000; stroke:none;">
<circle cx="151.8500" cy="93.4000" r="0.7500" /> 
</g>
<g style="fill:#FFFFFF; fill-opacity:1.0000; stroke:none;">
<circle cx="157.3000" cy="88.1000" r="0.7500" /> 
</g>
<g style="fill:#FFFFFF; fill-opacity:1.0000; stroke:none;">
<circle cx="165.9000" cy="105.2250" r="0.7500" /> 
</g>
<g style="fill:#FFFFFF; fill-opacity:1.0000; stroke:none;">
<circle cx="173.6500" cy="78.7750" r="0.7500" /> 
</g>
<g style="fill:#FFFFFF; fill-opacity:1.0000; stroke:none;">
<circle cx="168.6250" cy="102.3250" r="0.7500" /> 
</g>
<g style="fill:#FFFFFF; fill-opacity:1.0000; stroke:none;">
<circle cx="176.8500" cy="101.9500" r="0.7500" /> 
</g>
<g style="fill:#FFFFFF; fill-opacity:1.0000; stroke:none;">
<circle cx="172.2000" cy="88.7500" r="0.7500" /> 
<path style="fill:#FFFFFF; fill-opacity:1.0000; stroke:none;fill-rule:evenodd;"
d="M 146.0000,88.3000
146.0000,89.9000
144.4000,89.9000
144.4000,88.3000
Z" /> 
</g>
<g style="fill:#FFFFFF; fill-opacity:1.0000; stroke:none;">
<circle cx="142.7000" cy="89.1000" r="0.8000" /> 
<path style="fill:#FFFFFF; fill-opacity:1.0000; stroke:none;fill-rule:evenodd;"
d="M 139.3875,96.4000
139.3875,94.6000
141.1875,94.6000
141.1875,96.4000
Z" /> 
</g>
<g style="fill:#FFFFFF; fill-opacity:1.0000; stroke:none;">
<circle cx="142.8275" cy="95.5000" r="0.9000" /> 
<path style="fill:#FFFFFF; fill-opacity:1.0000; stroke:none;fill-rule:evenodd;"
d="M 151.3750,89.7250
151.3750,91.3250
149.7750,91.3250
149.7750,89.7250
Z" /> 
</g>
<g style="fill:#FFFFFF; fill-opacity:1.0000; stroke:none;">
<circle cx="148.0750" cy="90.5250" r="0.8000" /> 
</g>
<g style="fill:#FFFFFF; fill-opacity:1.0000; stroke:none;">
<circle cx="176.1500" cy="82.6000" r="0.7200" /> 
</g>
<g style="fill:#FFFFFF; fill-opacity:1.0000; stroke:none;">
<circle cx="173.6100" cy="82.6000" r="0.7200" /> 
</g>
<g style="fill:#FFFFFF; fill-opacity:1.0000; stroke:none;">
<circle cx="171.0700" cy="82.6000" r="0.7200" /> 
</g>
<g style="fill:#FFFFFF; fill-opacity:1.0000; stroke:none;">
<circle cx="150.8000" cy="102.7500" r="1.7500" /> 
</g>
<g style="fill:#FFFFFF; fill-opacity:1.0000; stroke:none;">
<circle cx="154.2400" cy="106.1900" r="1.7500" /> 
</g>
<g style="fill:#FFFFFF; fill-opacity:1.0000; stroke:none;">
<circle cx="154.2400" cy="99.3100" r="1.7500" /> 
</g>
<g style="fill:#FFFFFF; fill-opacity:1.0000; stroke:none;">
<circle cx="147.3600" cy="106.1900" r="1.7500" /> 
</g>
<g style="fill:#FFFFFF; fill-opacity:1.0000; stroke:none;">
<circle cx="147.3600" cy="99.3100" r="1.7500" /> 
</g>
<g style="fill:#FFFFFF; fill-opacity:1.0000; stroke:none;">
<circle cx="181.2000" cy="93.6500" r="1.7500" /> 
</g>
<g style="fill:#FFFFFF; fill-opacity:1.0000; stroke:none;">
<circle cx="184.6400" cy="97.0900" r="1.7500" /> 
</g>
<g style="fill:#FFFFFF; fill-opacity:1.0000; stroke:none;">
<circle cx="184.6400" cy="90.2100" r="1.7500" /> 
</g>
<g style="fill:#FFFFFF; fill-opacity:1.0000; stroke:none;">
<circle cx="177.7600" cy="97.0900" r="1.7500" /> 
</g>
<g style="fill:#FFFFFF; fill-opacity:1.0000; stroke:none;">
<circle cx="177.7600" cy="90.2100" r="1.7500" /> 
<path style="fill:#FFFFFF; fill-opacity:1.0000; stroke:none;fill-rule:evenodd;"
d="M 170.6500,94.5000
170.6500,92.9000
172.2500,92.9000
172.2500,94.5000
Z" /> 
</g>
<g style="fill:#FFFFFF; fill-opacity:1.0000; stroke:none;">
<circle cx="173.9500" cy="93.7000" r="0.8000" /> 
<path style="fill:#FFFFFF; fill-opacity:1.0000; stroke:none;fill-rule:evenodd;"
d="M 166.3949,89.5500
166.3949,87.9500
167.9949,87.9500
167.9949,89.5500
Z" /> 
</g>
<g style="fill:#FFFFFF; fill-opacity:1.0000; stroke:none;">
<circle cx="169.6949" cy="88.7500" r="0.8000" /> 
</g>
<g style="fill:#FFFFFF; fill-opacity:1.0000; stroke:none;">
<circle cx="162.4500" cy="81.1000" r="1.7500" /> 
</g>
<g style="fill:#FFFFFF; fill-opacity:1.0000; stroke:none;">
<circle cx="165.8900" cy="84.5400" r="1.7500" /> 
</g>
<g style="fill:#FFFFFF; fill-opacity:1.0000; stroke:none;">
<circle cx="165.8900" cy="77.6600" r="1.7500" /> 
</g>
<g style="fill:#FFFFFF; fill-opacity:1.0000; stroke:none;">
<circle cx="159.0100" cy="84.5400" r="1.7500" /> 
</g>
<g style="fill:#FFFFFF; fill-opacity:1.0000; stroke:none;">
<circle cx="159.0100" cy="77.6600" r="1.7500" /> 
<path style="fill:#FFFFFF; fill-opacity:1.0000; stroke:none;fill-rule:evenodd;"
d="M 155.4000,96.1500
153.8000,96.1500
153.8000,94.5500
155.4000,94.5500
Z" /> 
</g>
<g style="fill:#FFFFFF; fill-opacity:1.0000; stroke:none;">
<circle cx="154.6000" cy="92.8500" r="0.8000" /> 
<path style="fill:#FFFFFF; fill-opacity:1.0000; stroke:none;fill-rule:evenodd;"
d="M 140.6375,80.0900
140.6375,78.3900
142.3375,78.3900
142.3375,80.0900
Z" /> 
</g>
<g style="fill:#FFFFFF; fill-opacity:1.0000; stroke:none;">
<circle cx="141.4875" cy="76.7000" r="0.8500" /> 
</g>
<g style="fill:none; 
stroke:#FFFFFF; stroke-width:0.7000; stroke-opacity:1; 
stroke-linecap:round; stroke-linejoin:round;">
<path d="M165.8000 99.3250
L165.8000 105.1250
" />
<path d="M165.8000 105.1250
L165.9000 105.2250
" />
<path d="M157.3000 88.1000
L157.3000 90.8250
" />
<path d="M157.3000 90.8250
L165.8000 99.3250
" />
<path style="fill:#FFFFFF; fill-opacity:1.0000; stroke:none;fill-rule:evenodd;"
d="M 187.2425,74.8202
187.2883,74.8730
187.2995,74.9245
187.2995,108.6755
187.2798,108.7425
187.2270,108.7883
187.1755,108.7995
138.4245,108.7995
138.3575,108.7798
138.3117,108.7270
138.3005,108.6755
138.3005,105.1787
139.7495,105.1787
139.7495,105.4213
139.7812,105.6618
139.8439,105.8961
139.9368,106.1202
139.9368,106.1202
140.0581,106.3303
140.0581,106.3303
140.0581,106.3303
140.2057,106.5227
140.2057,106.5227
140.3773,106.6943
140.3773,106.6943
140.5697,106.8419
140.7798,106.9632
140.9698,107.0419
140.9963,107.0529
141.0039,107.0561
141.2382,107.1188
141.4186,107.1426
141.4787,107.1505
141.4787,107.1505
141.7213,107.1505
141.7694,107.1442
141.9618,107.1188
142.1961,107.0561
142.4202,106.9632
142.6303,106.8419
142.8227,106.6943
142.9943,106.5227
143.1419,106.3303
143.2229,106.1900
145.1052,106.1900
145.1245,106.4843
145.1245,106.4843
145.1820,106.7736
145.1820,106.7736
145.2768,107.0529
145.4073,107.3174
145.4073,107.3174
145.5711,107.5626
145.6004,107.5960
146.6824,106.5140
146.6954,106.5453
146.7774,106.6681
146.8819,106.7726
147.0047,106.8546
147.0360,106.8676
145.9540,107.9496
145.9873,107.9789
146.2326,108.1427
146.2326,108.1427
146.4971,108.2732
146.7764,108.3680
146.7764,108.3680
147.0657,108.4255
147.0657,108.4255
147.3600,108.4448
147.6543,108.4255
147.6543,108.4255
147.9436,108.3680
147.9436,108.3680
148.2229,108.2732
148.4874,108.1427
148.4874,108.1427
148.7326,107.9789
148.7660,107.9496
147.6840,106.8676
147.7153,106.8546
147.8381,106.7726
147.9426,106.6681
148.0246,106.5453
148.0376,106.5140
149.1196,107.5960
149.1489,107.5626
149.3127,107.3174
149.3127,107.3174
149.4432,107.0529
149.5380,106.7736
149.5380,106.7736
149.5955,106.4843
149.5955,106.4843
149.6148,106.1900
151.9852,106.1900
152.0045,106.4843
152.0045,106.4843
152.0620,106.7736
152.0620,106.7736
152.1568,107.0529
152.2873,107.3174
152.2873,107.3174
152.4511,107.5626
152.4804,107.5960
153.5624,106.5140
153.5754,106.5453
153.6574,106.6681
153.7619,106.7726
153.8847,106.8546
153.9160,106.8676
152.8340,107.9496
152.8673,107.9789
153.1126,108.1427
153.1126,108.1427
153.3771,108.2732
153.6564,108.3680
153.6564,108.3680
153.9457,108.4255
153.9457,108.4255
154.2400,108.4448
154.5343,108.4255
154.5343,108.4255
154.8236,108.3680
154.8236,108.3680
155.1029,108.2732
155.3674,108.1427
155.3674,108.1427
155.6126,107.9789
155.6460,107.9496
154.5640,106.8676
154.5953,106.8546
154.7181,106.7726
154.8226,106.6681
154.9046,106.5453
154.9176,106.5140
155.9996,107.5960
156.0289,107.5626
156.1927,107.3174
156.1927,107.3174
156.3232,107.0529
156.4180,106.7736
156.4180,106.7736
156.4755,106.4843
156.4755,106.4843
156.4948,106.1900
156.4755,105.8957
156.4755,105.8957
156.4180,105.6064
156.4180,105.6064
156.3232,105.3271
156.1927,105.0626
156.1927,105.0626
156.0289,104.8173
155.9996,104.7840
154.9176,105.8660
154.9046,105.8347
154.8226,105.7119
154.7181,105.6074
154.5953,105.5254
154.5640,105.5124
155.6460,104.4304
155.6126,104.4011
155.3674,104.2373
155.3674,104.2373
155.1029,104.1068
154.8236,104.0120
154.8236,104.0120
154.5343,103.9545
154.5343,103.9545
154.2400,103.9352
153.9457,103.9545
153.9457,103.9545
153.6564,104.0120
153.6564,104.0120
153.3771,104.1068
153.1126,104.2373
153.1126,104.2373
152.8673,104.4011
152.8673,104.4011
152.8340,104.4304
152.8340,104.4304
153.9160,105.5124
153.8847,105.5254
153.7619,105.6074
153.6574,105.7119
153.5754,105.8347
153.5624,105.8660
152.4804,104.7840
152.4804,104.7840
152.4511,104.8173
152.4511,104.8173
152.2873,105.0626
152.2873,105.0626
152.1568,105.3271
152.0620,105.6064
152.0620,105.6064
152.0045,105.8957
152.0045,105.8957
151.9852,106.1900
149.6148,106.1900
149.5955,105.8957
149.5955,105.8957
149.5380,105.6064
149.5380,105.6064
149.4432,105.3271
149.3127,105.0626
149.3127,105.0626
149.1489,104.8173
149.1196,104.7840
148.0376,105.8660
148.0246,105.8347
147.9426,105.7119
147.8381,105.6074
147.7153,105.5254
147.6840,105.5124
148.7660,104.4304
148.7326,104.4011
148.4874,104.2373
148.4874,104.2373
148.2229,104.1068
147.9436,104.0120
147.9436,104.0120
147.6543,103.9545
147.6543,103.9545
147.3600,103.9352
147.0657,103.9545
147.0657,103.9545
146.7764,104.0120
146.7764,104.0120
146.4971,104.1068
146.2326,104.2373
146.2326,104.2373
145.9873,104.4011
145.9873,104.4011
145.9540,104.4304
145.9540,104.4304
147.0360,105.5124
147.0047,105.5254
146.8819,105.6074
146.7774,105.7119
146.6954,105.8347
146.6824,105.8660
145.6004,104.7840
145.6004,104.7840
145.5711,104.8173
145.5711,104.8173
145.4073,105.0626
145.4073,105.0626
145.2768,105.3271
145.1820,105.6064
145.1820,105.6064
145.1245,105.8957
145.1245,105.8957
145.1052,106.1900
143.2229,106.1900
143.2632,106.1202
143.3561,105.8961
143.4188,105.6618
143.4505,105.4213
143.4505,105.1787
143.4188,104.9382
143.3561,104.7039
143.3558,104.7032
143.3442,104.6753
143.2632,104.4798
143.1419,104.2697
143.0293,104.1230
142.9943,104.0773
142.9943,104.0773
142.8227,103.9057
142.8227,103.9057
142.6303,103.7581
142.6303,103.7581
142.6303,103.7581
142.4202,103.6368
142.3630,103.6131
142.1961,103.5439
141.9618,103.4812
141.7213,103.4495
141.7213,103.4495
141.4787,103.4495
141.4787,103.4495
141.2382,103.4812
141.0039,103.5439
140.7798,103.6368
140.7798,103.6368
140.5697,103.7581
140.3773,103.9057
140.3773,103.9057
140.2057,104.0773
140.2057,104.0773
140.0581,104.2697
140.0581,104.2697
140.0581,104.2697
140.0537,104.2773
139.9368,104.4798
139.9368,104.4798
139.8439,104.7039
139.7812,104.9382
139.7495,105.1787
138.3005,105.1787
138.3005,102.7500
148.5447,102.7500
148.5447,102.7500
148.5640,103.0444
148.5640,103.0444
148.5640,103.0444
148.5640,103.0444
148.6215,103.3337
148.6215,103.3337
148.7163,103.6131
148.8468,103.8777
148.8468,103.8777
149.0107,104.1230
149.2052,104.3448
149.4270,104.5393
149.5140,104.5974
149.6723,104.7032
149.9369,104.8337
150.2163,104.9285
150.5056,104.9860
150.5339,104.9879
150.8000,105.0053
150.8000,105.0053
150.8000,105.0053
151.0357,104.9899
151.0944,104.9860
151.3837,104.9285
151.6631,104.8337
151.9277,104.7032
152.1730,104.5393
152.3948,104.3448
152.5893,104.1230
152.7532,103.8777
152.8837,103.6131
152.9785,103.3337
153.0360,103.0444
153.0421,102.9524
153.0553,102.7500
153.0553,102.7500
153.0360,102.4556
153.0360,102.4556
152.9785,102.1663
152.8837,101.8869
152.7532,101.6223
152.5893,101.3770
152.5058,101.2819
152.3948,101.1552
152.1730,100.9607
151.9277,100.7968
151.9277,100.7968
151.6631,100.6663
151.3837,100.5715
151.3837,100.5715
151.3837,100.5715
151.0944,100.5140
151.0944,100.5140
151.0944,100.5140
150.8000,100.4947
150.8000,100.4947
150.5056,100.5140
150.5056,100.5140
150.5056,100.5140
150.5056,100.5140
150.5056,100.5140
150.2163,100.5715
150.2163,100.5715
149.9369,100.6663
149.6723,100.7968
149.4270,100.9607
149.2052,101.1552
149.0107,101.3770
148.8468,101.6223
148.7163,101.8869
148.6215,102.1663
148.6215,102.1663
148.5640,102.4556
148.5640,102.4556
148.5447,102.7500
138.3005,102.7500
138.3005,99.3100
145.1052,99.3100
145.1245,99.6043
145.1245,99.6043
145.1820,99.8936
145.1820,99.8936
145.2768,100.1729
145.4073,100.4374
145.4073,100.4374
145.5711,100.6826
145.6004,100.7160
146.6824,99.6340
146.6954,99.6653
146.7774,99.7881
146.8819,99.8926
147.0047,99.9746
147.0360,99.9876
145.9540,101.0696
145.9873,101.0989
146.2326,101.2627
146.2326,101.2627
146.4971,101.3932
146.7764,101.4880
146.7764,101.4880
147.0657,101.5455
147.0657,101.5455
147.3600,101.5648
147.6543,101.5455
147.6543,101.5455
147.9436,101.4880
147.9436,101.4880
148.2229,101.3932
148.4874,101.2627
148.4874,101.2627
148.7326,101.0989
148.7660,101.0696
147.6840,99.9876
147.7153,99.9746
147.8381,99.8926
147.9426,99.7881
148.0246,99.6653
148.0376,99.6340
149.1196,100.7160
149.1489,100.6826
149.3127,100.4374
149.3127,100.4374
149.4432,100.1729
149.5380,99.8936
149.5380,99.8936
149.5955,99.6043
149.5955,99.6043
149.6148,99.3100
151.9852,99.3100
152.0045,99.6043
152.0045,99.6043
152.0620,99.8936
152.0620,99.8936
152.1568,100.1729
152.2873,100.4374
152.2873,100.4374
152.4511,100.6826
152.4804,100.7160
153.5624,99.6340
153.5754,99.6653
153.6574,99.7881
153.7619,99.8926
153.8847,99.9746
153.9160,99.9876
152.8340,101.0696
152.8673,101.0989
153.1126,101.2627
153.1126,101.2627
153.3771,101.3932
153.6564,101.4880
153.6564,101.4880
153.9457,101.5455
153.9457,101.5455
154.2400,101.5648
154.5343,101.5455
154.5343,101.5455
154.8236,101.4880
154.8236,101.4880
155.1029,101.3932
155.3674,101.2627
155.3674,101.2627
155.6126,101.0989
155.6460,101.0696
154.5640,99.9876
154.5953,99.9746
154.7181,99.8926
154.8226,99.7881
154.9046,99.6653
154.9176,99.6340
155.9996,100.7160
156.0289,100.6826
156.1927,100.4374
156.1927,100.4374
156.3232,100.1729
156.4180,99.8936
156.4180,99.8936
156.4755,99.6043
156.4755,99.6043
156.4948,99.3100
156.4755,99.0157
156.4755,99.0157
156.4180,98.7264
156.4180,98.7264
156.3232,98.4471
156.1927,98.1826
156.1927,98.1826
156.0289,97.9373
155.9996,97.9040
154.9176,98.9860
154.9046,98.9547
154.8226,98.8319
154.7181,98.7274
154.5953,98.6454
154.5640,98.6324
155.6460,97.5504
155.6126,97.5211
155.3674,97.3573
155.3674,97.3573
155.1029,97.2268
154.8236,97.1320
154.8236,97.1320
154.5343,97.0745
154.5343,97.0745
154.2400,97.0552
153.9457,97.0745
153.9457,97.0745
153.6564,97.1320
153.6564,97.1320
153.3771,97.2268
153.1126,97.3573
153.1126,97.3573
152.8673,97.5211
152.8673,97.5211
152.8340,97.5504
152.8340,97.5504
153.9160,98.6324
153.8847,98.6454
153.7619,98.7274
153.6574,98.8319
153.5754,98.9547
153.5624,98.9860
152.4804,97.9040
152.4804,97.9040
152.4511,97.9373
152.4511,97.9373
152.2873,98.1826
152.2873,98.1826
152.1568,98.4471
152.0620,98.7264
152.0620,98.7264
152.0045,99.0157
152.0045,99.0157
151.9852,99.3100
149.6148,99.3100
149.5955,99.0157
149.5955,99.0157
149.5380,98.7264
149.5380,98.7264
149.4432,98.4471
149.3127,98.1826
149.3127,98.1826
149.1489,97.9373
149.1196,97.9040
148.0376,98.9860
148.0246,98.9547
147.9426,98.8319
147.8381,98.7274
147.7153,98.6454
147.6840,98.6324
148.7660,97.5504
148.7326,97.5211
148.4874,97.3573
148.4874,97.3573
148.2229,97.2268
147.9436,97.1320
147.9436,97.1320
147.6543,97.0745
147.6543,97.0745
147.3600,97.0552
147.0657,97.0745
147.0657,97.0745
146.7764,97.1320
146.7764,97.1320
146.4971,97.2268
146.2326,97.3573
146.2326,97.3573
145.9873,97.5211
145.9873,97.5211
145.9540,97.5504
145.9540,97.5504
147.0360,98.6324
147.0047,98.6454
146.8819,98.7274
146.7774,98.8319
146.6954,98.9547
146.6824,98.9860
145.6004,97.9040
145.6004,97.9040
145.5711,97.9373
145.5711,97.9373
145.4073,98.1826
145.4073,98.1826
145.2768,98.4471
145.1820,98.7264
145.1820,98.7264
145.1245,99.0157
145.1245,99.0157
145.1052,99.3100
138.3005,99.3100
138.3005,94.5522
138.8875,94.5522
138.8875,95.2500
139.9122,95.2500
139.8682,95.3263
139.8375,95.4408
139.8375,95.5592
139.8682,95.6737
139.9122,95.7500
138.8875,95.7500
138.8875,96.4478
138.8939,96.5074
138.8939,96.5074
138.9441,96.6421
138.9441,96.6421
139.0303,96.7572
139.0303,96.7572
139.1454,96.8434
139.1454,96.8434
139.2801,96.8936
139.2801,96.8936
139.3397,96.9000
139.3397,96.9000
140.0375,96.9000
140.0375,95.8753
140.1138,95.9193
140.2283,95.9500
140.3467,95.9500
140.4612,95.9193
140.5375,95.8753
140.5375,96.9000
141.2353,96.9000
141.2353,96.9000
141.2949,96.8936
141.2949,96.8936
141.4296,96.8434
141.4296,96.8434
141.5447,96.7572
141.5447,96.7572
141.6308,96.6421
141.6309,96.6421
141.6596,96.5651
141.7014,96.5091
141.7669,96.4847
141.8352,96.4996
141.8670,96.5244
141.8757,96.5339
141.8757,96.5339
141.8757,96.5339
142.0589,96.6765
142.0589,96.6765
142.0589,96.6765
142.2630,96.7869
142.3770,96.8261
142.4825,96.8623
142.4825,96.8623
142.4825,96.8623
142.7115,96.9005
142.7115,96.9005
142.9435,96.9005
142.9435,96.9005
143.1725,96.8623
143.3920,96.7869
143.5961,96.6765
143.6295,96.6505
143.7392,96.5651
143.7793,96.5339
143.9365,96.3632
144.0634,96.1688
144.1567,95.9563
144.2136,95.7313
144.2136,95.7313
144.2328,95.5000
144.2328,95.5000
144.2136,95.2687
144.2136,95.2687
144.1567,95.0437
144.0634,94.8312
143.9365,94.6369
143.9365,94.6368
143.9365,94.6368
143.7793,94.4661
143.7793,94.4661
143.7793,94.4661
143.7498,94.4431
151.1604,94.4431
151.2226,94.4867
151.4208,94.5791
151.4208,94.5791
151.6321,94.6357
151.6321,94.6357
151.8500,94.6548
151.8500,94.6548
152.0679,94.6357
152.0679,94.6357
152.2791,94.5791
152.2792,94.5791
152.4774,94.4867
152.4774,94.4867
152.5396,94.4431
151.8500,93.7536
151.8500,93.7536
151.1604,94.4431
143.7498,94.4431
143.5961,94.3235
143.5961,94.3235
143.3920,94.2131
143.3920,94.2131
143.1725,94.1377
142.9837,94.1062
142.9435,94.0995
142.7115,94.0995
142.6713,94.1062
142.4825,94.1377
142.2630,94.2131
142.2630,94.2131
142.0589,94.3235
142.0589,94.3235
141.8757,94.4661
141.8757,94.4661
141.8670,94.4756
141.8071,94.5116
141.7373,94.5095
141.6796,94.4699
141.6596,94.4349
141.6309,94.3579
141.6308,94.3579
141.5447,94.2428
141.5447,94.2428
141.4296,94.1566
141.4296,94.1566
141.2949,94.1064
141.2949,94.1064
141.2353,94.1000
140.5375,94.1000
140.5375,95.1247
140.4612,95.0807
140.3467,95.0500
140.2283,95.0500
140.1138,95.0807
140.0375,95.1247
140.0375,94.1000
139.3397,94.1000
139.2801,94.1064
139.2801,94.1064
139.1454,94.1566
139.1454,94.1566
139.0303,94.2428
139.0303,94.2428
138.9441,94.3579
138.9441,94.3579
138.8939,94.4926
138.8939,94.4926
138.8875,94.5522
138.3005,94.5522
138.3005,93.2431
141.5104,93.2431
141.5726,93.2867
141.7708,93.3791
141.7708,93.3791
141.9821,93.4357
141.9821,93.4357
142.2000,93.4548
142.2000,93.4548
142.4179,93.4357
142.4179,93.4357
142.5512,93.4000
150.5952,93.4000
150.5952,93.4000
150.6143,93.6179
150.6143,93.6179
150.6709,93.8291
150.6709,93.8292
150.7633,94.0274
150.8069,94.0896
151.4964,93.4000
151.4504,93.3539
151.5000,93.3539
151.5000,93.4461
151.5239,93.5351
151.5699,93.6149
151.6351,93.6801
151.7149,93.7261
151.8039,93.7500
151.8961,93.7500
151.9851,93.7261
152.0649,93.6801
152.1301,93.6149
152.1761,93.5351
152.2000,93.4461
152.2000,93.4000
152.2036,93.4000
152.2036,93.4000
152.8931,94.0896
152.9367,94.0274
152.9367,94.0274
153.0291,93.8292
153.0291,93.8291
153.0857,93.6179
153.0857,93.6179
153.1048,93.4000
153.1048,93.4000
153.0857,93.1821
153.0857,93.1821
153.0291,92.9708
153.0291,92.9708
152.9728,92.8500
153.2950,92.8500
153.2950,92.8500
153.3149,93.0766
153.3149,93.0766
153.3737,93.2963
153.3737,93.2963
153.4699,93.5025
153.5210,93.5755
154.2000,92.8964
154.2000,92.9027
154.2273,93.0044
154.2799,93.0956
154.3544,93.1701
154.4456,93.2227
154.5473,93.2500
154.5536,93.2500
153.8694,93.9342
153.8595,93.9832
153.8109,94.0334
153.7554,94.0480
153.7554,94.0491
153.7554,94.0491
153.7554,94.0491
153.7554,94.0493
153.7521,94.0495
153.6925,94.0559
153.5577,94.1062
153.5577,94.1062
153.4425,94.1925
153.4425,94.1925
153.3562,94.3077
153.3562,94.3077
153.3059,94.4425
153.3030,94.4699
153.2995,94.5021
153.2995,94.5021
153.2995,96.1979
153.2995,96.1979
153.3059,96.2575
153.3562,96.3923
153.3562,96.3923
153.4425,96.5075
153.4425,96.5075
153.5577,96.5938
153.5577,96.5938
153.6925,96.6441
153.6925,96.6441
153.6994,96.6448
153.7521,96.6505
155.4479,96.6505
155.5075,96.6441
155.6423,96.5938
155.7575,96.5075
155.8438,96.3923
155.8941,96.2575
155.9005,96.1979
155.9005,94.5021
155.8941,94.4425
155.8606,94.3527
155.8438,94.3077
155.8438,94.3077
155.7575,94.1925
155.7575,94.1925
155.6423,94.1062
155.6423,94.1062
155.5075,94.0559
155.5075,94.0559
155.4479,94.0495
155.4479,94.0495
155.4479,94.0495
155.4479,94.0495
155.4445,94.0493
155.4446,94.0478
155.3832,94.0298
155.3375,93.9770
155.3300,93.9335
154.6464,93.2500
154.6527,93.2500
154.7544,93.2227
154.8456,93.1701
154.9201,93.0956
154.9727,93.0044
155.0000,92.9027
155.0000,92.8964
155.6790,93.5755
155.7301,93.5025
155.8263,93.2963
155.8263,93.2963
155.8851,93.0766
155.8851,93.0766
155.9050,92.8500
155.9050,92.8500
155.8851,92.6234
155.8851,92.6234
155.8263,92.4037
155.8263,92.4037
155.7301,92.1975
155.7301,92.1975
155.6790,92.1245
155.0000,92.8036
155.0000,92.7973
154.9727,92.6956
154.9201,92.6044
154.8456,92.5299
154.7544,92.4773
154.6527,92.4500
154.6464,92.4500
155.3255,91.7710
155.2525,91.7199
155.0463,91.6237
155.0463,91.6237
154.8266,91.5649
154.8266,91.5649
154.6000,91.5450
154.6000,91.5450
154.3734,91.5649
154.3734,91.5649
154.1537,91.6237
154.1537,91.6237
153.9475,91.7199
153.9475,91.7199
153.8745,91.7710
153.8745,91.7710
154.5536,92.4500
154.5473,92.4500
154.4456,92.4773
154.3544,92.5299
154.2799,92.6044
154.2273,92.6956
154.2000,92.7973
154.2000,92.8036
153.5210,92.1245
153.5210,92.1245
153.4699,92.1975
153.4699,92.1975
153.3737,92.4037
153.3737,92.4037
153.3149,92.6234
153.3149,92.6234
153.2950,92.8500
152.9728,92.8500
152.9367,92.7726
152.9367,92.7726
152.8931,92.7104
152.8931,92.7104
152.2036,93.4000
152.2000,93.4000
152.2000,93.3539
152.1761,93.2649
152.1301,93.1851
152.0649,93.1199
151.9851,93.0739
151.8961,93.0500
151.8039,93.0500
151.7149,93.0739
151.6351,93.1199
151.5699,93.1851
151.5239,93.2649
151.5000,93.3539
151.4504,93.3539
150.8069,92.7104
150.7633,92.7726
150.6709,92.9708
150.6709,92.9708
150.6143,93.1821
150.6143,93.1821
150.5952,93.4000
142.5512,93.4000
142.6291,93.3791
142.6292,93.3791
142.8274,93.2867
142.8274,93.2867
142.8896,93.2431
142.2000,92.5536
142.2000,92.5536
141.5104,93.2431
138.3005,93.2431
138.3005,92.2000
140.9452,92.2000
140.9452,92.2000
140.9643,92.4179
140.9643,92.4179
141.0209,92.6291
141.0209,92.6292
141.1133,92.8274
141.1569,92.8896
141.8464,92.2000
141.8004,92.1539
141.8500,92.1539
141.8500,92.2461
141.8739,92.3351
141.9199,92.4149
141.9851,92.4801
142.0649,92.5261
142.1539,92.5500
142.2461,92.5500
142.3351,92.5261
142.4149,92.4801
142.4801,92.4149
142.5261,92.3351
142.5500,92.2461
142.5500,92.2000
142.5536,92.2000
142.5536,92.2000
143.2431,92.8896
143.2867,92.8274
143.2867,92.8274
143.3791,92.6292
143.3791,92.6291
143.4357,92.4179
143.4357,92.4179
143.4410,92.3569
151.1604,92.3569
151.8500,93.0464
151.8500,93.0464
152.5396,92.3569
152.4774,92.3133
152.2792,92.2209
152.2791,92.2209
152.0679,92.1643
152.0679,92.1643
151.8500,92.1452
151.8500,92.1452
151.6321,92.1643
151.6321,92.1643
151.4208,92.2209
151.4208,92.2209
151.2226,92.3133
151.1604,92.3569
143.4410,92.3569
143.4548,92.2000
143.4548,92.2000
143.4357,91.9821
143.4357,91.9821
143.3791,91.7708
143.3791,91.7708
143.2867,91.5726
143.2867,91.5726
143.2431,91.5104
143.2431,91.5104
142.5536,92.2000
142.5500,92.2000
142.5500,92.1539
142.5261,92.0649
142.4801,91.9851
142.4149,91.9199
142.3351,91.8739
142.2461,91.8500
142.1539,91.8500
142.0649,91.8739
141.9851,91.9199
141.9199,91.9851
141.8739,92.0649
141.8500,92.1539
141.8004,92.1539
141.1569,91.5104
141.1133,91.5726
141.0209,91.7708
141.0209,91.7708
140.9643,91.9821
140.9643,91.9821
140.9452,92.2000
138.3005,92.2000
138.3005,91.1569
141.5104,91.1569
142.2000,91.8464
142.2000,91.8464
142.8896,91.1569
142.8274,91.1133
142.6292,91.0209
142.6291,91.0209
142.4179,90.9643
142.4179,90.9643
142.2000,90.9452
142.2000,90.9452
141.9821,90.9643
141.9821,90.9643
141.7708,91.0209
141.7708,91.0209
141.5726,91.1133
141.5104,91.1569
138.3005,91.1569
138.3005,90.5250
146.7700,90.5250
146.7700,90.5250
146.7899,90.7516
146.7899,90.7516
146.8487,90.9713
146.8487,90.9713
146.9449,91.1775
146.9960,91.2505
147.6750,90.5714
147.6750,90.5777
147.7023,90.6794
147.7549,90.7706
147.8294,90.8451
147.9206,90.8977
148.0223,90.9250
148.0286,90.9250
147.3495,91.6040
147.4225,91.6551
147.4225,91.6551
147.6287,91.7513
147.6287,91.7513
147.8484,91.8101
147.8484,91.8101
148.0750,91.8300
148.0750,91.8300
148.3016,91.8101
148.3016,91.8101
148.5213,91.7513
148.5213,91.7513
148.7275,91.6551
148.8005,91.6040
148.1214,90.9250
148.1277,90.9250
148.2294,90.8977
148.3206,90.8451
148.3951,90.7706
148.4477,90.6794
148.4750,90.5777
148.4750,90.5714
149.1592,91.2556
149.2082,91.2655
149.2584,91.3141
149.2730,91.3696
149.2741,91.3696
149.2741,91.3696
149.2741,91.3696
149.2743,91.3696
149.2745,91.3729
149.2809,91.4325
149.3312,91.5673
149.3312,91.5673
149.4175,91.6825
149.4175,91.6825
149.5327,91.7688
149.5327,91.7688
149.6675,91.8191
149.6675,91.8191
149.6744,91.8198
149.7271,91.8255
151.4229,91.8255
151.4825,91.8191
151.6173,91.7688
151.7325,91.6825
151.8188,91.5673
151.8691,91.4325
151.8755,91.3729
151.8755,89.6771
151.8691,89.6175
151.8618,89.5979
151.8188,89.4827
151.8188,89.4827
151.7325,89.3675
151.7325,89.3675
151.6173,89.2812
151.6173,89.2812
151.4825,89.2309
151.4825,89.2309
151.4229,89.2245
151.4229,89.2245
151.4229,89.2245
151.4229,89.2245
149.7271,89.2245
149.7271,89.2245
149.6675,89.2309
149.5327,89.2812
149.5327,89.2812
149.4175,89.3675
149.4175,89.3675
149.3312,89.4827
149.3312,89.4827
149.2809,89.6175
149.2745,89.6771
149.2745,89.6771
149.2743,89.6805
149.2728,89.6804
149.2548,89.7418
149.2020,89.7875
149.1585,89.7950
148.4750,90.4786
148.4750,90.4723
148.4477,90.3706
148.3951,90.2794
148.3206,90.2049
148.2294,90.1523
148.1277,90.1250
148.1214,90.1250
148.8005,89.4460
148.7275,89.3949
148.5213,89.2987
148.5213,89.2987
148.3016,89.2399
148.3016,89.2399
148.0750,89.2200
148.0750,89.2200
147.8484,89.2399
147.8484,89.2399
147.6287,89.2987
147.6287,89.2987
147.4225,89.3949
147.4225,89.3949
147.3495,89.4460
147.3495,89.4460
148.0286,90.1250
148.0223,90.1250
147.9206,90.1523
147.8294,90.2049
147.7549,90.2794
147.7023,90.3706
147.6750,90.4723
147.6750,90.4786
146.9960,89.7995
146.9960,89.7995
146.9449,89.8725
146.9449,89.8725
146.8487,90.0787
146.8487,90.0787
146.7899,90.2984
146.7899,90.2984
146.7700,90.5250
138.3005,90.5250
138.3005,89.1000
141.3950,89.1000
141.3950,89.1000
141.4149,89.3266
141.4149,89.3266
141.4737,89.5463
141.4737,89.5463
141.5699,89.7525
141.6210,89.8255
142.3000,89.1464
142.3000,89.1527
142.3273,89.2544
142.3799,89.3456
142.4544,89.4201
142.5456,89.4727
142.6473,89.5000
142.6536,89.5000
141.9745,90.1790
142.0475,90.2301
142.0475,90.2301
142.2537,90.3263
142.2537,90.3263
142.4734,90.3851
142.4734,90.3851
142.7000,90.4050
142.7000,90.4050
142.9266,90.3851
142.9266,90.3851
143.1463,90.3263
143.1463,90.3263
143.3525,90.2301
143.4255,90.1790
142.7464,89.5000
142.7527,89.5000
142.8544,89.4727
142.9456,89.4201
143.0201,89.3456
143.0727,89.2544
143.1000,89.1527
143.1000,89.1464
143.7842,89.8306
143.8332,89.8405
143.8834,89.8891
143.8980,89.9446
143.8991,89.9446
143.8991,89.9446
143.8991,89.9446
143.8993,89.9446
143.8995,89.9479
143.9059,90.0075
143.9562,90.1423
143.9562,90.1423
144.0425,90.2575
144.0425,90.2575
144.1577,90.3438
144.1577,90.3438
144.2925,90.3941
144.2925,90.3941
144.2994,90.3948
144.3521,90.4005
146.0479,90.4005
146.1075,90.3941
146.2423,90.3438
146.3575,90.2575
146.4438,90.1423
146.4941,90.0075
146.5005,89.9479
146.5005,88.2521
146.4941,88.1925
146.4596,88.1000
156.0447,88.1000
156.0562,88.2306
156.0638,88.3180
156.0638,88.3180
156.1204,88.5293
156.1204,88.5293
156.1204,88.5293
156.1513,88.5956
156.2129,88.7276
156.2286,88.7500
156.3384,88.9069
156.3384,88.9069
156.4132,88.9817
156.4467,89.0430
156.4495,89.0693
156.4495,90.9088
156.4822,91.0731
156.4822,91.0731
156.5463,91.2279
156.5463,91.2279
156.6394,91.3672
156.6394,91.3672
164.9132,99.6410
164.9467,99.7023
164.9495,99.7287
164.9495,104.3632
164.9298,104.4302
164.9271,104.4343
164.8129,104.5974
164.8129,104.5974
164.7204,104.7957
164.7204,104.7957
164.6638,105.0070
164.6638,105.0070
164.6447,105.2250
164.6447,105.2250
164.6638,105.4430
164.6638,105.4430
164.7204,105.6543
164.7204,105.6543
164.7204,105.6543
164.7473,105.7119
164.8129,105.8526
164.8129,105.8526
164.9384,106.0319
165.0931,106.1866
165.2724,106.3121
165.4707,106.4046
165.4707,106.4046
165.4707,106.4046
165.5014,106.4128
165.6820,106.4612
165.8649,106.4772
165.9000,106.4803
165.9000,106.4803
165.9000,106.4803
165.9283,106.4778
166.1180,106.4612
166.3293,106.4046
166.5276,106.3121
166.7069,106.1866
166.8616,106.0319
166.9871,105.8526
167.0796,105.6543
167.1362,105.4430
167.1418,105.3787
181.9495,105.3787
181.9495,105.6213
181.9812,105.8618
182.0439,106.0961
182.1134,106.2639
182.1368,106.3202
182.2581,106.5303
182.2581,106.5303
182.2581,106.5303
182.4057,106.7227
182.4057,106.7227
182.5773,106.8943
182.5773,106.8943
182.7697,107.0419
182.9798,107.1632
183.2039,107.2561
183.4382,107.3188
183.6186,107.3426
183.6787,107.3505
183.6787,107.3505
183.9213,107.3505
183.9694,107.3442
184.1618,107.3188
184.3961,107.2561
184.6202,107.1632
184.8303,107.0419
185.0227,106.8943
185.1943,106.7227
185.3419,106.5303
185.4632,106.3202
185.5561,106.0961
185.6188,105.8618
185.6505,105.6213
185.6505,105.3787
185.6188,105.1382
185.5561,104.9039
185.4632,104.6798
185.3419,104.4697
185.1943,104.2773
185.1943,104.2773
185.0227,104.1057
185.0227,104.1057
184.8303,103.9581
184.8303,103.9581
184.8303,103.9581
184.6202,103.8368
184.6202,103.8368
184.3961,103.7439
184.1618,103.6812
183.9213,103.6495
183.9213,103.6495
183.6787,103.6495
183.6787,103.6495
183.4382,103.6812
183.2039,103.7439
182.9798,103.8368
182.9798,103.8368
182.8094,103.9352
182.7759,103.9545
182.7697,103.9581
182.5773,104.1057
182.5773,104.1057
182.4057,104.2773
182.4057,104.2773
182.2581,104.4697
182.1368,104.6798
182.1368,104.6798
182.0439,104.9039
181.9812,105.1382
181.9495,105.3787
167.1418,105.3787
167.1553,105.2250
167.1362,105.0070
167.0796,104.7957
166.9871,104.5974
166.9871,104.5974
166.9871,104.5974
166.8616,104.4181
166.7882,104.3448
166.7069,104.2634
166.7034,104.2609
166.6598,104.2064
166.6505,104.1594
166.6505,103.3681
167.9354,103.3681
167.9976,103.4117
168.1958,103.5041
168.1958,103.5041
168.4071,103.5607
168.4071,103.5607
168.6250,103.5798
168.6250,103.5798
168.8429,103.5607
168.8429,103.5607
169.0541,103.5041
169.0542,103.5041
169.2524,103.4117
169.2524,103.4117
169.3146,103.3681
168.6250,102.6786
168.6250,102.6786
167.9354,103.3681
166.6505,103.3681
166.6505,102.3250
167.3702,102.3250
167.3702,102.3250
167.3893,102.5429
167.3893,102.5429
167.4459,102.7541
167.4459,102.7542
167.5383,102.9524
167.5819,103.0146
168.2714,102.3250
168.2254,102.2789
168.2750,102.2789
168.2750,102.3711
168.2989,102.4601
168.3449,102.5399
168.4101,102.6051
168.4899,102.6511
168.5789,102.6750
168.6711,102.6750
168.7601,102.6511
168.8399,102.6051
168.9051,102.5399
168.9511,102.4601
168.9750,102.3711
168.9750,102.3250
168.9786,102.3250
168.9786,102.3250
169.6681,103.0146
169.6831,102.9931
176.1604,102.9931
176.2226,103.0367
176.4208,103.1291
176.4208,103.1291
176.6321,103.1857
176.6321,103.1857
176.8500,103.2048
176.8500,103.2048
177.0679,103.1857
177.0679,103.1857
177.2791,103.1291
177.2792,103.1291
177.4774,103.0367
177.4774,103.0367
177.5396,102.9931
176.8500,102.3036
176.8500,102.3036
176.1604,102.9931
169.6831,102.9931
169.7117,102.9524
169.7117,102.9524
169.8041,102.7542
169.8041,102.7541
169.8607,102.5429
169.8607,102.5429
169.8798,102.3250
169.8798,102.3250
169.8607,102.1071
169.8607,102.1071
169.8186,101.9500
175.5952,101.9500
175.5952,101.9500
175.6143,102.1679
175.6143,102.1679
175.6709,102.3791
175.6709,102.3792
175.7633,102.5774
175.8069,102.6396
176.4964,101.9500
176.4504,101.9039
176.5000,101.9039
176.5000,101.9961
176.5239,102.0851
176.5699,102.1649
176.6351,102.2301
176.7149,102.2761
176.8039,102.3000
176.8961,102.3000
176.9851,102.2761
177.0649,102.2301
177.1301,102.1649
177.1761,102.0851
177.2000,101.9961
177.2000,101.9500
177.2036,101.9500
177.2036,101.9500
177.8931,102.6396
177.9367,102.5774
177.9367,102.5774
178.0291,102.3792
178.0291,102.3791
178.0857,102.1679
178.0857,102.1679
178.1048,101.9500
178.1048,101.9500
178.0857,101.7321
178.0857,101.7321
178.0291,101.5208
178.0291,101.5208
177.9367,101.3226
177.9367,101.3226
177.8931,101.2604
177.8931,101.2604
177.2036,101.9500
177.2000,101.9500
177.2000,101.9039
177.1761,101.8149
177.1301,101.7351
177.0649,101.6699
176.9851,101.6239
176.8961,101.6000
176.8039,101.6000
176.7149,101.6239
176.6351,101.6699
176.5699,101.7351
176.5239,101.8149
176.5000,101.9039
176.4504,101.9039
175.8069,101.2604
175.7633,101.3226
175.6709,101.5208
175.6709,101.5208
175.6143,101.7321
175.6143,101.7321
175.5952,101.9500
169.8186,101.9500
169.8041,101.8958
169.8041,101.8958
169.7117,101.6976
169.7117,101.6976
169.6681,101.6354
169.6681,101.6354
168.9786,102.3250
168.9750,102.3250
168.9750,102.2789
168.9511,102.1899
168.9051,102.1101
168.8399,102.0449
168.7601,101.9989
168.6711,101.9750
168.5789,101.9750
168.4899,101.9989
168.4101,102.0449
168.3449,102.1101
168.2989,102.1899
168.2750,102.2789
168.2254,102.2789
167.5819,101.6354
167.5383,101.6976
167.4459,101.8958
167.4459,101.8958
167.3893,102.1071
167.3893,102.1071
167.3702,102.3250
166.6505,102.3250
166.6505,101.2819
167.9354,101.2819
168.6250,101.9714
168.6250,101.9714
169.3146,101.2819
169.2524,101.2383
169.0542,101.1459
169.0541,101.1459
168.8429,101.0893
168.8429,101.0893
168.6250,101.0702
168.6250,101.0702
168.4071,101.0893
168.4071,101.0893
168.1958,101.1459
168.1958,101.1459
167.9976,101.2383
167.9354,101.2819
166.6505,101.2819
166.6505,100.9069
176.1604,100.9069
176.8500,101.5964
176.8500,101.5964
177.5396,100.9069
177.4774,100.8633
177.2792,100.7709
177.2791,100.7709
177.0679,100.7143
177.0679,100.7143
176.8500,100.6952
176.8500,100.6952
176.6321,100.7143
176.6321,100.7143
176.4208,100.7709
176.4208,100.7709
176.2226,100.8633
176.1604,100.9069
166.6505,100.9069
166.6505,99.2412
166.6505,99.2412
166.6178,99.0769
166.6178,99.0769
166.5858,98.9995
166.5858,98.9995
166.5858,98.9995
166.5537,98.9221
166.5537,98.9221
166.5537,98.9221
166.4606,98.7828
166.4606,98.7828
166.4606,98.7828
164.7678,97.0900
175.5052,97.0900
175.5245,97.3843
175.5245,97.3843
175.5820,97.6736
175.5820,97.6736
175.6768,97.9529
175.8073,98.2174
175.8073,98.2174
175.9711,98.4626
176.0004,98.4960
177.0824,97.4140
177.0954,97.4453
177.1774,97.5681
177.2819,97.6726
177.4047,97.7546
177.4360,97.7676
176.3540,98.8496
176.3873,98.8789
176.6326,99.0427
176.6326,99.0427
176.8971,99.1732
177.1764,99.2680
177.1764,99.2680
177.4657,99.3255
177.4657,99.3255
177.7600,99.3448
178.0543,99.3255
178.0543,99.3255
178.3436,99.2680
178.3436,99.2680
178.6229,99.1732
178.8874,99.0427
178.8874,99.0427
179.1326,98.8789
179.1660,98.8496
178.0840,97.7676
178.1153,97.7546
178.2381,97.6726
178.3426,97.5681
178.4246,97.4453
178.4376,97.4140
179.5196,98.4960
179.5489,98.4626
179.7127,98.2174
179.7127,98.2174
179.8432,97.9529
179.9380,97.6736
179.9380,97.6736
179.9955,97.3843
179.9955,97.3843
180.0148,97.0900
182.3852,97.0900
182.4045,97.3843
182.4045,97.3843
182.4620,97.6736
182.4620,97.6736
182.5568,97.9529
182.6873,98.2174
182.6873,98.2174
182.8511,98.4626
182.8804,98.4960
183.9624,97.4140
183.9754,97.4453
184.0574,97.5681
184.1619,97.6726
184.2847,97.7546
184.3160,97.7676
183.2340,98.8496
183.2673,98.8789
183.5126,99.0427
183.5126,99.0427
183.7771,99.1732
184.0564,99.2680
184.0564,99.2680
184.3457,99.3255
184.3457,99.3255
184.6400,99.3448
184.9343,99.3255
184.9343,99.3255
185.2236,99.2680
185.2236,99.2680
185.5029,99.1732
185.7674,99.0427
185.7674,99.0427
186.0126,98.8789
186.0460,98.8496
184.9640,97.7676
184.9953,97.7546
185.1181,97.6726
185.2226,97.5681
185.3046,97.4453
185.3176,97.4140
186.3996,98.4960
186.4289,98.4626
186.5927,98.2174
186.5927,98.2174
186.7232,97.9529
186.8180,97.6736
186.8180,97.6736
186.8755,97.3843
186.8755,97.3843
186.8948,97.0900
186.8755,96.7957
186.8755,96.7957
186.8180,96.5064
186.8180,96.5064
186.7232,96.2271
186.5927,95.9626
186.5927,95.9626
186.4289,95.7173
186.3996,95.6840
185.3176,96.7660
185.3046,96.7347
185.2226,96.6119
185.1181,96.5074
184.9953,96.4254
184.9640,96.4124
186.0460,95.3304
186.0126,95.3011
185.7674,95.1373
185.7674,95.1373
185.5029,95.0068
185.2236,94.9120
185.2236,94.9120
184.9343,94.8545
184.9343,94.8545
184.6400,94.8352
184.3457,94.8545
184.3457,94.8545
184.0564,94.9120
184.0564,94.9120
183.7771,95.0068
183.5126,95.1373
183.5126,95.1373
183.2673,95.3011
183.2673,95.3011
183.2340,95.3304
183.2340,95.3304
184.3160,96.4124
184.2847,96.4254
184.1619,96.5074
184.0574,96.6119
183.9754,96.7347
183.9624,96.7660
182.8804,95.6840
182.8804,95.6840
182.8511,95.7173
182.8511,95.7173
182.6873,95.9626
182.6873,95.9626
182.5568,96.2271
182.4620,96.5064
182.4620,96.5064
182.4045,96.7957
182.4045,96.7957
182.3852,97.0900
180.0148,97.0900
179.9955,96.7957
179.9955,96.7957
179.9380,96.5064
179.9380,96.5064
179.8432,96.2271
179.7127,95.9626
179.7127,95.9626
179.5489,95.7173
179.5196,95.6840
178.4376,96.7660
178.4246,96.7347
178.3426,96.6119
178.2381,96.5074
178.1153,96.4254
178.0840,96.4124
179.1660,95.3304
179.1326,95.3011
178.8874,95.1373
178.8874,95.1373
178.6229,95.0068
178.3436,94.9120
178.3436,94.9120
178.0543,94.8545
178.0543,94.8545
177.7600,94.8352
177.4657,94.8545
177.4657,94.8545
177.1764,94.9120
177.1764,94.9120
176.8971,95.0068
176.6326,95.1373
176.6326,95.1373
176.3873,95.3011
176.3873,95.3011
176.3540,95.3304
176.3540,95.3304
177.4360,96.4124
177.4047,96.4254
177.2819,96.5074
177.1774,96.6119
177.0954,96.7347
177.0824,96.7660
176.0004,95.6840
176.0004,95.6840
175.9711,95.7173
175.9711,95.7173
175.8073,95.9626
175.8073,95.9626
175.6768,96.2271
175.5820,96.5064
175.5820,96.5064
175.5245,96.7957
175.5245,96.7957
175.5052,97.0900
164.7678,97.0900
160.5299,92.8521
170.1495,92.8521
170.1495,94.5479
170.1495,94.5479
170.1559,94.6075
170.2062,94.7423
170.2062,94.7423
170.2925,94.8575
170.2925,94.8575
170.4077,94.9438
170.4077,94.9438
170.5425,94.9941
170.5425,94.9941
170.5494,94.9948
170.6021,95.0005
172.2979,95.0005
172.3575,94.9941
172.4923,94.9438
172.6075,94.8575
172.6938,94.7423
172.7441,94.6075
172.7441,94.6075
172.7454,94.6021
172.7799,94.5414
172.8418,94.5090
172.9114,94.5152
172.9537,94.5429
173.1109,94.7000
173.1109,94.7000
173.2973,94.8306
173.5035,94.9267
173.7233,94.9856
173.8852,94.9998
173.9500,95.0055
173.9500,95.0055
173.9500,95.0055
174.0068,95.0005
174.1767,94.9856
174.3965,94.9267
174.6027,94.8306
174.7891,94.7000
174.9500,94.5391
175.0806,94.3527
175.1767,94.1465
175.2356,93.9267
175.2555,93.7000
175.2511,93.6500
178.9447,93.6500
178.9447,93.6500
178.9640,93.9444
178.9640,93.9444
178.9640,93.9444
179.0174,94.2131
179.0215,94.2337
179.0215,94.2337
179.1163,94.5131
179.2468,94.7777
179.2468,94.7777
179.4107,95.0230
179.6052,95.2448
179.7029,95.3304
179.8270,95.4393
180.0723,95.6032
180.3369,95.7337
180.6163,95.8285
180.9056,95.8860
180.9339,95.8879
181.2000,95.9053
181.2000,95.9053
181.2000,95.9053
181.4357,95.8899
181.4944,95.8860
181.7837,95.8285
182.0631,95.7337
182.3277,95.6032
182.5730,95.4393
182.7948,95.2448
182.9893,95.0230
183.1532,94.7777
183.2837,94.5131
183.3785,94.2337
183.4360,93.9444
183.4553,93.6500
183.4553,93.6500
183.4360,93.3556
183.4360,93.3556
183.3785,93.0663
183.2837,92.7869
183.1532,92.5223
183.1090,92.4562
183.0754,92.4059
182.9893,92.2770
182.9195,92.1975
182.7948,92.0552
182.5730,91.8607
182.3277,91.6968
182.3277,91.6968
182.0631,91.5663
181.7837,91.4715
181.7837,91.4715
181.7837,91.4715
181.4944,91.4140
181.4944,91.4140
181.4944,91.4140
181.2000,91.3947
181.2000,91.3947
180.9056,91.4140
180.9056,91.4140
180.9056,91.4140
180.9056,91.4140
180.9056,91.4140
180.6163,91.4715
180.6163,91.4715
180.3369,91.5663
180.0723,91.6968
179.8270,91.8607
179.6052,92.0552
179.4107,92.2770
179.2468,92.5223
179.1163,92.7869
179.0215,93.0663
179.0215,93.0663
178.9640,93.3556
178.9640,93.3556
178.9447,93.6500
175.2511,93.6500
175.2356,93.4733
175.1882,93.2963
175.1767,93.2535
175.1767,93.2535
175.1448,93.1851
175.0806,93.0473
174.9500,92.8609
174.9500,92.8609
174.7891,92.7000
174.6027,92.5694
174.6027,92.5694
174.3965,92.4733
174.3965,92.4733
174.1767,92.4144
174.1767,92.4144
174.1767,92.4144
174.1767,92.4144
174.1767,92.4144
173.9500,92.3945
173.9500,92.3945
173.7233,92.4144
173.7233,92.4144
173.5035,92.4733
173.5035,92.4733
173.2973,92.5694
173.2973,92.5694
173.1109,92.7000
172.9537,92.8571
172.8924,92.8906
172.8227,92.8856
172.7668,92.8437
172.7454,92.7979
172.7441,92.7925
172.7420,92.7869
172.6938,92.6577
172.6938,92.6577
172.6938,92.6577
172.6075,92.5425
172.6075,92.5425
172.4923,92.4562
172.4923,92.4562
172.3575,92.4059
172.3575,92.4059
172.2979,92.3995
172.2979,92.3995
172.2979,92.3995
172.2979,92.3995
170.6021,92.3995
170.6021,92.3995
170.5425,92.4059
170.4077,92.4562
170.4077,92.4562
170.2925,92.5425
170.2925,92.5425
170.2062,92.6577
170.2062,92.6577
170.1559,92.7925
170.1495,92.8521
170.1495,92.8521
160.5299,92.8521
158.1868,90.5090
158.1533,90.4477
158.1505,90.4213
158.1505,90.2100
175.5052,90.2100
175.5245,90.5043
175.5245,90.5043
175.5820,90.7936
175.5820,90.7936
175.6768,91.0729
175.8073,91.3374
175.8073,91.3374
175.9711,91.5826
176.0004,91.6160
177.0824,90.5340
177.0954,90.5653
177.1774,90.6881
177.2819,90.7926
177.4047,90.8746
177.4360,90.8876
176.3540,91.9696
176.3873,91.9989
176.6326,92.1627
176.6326,92.1627
176.8971,92.2932
177.1764,92.3880
177.1764,92.3880
177.4657,92.4455
177.4657,92.4455
177.7600,92.4648
178.0543,92.4455
178.0543,92.4455
178.3436,92.3880
178.3436,92.3880
178.6229,92.2932
178.8874,92.1627
178.8874,92.1627
179.1326,91.9989
179.1660,91.9696
178.0840,90.8876
178.1153,90.8746
178.2381,90.7926
178.3426,90.6881
178.4246,90.5653
178.4376,90.5340
179.5196,91.6160
179.5489,91.5826
179.7127,91.3374
179.7127,91.3374
179.8432,91.0729
179.9380,90.7936
179.9380,90.7936
179.9955,90.5043
179.9955,90.5043
180.0148,90.2100
182.3852,90.2100
182.4045,90.5043
182.4045,90.5043
182.4620,90.7936
182.4620,90.7936
182.5568,91.0729
182.6873,91.3374
182.6873,91.3374
182.8511,91.5826
182.8804,91.6160
183.9624,90.5340
183.9754,90.5653
184.0574,90.6881
184.1619,90.7926
184.2847,90.8746
184.3160,90.8876
183.2340,91.9696
183.2673,91.9989
183.5126,92.1627
183.5126,92.1627
183.7771,92.2932
184.0564,92.3880
184.0564,92.3880
184.3457,92.4455
184.3457,92.4455
184.6400,92.4648
184.9343,92.4455
184.9343,92.4455
185.2236,92.3880
185.2236,92.3880
185.5029,92.2932
185.7674,92.1627
185.7674,92.1627
186.0126,91.9989
186.0460,91.9696
184.9640,90.8876
184.9953,90.8746
185.1181,90.7926
185.2226,90.6881
185.3046,90.5653
185.3176,90.5340
186.3996,91.6160
186.4289,91.5826
186.5927,91.3374
186.5927,91.3374
186.7232,91.0729
186.8180,90.7936
186.8180,90.7936
186.8755,90.5043
186.8755,90.5043
186.8948,90.2100
186.8755,89.9157
186.8755,89.9157
186.8180,89.6264
186.8180,89.6264
186.7232,89.3471
186.5927,89.0826
186.5927,89.0826
186.4289,88.8374
186.3996,88.8040
185.3176,89.8860
185.3046,89.8547
185.2226,89.7319
185.1181,89.6274
184.9953,89.5454
184.9640,89.5324
186.0460,88.4504
186.0126,88.4211
185.7674,88.2573
185.7674,88.2573
185.5029,88.1268
185.2236,88.0320
185.2236,88.0320
184.9343,87.9745
184.9343,87.9745
184.6400,87.9552
184.3457,87.9745
184.3457,87.9745
184.0564,88.0320
184.0564,88.0320
183.7771,88.1268
183.5126,88.2573
183.5126,88.2573
183.2673,88.4211
183.2673,88.4211
183.2340,88.4504
183.2340,88.4504
184.3160,89.5324
184.2847,89.5454
184.1619,89.6274
184.0574,89.7319
183.9754,89.8547
183.9624,89.8860
182.8804,88.8040
182.8804,88.8040
182.8511,88.8373
182.8511,88.8373
182.6873,89.0826
182.6873,89.0826
182.5568,89.3471
182.4620,89.6264
182.4620,89.6264
182.4045,89.9157
182.4045,89.9157
182.3852,90.2100
180.0148,90.2100
179.9955,89.9157
179.9955,89.9157
179.9380,89.6264
179.9380,89.6264
179.8432,89.3471
179.7127,89.0826
179.7127,89.0826
179.5489,88.8374
179.5196,88.8040
178.4376,89.8860
178.4246,89.8547
178.3426,89.7319
178.2381,89.6274
178.1153,89.5454
178.0840,89.5324
179.1660,88.4504
179.1326,88.4211
178.8874,88.2573
178.8874,88.2573
178.6229,88.1268
178.3436,88.0320
178.3436,88.0320
178.0543,87.9745
178.0543,87.9745
177.7600,87.9552
177.4657,87.9745
177.4657,87.9745
177.1764,88.0320
177.1764,88.0320
176.8971,88.1268
176.6326,88.2573
176.6326,88.2573
176.3873,88.4211
176.3873,88.4211
176.3540,88.4504
176.3540,88.4504
177.4360,89.5324
177.4047,89.5454
177.2819,89.6274
177.1774,89.7319
177.0954,89.8547
177.0824,89.8860
176.0004,88.8040
176.0004,88.8040
175.9711,88.8373
175.9711,88.8373
175.8073,89.0826
175.8073,89.0826
175.6768,89.3471
175.5820,89.6264
175.5820,89.6264
175.5245,89.9157
175.5245,89.9157
175.5052,90.2100
158.1505,90.2100
158.1505,89.0693
158.1702,89.0023
158.1868,88.9817
158.2229,88.9456
158.2616,88.9069
158.3871,88.7276
158.4796,88.5293
158.5362,88.3180
158.5553,88.1000
158.5551,88.0975
158.5439,87.9699
158.5380,87.9021
165.8944,87.9021
165.8944,89.5979
165.8944,89.5979
165.9008,89.6575
165.9511,89.7923
165.9511,89.7923
166.0373,89.9075
166.0373,89.9075
166.1526,89.9938
166.1526,89.9938
166.2874,90.0441
166.2874,90.0441
166.2943,90.0448
166.3470,90.0505
168.0428,90.0505
168.1024,90.0441
168.2372,89.9938
168.3524,89.9075
168.4387,89.7923
168.4890,89.6575
168.4954,89.5979
168.4954,89.5978
168.4956,89.5945
168.4971,89.5946
168.5150,89.5333
168.5678,89.4875
168.6114,89.4800
169.2949,88.7964
169.2949,88.8027
169.3221,88.9044
169.3748,88.9956
169.4493,89.0701
169.5405,89.1227
169.6422,89.1500
169.6484,89.1500
168.9694,89.8290
169.0424,89.8801
169.0424,89.8801
169.2486,89.9763
169.2486,89.9763
169.4683,90.0351
169.4683,90.0351
169.6949,90.0550
169.6949,90.0550
169.9215,90.0351
169.9215,90.0351
170.1412,89.9763
170.1412,89.9763
170.3474,89.8801
170.4204,89.8290
170.3845,89.7931
171.5104,89.7931
171.5726,89.8367
171.7708,89.9291
171.7708,89.9291
171.9821,89.9857
171.9821,89.9857
172.2000,90.0048
172.2000,90.0048
172.4179,89.9857
172.4179,89.9857
172.6291,89.9291
172.6292,89.9291
172.8274,89.8367
172.8274,89.8367
172.8896,89.7931
172.2000,89.1036
172.2000,89.1036
171.5104,89.7931
170.3845,89.7931
169.7413,89.1500
169.7475,89.1500
169.8493,89.1227
169.9405,89.0701
170.0150,88.9956
170.0676,88.9044
170.0949,88.8027
170.0949,88.7964
170.7739,89.4755
170.8250,89.4025
170.8626,89.3218
170.9088,89.2694
170.9760,89.2502
171.0429,89.2704
171.0874,89.3218
171.1133,89.3774
171.1569,89.4396
171.8464,88.7500
171.8004,88.7039
171.8500,88.7039
171.8500,88.7961
171.8739,88.8851
171.9199,88.9649
171.9851,89.0301
172.0649,89.0761
172.1539,89.1000
172.2461,89.1000
172.3351,89.0761
172.4149,89.0301
172.4801,88.9649
172.5261,88.8851
172.5500,88.7961
172.5500,88.7500
172.5536,88.7500
172.5536,88.7500
173.2431,89.4396
173.2867,89.3774
173.2867,89.3774
173.3791,89.1792
173.3791,89.1791
173.4357,88.9679
173.4357,88.9679
173.4548,88.7500
173.4548,88.7500
173.4357,88.5321
173.4357,88.5321
173.3791,88.3208
173.3791,88.3208
173.2867,88.1226
173.2867,88.1226
173.2431,88.0604
173.2431,88.0604
172.5536,88.7500
172.5500,88.7500
172.5500,88.7039
172.5261,88.6149
172.4801,88.5351
172.4149,88.4699
172.3351,88.4239
172.2461,88.4000
172.1539,88.4000
172.0649,88.4239
171.9851,88.4699
171.9199,88.5351
171.8739,88.6149
171.8500,88.7039
171.8004,88.7039
171.1569,88.0604
171.1133,88.1226
171.0874,88.1782
171.0412,88.2306
170.9740,88.2498
170.9072,88.2296
170.8626,88.1782
170.8250,88.0975
170.7739,88.0245
170.0949,88.7036
170.0949,88.6973
170.0676,88.5956
170.0150,88.5044
169.9405,88.4299
169.8493,88.3773
169.7475,88.3500
169.7413,88.3500
170.3845,87.7069
171.5104,87.7069
172.2000,88.3964
172.2000,88.3964
172.8896,87.7069
172.8274,87.6633
172.6292,87.5709
172.6291,87.5709
172.4179,87.5143
172.4179,87.5143
172.2000,87.4952
172.2000,87.4952
171.9821,87.5143
171.9821,87.5143
171.7708,87.5709
171.7708,87.5709
171.5726,87.6633
171.5104,87.7069
170.3845,87.7069
170.4204,87.6710
170.3474,87.6199
170.1412,87.5237
170.1412,87.5237
169.9215,87.4649
169.9215,87.4649
169.6949,87.4450
169.6949,87.4450
169.4683,87.4649
169.4683,87.4649
169.2486,87.5237
169.2486,87.5237
169.0424,87.6199
169.0424,87.6199
168.9694,87.6710
168.9694,87.6710
169.6484,88.3500
169.6422,88.3500
169.5405,88.3773
169.4493,88.4299
169.3748,88.5044
169.3221,88.5956
169.2949,88.6973
169.2949,88.7036
168.6107,88.0194
168.5617,88.0095
168.5115,87.9609
168.4969,87.9054
168.4958,87.9054
168.4957,87.9054
168.4957,87.9054
168.4956,87.9054
168.4954,87.9021
168.4954,87.9021
168.4890,87.8425
168.4387,87.7077
168.4387,87.7077
168.4387,87.7077
168.3524,87.5925
168.3524,87.5925
168.2372,87.5062
168.2372,87.5062
168.1024,87.4559
168.1024,87.4559
168.0428,87.4495
168.0428,87.4495
168.0428,87.4495
168.0428,87.4495
166.3470,87.4495
166.3470,87.4495
166.2874,87.4559
166.1526,87.5062
166.1526,87.5062
166.0373,87.5925
166.0373,87.5925
165.9511,87.7077
165.9511,87.7077
165.9008,87.8425
165.8965,87.8820
165.8944,87.9021
165.8944,87.9021
158.5380,87.9021
158.5362,87.8820
158.4893,87.7069
158.4796,87.6707
158.4796,87.6707
158.4796,87.6707
158.3871,87.4724
158.3871,87.4724
158.3871,87.4724
158.2616,87.2931
158.2616,87.2931
158.1069,87.1384
157.9276,87.0129
157.9276,87.0129
157.9276,87.0129
157.8285,86.9667
157.7293,86.9204
157.7293,86.9204
157.7293,86.9204
157.5180,86.8638
157.3000,86.8447
157.3000,86.8447
157.1547,86.8574
157.0820,86.8638
157.0820,86.8638
156.8707,86.9204
156.8707,86.9204
156.6724,87.0129
156.6724,87.0129
156.4931,87.1384
156.3384,87.2931
156.2129,87.4724
156.2129,87.4724
156.1204,87.6707
156.1204,87.6707
156.0638,87.8820
156.0638,87.8820
156.0618,87.9054
156.0449,88.0975
156.0447,88.1000
146.4596,88.1000
146.4438,88.0577
146.4438,88.0577
146.3575,87.9425
146.3575,87.9425
146.2423,87.8562
146.2423,87.8562
146.1075,87.8059
146.1075,87.8059
146.0479,87.7995
146.0479,87.7995
146.0479,87.7995
146.0479,87.7995
144.3521,87.7995
144.3521,87.7995
144.2925,87.8059
144.1577,87.8562
144.1577,87.8562
144.0425,87.9425
144.0425,87.9425
143.9562,88.0577
143.9562,88.0577
143.9059,88.1925
143.8998,88.2498
143.8995,88.2521
143.8993,88.2555
143.8978,88.2554
143.8798,88.3168
143.8270,88.3625
143.7835,88.3700
143.1000,89.0536
143.1000,89.0473
143.0727,88.9456
143.0201,88.8544
142.9456,88.7799
142.8544,88.7273
142.7527,88.7000
142.7464,88.7000
143.4255,88.0210
143.3525,87.9699
143.1463,87.8737
143.1463,87.8737
142.9266,87.8149
142.9266,87.8149
142.7000,87.7950
142.7000,87.7950
142.4734,87.8149
142.4734,87.8149
142.2537,87.8737
142.2537,87.8737
142.0475,87.9699
142.0475,87.9699
141.9745,88.0210
141.9745,88.0210
142.6536,88.7000
142.6473,88.7000
142.5456,88.7273
142.4544,88.7799
142.3799,88.8544
142.3273,88.9456
142.3000,89.0473
142.3000,89.0536
141.6210,88.3745
141.6210,88.3745
141.5699,88.4475
141.5699,88.4475
141.4737,88.6537
141.4737,88.6537
141.4149,88.8734
141.4149,88.8734
141.3950,89.1000
138.3005,89.1000
138.3005,84.5400
156.7552,84.5400
156.7745,84.8343
156.7745,84.8343
156.8320,85.1236
156.8320,85.1236
156.9268,85.4029
157.0573,85.6674
157.0573,85.6674
157.2211,85.9126
157.2504,85.9460
158.3324,84.8640
158.3454,84.8953
158.4274,85.0181
158.5319,85.1226
158.6547,85.2046
158.6860,85.2176
157.6040,86.2996
157.6373,86.3289
157.8826,86.4927
157.8826,86.4927
158.1471,86.6232
158.4264,86.7180
158.4264,86.7180
158.7157,86.7755
158.7157,86.7755
159.0100,86.7948
159.3043,86.7755
159.3043,86.7755
159.5936,86.7180
159.5936,86.7180
159.8729,86.6232
160.1374,86.4927
160.1374,86.4927
160.3826,86.3289
160.4160,86.2996
159.3340,85.2176
159.3653,85.2046
159.4881,85.1226
159.5926,85.0181
159.6746,84.8953
159.6876,84.8640
160.7696,85.9460
160.7989,85.9126
160.9627,85.6674
160.9627,85.6674
161.0932,85.4029
161.1880,85.1236
161.1880,85.1236
161.2455,84.8343
161.2455,84.8343
161.2648,84.5400
163.6352,84.5400
163.6545,84.8343
163.6545,84.8343
163.7120,85.1236
163.7120,85.1236
163.8068,85.4029
163.9373,85.6674
163.9373,85.6674
164.1011,85.9126
164.1304,85.9460
165.2124,84.8640
165.2254,84.8953
165.3074,85.0181
165.4119,85.1226
165.5347,85.2046
165.5660,85.2176
164.4840,86.2996
164.5173,86.3289
164.7626,86.4927
164.7626,86.4927
165.0271,86.6232
165.3064,86.7180
165.3064,86.7180
165.5957,86.7755
165.5957,86.7755
165.8900,86.7948
166.1843,86.7755
166.1843,86.7755
166.4736,86.7180
166.4736,86.7180
166.7529,86.6232
167.0174,86.4927
167.0174,86.4927
167.2626,86.3289
167.2960,86.2996
166.2140,85.2176
166.2453,85.2046
166.3681,85.1226
166.4726,85.0181
166.5546,84.8953
166.5676,84.8640
167.6496,85.9460
167.6789,85.9126
167.8427,85.6674
167.8427,85.6674
167.9732,85.4029
168.0680,85.1236
168.0680,85.1236
168.1255,84.8343
168.1255,84.8343
168.1448,84.5400
168.1255,84.2457
168.1255,84.2457
168.0680,83.9564
168.0680,83.9564
167.9732,83.6771
167.8427,83.4126
167.8427,83.4126
167.6789,83.1673
167.6496,83.1340
166.5676,84.2160
166.5546,84.1847
166.4726,84.0619
166.3681,83.9574
166.2453,83.8754
166.2140,83.8624
167.2960,82.7804
167.2626,82.7511
167.0365,82.6000
169.8448,82.6000
169.8448,82.6000
169.8635,82.8127
169.8635,82.8128
169.9187,83.0190
169.9187,83.0190
169.9187,83.0190
169.9346,83.0532
170.0090,83.2126
170.1315,83.3875
170.2825,83.5385
170.2825,83.5385
170.4574,83.6610
170.4574,83.6610
170.4574,83.6610
170.5219,83.6911
170.6510,83.7513
170.8573,83.8065
170.9975,83.8188
171.0700,83.8252
171.0700,83.8252
171.0700,83.8252
171.1425,83.8188
171.2827,83.8065
171.4890,83.7513
171.6826,83.6610
171.8575,83.5385
172.0085,83.3875
172.1310,83.2126
172.2213,83.0190
172.2213,83.0190
172.2231,83.0139
172.2250,83.0146
172.2568,82.9623
172.3197,82.9318
172.3891,82.9401
172.4429,82.9846
172.4564,83.0141
172.4573,83.0138
172.4592,83.0189
172.5494,83.2123
172.5884,83.2680
173.2100,82.6464
173.2100,82.6527
173.2373,82.7544
173.2899,82.8456
173.3644,82.9201
173.4556,82.9727
173.5573,83.0000
173.5636,83.0000
172.9420,83.6216
172.9977,83.6606
172.9977,83.6606
173.1911,83.7508
173.1911,83.7508
173.3973,83.8061
173.3973,83.8061
173.6100,83.8247
173.6100,83.8247
173.8227,83.8061
173.8227,83.8061
174.0289,83.7508
174.0289,83.7508
174.2223,83.6606
174.2780,83.6216
173.6564,83.0000
173.6627,83.0000
173.7644,82.9727
173.8556,82.9201
173.9301,82.8456
173.9827,82.7544
174.0100,82.6527
174.0100,82.6464
174.6316,83.2680
174.6706,83.2123
174.7608,83.0189
174.7627,83.0138
174.7646,83.0145
174.7963,82.9624
174.8591,82.9318
174.9285,82.9401
174.9824,82.9845
174.9960,83.0143
174.9969,83.0139
174.9987,83.0190
174.9987,83.0190
175.0146,83.0532
175.0890,83.2126
175.2115,83.3875
175.3625,83.5385
175.3625,83.5385
175.5374,83.6610
175.5374,83.6610
175.5374,83.6610
175.6019,83.6911
175.7310,83.7513
175.9373,83.8065
176.0775,83.8188
176.1500,83.8252
176.1500,83.8252
176.1500,83.8252
176.2225,83.8188
176.3627,83.8065
176.5690,83.7513
176.7626,83.6610
176.9375,83.5385
177.0885,83.3875
177.2110,83.2126
177.3013,83.0190
177.3565,82.8127
177.3752,82.6000
177.3733,82.5791
177.3652,82.4867
177.3565,82.3873
177.3025,82.1855
177.3013,82.1810
177.3013,82.1810
177.3013,82.1810
177.2110,81.9874
177.1131,81.8476
177.0885,81.8125
176.9375,81.6615
176.7626,81.5390
176.7626,81.5390
176.6335,81.4788
176.5690,81.4487
176.5690,81.4487
176.5690,81.4487
176.3628,81.3935
176.3627,81.3935
176.3627,81.3935
176.3627,81.3935
176.3627,81.3935
176.1500,81.3748
176.1500,81.3748
175.9373,81.3935
175.9372,81.3935
175.7310,81.4487
175.7310,81.4487
175.5374,81.5390
175.3625,81.6615
175.2115,81.8125
175.0890,81.9874
174.9987,82.1810
174.9969,82.1861
174.9950,82.1854
174.9631,82.2377
174.9002,82.2682
174.8309,82.2599
174.7770,82.2154
174.7636,82.1859
174.7627,82.1862
174.7608,82.1811
174.6706,81.9877
174.6706,81.9877
174.6316,81.9320
174.0100,82.5536
174.0100,82.5473
173.9827,82.4456
173.9301,82.3544
173.8556,82.2799
173.7644,82.2273
173.6627,82.2000
173.6564,82.2000
174.2780,81.5784
174.2223,81.5394
174.0289,81.4492
174.0289,81.4492
173.8227,81.3939
173.8227,81.3939
173.6100,81.3753
173.6100,81.3753
173.3973,81.3939
173.3973,81.3939
173.1911,81.4492
173.1911,81.4492
172.9977,81.5394
172.9977,81.5394
172.9420,81.5784
172.9420,81.5784
173.5636,82.2000
173.5573,82.2000
173.4556,82.2273
173.3644,82.2799
173.2899,82.3544
173.2373,82.4456
173.2100,82.5473
173.2100,82.5536
172.5884,81.9320
172.5884,81.9320
172.5494,81.9877
172.5494,81.9877
172.4592,82.1811
172.4573,82.1862
172.4554,82.1855
172.4237,82.2377
172.3608,82.2682
172.2914,82.2599
172.2376,82.2154
172.2240,82.1857
172.2231,82.1861
172.2213,82.1810
172.2213,82.1810
172.1310,81.9874
172.0331,81.8476
172.0085,81.8125
171.8575,81.6615
171.6826,81.5390
171.6826,81.5390
171.5535,81.4788
171.4890,81.4487
171.4890,81.4487
171.4890,81.4487
171.2828,81.3935
171.2827,81.3935
171.2827,81.3935
171.2827,81.3935
171.2827,81.3935
171.0700,81.3748
171.0700,81.3748
170.8573,81.3935
170.8572,81.3935
170.6510,81.4487
170.6510,81.4487
170.4574,81.5390
170.2825,81.6615
170.1315,81.8125
170.0090,81.9874
169.9187,82.1810
169.9187,82.1810
169.8635,82.3872
169.8635,82.3873
169.8448,82.6000
167.0365,82.6000
167.0174,82.5873
167.0174,82.5873
166.7529,82.4568
166.4736,82.3620
166.4736,82.3620
166.1843,82.3045
166.1843,82.3045
165.8900,82.2852
165.5957,82.3045
165.5957,82.3045
165.3064,82.3620
165.3064,82.3620
165.0271,82.4568
164.7626,82.5873
164.7626,82.5873
164.5173,82.7511
164.5173,82.7511
164.4840,82.7804
164.4840,82.7804
165.5660,83.8624
165.5347,83.8754
165.4119,83.9574
165.3074,84.0619
165.2254,84.1847
165.2124,84.2160
164.1304,83.1340
164.1304,83.1340
164.1011,83.1673
164.1011,83.1673
163.9373,83.4126
163.9373,83.4126
163.8068,83.6771
163.7120,83.9564
163.7120,83.9564
163.6545,84.2457
163.6545,84.2457
163.6352,84.5400
161.2648,84.5400
161.2455,84.2457
161.2455,84.2457
161.1880,83.9564
161.1880,83.9564
161.0932,83.6771
160.9627,83.4126
160.9627,83.4126
160.7989,83.1673
160.7696,83.1340
159.6876,84.2160
159.6746,84.1847
159.5926,84.0619
159.4881,83.9574
159.3653,83.8754
159.3340,83.8624
160.4160,82.7804
160.3826,82.7511
160.1374,82.5873
160.1374,82.5873
159.8729,82.4568
159.5936,82.3620
159.5936,82.3620
159.3043,82.3045
159.3043,82.3045
159.0100,82.2852
158.7157,82.3045
158.7157,82.3045
158.4264,82.3620
158.4264,82.3620
158.1471,82.4568
157.8826,82.5873
157.8826,82.5873
157.6373,82.7511
157.6373,82.7511
157.6040,82.7804
157.6040,82.7804
158.6860,83.8624
158.6547,83.8754
158.5319,83.9574
158.4274,84.0619
158.3454,84.1847
158.3324,84.2160
157.2504,83.1340
157.2504,83.1340
157.2211,83.1673
157.2211,83.1673
157.0573,83.4126
157.0573,83.4126
156.9268,83.6771
156.8320,83.9564
156.8320,83.9564
156.7745,84.2457
156.7745,84.2457
156.7552,84.5400
138.3005,84.5400
138.3005,82.4431
151.4104,82.4431
151.4726,82.4867
151.6708,82.5791
151.6708,82.5791
151.8821,82.6357
151.8821,82.6357
152.1000,82.6548
152.1000,82.6548
152.3179,82.6357
152.3179,82.6357
152.5291,82.5791
152.5292,82.5791
152.7274,82.4867
152.7274,82.4867
152.7896,82.4431
152.1000,81.7536
152.1000,81.7536
151.4104,82.4431
138.3005,82.4431
138.3005,81.4000
150.8452,81.4000
150.8452,81.4000
150.8643,81.6179
150.8643,81.6179
150.9209,81.8291
150.9209,81.8292
151.0133,82.0274
151.0569,82.0896
151.7464,81.4000
151.7004,81.3539
151.7500,81.3539
151.7500,81.4461
151.7739,81.5351
151.8199,81.6149
151.8851,81.6801
151.9649,81.7261
152.0539,81.7500
152.1461,81.7500
152.2351,81.7261
152.3149,81.6801
152.3801,81.6149
152.4261,81.5351
152.4500,81.4461
152.4500,81.4000
152.4536,81.4000
152.4536,81.4000
153.1431,82.0896
153.1867,82.0274
153.1867,82.0274
153.2791,81.8292
153.2791,81.8291
153.3357,81.6179
153.3357,81.6179
153.3548,81.4000
153.3548,81.4000
153.3357,81.1821
153.3357,81.1821
153.3137,81.1000
160.1947,81.1000
160.1947,81.1000
160.2140,81.3944
160.2140,81.3944
160.2140,81.3944
160.2506,81.5784
160.2715,81.6837
160.2715,81.6837
160.3663,81.9631
160.4968,82.2277
160.4968,82.2277
160.6607,82.4730
160.8552,82.6948
161.0770,82.8893
161.2634,83.0138
161.3223,83.0532
161.5869,83.1837
161.8663,83.2785
162.1556,83.3360
162.1839,83.3379
162.4500,83.3553
162.4500,83.3553
162.4500,83.3553
162.6857,83.3399
162.7444,83.3360
163.0337,83.2785
163.3131,83.1837
163.5777,83.0532
163.8230,82.8893
164.0448,82.6948
164.2393,82.4730
164.4032,82.2277
164.5337,81.9631
164.6285,81.6837
164.6860,81.3944
164.6899,81.3357
164.7053,81.1000
164.7053,81.1000
164.6860,80.8056
164.6860,80.8056
164.6285,80.5163
164.5337,80.2369
164.4032,79.9723
164.3910,79.9541
164.3255,79.8561
164.2393,79.7270
164.1646,79.6419
164.0448,79.5052
163.8230,79.3107
163.5777,79.1468
163.5777,79.1468
163.3131,79.0163
163.0337,78.9215
163.0337,78.9215
163.0337,78.9215
162.7444,78.8640
162.7444,78.8640
162.7444,78.8640
162.4500,78.8447
162.4500,78.8447
162.1556,78.8640
162.1556,78.8640
162.1556,78.8640
162.1556,78.8640
162.1556,78.8640
161.8663,78.9215
161.8663,78.9215
161.5869,79.0163
161.3223,79.1468
161.0770,79.3107
160.8552,79.5052
160.6607,79.7270
160.4968,79.9723
160.3663,80.2369
160.2715,80.5163
160.2715,80.5163
160.2140,80.8056
160.2140,80.8056
160.1947,81.1000
153.3137,81.1000
153.2791,80.9708
153.2791,80.9708
153.1867,80.7726
153.1867,80.7726
153.1431,80.7104
153.1431,80.7104
152.4536,81.4000
152.4500,81.4000
152.4500,81.3539
152.4261,81.2649
152.3801,81.1851
152.3149,81.1199
152.2351,81.0739
152.1461,81.0500
152.0539,81.0500
151.9649,81.0739
151.8851,81.1199
151.8199,81.1851
151.7739,81.2649
151.7500,81.3539
151.7004,81.3539
151.0569,80.7104
151.0133,80.7726
150.9209,80.9708
150.9209,80.9708
150.8643,81.1821
150.8643,81.1821
150.8452,81.4000
138.3005,81.4000
138.3005,78.3421
140.1370,78.3421
140.1370,80.1379
140.1370,80.1379
140.1434,80.1975
140.1937,80.3323
140.1937,80.3323
140.2800,80.4475
140.2800,80.4475
140.3952,80.5338
140.3952,80.5338
140.5300,80.5841
140.5300,80.5841
140.5369,80.5848
140.5896,80.5905
142.3854,80.5905
142.4450,80.5841
142.5798,80.5338
142.6950,80.4475
142.7629,80.3569
151.4104,80.3569
152.1000,81.0464
152.1000,81.0464
152.7896,80.3569
152.7274,80.3133
152.5292,80.2209
152.5291,80.2209
152.3179,80.1643
152.3179,80.1643
152.1000,80.1452
152.1000,80.1452
151.8821,80.1643
151.8821,80.1643
151.6708,80.2209
151.6708,80.2209
151.4726,80.3133
151.4104,80.3569
142.7629,80.3569
142.7813,80.3323
142.8316,80.1975
142.8380,80.1379
142.8380,78.9931
151.2604,78.9931
151.3226,79.0367
151.5208,79.1291
151.5208,79.1291
151.7321,79.1857
151.7321,79.1857
151.9500,79.2048
151.9500,79.2048
152.1679,79.1857
152.1679,79.1857
152.3791,79.1291
152.3792,79.1291
152.5774,79.0367
152.5774,79.0367
152.6396,78.9931
151.9500,78.3036
151.9500,78.3036
151.2604,78.9931
142.8380,78.9931
142.8380,78.3421
142.8316,78.2825
142.7888,78.1679
142.7813,78.1477
142.7813,78.1477
142.6950,78.0325
142.6950,78.0325
142.5849,77.9500
150.6952,77.9500
150.6952,77.9500
150.7143,78.1679
150.7143,78.1679
150.7709,78.3791
150.7709,78.3792
150.8633,78.5774
150.9069,78.6396
151.5964,77.9500
151.5504,77.9039
151.6000,77.9039
151.6000,77.9961
151.6239,78.0851
151.6699,78.1649
151.7351,78.2301
151.8149,78.2761
151.9039,78.3000
151.9961,78.3000
152.0851,78.2761
152.1649,78.2301
152.2301,78.1649
152.2761,78.0851
152.3000,77.9961
152.3000,77.9500
152.3036,77.9500
152.3036,77.9500
152.9931,78.6396
153.0367,78.5774
153.0367,78.5774
153.1291,78.3792
153.1291,78.3791
153.1857,78.1679
153.1857,78.1679
153.2048,77.9500
153.2048,77.9500
153.1857,77.7321
153.1857,77.7321
153.1664,77.6600
156.7552,77.6600
156.7745,77.9543
156.7745,77.9543
156.8320,78.2436
156.8320,78.2436
156.9268,78.5229
157.0573,78.7874
157.0573,78.7874
157.2211,79.0326
157.2504,79.0660
158.3324,77.9840
158.3454,78.0153
158.4274,78.1381
158.5319,78.2426
158.6547,78.3246
158.6860,78.3376
157.6040,79.4196
157.6373,79.4489
157.8826,79.6127
157.8826,79.6127
158.1471,79.7432
158.4264,79.8380
158.4264,79.8380
158.7157,79.8955
158.7157,79.8955
159.0100,79.9148
159.3043,79.8955
159.3043,79.8955
159.5936,79.8380
159.5936,79.8380
159.8729,79.7432
160.1374,79.6127
160.1374,79.6127
160.3826,79.4489
160.4160,79.4196
159.3340,78.3376
159.3653,78.3246
159.4881,78.2426
159.5926,78.1381
159.6746,78.0153
159.6876,77.9840
160.7696,79.0660
160.7989,79.0326
160.9627,78.7874
160.9627,78.7874
161.0932,78.5229
161.1880,78.2436
161.1880,78.2436
161.2455,77.9543
161.2455,77.9543
161.2648,77.6600
163.6352,77.6600
163.6545,77.9543
163.6545,77.9543
163.7120,78.2436
163.7120,78.2436
163.8068,78.5229
163.9373,78.7874
163.9373,78.7874
164.1011,79.0326
164.1304,79.0660
165.2124,77.9840
165.2254,78.0153
165.3074,78.1381
165.4119,78.2426
165.5347,78.3246
165.5660,78.3376
164.4840,79.4196
164.5173,79.4489
164.7626,79.6127
164.7626,79.6127
165.0271,79.7432
165.3064,79.8380
165.3064,79.8380
165.5957,79.8955
165.5957,79.8955
165.8900,79.9148
166.1843,79.8955
166.1843,79.8955
166.4736,79.8380
166.4736,79.8380
166.5321,79.8181
172.9604,79.8181
173.0226,79.8617
173.2208,79.9541
173.2208,79.9541
173.4321,80.0107
173.4321,80.0107
173.6500,80.0298
173.6500,80.0298
173.8679,80.0107
173.8679,80.0107
174.0791,79.9541
174.0792,79.9541
174.2774,79.8617
174.2774,79.8617
174.3396,79.8181
173.6500,79.1286
173.6500,79.1286
172.9604,79.8181
166.5321,79.8181
166.7529,79.7432
167.0174,79.6127
167.0174,79.6127
167.2626,79.4489
167.2960,79.4196
166.2140,78.3376
166.2453,78.3246
166.3681,78.2426
166.4726,78.1381
166.5546,78.0153
166.5676,77.9840
167.6496,79.0660
167.6789,79.0326
167.8427,78.7874
167.8427,78.7874
167.8489,78.7750
172.3952,78.7750
172.3952,78.7750
172.4143,78.9929
172.4143,78.9929
172.4709,79.2041
172.4709,79.2042
172.5633,79.4024
172.6069,79.4646
173.2964,78.7750
173.2504,78.7289
173.3000,78.7289
173.3000,78.8211
173.3239,78.9101
173.3699,78.9899
173.4351,79.0551
173.5149,79.1011
173.6039,79.1250
173.6961,79.1250
173.7851,79.1011
173.8649,79.0551
173.9301,78.9899
173.9761,78.9101
174.0000,78.8211
174.0000,78.7750
174.0036,78.7750
174.0036,78.7750
174.6931,79.4646
174.7367,79.4024
174.7367,79.4024
174.8291,79.2042
174.8291,79.2041
174.8857,78.9929
174.8857,78.9929
174.9048,78.7750
174.9048,78.7750
174.8857,78.5571
174.8857,78.5571
174.8291,78.3458
174.8291,78.3458
174.7367,78.1476
174.7367,78.1476
174.6931,78.0854
174.6931,78.0854
174.0036,78.7750
174.0000,78.7750
174.0000,78.7289
173.9761,78.6399
173.9301,78.5601
173.8649,78.4949
173.7851,78.4489
173.6961,78.4250
173.6039,78.4250
173.5149,78.4489
173.4351,78.4949
173.3699,78.5601
173.3239,78.6399
173.3000,78.7289
173.2504,78.7289
172.6069,78.0854
172.5633,78.1476
172.4709,78.3458
172.4709,78.3458
172.4143,78.5571
172.4143,78.5571
172.3952,78.7750
167.8489,78.7750
167.9732,78.5229
168.0680,78.2436
168.0680,78.2436
168.1255,77.9543
168.1255,77.9543
168.1401,77.7319
172.9604,77.7319
173.6500,78.4214
173.6500,78.4214
174.0927,77.9787
182.1495,77.9787
182.1495,78.2213
182.1812,78.4618
182.2439,78.6961
182.3368,78.9202
182.3368,78.9202
182.3375,78.9215
182.4581,79.1303
182.4581,79.1303
182.4581,79.1303
182.6057,79.3227
182.6057,79.3227
182.7773,79.4943
182.7773,79.4943
182.8903,79.5810
182.9697,79.6419
183.1798,79.7632
183.4039,79.8561
183.6382,79.9188
183.8186,79.9426
183.8787,79.9505
183.8787,79.9505
184.1213,79.9505
184.1694,79.9442
184.3618,79.9188
184.5961,79.8561
184.8202,79.7632
185.0303,79.6419
185.2227,79.4943
185.3943,79.3227
185.5419,79.1303
185.6632,78.9202
185.7561,78.6961
185.8188,78.4618
185.8505,78.2213
185.8505,77.9787
185.8188,77.7382
185.7561,77.5039
185.6632,77.2798
185.5419,77.0697
185.3943,76.8773
185.3943,76.8773
185.2227,76.7057
185.2227,76.7057
185.0303,76.5581
185.0303,76.5581
185.0303,76.5581
184.8202,76.4368
184.8202,76.4368
184.5961,76.3439
184.3849,76.2873
184.3618,76.2812
184.3618,76.2812
184.3618,76.2812
184.1213,76.2495
184.1213,76.2495
183.8787,76.2495
183.8787,76.2495
183.6382,76.2812
183.4039,76.3439
183.1798,76.4368
183.1798,76.4368
182.9697,76.5581
182.7773,76.7057
182.7773,76.7057
182.6057,76.8773
182.6057,76.8773
182.4581,77.0697
182.4581,77.0697
182.4581,77.0697
182.4536,77.0774
182.3368,77.2798
182.3368,77.2798
182.2439,77.5039
182.1812,77.7382
182.1495,77.9787
174.0927,77.9787
174.3396,77.7319
174.2774,77.6883
174.0792,77.5959
174.0791,77.5959
173.8679,77.5393
173.8679,77.5393
173.6500,77.5202
173.6500,77.5202
173.4321,77.5393
173.4321,77.5393
173.2208,77.5959
173.2208,77.5959
173.0226,77.6883
172.9604,77.7319
168.1401,77.7319
168.1448,77.6600
168.1255,77.3657
168.1255,77.3657
168.0680,77.0764
168.0680,77.0764
167.9732,76.7971
167.8427,76.5326
167.8427,76.5326
167.6789,76.2874
167.6496,76.2540
166.5676,77.3360
166.5546,77.3047
166.4726,77.1819
166.3681,77.0774
166.2453,76.9954
166.2140,76.9824
167.2960,75.9004
167.2626,75.8711
167.0174,75.7073
167.0174,75.7073
166.7529,75.5768
166.4736,75.4820
166.4736,75.4820
166.1843,75.4245
166.1843,75.4245
165.8900,75.4052
165.5957,75.4245
165.5957,75.4245
165.3064,75.4820
165.3064,75.4820
165.0271,75.5768
164.7626,75.7073
164.7626,75.7073
164.5173,75.8711
164.5173,75.8711
164.4840,75.9004
164.4840,75.9004
165.5660,76.9824
165.5347,76.9954
165.4119,77.0774
165.3074,77.1819
165.2254,77.3047
165.2124,77.3360
164.1304,76.2540
164.1304,76.2540
164.1011,76.2873
164.1011,76.2873
163.9373,76.5326
163.9373,76.5326
163.8068,76.7971
163.7120,77.0764
163.7120,77.0764
163.6545,77.3657
163.6545,77.3657
163.6352,77.6600
161.2648,77.6600
161.2455,77.3657
161.2455,77.3657
161.1880,77.0764
161.1880,77.0764
161.0932,76.7971
160.9627,76.5326
160.9627,76.5326
160.7989,76.2874
160.7696,76.2540
159.6876,77.3360
159.6746,77.3047
159.5926,77.1819
159.4881,77.0774
159.3653,76.9954
159.3340,76.9824
160.4160,75.9004
160.3826,75.8711
160.1374,75.7073
160.1374,75.7073
159.8729,75.5768
159.5936,75.4820
159.5936,75.4820
159.3043,75.4245
159.3043,75.4245
159.0100,75.4052
158.7157,75.4245
158.7157,75.4245
158.4264,75.4820
158.4264,75.4820
158.1471,75.5768
157.8826,75.7073
157.8826,75.7073
157.6373,75.8711
157.6373,75.8711
157.6040,75.9004
157.6040,75.9004
158.6860,76.9824
158.6547,76.9954
158.5319,77.0774
158.4274,77.1819
158.3454,77.3047
158.3324,77.3360
157.2504,76.2540
157.2504,76.2540
157.2211,76.2873
157.2211,76.2873
157.0573,76.5326
157.0573,76.5326
156.9268,76.7971
156.8320,77.0764
156.8320,77.0764
156.7745,77.3657
156.7745,77.3657
156.7552,77.6600
153.1664,77.6600
153.1291,77.5208
153.1291,77.5208
153.0367,77.3226
153.0367,77.3226
152.9931,77.2604
152.9931,77.2604
152.3036,77.9500
152.3000,77.9500
152.3000,77.9039
152.2761,77.8149
152.2301,77.7351
152.1649,77.6699
152.0851,77.6239
151.9961,77.6000
151.9039,77.6000
151.8149,77.6239
151.7351,77.6699
151.6699,77.7351
151.6239,77.8149
151.6000,77.9039
151.5504,77.9039
150.9069,77.2604
150.8633,77.3226
150.7709,77.5208
150.7709,77.5208
150.7143,77.7321
150.7143,77.7321
150.6952,77.9500
142.5849,77.9500
142.5798,77.9462
142.5798,77.9462
142.4479,77.8970
142.3920,77.8551
142.3675,77.7897
142.3824,77.7214
142.4036,77.6931
142.5256,77.5711
142.6611,77.3776
142.7609,77.1635
142.7609,77.1635
142.8181,76.9500
141.9205,76.9500
141.9454,76.9069
151.2604,76.9069
151.9500,77.5964
151.9500,77.5964
152.6396,76.9069
152.5774,76.8633
152.3792,76.7709
152.3791,76.7709
152.1679,76.7143
152.1679,76.7143
151.9500,76.6952
151.9500,76.6952
151.7321,76.7143
151.7321,76.7143
151.5208,76.7709
151.5208,76.7709
151.3226,76.8633
151.2604,76.9069
141.9454,76.9069
141.9534,76.8930
141.9875,76.7658
141.9875,76.6342
141.9534,76.5070
141.9205,76.4500
142.8181,76.4500
142.8181,76.4500
142.7609,76.2365
142.7609,76.2365
142.6611,76.0224
142.6611,76.0224
142.5256,75.8289
142.5256,75.8289
142.3586,75.6619
142.1651,75.5264
141.9510,75.4266
141.9510,75.4266
141.7375,75.3694
141.7375,76.2670
141.6805,76.2341
141.5533,76.2000
141.4217,76.2000
141.2945,76.2341
141.2375,76.2670
141.2375,75.3694
141.2375,75.3694
141.0240,75.4266
141.0240,75.4266
140.8099,75.5264
140.8099,75.5264
140.6164,75.6619
140.6164,75.6619
140.4494,75.8289
140.4494,75.8289
140.3139,76.0224
140.3139,76.0224
140.2141,76.2365
140.2141,76.2365
140.1569,76.4500
140.1569,76.4500
141.0545,76.4500
141.0216,76.5070
140.9875,76.6342
140.9875,76.7658
141.0216,76.8930
141.0545,76.9500
140.1569,76.9500
140.2141,77.1635
140.2141,77.1635
140.3139,77.3776
140.4494,77.5711
140.5714,77.6931
140.6049,77.7545
140.5999,77.8241
140.5581,77.8801
140.5271,77.8970
140.3952,77.9462
140.3952,77.9462
140.2800,78.0325
140.2800,78.0325
140.1937,78.1477
140.1937,78.1477
140.1434,78.2825
140.1415,78.3000
140.1370,78.3421
140.1370,78.3421
138.3005,78.3421
138.3005,74.9245
138.3202,74.8575
138.3730,74.8117
138.4245,74.8005
187.1755,74.8005
Z" /> 
</g>
<g style="fill:#000000; fill-opacity:1.0000; stroke:none;">
<circle cx="151.9500" cy="77.9500" r="0.1750" /> 
</g>
<g style="fill:#000000; fill-opacity:1.0000; stroke:none;">
<circle cx="152.1000" cy="81.4000" r="0.1750" /> 
</g>
<g style="fill:#000000; fill-opacity:1.0000; stroke:none;">
<circle cx="183.8000" cy="105.5000" r="0.1750" /> 
</g>
<g style="fill:#000000; fill-opacity:1.0000; stroke:none;">
<circle cx="142.2000" cy="92.2000" r="0.1750" /> 
</g>
<g style="fill:#000000; fill-opacity:1.0000; stroke:none;">
<circle cx="151.8500" cy="93.4000" r="0.1750" /> 
</g>
<g style="fill:#000000; fill-opacity:1.0000; stroke:none;">
<circle cx="141.6000" cy="105.3000" r="0.1750" /> 
</g>
<g style="fill:#000000; fill-opacity:1.0000; stroke:none;">
<circle cx="157.3000" cy="88.1000" r="0.1750" /> 
</g>
<g style="fill:#000000; fill-opacity:1.0000; stroke:none;">
<circle cx="165.9000" cy="105.2250" r="0.1750" /> 
</g>
<g style="fill:#000000; fill-opacity:1.0000; stroke:none;">
<circle cx="173.6500" cy="78.7750" r="0.1750" /> 
</g>
<g style="fill:#000000; fill-opacity:1.0000; stroke:none;">
<circle cx="184.0000" cy="78.1000" r="0.1750" /> 
</g>
<g style="fill:#000000; fill-opacity:1.0000; stroke:none;">
<circle cx="168.6250" cy="102.3250" r="0.1750" /> 
</g>
<g style="fill:#000000; fill-opacity:1.0000; stroke:none;">
<circle cx="176.8500" cy="101.9500" r="0.1750" /> 
</g>
<g style="fill:#000000; fill-opacity:1.0000; stroke:none;">
<circle cx="172.2000" cy="88.7500" r="0.1750" /> 
</g>
<g style="fill:#000000; fill-opacity:1.0000; stroke:none;">
<circle cx="145.2000" cy="89.1000" r="0.1750" /> 
</g>
<g style="fill:#000000; fill-opacity:1.0000; stroke:none;">
<circle cx="142.7000" cy="89.1000" r="0.1750" /> 
</g>
<g style="fill:#000000; fill-opacity:1.0000; stroke:none;">
<circle cx="140.2875" cy="95.5000" r="0.1750" /> 
</g>
<g style="fill:#000000; fill-opacity:1.0000; stroke:none;">
<circle cx="142.8275" cy="95.5000" r="0.1750" /> 
</g>
<g style="fill:#000000; fill-opacity:1.0000; stroke:none;">
<circle cx="150.5750" cy="90.5250" r="0.1750" /> 
</g>
<g style="fill:#000000; fill-opacity:1.0000; stroke:none;">
<circle cx="148.0750" cy="90.5250" r="0.1750" /> 
</g>
<g style="fill:#000000; fill-opacity:1.0000; stroke:none;">
<circle cx="176.1500" cy="82.6000" r="0.1750" /> 
</g>
<g style="fill:#000000; fill-opacity:1.0000; stroke:none;">
<circle cx="173.6100" cy="82.6000" r="0.1750" /> 
</g>
<g style="fill:#000000; fill-opacity:1.0000; stroke:none;">
<circle cx="171.0700" cy="82.6000" r="0.1750" /> 
</g>
<g style="fill:#000000; fill-opacity:1.0000; stroke:none;">
<circle cx="150.8000" cy="102.7500" r="0.1750" /> 
</g>
<g style="fill:#000000; fill-opacity:1.0000; stroke:none;">
<circle cx="154.2400" cy="106.1900" r="0.1750" /> 
</g>
<g style="fill:#000000; fill-opacity:1.0000; stroke:none;">
<circle cx="154.2400" cy="99.3100" r="0.1750" /> 
</g>
<g style="fill:#000000; fill-opacity:1.0000; stroke:none;">
<circle cx="147.3600" cy="106.1900" r="0.1750" /> 
</g>
<g style="fill:#000000; fill-opacity:1.0000; stroke:none;">
<circle cx="147.3600" cy="99.3100" r="0.1750" /> 
</g>
<g style="fill:#000000; fill-opacity:1.0000; stroke:none;">
<circle cx="181.2000" cy="93.6500" r="0.1750" /> 
</g>
<g style="fill:#000000; fill-opacity:1.0000; stroke:none;">
<circle cx="184.6400" cy="97.0900" r="0.1750" /> 
</g>
<g style="fill:#000000; fill-opacity:1.0000; stroke:none;">
<circle cx="184.6400" cy="90.2100" r="0.1750" /> 
</g>
<g style="fill:#000000; fill-opacity:1.0000; stroke:none;">
<circle cx="177.7600" cy="97.0900" r="0.1750" /> 
</g>
<g style="fill:#000000; fill-opacity:1.0000; stroke:none;">
<circle cx="177.7600" cy="90.2100" r="0.1750" /> 
</g>
<g style="fill:#000000; fill-opacity:1.0000; stroke:none;">
<circle cx="171.4500" cy="93.7000" r="0.1750" /> 
</g>
<g style="fill:#000000; fill-opacity:1.0000; stroke:none;">
<circle cx="173.9500" cy="93.7000" r="0.1750" /> 
</g>
<g style="fill:#000000; fill-opacity:1.0000; stroke:none;">
<circle cx="167.1949" cy="88.7500" r="0.1750" /> 
</g>
<g style="fill:#000000; fill-opacity:1.0000; stroke:none;">
<circle cx="169.6949" cy="88.7500" r="0.1750" /> 
</g>
<g style="fill:#000000; fill-opacity:1.0000; stroke:none;">
<circle cx="162.4500" cy="81.1000" r="0.1750" /> 
</g>
<g style="fill:#000000; fill-opacity:1.0000; stroke:none;">
<circle cx="165.8900" cy="84.5400" r="0.1750" /> 
</g>
<g style="fill:#000000; fill-opacity:1.0000; stroke:none;">
<circle cx="165.8900" cy="77.6600" r="0.1750" /> 
</g>
<g style="fill:#000000; fill-opacity:1.0000; stroke:none;">
<circle cx="159.0100" cy="84.5400" r="0.1750" /> 
</g>
<g style="fill:#000000; fill-opacity:1.0000; stroke:none;">
<circle cx="159.0100" cy="77.6600" r="0.1750" /> 
</g>
<g style="fill:#000000; fill-opacity:1.0000; stroke:none;">
<circle cx="154.6000" cy="95.3500" r="0.1750" /> 
</g>
<g style="fill:#000000; fill-opacity:1.0000; stroke:none;">
<circle cx="154.6000" cy="92.8500" r="0.1750" /> 
</g>
<g style="fill:#000000; fill-opacity:1.0000; stroke:none;">
<circle cx="141.4875" cy="79.2400" r="0.1750" /> 
</g>
<g style="fill:#000000; fill-opacity:1.0000; stroke:none;">
<circle cx="141.4875" cy="76.7000" r="0.1750" /> 
</g> 
</svg>
