<?xml version="1.0" standalone="no"?>
 <!DOCTYPE svg PUBLIC "-//W3C//DTD SVG 1.1//EN" 
 "http://www.w3.org/Graphics/SVG/1.1/DTD/svg11.dtd"> 
<svg
  xmlns:svg="http://www.w3.org/2000/svg"
  xmlns="http://www.w3.org/2000/svg"
  xmlns:xlink="http://www.w3.org/1999/xlink"
  version="1.1"
  width="297.0022mm" height="210.0072mm" viewBox="0.0000 0.0000 297.0022 210.0072">
<title>SVG Image created as modulador_sicom-B_Mask.svg date 2024/08/24 16:03:11 </title>
  <desc>Image generated by PCBNEW </desc>
<g style="fill:#000000; fill-opacity:1.0000;stroke:#000000; stroke-opacity:1.0000;
stroke-linecap:round; stroke-linejoin:round;"
 transform="translate(0 0) scale(1 1)">
</g>
<g style="fill:none; 
stroke:#000000; stroke-width:0.3000; stroke-opacity:1; 
stroke-linecap:round; stroke-linejoin:round;">
<text x="203.4750" y="90.2500"
transform="scale(-1 1) translate(-406.950000 0)"
textLength="15.1714" font-size="2.0000" lengthAdjust="spacingAndGlyphs"
text-anchor="start" opacity="0" stroke-opacity="0">MOD BOTTOM</text>
<g class="stroked-text"><desc>MOD BOTTOM</desc>
<path d="M202.9205 90.0508
L202.9205 88.5508
" />
<path d="M202.9205 88.5508
L202.4205 89.6223
" />
<path d="M202.4205 89.6223
L201.9205 88.5508
" />
<path d="M201.9205 88.5508
L201.9205 90.0508
" />
<path d="M200.9205 88.5508
L200.6348 88.5508
" />
<path d="M200.6348 88.5508
L200.4919 88.6223
" />
<path d="M200.4919 88.6223
L200.3491 88.7651
" />
<path d="M200.3491 88.7651
L200.2776 89.0508
" />
<path d="M200.2776 89.0508
L200.2776 89.5508
" />
<path d="M200.2776 89.5508
L200.3491 89.8365
" />
<path d="M200.3491 89.8365
L200.4919 89.9794
" />
<path d="M200.4919 89.9794
L200.6348 90.0508
" />
<path d="M200.6348 90.0508
L200.9205 90.0508
" />
<path d="M200.9205 90.0508
L201.0633 89.9794
" />
<path d="M201.0633 89.9794
L201.2062 89.8365
" />
<path d="M201.2062 89.8365
L201.2776 89.5508
" />
<path d="M201.2776 89.5508
L201.2776 89.0508
" />
<path d="M201.2776 89.0508
L201.2062 88.7651
" />
<path d="M201.2062 88.7651
L201.0633 88.6223
" />
<path d="M201.0633 88.6223
L200.9205 88.5508
" />
<path d="M199.6348 90.0508
L199.6348 88.5508
" />
<path d="M199.6348 88.5508
L199.2776 88.5508
" />
<path d="M199.2776 88.5508
L199.0633 88.6223
" />
<path d="M199.0633 88.6223
L198.9205 88.7651
" />
<path d="M198.9205 88.7651
L198.8491 88.9080
" />
<path d="M198.8491 88.9080
L198.7776 89.1937
" />
<path d="M198.7776 89.1937
L198.7776 89.4080
" />
<path d="M198.7776 89.4080
L198.8491 89.6937
" />
<path d="M198.8491 89.6937
L198.9205 89.8365
" />
<path d="M198.9205 89.8365
L199.0633 89.9794
" />
<path d="M199.0633 89.9794
L199.2776 90.0508
" />
<path d="M199.2776 90.0508
L199.6348 90.0508
" />
<path d="M196.4919 89.2651
L196.2776 89.3365
" />
<path d="M196.2776 89.3365
L196.2062 89.4080
" />
<path d="M196.2062 89.4080
L196.1348 89.5508
" />
<path d="M196.1348 89.5508
L196.1348 89.7651
" />
<path d="M196.1348 89.7651
L196.2062 89.9080
" />
<path d="M196.2062 89.9080
L196.2776 89.9794
" />
<path d="M196.2776 89.9794
L196.4205 90.0508
" />
<path d="M196.4205 90.0508
L196.9919 90.0508
" />
<path d="M196.9919 90.0508
L196.9919 88.5508
" />
<path d="M196.9919 88.5508
L196.4919 88.5508
" />
<path d="M196.4919 88.5508
L196.3491 88.6223
" />
<path d="M196.3491 88.6223
L196.2776 88.6937
" />
<path d="M196.2776 88.6937
L196.2062 88.8365
" />
<path d="M196.2062 88.8365
L196.2062 88.9794
" />
<path d="M196.2062 88.9794
L196.2776 89.1223
" />
<path d="M196.2776 89.1223
L196.3491 89.1937
" />
<path d="M196.3491 89.1937
L196.4919 89.2651
" />
<path d="M196.4919 89.2651
L196.9919 89.2651
" />
<path d="M195.2062 88.5508
L194.9205 88.5508
" />
<path d="M194.9205 88.5508
L194.7776 88.6223
" />
<path d="M194.7776 88.6223
L194.6348 88.7651
" />
<path d="M194.6348 88.7651
L194.5633 89.0508
" />
<path d="M194.5633 89.0508
L194.5633 89.5508
" />
<path d="M194.5633 89.5508
L194.6348 89.8365
" />
<path d="M194.6348 89.8365
L194.7776 89.9794
" />
<path d="M194.7776 89.9794
L194.9205 90.0508
" />
<path d="M194.9205 90.0508
L195.2062 90.0508
" />
<path d="M195.2062 90.0508
L195.3491 89.9794
" />
<path d="M195.3491 89.9794
L195.4919 89.8365
" />
<path d="M195.4919 89.8365
L195.5633 89.5508
" />
<path d="M195.5633 89.5508
L195.5633 89.0508
" />
<path d="M195.5633 89.0508
L195.4919 88.7651
" />
<path d="M195.4919 88.7651
L195.3491 88.6223
" />
<path d="M195.3491 88.6223
L195.2062 88.5508
" />
<path d="M194.1348 88.5508
L193.2776 88.5508
" />
<path d="M193.7062 90.0508
L193.7062 88.5508
" />
<path d="M192.9919 88.5508
L192.1348 88.5508
" />
<path d="M192.5633 90.0508
L192.5633 88.5508
" />
<path d="M191.3491 88.5508
L191.0633 88.5508
" />
<path d="M191.0633 88.5508
L190.9205 88.6223
" />
<path d="M190.9205 88.6223
L190.7776 88.7651
" />
<path d="M190.7776 88.7651
L190.7062 89.0508
" />
<path d="M190.7062 89.0508
L190.7062 89.5508
" />
<path d="M190.7062 89.5508
L190.7776 89.8365
" />
<path d="M190.7776 89.8365
L190.9205 89.9794
" />
<path d="M190.9205 89.9794
L191.0633 90.0508
" />
<path d="M191.0633 90.0508
L191.3491 90.0508
" />
<path d="M191.3491 90.0508
L191.4919 89.9794
" />
<path d="M191.4919 89.9794
L191.6348 89.8365
" />
<path d="M191.6348 89.8365
L191.7062 89.5508
" />
<path d="M191.7062 89.5508
L191.7062 89.0508
" />
<path d="M191.7062 89.0508
L191.6348 88.7651
" />
<path d="M191.6348 88.7651
L191.4919 88.6223
" />
<path d="M191.4919 88.6223
L191.3491 88.5508
" />
<path d="M190.0633 90.0508
L190.0633 88.5508
" />
<path d="M190.0633 88.5508
L189.5633 89.6223
" />
<path d="M189.5633 89.6223
L189.0633 88.5508
" />
<path d="M189.0633 88.5508
L189.0633 90.0508
" />
</g></g>
<g style="fill:#000000; fill-opacity:1.0000; stroke:none;">
<circle cx="151.9500" cy="77.9500" r="0.7500" /> 
</g>
<g style="fill:#000000; fill-opacity:1.0000; stroke:none;">
<circle cx="152.1000" cy="81.4000" r="0.7500" /> 
</g>
<g style="fill:#000000; fill-opacity:1.0000; stroke:none;">
<circle cx="183.8000" cy="105.5000" r="1.6000" /> 
</g>
<g style="fill:#000000; fill-opacity:1.0000; stroke:none;">
<circle cx="142.2000" cy="92.2000" r="0.7500" /> 
</g>
<g style="fill:#000000; fill-opacity:1.0000; stroke:none;">
<circle cx="151.8500" cy="93.4000" r="0.7500" /> 
</g>
<g style="fill:#000000; fill-opacity:1.0000; stroke:none;">
<circle cx="141.6000" cy="105.3000" r="1.6000" /> 
</g>
<g style="fill:#000000; fill-opacity:1.0000; stroke:none;">
<circle cx="157.3000" cy="88.1000" r="0.7500" /> 
</g>
<g style="fill:#000000; fill-opacity:1.0000; stroke:none;">
<circle cx="165.9000" cy="105.2250" r="0.7500" /> 
</g>
<g style="fill:#000000; fill-opacity:1.0000; stroke:none;">
<circle cx="173.6500" cy="78.7750" r="0.7500" /> 
</g>
<g style="fill:#000000; fill-opacity:1.0000; stroke:none;">
<circle cx="184.0000" cy="78.1000" r="1.6000" /> 
</g>
<g style="fill:#000000; fill-opacity:1.0000; stroke:none;">
<circle cx="168.6250" cy="102.3250" r="0.7500" /> 
</g>
<g style="fill:#000000; fill-opacity:1.0000; stroke:none;">
<circle cx="176.8500" cy="101.9500" r="0.7500" /> 
</g>
<g style="fill:#000000; fill-opacity:1.0000; stroke:none;">
<circle cx="172.2000" cy="88.7500" r="0.7500" /> 
<path style="fill:#000000; fill-opacity:1.0000; stroke:none;fill-rule:evenodd;"
d="M 146.0000,88.3000
146.0000,89.9000
144.4000,89.9000
144.4000,88.3000
Z" /> 
</g>
<g style="fill:#000000; fill-opacity:1.0000; stroke:none;">
<circle cx="142.7000" cy="89.1000" r="0.8000" /> 
<path style="fill:#000000; fill-opacity:1.0000; stroke:none;fill-rule:evenodd;"
d="M 139.3875,96.4000
139.3875,94.6000
141.1875,94.6000
141.1875,96.4000
Z" /> 
</g>
<g style="fill:#000000; fill-opacity:1.0000; stroke:none;">
<circle cx="142.8275" cy="95.5000" r="0.9000" /> 
<path style="fill:#000000; fill-opacity:1.0000; stroke:none;fill-rule:evenodd;"
d="M 151.3750,89.7250
151.3750,91.3250
149.7750,91.3250
149.7750,89.7250
Z" /> 
</g>
<g style="fill:#000000; fill-opacity:1.0000; stroke:none;">
<circle cx="148.0750" cy="90.5250" r="0.8000" /> 
</g>
<g style="fill:#000000; fill-opacity:1.0000; stroke:none;">
<circle cx="176.1500" cy="82.6000" r="0.7200" /> 
</g>
<g style="fill:#000000; fill-opacity:1.0000; stroke:none;">
<circle cx="173.6100" cy="82.6000" r="0.7200" /> 
</g>
<g style="fill:#000000; fill-opacity:1.0000; stroke:none;">
<circle cx="171.0700" cy="82.6000" r="0.7200" /> 
</g>
<g style="fill:#000000; fill-opacity:1.0000; stroke:none;">
<circle cx="150.8000" cy="102.7500" r="1.7500" /> 
</g>
<g style="fill:#000000; fill-opacity:1.0000; stroke:none;">
<circle cx="154.2400" cy="106.1900" r="1.7500" /> 
</g>
<g style="fill:#000000; fill-opacity:1.0000; stroke:none;">
<circle cx="154.2400" cy="99.3100" r="1.7500" /> 
</g>
<g style="fill:#000000; fill-opacity:1.0000; stroke:none;">
<circle cx="147.3600" cy="106.1900" r="1.7500" /> 
</g>
<g style="fill:#000000; fill-opacity:1.0000; stroke:none;">
<circle cx="147.3600" cy="99.3100" r="1.7500" /> 
</g>
<g style="fill:#000000; fill-opacity:1.0000; stroke:none;">
<circle cx="181.2000" cy="93.6500" r="1.7500" /> 
</g>
<g style="fill:#000000; fill-opacity:1.0000; stroke:none;">
<circle cx="184.6400" cy="97.0900" r="1.7500" /> 
</g>
<g style="fill:#000000; fill-opacity:1.0000; stroke:none;">
<circle cx="184.6400" cy="90.2100" r="1.7500" /> 
</g>
<g style="fill:#000000; fill-opacity:1.0000; stroke:none;">
<circle cx="177.7600" cy="97.0900" r="1.7500" /> 
</g>
<g style="fill:#000000; fill-opacity:1.0000; stroke:none;">
<circle cx="177.7600" cy="90.2100" r="1.7500" /> 
<path style="fill:#000000; fill-opacity:1.0000; stroke:none;fill-rule:evenodd;"
d="M 170.6500,94.5000
170.6500,92.9000
172.2500,92.9000
172.2500,94.5000
Z" /> 
</g>
<g style="fill:#000000; fill-opacity:1.0000; stroke:none;">
<circle cx="173.9500" cy="93.7000" r="0.8000" /> 
<path style="fill:#000000; fill-opacity:1.0000; stroke:none;fill-rule:evenodd;"
d="M 166.3949,89.5500
166.3949,87.9500
167.9949,87.9500
167.9949,89.5500
Z" /> 
</g>
<g style="fill:#000000; fill-opacity:1.0000; stroke:none;">
<circle cx="169.6949" cy="88.7500" r="0.8000" /> 
</g>
<g style="fill:#000000; fill-opacity:1.0000; stroke:none;">
<circle cx="162.4500" cy="81.1000" r="1.7500" /> 
</g>
<g style="fill:#000000; fill-opacity:1.0000; stroke:none;">
<circle cx="165.8900" cy="84.5400" r="1.7500" /> 
</g>
<g style="fill:#000000; fill-opacity:1.0000; stroke:none;">
<circle cx="165.8900" cy="77.6600" r="1.7500" /> 
</g>
<g style="fill:#000000; fill-opacity:1.0000; stroke:none;">
<circle cx="159.0100" cy="84.5400" r="1.7500" /> 
</g>
<g style="fill:#000000; fill-opacity:1.0000; stroke:none;">
<circle cx="159.0100" cy="77.6600" r="1.7500" /> 
<path style="fill:#000000; fill-opacity:1.0000; stroke:none;fill-rule:evenodd;"
d="M 155.4000,96.1500
153.8000,96.1500
153.8000,94.5500
155.4000,94.5500
Z" /> 
</g>
<g style="fill:#000000; fill-opacity:1.0000; stroke:none;">
<circle cx="154.6000" cy="92.8500" r="0.8000" /> 
<path style="fill:#000000; fill-opacity:1.0000; stroke:none;fill-rule:evenodd;"
d="M 140.6375,80.0900
140.6375,78.3900
142.3375,78.3900
142.3375,80.0900
Z" /> 
</g>
<g style="fill:#000000; fill-opacity:1.0000; stroke:none;">
<circle cx="141.4875" cy="76.7000" r="0.8500" /> 
</g> 
</svg>
